/* XPM */
static char *result[] = {
/* columns rows colors chars-per-pixel */
"35 34 3 1 ",
"  c black",
". c white",
"X c None",
/* pixels */
"..................................X",
"..................................X",
"..................................X",
" ..............     ..............X",
" ..............     ..............X",
" ..............     ..............X",
"                            ......X",
"                            ......X",
".  ...   ........   ......  ......X",
".  ...   ........   ......  ......X",
".  ...   ........   ......  ......X",
"                            ......X",
"                            ......X",
"                            ......X",
" ........   ........   ...     ...X",
" ........   ........   ...     ...X",
" ........   ........   ...     ...X",
"...         ...  .........     ...X",
"...         ...  .........     ...X",
"                            ......X",
"                            ......X",
"                            ......X",
" ........   .....   ......  ......X",
" ........   .....   ......  ......X",
" ........   .....   ......  ......X",
"                            ......X",
"                            ......X",
"                            ......X",
" .....   ........   ......  ......X",
" .....   ........   ......  ......X",
" .....   ........   ......  ......X",
"                               ...X",
"                               ...X",
"         ........   ......     ...X"
};
