/* XPM */
static char *Nw__[] = {
/* columns rows colors chars-per-pixel */
"40 40 142 2 ",
"   c #0F0C02",
".  c #0E0E0B",
"X  c #100B01",
"o  c #110F0A",
"O  c #141207",
"+  c #151209",
"@  c #19140B",
"#  c #161614",
"$  c #1A1A16",
"%  c #1C1C19",
"&  c #211700",
"*  c #221D0D",
"=  c #231F1E",
"-  c #332B00",
";  c #352808",
":  c #34330E",
">  c #24211E",
",  c #29261D",
"<  c #2A2A1E",
"1  c #322A14",
"2  c #3A3013",
"3  c #262220",
"4  c #292623",
"5  c #2C2A24",
"6  c #2F2F28",
"7  c #312D27",
"8  c #302F28",
"9  c #343221",
"0  c #383527",
"q  c #36362D",
"w  c #38372F",
"e  c #37382E",
"r  c #38382F",
"t  c #3C3C32",
"y  c #453002",
"u  c #4B3400",
"i  c #593604",
"p  c #453111",
"a  c #653E05",
"s  c #403D32",
"d  c #464300",
"f  c #454411",
"g  c #6A4003",
"h  c #744400",
"j  c #744C00",
"k  c #745100",
"l  c #7D5905",
"z  c #715208",
"x  c #656204",
"c  c #797606",
"v  c #6E6B15",
"b  c #414137",
"n  c #434339",
"m  c #48473B",
"M  c #4C4B3E",
"N  c #6C6B3E",
"B  c #4D4D41",
"V  c #4D4A49",
"C  c #514F42",
"Z  c #555446",
"A  c #585647",
"S  c #575548",
"D  c #595748",
"F  c #5D5B4C",
"G  c #575454",
"H  c #5E5B57",
"J  c #5F5C59",
"K  c #615E4E",
"L  c #615F50",
"P  c #666454",
"I  c #696656",
"U  c #626059",
"Y  c #6D6C58",
"T  c #75726C",
"R  c #767474",
"E  c #7C7B70",
"W  c #8C5900",
"Q  c #986000",
"!  c #91690A",
"~  c #AE6701",
"^  c #AC7A00",
"/  c #B47C00",
"(  c #907B3E",
")  c #C17101",
"_  c #D97F00",
"`  c #958F00",
"'  c #A98E00",
"]  c #AEAA00",
"[  c #DA8200",
"{  c #D28F00",
"}  c #D98B00",
"|  c #D69100",
" . c #D99800",
".. c #EA9100",
"X. c #EE9F00",
"o. c #FF9E00",
"O. c #C1BB00",
"+. c #F5A300",
"@. c #FFA000",
"#. c #FEAA00",
"$. c #FEB300",
"%. c #FEBA01",
"&. c #FFBB0B",
"*. c #F3B011",
"=. c #D2CC00",
"-. c #FEC200",
";. c #FFCD00",
":. c #FFD600",
">. c #FED615",
",. c #E9E100",
"<. c #FEE200",
"1. c #F4ED00",
"2. c #F8EA00",
"3. c #FFF100",
"4. c #FFEC10",
"5. c #DED92E",
"6. c #FDD62D",
"7. c #FEF125",
"8. c #FFF929",
"9. c #88865B",
"0. c #908C6C",
"q. c #858377",
"w. c #888779",
"e. c #8C8B7F",
"r. c #FEC941",
"t. c #FEDA42",
"y. c #FEEF40",
"u. c #EDE951",
"i. c #CECC72",
"p. c #D9D77F",
"a. c #F0CD63",
"s. c #FFF372",
"d. c #908E81",
"f. c #A7A887",
"g. c #AFAE91",
"h. c #D8D589",
"j. c #DADAB5",
"k. c #DBDAB5",
"l. c #FFEEA1",
"z. c #F1E9AD",
"x. c #FFF3A1",
"c. c #FFFCA2",
/* pixels */
"R J e.e.e.e.e.e.e.e.d.e.w.e.d.e.e.e.d.e.d.d.d.w.d.d.d.e.d.d.w.d.e.e.e.e.e.e.T G ",
"U s K F D M M M B M M F K F B M M M M M m B m B B m B B n D F F U F F M m M q > ",
"w.P I I L n n n n b m L I P m b n n b n n n n n b n n n b D P P P P U m 0 q e e ",
"q.F I I K n n n n n m P I L m n n n n n n n n n n n n n b F Y P P P Y B 0 e q q ",
"q.F S D Z b b n n n m Z Z Z n n n n n n b n n b n n n n n B S S G S S B t t e w ",
"q.S n n b b n n n n n n b b n n n n b n n n n n n n n n n n b b t n b n n n t q ",
"q.D n n n n n n n n n n n n n b n n n b n b b n n n n n n n n n t n n n n n t w ",
"q.D n n n n n n n n n n n n n b n t q 6 q q t b n n n n n n n n B n n n n n t w ",
"q.D b n n n n n m n n n n n n n b e % . # # 7 t b n n b n n n n t n n n n n t w ",
"q.D n n n n n n n n n n b b n b t q 4 > * & 1 0 t t n n n n n n B n n n n n t q ",
"q.D n n n n n n n n n B C B b q % e I 0.( ! z 2 3 6 b n n n n n n n n n n n t q ",
"q.D n n n n n n n n n P P K b 4 + t f.z.a.*.^ y . 4 t n n b n n n n n n n n t q ",
"q.D b b b b n n n n B U F M 6 b S 9.i.s.t.&.{ W i p 5 8 t n n b n n n n s n t w ",
"q.F B B B n n n n n n F C 5 # K g.h.u.7.>.%.X.} ~ a @ % t b n n n n n n B n t 8 ",
"q.L P I F n n n n b n n e # . Y k.c.y.<.:.$.#.o._ h   # e n n n n n B t t B w = ",
"q.F I I F b b n n n n n e # o Y k.x.t.;.%.$.#.o._ h   # e n b b n n t B s t 8 = ",
"q.F H F S n n n n n n n r # . Y k.l.r.$.$.$.#.o.[ h X # q m B B m b n n n n w = ",
"q.A b n n n n n n n n n e $ . Y k.x.r.$.$.$.#.#.} j X # q S P P C b n n n n 8 = ",
"q.A n n n n n n n n n n e $ o Y k.l.r.$.$.$.$.$.| j   # q F I P C b n n n n w = ",
"q.A n n n n n n n n n n e # . Y k.l.r.$.$.$.$.$. .k   # q Z K H B b n b n n w 3 ",
"q.A n n n n n n n n n n e # o Y k.l.r.$.$.$.$.$. .k   # q b b n n n n n n n t q ",
"w.A n n n n n n n n n n e # o Y k.l.r.$.$.$.#.$. .j   # q b b n n n n n n n t q ",
"E C M m m n n n n n n n e # o Y k.l.r.$.$.$.#.#.} j   # r n n n n n n s n n t e ",
"V 5 P P F n n n n n n n e $ . Y k.l.r.$.#.$.#.#.[ h   # e n n n n n n n n n t q ",
"V 6 I P F b n n n n n n e # o N p.s.6.-.%.$.#.o._ h X # q n b n n n n n n n t e ",
"V 5 I P F n n n n n b n e #   v 5.8.4.<.:.$.#.@._ h   # q b n b n b n n s b t q ",
"V 5 P I F n n n n n n n t % + x O.,.1.3.:.$.+...) g O % w n n b n n n t t w e q ",
"V 5 I I F b n n n n b n t 6 4 f x ` =.3.:.%.} Q a p , 7 t n n n n n n t e q q e ",
"V 6 P P F n n n n n b n n b t < + d ] 2.:.$./ u + 4 t b b n n b n n n t q e e q ",
"E Z n M m n n n n n n n n n b 6 $ : c ] ' ^ l : % 6 s n n n n n b n n t q e q q ",
"w.D n n b n b n n n n n b n n t e 9 1 - - & ; 7 e t b n n n n n b n b t q w e e ",
"q.S n n n n n n n b n n n n n n n q # . . . $ e n b n n n n n n n b n t q e e e ",
"q.D b n n n n b t w t b b n n b n t q 5 5 4 6 t n n n b n n n n b n n b b b t w ",
"q.D n n n n n b e e w b b b n n n b s t b t b b n b n n n n n n n n n n n n t w ",
"q.D n n n n n s e e w b n b n n n n n n n n n n n n n n b b n n n n n n b n t q ",
"q.D n n n n n t 4 3 4 w t t b n n b n n b n n b b n t t t s n n n n n t w w w q ",
"q.D n b n n n t 3 = = q e e s n b b n n b n b b n n t e e t n b b n b t e e e e ",
"q.D n b n n n t 3 = 3 e w e b n b b n n n n n b n n e q w t n b n n b t q e w w ",
"J 8 t t t w t q 3 3 3 4 4 4 t t e t t w t t w t t e e e e e w w t t t e q e 5 4 ",
"V % w e e e w q 3 = = = = = q e q e q e e e e w e q e w e e e e w e e q q e 5 = "
};
