/* XPM */
static char *OQ__[] = {
/* columns rows colors chars-per-pixel */
"40 40 156 2 ",
"   c #090907",
".  c #0C0C0C",
"X  c #1D1100",
"o  c #181705",
"O  c #14110C",
"+  c #0F1110",
"@  c #141513",
"#  c #191916",
"$  c #1D1E1A",
"%  c #221A00",
"&  c #261D0E",
"*  c #231F1E",
"=  c #1F201C",
"-  c #27270A",
";  c #2C250F",
":  c #332401",
">  c #392401",
",  c #332C00",
"<  c #333309",
"1  c #38370B",
"2  c #3E3D0D",
"3  c #24231E",
"4  c #2B2B1B",
"5  c #332912",
"6  c #3D2E14",
"7  c #352B18",
"8  c #35341E",
"9  c #252220",
"0  c #292623",
"q  c #2C2B25",
"w  c #2F2F28",
"e  c #302F28",
"r  c #333124",
"t  c #36352D",
"y  c #38372F",
"u  c #37382E",
"i  c #38382F",
"p  c #3C3C32",
"a  c #432801",
"s  c #4A2F07",
"d  c #473703",
"f  c #593808",
"g  c #403F1A",
"h  c #603B06",
"j  c #403E34",
"k  c #47460D",
"l  c #524F00",
"z  c #595600",
"x  c #694107",
"c  c #674C0D",
"v  c #774500",
"b  c #6F5007",
"n  c #6C6802",
"m  c #777404",
"M  c #40402F",
"N  c #414136",
"B  c #434339",
"V  c #48473A",
"C  c #4C4B3E",
"Z  c #4D4D41",
"A  c #4D4A49",
"S  c #514E4D",
"D  c #555446",
"F  c #575548",
"G  c #595748",
"H  c #5D5C4C",
"J  c #5C5957",
"K  c #615E4E",
"L  c #666454",
"P  c #696656",
"I  c #626059",
"U  c #706F5C",
"Y  c #747366",
"T  c #767474",
"R  c #7C7B70",
"E  c #844D00",
"W  c #8B5200",
"Q  c #955801",
"!  c #8D6501",
"~  c #976900",
"^  c #9E6D00",
"/  c #837F02",
"(  c #907500",
")  c #AB6501",
"_  c #B26901",
"`  c #BD6F00",
"'  c #A47600",
"]  c #CE7900",
"[  c #D57C00",
"{  c #DB7F00",
"}  c #868204",
"|  c #918700",
" . c #A98800",
".. c #A69D00",
"X. c #A7A200",
"o. c #B5AF0D",
"O. c #BCB601",
"+. c #959237",
"@. c #C98700",
"#. c #D58200",
"$. c #E78B00",
"%. c #ED8B00",
"&. c #F18D00",
"*. c #FD9500",
"=. c #F29F00",
"-. c #FF9C00",
";. c #C2BC00",
":. c #E9A700",
">. c #FFA400",
",. c #F0AC00",
"<. c #FEAB00",
"1. c #FEB200",
"2. c #FFBC00",
"3. c #CDC600",
"4. c #DCD500",
"5. c #DBD512",
"6. c #F1C300",
"7. c #FFC300",
"8. c #FECC00",
"9. c #FED100",
"0. c #FEDC00",
"q. c #FED712",
"w. c #EDE500",
"e. c #F3E200",
"r. c #FFE100",
"t. c #F5ED00",
"y. c #FEEC00",
"u. c #FFF701",
"i. c #FFF709",
"p. c #FEF712",
"a. c #FFFB11",
"s. c #F8EC26",
"d. c #FFEC36",
"f. c #FEF733",
"g. c #B3B04E",
"h. c #9F9E6B",
"j. c #858377",
"k. c #888779",
"l. c #8C8B7F",
"z. c #A5A47B",
"x. c #F5F054",
"c. c #FEF858",
"v. c #CFCC65",
"b. c #DDDA73",
"n. c #FAF561",
"m. c #FEF962",
"M. c #FFF973",
"N. c #908E81",
"B. c #B3B288",
"V. c #AEAE91",
"C. c #B3B395",
"Z. c #B6B698",
"A. c #EEEC9B",
"S. c #FFFEAD",
"D. c #FEFDBD",
"F. c #FFFFC1",
/* pixels */
"T J l.l.l.l.l.l.N.k.N.N.k.N.l.l.N.l.l.l.N.l.N.l.l.N.N.l.l.l.k.N.l.l.l.k.l.N.Y J ",
"I j K K G C C C Z Z Z G H G Z C C C C C C Z V Z C C C Z C G H G H K K D B V t 3 ",
"k.L L P K B B B B N V K P L B B B B B B B B N B N B B B B H P L L L I Z t t t i ",
"j.K P P K B B B N N Z L P I V B B B B B B B B B B B B B B G P P P L P Z t t t t ",
"j.H F F D B B B B B V D D D B B B B N B B B B B B B B B B Z G D F F F Z p p y t ",
"j.G B B p B B B B B B N N B B B B B B B B B B B B B B B B B N N B B p B B B p u ",
"j.G B B B B B B B B B B B B B B B B B B B N N N B B B B B B B B B B B B B B p t ",
"j.G B B B B B B B B B B B B B B B p w w t t N N B B B B B B B B B B B B B B p u ",
"j.G B B B B B B B B B B B B B B N t $ . @ # t j B B B B B B B B B B B B B B p u ",
"j.G B B B B B B B B B B N N N p p r - % % % 7 y p p B B B B B B B B B B B B p u ",
"j.G B B B B B B B B B Z Z Z N r $ 2 m | ( ! c 4 9 t B B B B B B B B B N B B p t ",
"j.G B B B B B B B B B L L L p 3 . l O.e.6.:.~ : + w p B B B B B B B B B B B p u ",
"j.G B B N B B B B B Z L G B r B H +.5.u.9.1. .E s 6 q t p B B B N N B B B B j y ",
"j.G Z Z Z B B B B B B G Z 9 $ U Z.b.s.y.9.1.=.{ ) s O 9 p B B B N A B B j B p e ",
"j.L L L G B B B B B p u t w N h.A.M.s.0.8.1.>.-.[ v > 7 t u B B B p p Z B Z e * ",
"j.H L P H B B B B B w = u Y z.v.x.d.q.8.2.1.>.*.$.` Q f & 3 t B B B B j B j t * ",
"j.K H H D B N B B p 3 . p V.D.n.p.r.7.1.1.1.<.*.*.*.$.E % + t Z B B B B B B e * ",
"j.F B B B B B B B N 3   N C.D.m.p.r.7.1.1.1.<.>.-.-.&.W X @ V I Z B B B B B t * ",
"j.F B B B B B B B N 3   N C.D.m.p.r.7.1.1.1.1.<.<.-.%.W X @ V P D p B B B B u * ",
"j.F B B B B N B B N 3   M C.D.n.p.0.7.1.1.1.1.1.<.>.%.W X @ j K A j B B B B t 0 ",
"j.F V B B B B B B N 3   N C.F.m.p.r.7.1.1.1.1.1.<.>.&.W X + e B B B B B B B p t ",
"k.F B B N B B B B p 3   M B.S.c.p.r.7.1.1.1.1.1.>.-.&.W X . e B j B B B B B p u ",
"R Z V Z V B B B B N 3   g g.m.f.i.r.7.1.1.1.<.<.>.*.&.E X + e B B B B B j B p t ",
"A q L L H B B B B p 3   d o.a.i.u.r.7.<.1.1.<.*.*.*.&.E X . e B B B B B B B p t ",
"A q P L H B B B B N w @ 1 } O.4.t.y.9.7.2.1.<.*.%.] ) x & $ t B B B B B B B p u ",
"A q P L H B B B B N p t 8 1 z X.t.u.y.0.8.1.>.-.#.E a 5 r t p B B B B B B p p t ",
"A q L P G B B B B N N B t @ o m 3.w.t.y.8.1.:.$._ s . 3 p B B B j B B p u u t t ",
"A q P P H B B B B B B B p q 4 k n ..4.y.9.1.@.W h s 0 t N B B B B B B p u u t u ",
"S e L L H B B B B B B B N B i 3 o z ;.y.8.,.^ > O w p N B B N B B B B p t u u t ",
"R Z B Z B B B B B B N B B B p q @ g / .. .' b ; $ t B B B B B B B B B p t u u t ",
"k.G B B B B B B B B B B B B B p t 8 < , , : 5 r t p B B B B B B B B B p t u t u ",
"j.G B B B B B B N B B B B B j B B t #     . = p B B B B B B B B B j B p t u u t ",
"j.G B B B B B j p t p N B B B B B p w 0 0 q t p N N B B B B B B N B B N B N p u ",
"j.G B B B B B B t t t N B B B N B N p p p N N N B B B B B B B B B B B B B B p u ",
"j.G B B B B B B y t p B B B B B B B B B B B B B B B B B B B B B B B B B B B p t ",
"j.G B B B B B p 0 0 0 t p u N B B B B B B B B B B B p u i N B B B B B p u u u t ",
"j.G B B B B B p 9 * 9 t t u B B B B N B N B B B B B p t t N B B B N B p t t t t ",
"j.G B B B B B p 9 * 9 t t t B B B B B B B B B B B B i t t p B B B B B p t i u t ",
"J e p p p p p t 9 * 9 0 0 0 t p p i i p p i p p p i i t t i i i i i p i t i r 0 ",
"A $ y t t t t e 9 * * 9 * * t t t t t t t t t t t t t i i t i t i t t t t u q 3 "
};
