/* XPM */
static char *Ng__[] = {
/* columns rows colors chars-per-pixel */
"40 40 111 2 ",
"   c #050504",
".  c #080807",
"X  c #0A0A0A",
"o  c #151512",
"O  c #1A1A16",
"+  c #1F1F1A",
"@  c #211502",
"#  c #221D10",
"$  c #231F1E",
"%  c #2B2A00",
"&  c #2E220F",
"*  c #2E2D0F",
"=  c #332000",
"-  c #332900",
";  c #2B2A13",
":  c #23211D",
">  c #332D1D",
",  c #333210",
"<  c #262220",
"1  c #292623",
"2  c #2C2C25",
"3  c #2F2F28",
"4  c #302F28",
"5  c #333324",
"6  c #36362D",
"7  c #38372F",
"8  c #37382E",
"9  c #38382F",
"0  c #3C3C32",
"q  c #4D2E01",
"w  c #432D0C",
"e  c #4F3600",
"r  c #503200",
"t  c #483516",
"y  c #403D32",
"u  c #784906",
"i  c #706D07",
"p  c #414137",
"a  c #434339",
"s  c #48473B",
"d  c #4C4B3E",
"f  c #4D4D41",
"g  c #4D4A49",
"h  c #514F42",
"j  c #555446",
"k  c #585647",
"l  c #575548",
"z  c #595748",
"x  c #5D5B4C",
"c  c #575454",
"v  c #5E5B57",
"b  c #5F5C59",
"n  c #605E4E",
"m  c #615F50",
"M  c #656454",
"N  c #696656",
"B  c #626059",
"V  c #767474",
"C  c #7C7B70",
"Z  c #865004",
"A  c #915E10",
"S  c #AB6D00",
"D  c #B96C00",
"F  c #BE7000",
"G  c #C37B00",
"H  c #907846",
"J  c #9B9700",
"K  c #9C9812",
"L  c #A98A00",
"P  c #A49C00",
"I  c #C38700",
"U  c #C38800",
"Y  c #F39E1C",
"T  c #FAA200",
"R  c #FFB100",
"E  c #FFBE00",
"W  c #FFBE10",
"Q  c #FFB11F",
"!  c #FFBE1E",
"~  c #F8CB00",
"^  c #FFD500",
"/  c #FFDB00",
"(  c #FFDC11",
")  c #F0E300",
"_  c #F6EA00",
"`  c #F6EB1A",
"'  c #9C9A49",
"]  c #8C886C",
"[  c #858377",
"{  c #878578",
"}  c #888779",
"|  c #8B897D",
" . c #8B8A7E",
".. c #8C8B7E",
"X. c #8C8B7F",
"o. c #8D8B7F",
"O. c #95957B",
"+. c #9C9C7A",
"@. c #FFDD46",
"#. c #F1C976",
"$. c #FFDF76",
"%. c #FFDA7E",
"&. c #FEDC7C",
"*. c #FFDF7C",
"=. c #F6EE6B",
"-. c #908E81",
";. c #9B9C81",
":. c #E9E2B3",
">. c #F6F0B3",
",. c #F6F1BD",
"<. c #F6F1BF",
/* pixels */
"V b o.o. .o.o.o.-. .-. . . . . .o. .-. . .-. . .-. .-. .-. . . . . . . .o.o.V c ",
"B y n x k d d d d f d x x x d d d d d d d f d d d d f f d j x x x x n j a s 5 : ",
"} M N N n a a a a a s m N m a a a a a a a a p a a 0 s a p x N N M M M f 5 7 7 0 ",
"[ x N N x a a a a a s m N M d a a a a a a a a a a a s p p z N M N N B f 7 7 5 6 ",
"{ x l z j a p a a a a j j j a a a a a a p a a a a a a a p f l l g l l f 7 8 0 6 ",
"[ l a a p p a a a a a a p p a a a a a a a a a a a a a a s p p p f 0 p a a f 0 6 ",
"[ l a a a p a a a a a a a a a a a a a p a p p a a a a a a a a a a a a a a a 0 8 ",
"{ l a a a a a a a a a a a a a a p 6 3 2 6 0 s a a a a a p a a a a a a a a a 0 6 ",
"{ k a a a a a s a a a a a a a a 0 $ X X o 2 f f p a a a a a a a a a a a a a 0 8 ",
"[ l a a a a a a a a a a p a p 0 6 2 < # @ & y y 0 a a p a a a a a 0 a a a a 0 8 ",
"[ l a a a a a a a a a f f f 8 : 2 M ] H A u t $ 3 p p a a a a a a f f 0 0 a 0 8 ",
"[ l s a a a a a a p s M N m 3 X 2 O.:.#.Y D q . < 0 a p a a a a 0 f 0 a f 0 0 8 ",
"{ k p p p p a a a a s M N m 3 . 2 ;.<.%.Q G e   + 0 a a a a a a a a a a a a 0 8 ",
"[ z f d f a a a a a a k x l 3 . 2 +.,.&.! I r . + 0 a a s a a a a a a a a a 0 4 ",
"[ n N N x p p a a a a p a p 2 X 2 ;.,.&.! I e   + 0 a a a a a f a a a a y f 4 < ",
"[ x N N v p p a a a a a a p 3 . 2 ;.<.*.! L e   + 0 a p a p p p a a a a a y 6 $ ",
"[ x x v j a a a a a a p a p 2 X 2 +.>.$.! U e   + 0 a a a f f s a a a a a a 4 $ ",
"[ l a a a a a p a a a a a a 2 X ; ' =.@.W U e   + 0 a a p z N M h p a a a a 6 $ ",
"[ l a a a a a a a a a a a a 3 X % K ` ( E U e   + 0 a a a z N N h a a p a a 7 + ",
"[ z a a a a a a a a a a a p 2 X % J _ / E U e   + 0 s p p j x v f p a a a a 6 1 ",
"[ j a a a a p a a a a a a p 2 X % J _ / E U e   + p a a a a p a a a a p a a 0 6 ",
"{ z a a p p a a a a a a a p 2 X % J _ / E U e   + 0 a a a a p a p a a a p a 0 7 ",
"C j f a f p a a a a a a a a 2 X % J _ / E U e   + 0 a a a a a a a a a a a a 0 8 ",
"g 3 M M x a a a a a a a a a 2 X % J _ / E U e   + 0 a a a a a a a a a p a a 0 6 ",
"g 2 N M x a p a a a a a a a 2 X % J _ / E I e   + 0 a a a a a a a a a a a a 0 8 ",
"g 2 N M x p a a a a a a a p 2 X % J _ / E U e   + 0 a p a a a a a a a p p a 0 6 ",
"g 2 M M v a a a a a a a a p 3 X % J _ / E I e   + 0 a a s a a a a p a 0 8 8 7 6 ",
"g 2 N N x p a a a a a a a p 2 X % J _ ^ R G e   + 0 s a a a a a a a a 0 7 6 6 6 ",
"g 2 M M x p p s a a a p a p 2 X % J ) ~ T F e   + 0 a a a a a a p a a 0 6 8 8 6 ",
"C h s s s a p p p a a a a p 8 + ; i P L S Z w O 2 a a a a a a a a a a 0 6 6 7 6 ",
"} z a a a p a a a a a a a a 0 9 5 , % - = & > 6 0 a a a a a a a a p p 0 6 8 6 7 ",
"} z a a a a a a a a a p a a p s 9 : X X X o 3 a a a a a s a a a a p a 0 6 7 7 7 ",
"[ z a a a a a p 0 8 0 p p p a a 0 7 1 1 1 3 8 a a a p a a p a a a a a p p p 0 7 ",
"[ l a a a a a p 7 7 8 p p a a a p p p 0 p p p a a p a a a a a a a a a a a a 0 8 ",
"{ l a a a a a p 7 6 8 p a p p a a a a a p a a a a a a a p a a a a a a p p a 0 6 ",
"[ z a a a a a 0 < 1 1 8 0 0 p a a a a p p a a p a a 0 8 8 p a p a a a 0 8 8 7 6 ",
"{ l p p a p a 0 < $ $ 6 6 8 0 a p p a a p a a p a a 8 8 6 0 a a p a a 0 6 7 7 7 ",
"[ l s p a a p 0 < $ < 8 8 8 a a p p a a a a a p a a 0 6 6 p a a a a p 0 6 8 7 7 ",
"v 3 0 9 0 8 0 6 < $ < 1 1 1 9 0 8 0 0 8 0 0 9 0 0 0 6 6 6 8 0 8 0 9 0 8 6 8 2 1 ",
"g + 7 7 8 7 8 6 < < < $ $ $ 6 8 6 6 7 6 7 6 6 8 6 6 6 8 8 6 7 6 7 6 7 6 6 8 2 : "
};
