/* XPM */
static char *OA__[] = {
/* columns rows colors chars-per-pixel */
"40 40 137 2 ",
"   c #070706",
".  c #080807",
"X  c #0A0A09",
"o  c #1F1602",
"O  c #131311",
"+  c #1A1710",
"@  c #1C1C14",
"#  c #1E1D19",
"$  c #241B04",
"%  c #231F1E",
"&  c #1F211E",
"*  c #202004",
"=  c #2C2C06",
"-  c #332502",
";  c #3E2601",
":  c #332B00",
">  c #3F2B00",
",  c #333205",
"<  c #24231E",
"1  c #2C2B18",
"2  c #352B15",
"3  c #372C19",
"4  c #323219",
"5  c #252321",
"6  c #292623",
"7  c #2C2B25",
"8  c #302F28",
"9  c #333127",
"0  c #3B3521",
"q  c #36362D",
"w  c #38372F",
"e  c #37382E",
"r  c #38382F",
"t  c #3C3C32",
"y  c #402500",
"u  c #4E3209",
"i  c #593808",
"p  c #403D32",
"a  c #4E4C0A",
"s  c #5E470F",
"d  c #52500C",
"f  c #714500",
"g  c #6D6900",
"h  c #767201",
"j  c #414137",
"k  c #434339",
"l  c #48473B",
"z  c #4C4B3E",
"x  c #4D4D41",
"c  c #4D4A49",
"v  c #514F42",
"b  c #514E4D",
"n  c #555446",
"m  c #575548",
"M  c #595748",
"N  c #5D5B4C",
"B  c #5B5856",
"V  c #5F5C59",
"C  c #615E4E",
"Z  c #615F50",
"A  c #666454",
"S  c #696656",
"D  c #626059",
"F  c #75726C",
"G  c #7F7E6A",
"H  c #767474",
"J  c #7C7B70",
"K  c #804E00",
"L  c #835B00",
"P  c #925603",
"I  c #A05E02",
"U  c #8A6000",
"Y  c #9C6F01",
"T  c #B46A00",
"R  c #B47300",
"E  c #B47C00",
"W  c #BD7D00",
"Q  c #917325",
"!  c #D17D00",
"~  c #8A8602",
"^  c #928E02",
"/  c #AB8600",
"(  c #AA9A00",
")  c #ACA600",
"_  c #9C9820",
"`  c #DC9C05",
"'  c #E58900",
"]  c #E59500",
"[  c #EF9B00",
"{  c #FF9A00",
"}  c #E3A100",
"|  c #FEA500",
" . c #F3AB02",
".. c #FCAC00",
"X. c #FEB200",
"o. c #FFBA00",
"O. c #FEBC1E",
"+. c #D5CF00",
"@. c #FEC300",
"#. c #FFCA00",
"$. c #FEC90D",
"%. c #FEDA00",
"&. c #FECD15",
"*. c #FED31F",
"=. c #ECE400",
"-. c #FCE400",
";. c #FFE804",
":. c #F9F200",
">. c #FEEB1D",
",. c #FFCC29",
"<. c #F3C13C",
"1. c #F4EC2F",
"2. c #FFF520",
"3. c #F5F13C",
"4. c #91875B",
"5. c #999759",
"6. c #858377",
"7. c #878578",
"8. c #888779",
"9. c #8C8B7F",
"0. c #999A7F",
"q. c #9A9A7F",
"w. c #A3A063",
"e. c #FFE758",
"r. c #E8E67A",
"t. c #FFE27D",
"y. c #FFEB7D",
"u. c #FFF87E",
"i. c #908E81",
"p. c #9A9A80",
"a. c #C2C195",
"s. c #EEE881",
"d. c #F3E193",
"f. c #CECEA5",
"g. c #EFEAB7",
"h. c #EFEAB9",
"j. c #F1EEB8",
/* pixels */
"H V i.9.9.9.9.9.9.i.9.9.9.9.i.9.9.i.9.9.i.9.9.9.9.i.i.9.9.9.9.9.9.9.9.9.9.9.F B ",
"D p C N M z z z x x z N N N z z z z z z x x z z z z z z z m N N N N N n k l q < ",
"8.A S S N k k k k j k Z S Z k j k k k k k k j k k k k k k N S A S S S k q q e r ",
"6.N S S Z k k k k j z A S A z j k k k k k k k k k k k k k M S S D S S x 9 e e q ",
"6.N m m n k k k k k k n m n k k k k k k j k k k k k k k j x m m b m m x t t t q ",
"6.m k k k p k k k k k k j k k k k k j j k k k k k k k k k k j j j t k k k k t q ",
"6.m k k k k k k k k k k k k k k k j j j k j j k k k k k k k k k k x k k k k t e ",
"7.m k k k k k k k k k k k k k k j t 9 8 q e k k k k k k k k k k k k k k k k t q ",
"6.m k k k k k k k k k k k k j k j 7 O X O < t k k k j k k k k k x t k k k k t q ",
"7.m k k k k k k k k k k j j j t t 9 < < $ $ 0 t t j k k k k k k k k k k k k t q ",
"6.M k k k k k k k k k x x x t 6 < l G 4.Q L s < 5 e k k k k k k k k k t k k t q ",
"6.M k k k k k k k j l A A Z t # @ A f.d.<.` L o O q j j k k k k k k k x k k t q ",
"6.M j j j k k k k k x Z M k q l A w.r.e.,. .E f u 3 7 q j k k k k x t t k k t q ",
"6.M x z z k k k k k k m k # 7 G a.r.3.>.$...] ! P - O 7 j k k k k k k k p k t 8 ",
"6.C S S N k j k k k k j 7 X 7 0.j.u.>.%.@.X.| { T y   < t k k k k k x t k x q % ",
"6.C S S N k k k k j k j 8 X 7 0.g.y.*.@.o.X.| { T y   < j k j j k k t t x t 8 % ",
"6.N N A M k k k k k k j 7 X 7 0.g.t.O.X.X.X...{ T ;   < j l z x l j k k j k q % ",
"6.n j k k k k k k k k j 7 X 1 0.g.t.O.X.X.X...| R ;   < t N S A v j k k k k q % ",
"6.M k k k k k k k k k j 8 X 7 0.g.t.O.X.X.X.X.X.E >   < t N S S v j k j k k q % ",
"6.M k k k k k k k k j j 7 X 7 0.g.t.O.X.X.X.X.X.E >   < t n N N x j k k k k q 6 ",
"6.M k k k k k k k k k j 7 X 7 0.g.t.O.X.X.X.X.X./ >   < j k k k k k k k k k t q ",
"6.M j k k k k k k k k j 7 X 7 0.g.t.O.X.X.X.X.X.E >   5 t k j k k k k j k k t q ",
"J v x k k k k k k k k j 7 X 7 0.g.t.O.X.X.X...| R y . & j k k k k k k k k k t q ",
"c 7 S S N k k k k k k j 7   7 p.h.t.O.X.X.X.| { T y . 5 t k k k j k k k k k t e ",
"c 7 S A N j k k k k k j 7 X 1 5.s.e.&.@.o.X.| { T >   < j k k k k k k k k k t q ",
"c 7 A S N k k k k k k j 7 X = _ 1.2.;.%.@.X.| { T y   < t k k k j k k k j j t q ",
"c 8 S S N k k k k k k j 8 O = ~ +.=.:.-.#...[ ' I > X 6 j k k k k j k t r e e q ",
"c 6 S S N j k k k k k j e 6 4 d h ) =.;.#. .W K i 3 6 w j k k k k k k t q e q w ",
"b 8 A A N k k k k k k k k j 9 & * g +.-.@.} U $ + 9 j j j k k k j k k t q w e q ",
"J v k l k k k k k k k k k l r 5 @ a ^ ( / Y s @ & e k k k k k k k k k t q e e q ",
"8.M k k k k k k k k k k k k j t e 4 , : : - 2 q r j k k k k k k k j k t q w q q ",
"8.m k k k k k k j k k k k j k k j 6 O X X X < t k k k k k k k k k j k t q q w q ",
"6.m k k k k k j r r r j k k k k j r 7 7 6 7 e t k k k k k k k k j k k j j j t w ",
"6.m k k k k k j q w r j k k k k k j t t t j j k k k k k k k k k k k k k k k t w ",
"7.M k k k k k k r w r j k k k j k k k k k k k k k k k k k j k j k k k k k k t q ",
"6.M k k k k k t 6 5 6 r r r j k j k k k k k k k k k t e r j k k k k k t r r e q ",
"6.m k k k k k t 5 % % q r e j j p k k k k k p k j k t q q t k k j k k t q q q q ",
"7.M k k k j k t 5 % 5 q r r j k k k k k k k k k k k t q r t k k k k k t q w w w ",
"V 7 t t t r t q % % 5 6 6 6 r t t t r t t t r t t r q q q r r t t r t e q e 8 6 ",
"c # w w q q w 9 5 5 % 5 5 5 8 e q q q q q q q q e e q q r e q q q q q q q e 7 % "
};
