/* XPM */
static char *result[] = {
/* columns rows colors chars-per-pixel */
"40 40 193 2 ",
"   c #06040E",
".  c #16040D",
"X  c #18070F",
"o  c #090611",
"O  c #120512",
"+  c #170914",
"@  c #1B0D14",
"#  c #1E1016",
"$  c #1B1517",
"%  c #210E16",
"&  c #2B0E1E",
"*  c #211217",
"=  c #25121A",
"-  c #29151D",
";  c #231F1E",
":  c #2A1B1F",
">  c #32161D",
",  c #24201F",
"<  c #1D1021",
"1  c #2C1621",
"2  c #2D1B24",
"3  c #2E1A29",
"4  c #351724",
"5  c #331B23",
"6  c #391A26",
"7  c #351B2B",
"8  c #3E1929",
"9  c #2C1C39",
"0  c #3B1E31",
"q  c #321D3A",
"w  c #262220",
"e  c #2C2423",
"r  c #2D2A25",
"t  c #322726",
"y  c #312D27",
"u  c #32212B",
"i  c #352D2B",
"p  c #36362D",
"a  c #39332E",
"s  c #37382F",
"d  c #38382F",
"f  c #382134",
"g  c #3A263A",
"h  c #3C253B",
"j  c #3A3630",
"k  c #3C3B32",
"l  c #481822",
"z  c #441B2D",
"x  c #551E2D",
"c  c #451C34",
"v  c #70152B",
"b  c #6A1C3D",
"n  c #761933",
"m  c #452E2C",
"M  c #4A2F2C",
"N  c #552125",
"B  c #5C2026",
"V  c #43243C",
"C  c #4A223C",
"Z  c #44283B",
"A  c #5E203E",
"S  c #403633",
"D  c #483336",
"F  c #403E34",
"G  c #46373B",
"H  c #573938",
"J  c #6C2529",
"K  c #6D233E",
"L  c #73233E",
"P  c #7C213F",
"I  c #484627",
"U  c #414137",
"Y  c #434339",
"T  c #48473B",
"R  c #47493D",
"E  c #4C4B3E",
"W  c #5A4E3C",
"Q  c #6B473A",
"!  c #635A3D",
"~  c #5B623C",
"^  c #646E30",
"/  c #677A31",
"(  c #4A2641",
")  c #5D2545",
"_  c #642445",
"`  c #6C2447",
"'  c #6B274C",
"]  c #74264C",
"[  c #782448",
"{  c #782953",
"}  c #7D2954",
"|  c #4D4C41",
" . c #4D4A49",
".. c #5A4245",
"X. c #514E42",
"o. c #514E4D",
"O. c #555446",
"+. c #585647",
"@. c #575648",
"#. c #595748",
"$. c #5D5C4C",
"%. c #5C5957",
"&. c #605E4E",
"*. c #666454",
"=. c #686656",
"-. c #676559",
";. c #7A6B68",
":. c #7A7871",
">. c #901A3C",
",. c #A7173B",
"<. c #863031",
"1. c #9A3233",
"2. c #A82E37",
"3. c #AE3237",
"4. c #C4353D",
"5. c #CC3C3D",
"6. c #D33E3F",
"7. c #981D41",
"8. c #AA1D45",
"9. c #BD1B46",
"0. c #B31E49",
"q. c #BC1D49",
"w. c #89234B",
"e. c #94244F",
"r. c #9B234D",
"t. c #8B2651",
"y. c #822955",
"u. c #822C59",
"i. c #8A2B5B",
"p. c #922550",
"a. c #992552",
"s. c #A4214C",
"d. c #A8214D",
"f. c #A32351",
"g. c #CD1546",
"h. c #C21A45",
"j. c #CD1945",
"k. c #C11B48",
"l. c #D31746",
"z. c #DA1644",
"x. c #D31A46",
"c. c #DA1846",
"v. c #E21747",
"b. c #D32344",
"n. c #D72A44",
"m. c #DC2B45",
"M. c #CF3440",
"N. c #E33545",
"B. c #E33C44",
"V. c #825A46",
"C. c #806565",
"Z. c #DE4241",
"A. c #E64243",
"S. c #EB4544",
"D. c #F84A46",
"F. c #FF504A",
"G. c #718A39",
"H. c #7C963A",
"J. c #84891A",
"K. c #87911D",
"L. c #88931D",
"P. c #9FB41D",
"I. c #8B9B22",
"U. c #80982E",
"Y. c #8CA62C",
"T. c #94AB26",
"R. c #85A93C",
"E. c #8BB33D",
"W. c #8AB43D",
"Q. c #92BE3F",
"!. c #95C33E",
"~. c #B4D926",
"^. c #A0D33D",
"/. c #B8E42A",
"(. c #D3FE1D",
"). c #B9825D",
"_. c #8EBA41",
"`. c #858377",
"'. c #878678",
"]. c #8C8B7F",
"[. c #DDA176",
"{. c #E7A472",
"}. c #FEB67C",
"|. c #94C442",
" X c #97C942",
".X c #9ACD42",
"XX c #9ED443",
"oX c #A2DA46",
"OX c #908E81",
"+X c #B3948E",
"@X c #DDB8AF",
"#X c #E0BCB4",
"$X c #F4CEC3",
/* pixels */
":.%.OX'.OXOX'.OX].].].].].].].].].OX].].].].].].].OX].].].].'.OX].].].].].OX;.$.",
"-.k &.&.#.E E | E E E $.$.$.E E E E E E E E E E E E E E E #.&.$.&.$.$.E Y E p , ",
"'.*.-.=.$.Y F Y Y Y Y *.=.*.Y Y Y Y Y Y Y Y Y Y Y Y Y Y Y $.=.*.=.*.=.E p p p d ",
"`.$.=.=.$.Y Y Y Y Y E *.=.*.Y Y T Y T Y R Y Y Y Y Y Y Y Y $.=.*.=.=.=.| p p p p ",
"`.$.@.@.o.Y Y U p t a O.O.O.Y i t t r t t t t r k Y F Y k a S X.@.O.#.Y k k s p ",
"`.O.Y Y Y Y Y Y * . r Y U Y Y * + @ @ @ + # # + j | Y Y j X . j Y U Y Y Y Y k p ",
"`.+.Y Y Y U j j ....G p a a a N B B B B B N B B m j j j S ....S a k Y U Y Y k s ",
"`.+.Y Y Y k = = +X$XC.. - = - 5.S.S.S.S.S.S.S.S.N + - @ D #X#XD + a R Y Y Y k s ",
"`.+.Y Y Y k - = +X$XC.% - - > 5.S.A.A.A.A.A.A.S.J # > % D @X@XD + i T Y Y Y k s ",
"`.+.Y Y R k = - C.}.V.X B 6.6.x.x.b.x.x.b.j.x.x.M.Z.<.$ M [.[.M @ i T G Y Y k p ",
"`.+.Y Y Y k = = ).}.V.  N S.S.x.g.x.z.l.l.l.j.g.N.D.1.o M {.{.M @ a R Y Y Y k p ",
"`.#.Y Y R k = = H ! <.2.2.n.n.j.x.>.K L L [ j.x.b.n.9.1.1.Q Q > # i Y F Y Y k p ",
"`.#.Y U Y k = = @   <.D.N.l.g.l.c.n q q 9 c j.c.g.g.m.F.5.O o * % i R Y U Y k s ",
"`.#.| R | k = = B J 2.N.6.g.g.8.7...~ &.! ! 7.7.9.l.b.N.4.J J > # i Y Y U Y s p ",
"`.*.=.=.$.k = = 4.F.6.g.g.z.g.c 9 H.^.!.XX_.g q ,.c.l.j.b.S.S.l @ j R Y Y Y p $ ",
"C.=.=.=.&.k = = 3.S.m.l.g.h.9.H ( U.^.!.!.E.G G 7.h.h.l.b.B.Z.N @ a Y U U R p ; ",
"`.$.$.$.#.S = = ,.c.j.c.8.V Z R.|./.(.~.L.I.Q.|.W q P l.j.x.j.l @ a Y Y F R y ; ",
"`.#.Y Y Y k = = ,.l.j.z.8.h h _. X/.(.~.L.I.!..XW 9 P c.j.x.g.l @ a Y Y Y Y p ; ",
"`.#.Y Y Y F = = w.e.d.z.,.3 5 R.!.P.P.T.L.I.!.|.I < n c.h.r.e.6 @ a Y Y F Y a 2 ",
"`.+.Y Y Y k = = _ } s.z.,.@ * W.oXI.G.J.K.I..XoXI o v l.9.} } 4 % a Y Y Y Y a w ",
"`.@.Y Y Y k - = ` y.s.c.8.c x ^ G.H.T.Y.Y.Y./ / H 0 >.c.q.y.} 6 % i Y U Y Y k p ",
"'.#.Y F Y S = = ` u.d.z.q.u.} & . G.oX!.XX|.% X _ } a.l.k.y.y.4 * i R Y Y Y F p ",
":.X.E E R k - = _ ' r.j.0.t.w.z = / R.R.H.H.t > [ t.r.j.0.] ] 4 @ i Y Y U Y k s ",
"o.r *.&.$.k * = g g _ y.p.j.j.t.w.z * = , : } } 0.z.0.} ] V h - % p T U Y Y k p ",
" .r =.*.&.S - = 0 g ) } p.x.j.t.y.z @ - * - } y.q.z.8.} ] g g 1 * p Y U Y Y k s ",
" .r =.*.$.F j k 2 - 0 ( ) t.p.q.9.w._ ' ` [ q.q.7.p.] ( ( 1 1 i d k Y U U U k p ",
" .r *.=.$.Y Y R : @ 3 g ( } } j.v.f.} u.} y.x.z.a.i.' g q % # k R Y Y F a d p p ",
" .r =.*.$.U Y Y i i u 3 c y.} n v w.} t.d.8.d.d.b C c h f 1 = k Y Y Y d d p p d ",
" .i *.&.$.Y Y Y Y | i @ 6 y.} - + A u.r.v.j.} } 6 X 3 h f = % k Y Y Y F p p s p ",
":.X.R R Y Y Y Y Y Y i @ 6 ] ' 4 * A y.w.,.,.y.y.8 * 3 f 7 w 2 S Y U Y d p s p p ",
"'.#.Y Y U Y F Y Y Y i % 1 h f - # A i._ * - } y.8 # = * : Y Y Y Y Y Y F p d p s ",
"`.#.Y Y Y Y Y Y Y Y t % 1 h h - * A i.A * - { y.8 * - = : Y Y Y Y Y Y d p s s p ",
"`.+.Y Y Y Y Y U s d r % 1 V h - * 0 ( 0 = - V C 5 = e k k Y Y Y Y U Y U U U k p ",
"`.#.Y Y Y U Y U s d e @ 1 h h - @ 7 Z f @ = g g 1 @ t R Y Y U Y Y Y Y Y Y Y k p ",
"`.#.Y Y Y Y Y U p s p p i 3 3 i p u 1 u a i 7 3 i a j Y U Y Y Y Y U Y Y Y Y k s ",
"`.O.Y Y Y Y Y k e w e s i % % k T u X r R k = @ j R k j s U Y U U Y Y k s d s p ",
"`.#.Y Y Y U Y k w ; , p y : e F Y i 2 y R k e e j Y s p s k Y Y Y U Y k p p p p ",
"`.#.Y Y Y Y Y k w , w p d d U Y Y U Y Y Y Y Y Y Y Y k p p U Y Y Y Y Y k p s s s ",
"%.r k k d d k p w ; w r r e d k d k k s k k s s k k p p p s k s k d d d p s r e ",
" .; d p s p s p w w w w $ , p p p p p p p p p p p p p p s p p p p p s p p s r , "
};
