/* XPM */
static char *result[] = {
/* columns rows colors chars-per-pixel */
"40 40 197 2 ",
"   c #06040E",
".  c #16040D",
"X  c #090611",
"o  c #120512",
"O  c #190611",
"+  c #160B14",
"@  c #1B0D14",
"#  c #1E1016",
"$  c #1A1517",
"%  c #210E16",
"&  c #2B0E1E",
"*  c #211217",
"=  c #25121A",
"-  c #29151D",
";  c #231F1E",
":  c #2A1B1F",
">  c #32161D",
",  c #24201F",
"<  c #2C1621",
"1  c #2D1B24",
"2  c #2E1A29",
"3  c #351724",
"4  c #331B23",
"5  c #391A26",
"6  c #351B2B",
"7  c #3E1929",
"8  c #241C39",
"9  c #2C1C39",
"0  c #3B1E31",
"q  c #321D3A",
"w  c #262220",
"e  c #2C2323",
"r  c #2D2A25",
"t  c #322927",
"y  c #32212B",
"u  c #352D2B",
"i  c #392C29",
"p  c #36362D",
"a  c #3A342E",
"s  c #37382E",
"d  c #38382F",
"f  c #382134",
"g  c #3A263A",
"h  c #3C253B",
"j  c #373530",
"k  c #3B3631",
"l  c #3C3B32",
"z  c #481822",
"x  c #441B2D",
"c  c #451C34",
"v  c #70152B",
"b  c #6A1C3D",
"n  c #761933",
"m  c #462D2A",
"M  c #4A2F2C",
"N  c #552125",
"B  c #5C2126",
"V  c #44302D",
"C  c #43243C",
"Z  c #4A223C",
"A  c #44283B",
"S  c #5E203E",
"D  c #483336",
"F  c #423D35",
"G  c #46383A",
"H  c #573938",
"J  c #6C2529",
"K  c #60213F",
"L  c #6D233E",
"P  c #73233E",
"I  c #7C213F",
"U  c #484627",
"Y  c #414137",
"T  c #434339",
"R  c #484639",
"E  c #47493D",
"W  c #4B4B3E",
"Q  c #5A4E3C",
"!  c #6B473A",
"~  c #75473E",
"^  c #635A3D",
"/  c #5B623C",
"(  c #646E30",
")  c #677A31",
"_  c #4A2641",
"`  c #5D2545",
"'  c #642445",
"]  c #6C2447",
"[  c #6B274C",
"{  c #74264C",
"}  c #782448",
"|  c #782953",
" . c #7D2954",
".. c #4D4B40",
"X. c #4D4A49",
"o. c #5A4245",
"O. c #524D43",
"+. c #565546",
"@. c #585647",
"#. c #565548",
"$. c #595749",
"%. c #5D5B4C",
"&. c #5C5957",
"*. c #615F4E",
"=. c #666454",
"-. c #686656",
";. c #626059",
":. c #6B6A59",
">. c #7A6B68",
",. c #7A7871",
"<. c #A7173B",
"1. c #863031",
"2. c #9A3233",
"3. c #A82E37",
"4. c #AE3237",
"5. c #C4353D",
"6. c #CC3C3D",
"7. c #D33E3F",
"8. c #981D41",
"9. c #AA1D45",
"0. c #BD1B46",
"q. c #B31E49",
"w. c #BC1D49",
"e. c #89234B",
"r. c #9B2141",
"t. c #94244F",
"y. c #9B234D",
"u. c #8B2651",
"i. c #822955",
"p. c #822C59",
"a. c #8A2B5B",
"s. c #922550",
"d. c #992552",
"f. c #A4214C",
"g. c #A8214D",
"h. c #A32351",
"j. c #CD1546",
"k. c #C21A45",
"l. c #CD1945",
"z. c #C11B48",
"x. c #D31746",
"c. c #DA1644",
"v. c #D31A46",
"b. c #DA1846",
"n. c #D41A48",
"m. c #E21747",
"M. c #D32344",
"N. c #D72A44",
"B. c #DC2B45",
"V. c #CF3440",
"C. c #E33545",
"Z. c #E33C44",
"A. c #825A46",
"S. c #806565",
"D. c #DE4241",
"F. c #E64243",
"G. c #EB4544",
"H. c #F84A46",
"J. c #FF504A",
"K. c #718A39",
"L. c #7C963A",
"P. c #84891A",
"I. c #87911D",
"U. c #88931D",
"Y. c #9FB41D",
"T. c #8B9B22",
"R. c #80982E",
"E. c #8CA62C",
"W. c #94AB26",
"Q. c #85A93C",
"!. c #8BB33D",
"~. c #8AB43D",
"^. c #96BB35",
"/. c #B4D926",
"(. c #B8E42A",
"). c #D3FE1D",
"_. c #B9825D",
"`. c #8EBA41",
"'. c #858377",
"]. c #878678",
"[. c #8C8A7E",
"{. c #B28061",
"}. c #DDA176",
"|. c #E7A472",
" X c #FEB67C",
".X c #94C442",
"XX c #97C942",
"oX c #9ACD42",
"OX c #9ED443",
"+X c #A2DA46",
"@X c #8E8D80",
"#X c #908E81",
"$X c #B3948E",
"%X c #F2B281",
"&X c #DDB8AF",
"*X c #E0BCB4",
"=X c #F4CEC3",
/* pixels */
",.&.@X].@X@X[.@X[.[.[.[.[.[.[.#X#X[.[.#X[.@X@X[.[.[.[.[.[.@X#X[.[.[.].[.[.#X,.#.",
";.l *.*.$...W W a i R *.%.$.W a i i i i i i i i R W W W R i a @.*.%.*.O.R E p , ",
"].=.-.-.%.T T T , . t :.:.-.E # + + @ @ + # + + k E T E l @ O $.:.-.:.W u p p d ",
"'.*.-.-.%.F k k _ o.H W Q ..l N B B B B B B B B V k k a F O.` O.O.*.:.W p p p p ",
"'.%.#.#.#.l = = $X=XS.. = = $ 6.G.G.G.G.G.G.G.G.B @ = @ D *X*XD O G %.T l l l p ",
"'.#.T T T l = = $X=X>.O - - - D.G.F.F.G.F.F.F.G.J = - % D &X&XD @ u Y Y T T l p ",
"'.$.T T T F = = {.%XA.o N 7.V.M.v.v.l.v.l.v.v.v.5.7.1.O M }.}.M O p T T T T l s ",
"'.$.T T T l = = _. XA.  B G.G.n.j.x.v.v.v.v.l.l.C.J.2.X m |.|.M + p E T T T l p ",
"'.@.T T T F = = H ! 1.2.4.N.N.j.l.8.L P ] I l.v.M.B.4.3.2.! ! > % u T T T T l s ",
"'.$.T T T l = = @   1.J.Z.j.j.b.m.b 8 q 9 0 x.b.x.j.B.J.6.o X = = u ..T T T l p ",
"'.$.T F T l = = B J 3.C.N.l.l.9.8.~ / ^ ^ ^ r.8.0.x.M.C.5.J J > % u T T T T k p ",
"'.$.T T T F = = 5.H.N.j.x.n.l.c 9 K.OX.XOX`.h q <.b.j.j.M.G.H.z + u E T T T l p ",
"'.#.T l T l = = 4.G.N.l.l.0.0.H G L.+X^.^.!.G G f.k.k.x.v.Z.F.z # u T T T T l p ",
"'.%...W ..l = = <.b.l.b.9.C A Q.`.(.)./.T.T.`..XQ q I v.v.v.l.z # u ..T T T k p ",
"'.*.-.-.%.l = = <.b.l.v.9.h g `.oX(.)./.U.T..XXXQ 9 P b.j.x.l.z # u T Y T T p $ ",
"'.%.-.-.=.l = = e.d.q.b.<.< 4 Q.XXW.Y.W.U.T..XXXU # n b.z.y.d.3 @ u E T T E p ; ",
"'.%.%.%.$.k = = [ | f.b.<.% * ~.+XE.P.I.U.T.OXOXU   v b.w. .| 5 * u T T T T u ; ",
"'.$.T T T F = = ]  .g.c.<.x Z ( ) R.W.E.E.E.) ) H x n b.z.i. .5 * u T T T T p ; ",
"'.$.T T T F = = ]  .g.c.w.p.| & o K.+XXXOX~.% O ' p.h.c.z.i. .3 % u T T T T p ; ",
"'.$.T T T l = = ' | y.l.q.s.u.7 & ) Q.Q.Q.L.5 > b s.y.l.q.| { 3 * u E Y T T p e ",
"'.#.T T T l = = f g ` i.t.l.l.u.i.x = - = 1 |  .w.c.g. .{ C h < * u T T T T l p ",
"].$.T F T l = = f g `  .t.x.l.u.i.x % = = -  .i.q.b.g.| { h h < # p E Y T T l p ",
",.+...T R T l d y - f _ ` s.d.q.z.e.] ] ] } w.0.y.s.{ _ C < < p d l T Y T T l p ",
"X.t =.=.%.T T T : @ 2 h Z  . .v.m.h. .i. .i.v.c.d.a.' f f = = k E T T T Y T l s ",
"X.r -.=.%.T Y T u t y 2 C i. .n v }  .u.f.g.g.g.b c Z h f = = k T T T T T T l s ",
"X.r =.-.%.T T T T ..u @ 5 i. .- @ S p.y.m.v. .| 5 # 1 C f = = l T T T T Y Y l p ",
"X.r -.=.%.Y Y T T T u % 3 { [ 3 * K p.e.<.<.i.i.x % 1 f y 1 1 l T T T l s s p p ",
"X.r -.-.%.T T T T T t % < h h - * S a.S # -  .i.5 * = % 1 Y T T T T T l s p p s ",
"X.t =.=.%.T T T T T u % < h h - * ` a.S # < |  .7 * - = : T T T Y T T l p d d p ",
",.+.T T T T T T T T u % < h h < * 7 _ 0 = - Z Z 1 % e F l T T Y T Y T l p p s p ",
"[.$.T T Y T T T T T t % < h h = # 2 A 6 % & h h < % r T T Y Y T T T T l p p p p ",
"'.+.T T T T T Y T T k u u 1 2 u j y 2 y a u 1 2 u u k T T T T T Y T T l p d s s ",
"'.@.T T T T T Y s s k E k % * l E e O w E Y * % a W T T T T T T Y T T Y l Y l p ",
"'.$.T T T T T Y p p s Y l e e F T p 1 u T F e e l T T T T T T T T T T T E T l s ",
"'.@.T T T T T Y s p s Y T T T T T T T T T T T T T T Y T T T T T T T T Y T T l p ",
"'.@.T T T T T l w r r p k k T T Y T Y T T Y T Y T T l a d l T T T T T l d d d p ",
"'.@.T T T Y T l w , w p s s Y T Y T Y T T T T T T T d s s l T T Y T T l p p p p ",
"'.@.E T T T T l , w w p s s Y T Y E T T T T T T T T k p s Y T T T T R l p p p s ",
"&.r l d d d l p w , w w w r s k d d l l d k d d k d s p p s d d d d d d p s r r ",
"X.; d s s p s p w , w , , , p s p p p p p p p p s p p s s p s p p p p p p d r , "
};
