/* XPM */
static char *MTA_[] = {
/* columns rows colors chars-per-pixel */
"40 40 184 2 ",
"   c #1F1C1A",
".  c #231F1E",
"X  c #24201F",
"o  c #262220",
"O  c #292623",
"+  c #2D2A25",
"@  c #312D27",
"#  c #302F28",
"$  c #36362D",
"%  c #38372F",
"&  c #37382E",
"*  c #38382F",
"=  c #3B3B32",
"-  c #74160A",
";  c #711A0F",
":  c #6A1710",
">  c #721E13",
",  c #69241C",
"<  c #742014",
"1  c #742519",
"2  c #472320",
"3  c #472A25",
"4  c #4B2A25",
"5  c #512A24",
"6  c #582C24",
"7  c #44352E",
"8  c #48382F",
"9  c #563124",
"0  c #59332A",
"q  c #463730",
"w  c #433D34",
"e  c #4D3C32",
"r  c #692B22",
"t  c #752D21",
"y  c #67392D",
"u  c #773120",
"i  c #7E3023",
"p  c #753D2E",
"a  c #683F32",
"s  c #414137",
"d  c #434339",
"f  c #49453A",
"g  c #42483D",
"h  c #4C4B3E",
"j  c #504337",
"k  c #524639",
"l  c #5A4638",
"z  c #504A3D",
"x  c #5E4B3C",
"c  c #644335",
"v  c #67463A",
"b  c #704031",
"n  c #64503F",
"m  c #464B40",
"M  c #4D4D41",
"N  c #4D4A49",
"B  c #514F42",
"V  c #514E4D",
"C  c #4D5144",
"Z  c #555446",
"A  c #585647",
"S  c #575548",
"D  c #595748",
"F  c #5D5B4C",
"G  c #5C5957",
"H  c #614C41",
"J  c #635543",
"K  c #615E4E",
"L  c #666454",
"P  c #696656",
"I  c #626059",
"U  c #75726C",
"Y  c #767474",
"T  c #7C7B70",
"R  c #881E0C",
"E  c #92270C",
"W  c #8C2412",
"Q  c #922817",
"!  c #853215",
"~  c #97341E",
"^  c #853224",
"/  c #8A3B2A",
"(  c #973521",
")  c #9C3B21",
"_  c #AB4616",
"`  c #AD461A",
"'  c #AB481A",
"]  c #B14616",
"[  c #B64C1C",
"{  c #B7501C",
"}  c #934B35",
"|  c #955037",
" . c #9A563B",
".. c #A24325",
"X. c #B14E2F",
"o. c #B65727",
"O. c #BB5C2B",
"+. c #A65639",
"@. c #B45D31",
"#. c #BB5F31",
"$. c #BB6333",
"%. c #BC633A",
"&. c #BC6B3A",
"*. c #C35929",
"=. c #C15C31",
"-. c #C0602A",
";. c #C16333",
":. c #CD6B36",
">. c #C5663A",
",. c #C56D3C",
"<. c #CD6B3A",
"1. c #D16B3A",
"2. c #C3733E",
"3. c #CE723D",
"4. c #D4733F",
"5. c #9A5A41",
"6. c #B46948",
"7. c #B77452",
"8. c #CA6840",
"9. c #D16E40",
"0. c #C77543",
"q. c #CA7644",
"w. c #C57B44",
"e. c #CC7E47",
"r. c #D57342",
"t. c #D87745",
"y. c #D27C45",
"u. c #DC7C44",
"i. c #D57C49",
"p. c #DB7D4C",
"a. c #858377",
"s. c #878578",
"d. c #888779",
"f. c #8C8B7F",
"g. c #C9834A",
"h. c #C9844C",
"j. c #D4834D",
"k. c #DB834C",
"l. c #D58B4E",
"z. c #CB8D56",
"x. c #CA8858",
"c. c #DC8653",
"v. c #D78A56",
"b. c #D58C54",
"n. c #DC935A",
"m. c #DC985D",
"M. c #E28443",
"N. c #E48C49",
"B. c #E9934A",
"V. c #E28B54",
"C. c #E3945A",
"Z. c #E69559",
"A. c #EEA359",
"S. c #CA9367",
"D. c #DC9663",
"F. c #DE9D62",
"G. c #D49E6D",
"H. c #E59361",
"J. c #DDA169",
"K. c #DEAD75",
"L. c #EDAB67",
"P. c #E6A36B",
"I. c #E4A668",
"U. c #EAAA6E",
"Y. c #E4AD74",
"T. c #E9AB73",
"R. c #E2AE7A",
"E. c #EAAE79",
"W. c #E5B277",
"Q. c #E6B57B",
"!. c #EDB37A",
"~. c #EAB578",
"^. c #ECBA7E",
"/. c #908E81",
"(. c #E7BC84",
"). c #E9BD86",
"_. c #F0BC82",
"`. c #EEC285",
"'. c #EDC58A",
"]. c #EEC88D",
"[. c #F2C58A",
"{. c #EFCD93",
"}. c #F1CD93",
"|. c #F5D295",
/* pixels */
"Y G f.f.f.f.f.f.f.f.f.f.f.f.f.f.f.f./.f.f./.f.f.f.f./.f.f.f.f.f.f.f.f.f.f.f.U S ",
"I w K F D h h h h h z F K F h h h h h h h M h h z h h M h A K F F K K B d f $ X ",
"d.L P P K d d d d d d L P K g d d d d d d d d d d d d d d A P L L L P M $ $ $ * ",
"a.F P P F d d d d d d L P L f d d d d d d d d d d d d d d F P L P P P M $ $ $ $ ",
"a.D S S Z d d d d d d Z Z Z d d d d d d d d d d d d d d d M Z Z S S S g = = * $ ",
"a.S d d d d d d d d d d d d d d d d d d d d d d d d d d d d d w d w w d d g = & ",
"a.D d d d d d d d d d d d d d d d d d d d w d d d d d d d d d d d d d d w d = & ",
"a.D d d d d d d d d d d d d d d d d d d Z C M d d d d d d d d d g d d d d d = & ",
"a.D d d d d d d d d d d d d d d d = w w J L L M s d d d d d d d d d d d d d = & ",
"a.D d d d d d d d d d d s d s = 5 : : , t > y f = d f d w d d d d d d d d d = $ ",
"a.D d d d d d d d d d M Z N 9 - ..=.%.J.G.p.) > > 5 % d d d d d d w d d s d = $ ",
"a.D d d d d d d d d g H v 0 - *.c.q.K.U.H.v.&.z.U.+.> 5 8 g d d d d d d d d = & ",
"s.D s s s d d d d 8 5 > R R E [ ' z.`.c.e.w.'.|.Q.C.j.W ; 4 q d d d d d d d = $ ",
"a.D M C g d d g 7 < E O.k.O._ _ [ 0.2.>.&.`.).n.3.V.j.w.x.+.u q d d d d d d = # ",
"a.K L L F d d q > ` :.V.i.g.G.Y.I.-.[ ] $.{.m.1.C.j.g.^.W.n.>.1 q d d d d d $ . ",
"a.F P P K d g 3 E :.r.,.z.'.}.F.j.4.#.o.;.o.O.r.8.g.W.v.r.1.u.Q 3 d d d d d # . ",
"a.K F F A d d 3 ( p.4.@.K.I.i.V.q.$.b.Q.Y.y.{ _ _ l.k.4.N.N.k.~ 3 g d d d d $ . ",
"a.A d d d d g 2 +.U.4.<.b.<.p.j.w.(.].J.n.Z.,.q.O.o.4.A.!.k.E.@.9 g d d d d $ X ",
"a.A d d d d g 3 } '.P.r.4.k.u.;.z.'.m.4.g.2.~.(.m...X.Z.!.|.).} 9 d d d d d $ . ",
"a.A d d d d d w 6 5.'.~.V.B.r.<.y.3.1.3.&.~.Y.3.r.9.) 6.x.S.5.a h d d d d d $ X ",
"a.A d d d d d w k a 5.h.`.T.c.t.r.M.L.r.0.Y.y.1.r.t.O.- , r c k w d d d d d = $ ",
"s.A d d d d d d w k a p  .7.}.U.H.Z.P.i.4.i.M.L.A.u.8.< l D j w d d d d d d = $ ",
"T B m h g d d d d d k n c b / 7.[.E.T.U.C.p.t.V.Z.T.D.! 8 q w d d d d d d d = * ",
"V + L L D d d d d d w q k l c p ^ S.'.R._._.^.!.^.(.| 0 d d d d d d d d d d = & ",
"N O P L F w d d d d d d q w j l c p i / S.R.R.Q.R. .y e d d d d d d d d d d = * ",
"N + L P F d d d d d d d d d d e e x n v t t t 1 t v k d d d d d d d d d d d * $ ",
"N @ P P F d d d d d d d d d d d d w e e x J J J J k w d d d d d d d d = $ $ $ $ ",
"N O P P F d d d d d d d d d d d d d d d q q 8 8 8 w d d d d d d d d d = $ $ $ * ",
"V @ L L F d w d d d d d d d d d d d d d d d d d d d d d d d d d d d d * $ * $ $ ",
"T B g g g d d d d d d d d d d d d d d d d d d d d d d d w d d d d d d * $ $ * $ ",
"s.D d d d d d d d d d d w d d d d d d d d d d d d d d d d d d d d d d = $ $ $ & ",
"7.D d d d d d d d d d d d d d d d d d d d d d d d d d d d d d d d d d = $ * * $ ",
"Y S g g d d d s & & = s d s d d d d d d d d d d d d = d d d d d d d d s d d * $ ",
"f.V g g d d d s $ $ $ d d d d d d d d d d d d d d d d d d d d d d d d d d d = * ",
"a.S g = d d d s & $ & d d d d d d d d d d d d d d d d d d d d d d d d d d d = $ ",
"a.C g g d d d = O O O & & & s d d d d d d d d d d d = = = = d d d d d = * * * $ ",
"a.S d d d d d = o . . $ $ & d d d d d d s d d d d d = $ $ = d d d s d = $ $ $ $ ",
"a.D d d d s d = o o o $ & & d d d d d d d d d d d d = $ $ s d d d d d = $ & $ * ",
"G # = = = = = $ o . o O O O $ = * * = = = & = = = * $ $ $ = * = * * * * $ & # O ",
"N   & & $ $ & $ o . o . . . $ $ $ $ $ $ $ $ $ $ $ $ $ $ $ $ $ $ $ $ & $ $ & + . "
};
