/* XPM */
static char *MTE_[] = {
/* columns rows colors chars-per-pixel */
"40 40 179 2 ",
"   c #1F1C1A",
".  c #231F1E",
"X  c #24201F",
"o  c #262220",
"O  c #292623",
"+  c #2D2A25",
"@  c #312D27",
"#  c #302F28",
"$  c #36362D",
"%  c #38372F",
"&  c #37382E",
"*  c #38382F",
"=  c #3B3B32",
"-  c #710F09",
";  c #6A170F",
":  c #7A170B",
">  c #611410",
",  c #621A15",
"<  c #6C1B12",
"1  c #711C14",
"2  c #6D2014",
"3  c #6B231B",
"4  c #462421",
"5  c #462A25",
"6  c #4A2C25",
"7  c #4E2F29",
"8  c #502620",
"9  c #552821",
"0  c #5C2D23",
"q  c #45342D",
"w  c #4A382F",
"e  c #543429",
"r  c #433C33",
"t  c #4B3D33",
"y  c #503F34",
"u  c #6F2E20",
"i  c #762D21",
"p  c #7A2E22",
"a  c #603222",
"s  c #653A2E",
"d  c #78392B",
"f  c #643F31",
"g  c #414137",
"h  c #4A4037",
"j  c #434339",
"k  c #4A453A",
"l  c #43483D",
"z  c #4C4B3E",
"x  c #584537",
"c  c #544539",
"v  c #55483B",
"b  c #5D493A",
"n  c #654234",
"m  c #694233",
"M  c #614D3C",
"N  c #4D4D41",
"B  c #4D4A49",
"V  c #514F42",
"C  c #514E4D",
"Z  c #555446",
"A  c #585647",
"S  c #575548",
"D  c #595748",
"F  c #5D5B4C",
"G  c #5C5957",
"H  c #635341",
"J  c #615E4E",
"K  c #666454",
"L  c #696656",
"P  c #626059",
"I  c #75726C",
"U  c #767474",
"Y  c #7C7B70",
"T  c #821C0C",
"R  c #881D0A",
"E  c #8E230B",
"W  c #932917",
"Q  c #853114",
"!  c #95331E",
"~  c #A83D0F",
"^  c #AB3F10",
"/  c #8E3827",
"(  c #883D2C",
")  c #993B22",
"_  c #A03F22",
"`  c #AC4313",
"'  c #AC4218",
"]  c #AE4B1E",
"[  c #B54B1C",
"{  c #99492D",
"}  c #954932",
"|  c #964933",
" . c #9E573B",
".. c #B34F23",
"X. c #BC5426",
"o. c #B25A2F",
"O. c #BC5B2A",
"+. c #A3583C",
"@. c #B65532",
"#. c #BC5E30",
"$. c #B96535",
"%. c #BC6A39",
"&. c #C05426",
"*. c #C2632E",
"=. c #C16537",
"-. c #CB6933",
";. c #CB663B",
":. c #C56B3B",
">. c #CD6B3B",
",. c #D06A3A",
"<. c #CC733C",
"1. c #D6723E",
"2. c #A06146",
"3. c #A5674A",
"4. c #BC734F",
"5. c #BB7955",
"6. c #C57642",
"7. c #CB7542",
"8. c #C47B45",
"9. c #CD7942",
"0. c #D47443",
"q. c #D87745",
"w. c #D47A43",
"e. c #DB7A44",
"r. c #D37D4A",
"t. c #DA7B4B",
"y. c #858377",
"u. c #878578",
"i. c #888779",
"p. c #8C8B7F",
"a. c #CB834A",
"s. c #DF8243",
"d. c #D4824C",
"f. c #DE834E",
"g. c #C78256",
"h. c #CA8C55",
"j. c #DA8653",
"k. c #D68B51",
"l. c #DC8954",
"z. c #D99157",
"x. c #DE995E",
"c. c #E18245",
"v. c #E68C45",
"b. c #EA9348",
"n. c #E28C54",
"m. c #E48D5A",
"M. c #EA9A55",
"N. c #E5965A",
"B. c #CC8D62",
"V. c #CF9969",
"C. c #D49664",
"Z. c #DA9864",
"A. c #E59D63",
"S. c #EB9D63",
"D. c #DEA166",
"F. c #DFA569",
"G. c #DDAD74",
"H. c #D7A978",
"J. c #EAA567",
"K. c #E5A36B",
"L. c #E9A86A",
"P. c #E4A872",
"I. c #EAAB75",
"U. c #E4B275",
"Y. c #EBB172",
"T. c #E4B379",
"R. c #EDB37A",
"E. c #E8BA7D",
"W. c #908E81",
"Q. c #E3B681",
"!. c #E7BB81",
"~. c #EABC83",
"^. c #F0B880",
"/. c #EDC48A",
"(. c #EFC98D",
"). c #F4CA8E",
"_. c #ECC690",
"`. c #F2D197",
"'. c #F5D598",
/* pixels */
"U G W.p.p.p.p.p.p.W.p.p.p.p.p.W.p.p.p.p.W.p.p.p.p.p.W.W.p.W.p.p.W.p.p.p.p.W.I Z ",
"P r J F D z z z N N z F F F N z z z z z z N z z N v N N k S F F J F F V j j $ . ",
"i.K L L F j j j j g j K L J l g j j j j j j j j g j j j g D L K K K K N $ $ % = ",
"y.F L L J j j j j g k K L K k g j j j j j j j j g j j j g F L K L K L N $ $ $ $ ",
"y.F S D Z j g l j j j Z S Z j j j j j j j j j j l j j j g V S S S S S N = = = $ ",
"y.S g r g g g g j j j g g g j j j j j j j j j j j j g j j g g g g j r g j l = $ ",
"y.D l j j j g l j j j j j j j j j j j j j g g j j j j j g l j j j j j j j j = % ",
"y.D j j j j g j j j j j j j l g j j j j N V V l r j j j g j j j j j j j j j = % ",
"y.D g j j j l j j j j j g j l g j j g j F L K N g l j j j j j j j j j j j j = % ",
"y.D l j j j j j j j j r g g g g j j j j J L K N r j j j j j l j j j j j j j = $ ",
"y.D j j j j j j j j l N N N l g g j j j S D F l j j j j j j j j j j j j j j = % ",
"y.D j j j j j j j j j K K K k g l j j j g g g j l g g j j j j j j j j j j j = $ ",
"y.D g g g g j g j j k K L K l r 8 > > > , > 9 = r r N r j j j j j j j j j j r & ",
"y.D N N N j g l j j j D F D e ; ) @.@.B.C.9.) < 3 7 % j j j j j j j j j j j = # ",
"y.J K K F g j j j j N % q 4 : &.n.9.G.Y.S.z.$.g.D.{ < 7 w l j j j j j j j j # . ",
"y.J L L F j j g j w 5 < T : R X...h./.l.r.8.~.`.!.N.r.T ; 4 r j = j j j j j $ . ",
"y.J F F D j g g r 2 R ..1.O.' ~ ^ 8.a.>.%.E.(.N.<.j.l.8.4.{ u k l g j j g j # . ",
"y.D j j r g l r 1 ' -.n.a.8.V.F.A.O.[ [ $.`.Z.,.m.d.8.E.T.N.=.p k j j g j j $ . ",
"y.D j j l g j 5 E -.0.6.a.(.`.K.j.w.O...O.o.*.q.9.a.U.z.0.,.t.W 7 l g j j j $ . ",
"y.D j j j g l 5 ! t.1.o.G.U.d.n.7.#.a.T.U.<...` ] k.k.>.c.v.t.! 6 l j j j j $ O ",
"y.D j j j r N 4 +.K.0.:.z.<.e.j.8.T./.K.x.N.=.:.X.*.1.M.Y.f.I.o.9 l j g j j = $ ",
"y.D j j j j l 5 | /.A.0.0.e.t.=.h._.D.0.r.8.U.~.x._ @.N.R.)./.| 5 l g j j j = $ ",
"Y Z N j l j g r 0 3.(.I.n.b.0.;.a.9.,.>.%.U.U.w.0.>.) 4.h.H.2.0 k g r j j j = $ ",
"B @ K P F j j r x s 3.C.R.I.j.q.0.s.S.w.6.T.r.-.0.q.#.- 3 3 m c r j j j j j = & ",
"B + L K J g j j r N f ( +.5.).P.m.M.J.t.1.t.e.J.M.e.;.1 x H c r j j j j j j = & ",
"B + L K F g j j j = c H y d | g.).I.K.A.n.t.e.N.M.L.A.Q q r r j g j j g r j = $ ",
"B + K L F j j j = N r t b b f d / V.'.~.^.R.I.P.R./. .a = N N = j j j = $ & & $ ",
"B + K L J g j j l = N = r r v x n d ( | V.Q.Q.Q.Q.2.f t N r j j j j j = & & $ & ",
"Z # P K F j j j j j = l N j r h c V M f i p p p p f N r = N = N j j j = $ & & $ ",
"Y N z k j j j g j = N = = = N = r t y y H H H H H y r j l = l = g j j = $ $ & $ ",
"y.F j r j g g j = N j j j j j j j j t r r w w r t r j j j j = N j g j = $ $ & & ",
"y.Z l j j j j j N = j j j j j j j j r N = N r r r N j j j = N = j j j = $ $ = $ ",
"y.S j j j j j g * * = g j g j j j j j j j j j j j j j j j j j j j j j g g g = $ ",
"y.S j j j j j g & & * g j g j j j j j j j j j j j j j j j j g j j j j j j j = $ ",
"y.D j j j j j g & $ $ g j g g j g j j j j j j r j j j j g g j j j j j g g j = $ ",
"y.S j j j j j = O O O $ = = g j j g j j j j j j j j = $ = r j g j j j = $ = $ $ ",
"y.D j j j j j = o . o $ & & r g g j g g g g j g j j = $ $ r j j j g j = & & & $ ",
"y.F j j j j g = o . o $ & & r l g j l j j l j j j j = $ * = j j j j g = $ & & & ",
"G + = * = * = $ o . o O O O & = $ = = & = = & = = * $ $ * $ = $ = * * & & & + O ",
"B   * * * & & $ o . . o . o $ $ $ $ $ $ $ & $ $ $ $ $ $ * & & & & & & & $ & + . "
};
