/* XPM */
static char *MTI_[] = {
/* columns rows colors chars-per-pixel */
"40 40 180 2 ",
"   c #231F1E",
".  c #24201F",
"X  c #262220",
"o  c #292623",
"O  c #2D2A25",
"+  c #312D27",
"@  c #302F28",
"#  c #36362D",
"$  c #38372F",
"%  c #37382E",
"&  c #38382F",
"*  c #3B3B32",
"=  c #710F09",
"-  c #62140F",
";  c #69170D",
":  c #6C1A0F",
">  c #7A170B",
",  c #621915",
"<  c #641A14",
"1  c #6C1B12",
"2  c #711C14",
"3  c #6D2014",
"4  c #6D241A",
"5  c #4A2723",
"6  c #472A25",
"7  c #4A2B25",
"8  c #502620",
"9  c #542B21",
"0  c #5C2D23",
"q  c #46342D",
"w  c #4A382F",
"e  c #55332B",
"r  c #433730",
"t  c #433C34",
"y  c #4B3D33",
"u  c #503F34",
"i  c #762D21",
"p  c #7A2E22",
"a  c #603222",
"s  c #653A2E",
"d  c #783727",
"f  c #763E2E",
"g  c #643F31",
"h  c #414137",
"j  c #434339",
"k  c #48473B",
"l  c #42483D",
"z  c #4C4B3E",
"x  c #584537",
"c  c #544539",
"v  c #55483B",
"b  c #5D493A",
"n  c #694233",
"m  c #614D3C",
"M  c #4D4D41",
"N  c #4D4A49",
"B  c #514F42",
"V  c #514E4D",
"C  c #555446",
"Z  c #585647",
"A  c #575548",
"S  c #595748",
"D  c #5D5B4C",
"F  c #5B5857",
"G  c #5D5D54",
"H  c #635341",
"J  c #65574A",
"K  c #615E4E",
"L  c #656354",
"P  c #696656",
"I  c #626059",
"U  c #686958",
"Y  c #75726C",
"T  c #767474",
"R  c #7C7B70",
"E  c #821C0C",
"W  c #881D0A",
"Q  c #8E230B",
"!  c #932C1A",
"~  c #853114",
"^  c #96341E",
"/  c #A83D0F",
"(  c #8E3827",
")  c #883D2C",
"_  c #993B22",
"`  c #AC4313",
"'  c #AC4218",
"]  c #AE4B1E",
"[  c #B54B1C",
"{  c #9A482E",
"}  c #954932",
"|  c #934A34",
" . c #9E573B",
".. c #B34F23",
"X. c #BC5426",
"o. c #B25A2F",
"O. c #BC5B2A",
"+. c #A3583C",
"@. c #B65532",
"#. c #BC5E30",
"$. c #B96535",
"%. c #BC6A39",
"&. c #C05426",
"*. c #C2632E",
"=. c #C16336",
"-. c #C16837",
";. c #CB6933",
":. c #C56B3B",
">. c #CD6B3B",
",. c #D06A3A",
"<. c #CC733C",
"1. c #D6723E",
"2. c #A06146",
"3. c #A5674A",
"4. c #BC734F",
"5. c #BB7955",
"6. c #C57642",
"7. c #CB7543",
"8. c #C47B45",
"9. c #CD7942",
"0. c #D47443",
"q. c #D87745",
"w. c #D47A43",
"e. c #DC7B44",
"r. c #D37D4A",
"t. c #DA7C4B",
"y. c #C17950",
"u. c #858377",
"i. c #878578",
"p. c #888779",
"a. c #8C8B7F",
"s. c #CB844A",
"d. c #DF8243",
"f. c #D4824C",
"g. c #DE834E",
"h. c #CA8C55",
"j. c #DA8653",
"k. c #D68B51",
"l. c #DC8954",
"z. c #D99157",
"x. c #DC935D",
"c. c #DE995E",
"v. c #E18245",
"b. c #E68C45",
"n. c #EA9348",
"m. c #E28C54",
"M. c #E48D5A",
"N. c #EA9A55",
"B. c #E5965A",
"V. c #ECA25A",
"C. c #CC8D62",
"Z. c #CF9969",
"A. c #D49664",
"S. c #DA9864",
"D. c #E59D63",
"F. c #EB9D63",
"G. c #DEA166",
"H. c #DFA569",
"J. c #DDAD74",
"K. c #D7A978",
"L. c #EAA567",
"P. c #E5A36B",
"I. c #E9A86A",
"U. c #EAAB75",
"Y. c #E4B275",
"T. c #EBB172",
"R. c #E4B379",
"E. c #EDB37A",
"W. c #E8BA7D",
"Q. c #908E81",
"!. c #E3B681",
"~. c #E7BB81",
"^. c #EABC83",
"/. c #F0B880",
"(. c #EFC385",
"). c #EDC48A",
"_. c #EFC98D",
"`. c #F4CA8E",
"'. c #F2D197",
"]. c #F5D598",
/* pixels */
"T G Q.a.a.Q.a.a.a.Q.a.a.a.a.a.a.a.a.a.a.Q.a.a.a.Q.a.Q.a.a.a.p.a.a.a.p.a.a.a.Y S ",
"I t K D S z z z z z z D K D z z z z z z z M z z z z M M z S K K K D K C j k # . ",
"p.L P P G j h h j h j L P K k j j j j j j j j h j j t j h S P L P L U z # # & & ",
"u.D P P K j j h j j j L P L k j j j j j j j j j j j j j h D P L P P P z @ & # # ",
"u.D A S C h h j j j j C A C j j j j j j j j j j j j j j h B A A C C A j * * & # ",
"u.A j j h h j j j j j j j h j j j j j j j j j h j j j j j j h h j j j j j j * $ ",
"u.S j j j j j j j j j j h j j j j j j j j j * j j j j j h j j j j j j j j j * $ ",
"u.S j j j j h j j j j j j j j j j j j j M C C j h j j j j j j j j j j j j j * $ ",
"u.S h j j j h j j j j j h j j h j j j j D P I M h j j j j j j j j j j j j j * $ ",
"u.S j j j j h j j j h h h h j j j j h j K P L z h j j j j j j j j j j j j j * $ ",
"u.S j j j j j j j j j M M M j j j j j j C S F k j j j j h M j j j j j h j j * $ ",
"u.S j j j j j j j j j L P I j j j j j h j j t j j j j j j j j j j j j j j j * * ",
"u.S * h h j j j j j k L P L j j j j j j j j j j j j j j j j j j j j j j j j * & ",
"u.D M M M j j j j j j S D S M j j j j j j j j j j j j j j j j j j j j j h h * O ",
"u.K P P D j j j j j j j h h j j j j j h t l j j j j j j j j j j j j j j j j #   ",
"u.D P P G j j j j j j j h j j t 5 - - , , , 9 t t j j j h j h j h j j j j j +   ",
"u.D D G A j j j j h j j j h e : _ X.@.C.A.7.^ 1 4 9 r j j k M M k j j j j j #   ",
"u.S h j j j j j j j l w q 5 > &.l.9.J.Y.V.z.$.s.G.} 2 q r G P L z h j j j l #   ",
"u.S j j j j j j j t 7 : > > Q [ ..h.).l.r.4.(.].~.B.9.E ; e J U C h j h j j #   ",
"u.S j j j j * l t 3 W ..w.O.` / ` 8.s.>.%.W.).c.<.g.l.6.y.{ d Z z h j j j j # . ",
"u.S j j j j j r 2 ' ;.m.s.8.Z.J.D.&.[ [ $.'.S.,.M.f.8.W.R.c.=.4 r j j h j j * # ",
"u.S j h j h M 6 Q ;.w.7.s.).].H.k.w.$.] O.o.*.q.9.s.Y.x.w.,.e.! 6 l j j j j h # ",
"R B M j j j j 5 ( t.0.o.J.I.r.m.9.#.s.R.U.<.[ ` ] k.g.>.v.b.t.! 6 l h j j j * # ",
"N + L L D t l 8 +.F.1.:.z.<.e.j.8.R.).P.c.B.-.:.O.O.1.V.T.j.U.o.9 j j j j j * # ",
"N O P L G j j 6 | _.D.0.w.e.t.=.h._.G.w.f.8.Y.(.c.{ @.M.E.`.(.} 7 j j j j j h # ",
"N O P L D j j t 0 3._.U.m.n.0.>.s.w.,.>.%.Y.Y.<.0.;._ 4.C.K.2.0 j j j j h j & # ",
"N O P P G j j t v s 3.A.^.U.j.q.0.e.B.r.7.Y.w.,.0.q.&.= < 4 g c j j j * # # # # ",
"N O P P K h j j t v s ) +.5.`.P.M.N.L.r.1.f.d.L.N.v.7.2 b J c t j j j * # # # & ",
"V + L L D j j j j t M m s f } C.`.U.P.F.M.t.e.B.B.L.D.~ w t t j j h j * # & # # ",
"R B k j j j j j j j t y c x s f ( Z.].^./.E.U.U.U.). .a j j j j j h j * # # & # ",
"i.Z j j j j j j j j j l t t v x g f ) } Z.!.!.!.!.2.s w j j j j j j j * # # # & ",
"u.Z j j j j j j j * l * M t t u u b H g i p p p p n x j j j j j h h j * # & & # ",
"u.Z j j j j j h * % % j j j j * j y y u m H H m H c t j j j j j j j j j h h * # ",
"u.Z j j j j j h # $ $ h j j h j j j h j w w w y w t j j j h h j j j j h j j * & ",
"u.S j j j j j h $ # $ j j h j j j j j j h h h j h j j j j j j j j j j h h j * # ",
"u.S j h j j j * o o o % * * h j h j j h j j j j j j * * * * j j j j j * & & & # ",
"u.Z j h j h h * X   X # $ $ h h j h j j j j h h j j & $ $ * j j j j j * # # # # ",
"u.S h h j j h * X   X # $ $ j j j h j j j j j h j j & # & * j j j j j * # & & & ",
"G @ * * * * * # X   X o o o % % % * * % * * % * * * $ # $ & * & & & & & # # @ o ",
"N   $ $ % $ $ # X     X   X # % # # $ # # $ # $ $ $ # $ $ # # # & # & # # & O . "
};
