/* XPM */
static char *Zmxvb3I_[] = {
/* columns rows colors chars-per-pixel */
"40 40 81 1 ",
"  c #110E0F",
". c #181415",
"X c #191616",
"o c #1D1919",
"O c #1E1B1A",
"+ c #221E1E",
"@ c #231E1E",
"# c #231F1F",
"$ c #24201F",
"% c #252220",
"& c #252320",
"* c #272422",
"= c #292623",
"- c #2A2824",
"; c #2D2C27",
": c #302F28",
"> c #313129",
", c #35332C",
"< c #35322D",
"1 c #34342C",
"2 c #36342D",
"3 c #36372D",
"4 c #38352E",
"5 c #38342F",
"6 c #37382E",
"7 c #38382F",
"8 c #393630",
"9 c #393930",
"0 c #3A3A31",
"q c #3B3B32",
"w c #3C3C34",
"e c #3D3C34",
"r c #3E3E35",
"t c #3F3F36",
"y c #413F36",
"u c #404036",
"i c #414138",
"p c #434238",
"a c #424338",
"s c #434338",
"d c #424239",
"f c #424339",
"g c #44443A",
"h c #46463C",
"j c #48473C",
"k c #48483D",
"l c #4C4B3F",
"z c #4C4C40",
"x c #4D4C40",
"c c #4E4C40",
"v c #4F4E42",
"b c #504F42",
"n c #515042",
"m c #515144",
"M c #535044",
"N c #545245",
"B c #555447",
"V c #565547",
"C c #565548",
"Z c #575548",
"A c #585749",
"S c #59574A",
"D c #59584A",
"F c #5A584A",
"G c #5B594B",
"H c #5C5B4D",
"J c #5F5D4E",
"K c #5F5E4F",
"L c #605E4F",
"P c #616050",
"I c #636151",
"U c #646253",
"Y c #656354",
"T c #666454",
"R c #686655",
"E c #686656",
"W c #696756",
"Q c #6A6757",
"! c #6A6857",
"~ c #6A6858",
"^ c #6B6958",
/* pixels */
" &lllzxxzxxzhxcccccccczcccccczzzzllxzc3.",
"4MW^ISVSCCS~~~SCSCCCSCSCCDCCCY~WWW^GnNt;",
"N^ITHuyyttdKYKsyuuuutttysrrsySIYIYTh:226",
"bWTWJssssszYWYhdguggshdssssdrGWTTW^c2226",
"MYMCMsssdshbCMhsssssshddssssdnCCVVVh7073",
"MKiisssssdssstsdssrsssdsssssguguygssfft3",
"MKssddssdsgdssdssssssstsssshusssffsfffq3",
"MKsgdsstdsssgddsshsszvvhdyssgsssssgssgw1",
"MPidhssddssddddsddssKTYztdsdggsdddhssst8",
"MPifdsdsgsssstsdddisKYYzddgdsdsgdssstsw7",
"MKsssddsssdzvzdsddysMHSzsddsdsdgtsstddt<",
"MKssssgssshUYKzsdfssssssdsdgggdszdtssd0<",
"MKrfsssftdhTEYhshdssdgssssddssdgsshsfdt8",
"MIzzhsusdddGHCgssssssgdgshdddgdsssssfd8:",
"m^IYHfsssdsssssdsdsdsdgdsdddssgsssguff<O",
"mTY^Jfssdsddsddsdsddgdssddississssugfh<*",
"bYHHCssddsgdgddshdsdsdggsdgsszzzhsdssd:+",
"MKtssdssgdssssgdsshdgdsdsgdssSYYvtdssg2+",
"MLssdsdssddgdggssgsdgsdsddgggHYYvssssh<+",
"MKsddssssgsgdsdsdddsdsgggssddbKKzsssyd8&",
"MUssssssddgssdgggsgsdgsdddssdudsssssfgw3",
"CLstusssgsgdgdsdsgdsdsgdddssgdusdssrff03",
"zSzhggsssgsdgsdsddggggssgsgsggddsdssfgq3",
"o<LYJssgddsgdsgggssdsddggdddsdgdgussusw3",
".<TTKsssdgssdgsddssgsggdsdgsddgsssssydw3",
".<TTKssssgdgdsgdggddddsssgdsgsgdsssstdw3",
"o<TTHdsssdgdggsssdgsgsdgddggsgsdusdr8776",
".<TTKtssgdsdsddgsgdsgdsggssdddsgsssq<722",
"O<KYHsssddddddgdddgsgsdddssgggsdsssq6222",
"zHhhgsssssssgsssgsgddsgsggddsdsgussq6661",
"bUissiisddddssdgsgsddgsgsdgsdsdgssf06233",
"bHsddsdsssssdssgddsgsgddsgdsggdsufgq6666",
"MKsdssst877ffsugsgsddhdsddsssssgsssrtf06",
"MUtsssss622sffsssssdssddsdddssufssssssr2",
"bKsssssr331fgsufysgssddsdsssgssgssssssq6",
"MKsssssr==-802gfsssysssssdr<4rsftsst8702",
"MKfffsgr%%&127usussssgffsd766wgussfq6366",
"bUffguur%%&277ssggsssugfdd766rgftsiw3326",
"-8807776%+%&==877077407000766706007736:&",
"o*226622+%+%%%<63663666228261266<878<6;+"
};
