/* XPM */
static char *Mg__[] = {
/* columns rows colors chars-per-pixel */
"40 40 60 1 ",
"  c #242815",
". c #26281B",
"X c #27291E",
"o c #28291F",
"O c #282920",
"+ c #2A2A24",
"@ c #2B2A25",
"# c #2B2B26",
"$ c #2C2B28",
"% c #2C2B29",
"& c #2D2B2A",
"* c #2D2B2B",
"= c #2E2C2C",
"- c #2F2C2E",
"; c #2F2C2F",
": c #302C30",
"> c #312C32",
", c #322D35",
"< c #342E3B",
"1 c #362F3E",
"2 c #362F3F",
"3 c #3A3048",
"4 c #3C314C",
"5 c #3E3252",
"6 c #3F3253",
"7 c #403255",
"8 c #403355",
"9 c #403356",
"0 c #42345A",
"q c #44345E",
"w c #4F3877",
"e c #51397C",
"r c #523A7D",
"t c #533B81",
"y c #5F409C",
"u c #60409D",
"i c #6E45BD",
"p c #6F46BE",
"a c #7046C2",
"s c #7146C4",
"d c #7548CD",
"f c #7B4BDA",
"g c #7C4BDC",
"h c #804DE5",
"j c #854FF0",
"k c #864FF3",
"l c #894EFF",
"z c #8750F4",
"x c #8951F9",
"c c #8B51FC",
"v c #8B51FE",
"b c #8A50FF",
"n c #8C52FF",
"m c #8E53FF",
"M c #9053FF",
"N c #9154FF",
"B c #9455FF",
"V c #915AFF",
"C c #935CFF",
"Z c #9966FF",
/* pixels */
"nnnnnnnnnnnnnnnnnnnnnnnnnnnnnnnnnnnnnnvC",
"nnnnnnnnnnnnnnnnnnnnnnnnnnnnnnnnnnnnnnvC",
"nnnnnnnnnnnnnnnnnnnnnnnnnnnnnnnnnnnnnnvC",
"nnnnnnnnnnnnnnnnnnnnnnnnnnnnnnnnnnnnnnvC",
"nnnnnnnnnnnnnnnnnnnnnnnnnnnnnnnnnnnnvvvC",
"nnnnnnnnnnnnnnnnnnnnnnnnnnnnnnnnnnnnvvvC",
"nnnnnnnnnnnnnnnnnnnnnnnnnnnnnnnnnnnnvvvV",
"nnnnnnnnnnnnnnnnnnnnnnnnnnnnnnnnnnnnnnvC",
"nnnnnnnnnnnnnnnnnnnnnnnnnnnnnnnnnnnnnnvC",
"nnnnnnnnnnnnnnnnnnnvnnnnnnnnnnnnnnnnnnvC",
"nnnnnnnnnnnnnnnnnnnnnnnnnnnnnnnnnnnnnnvC",
"nnnnnnnnnnnnnvnvvvccccccvnvvnnnnnnnnnnvC",
"nnnnnnnnnnnnnnvnnNnNNnNNnnvvnnnnnnnnvvvC",
"nnnnnnnnnnnnnvnvdpapaaaifnvvnnnnnnnnvvvC",
"nnnnnnnnnnnnnvnv8o$$$$=.tNcvnnnnnnnnvvvV",
"nnnnnnnnnnnnnvnv8$:$++$ rNcvnnnnnnnnnnvC",
"nnnnnnnnnnnnnlnm8+&&8804yNcvnnnnnnnnnnvC",
"nnnnnnnnnnnnnnnx8+&1jccxnnnvnnnnnnnnnnvC",
"nnnnnnnnnnnnnxml8+=1NBBBnvnvnnnnnnnnnnvC",
"nnnnnnnnnnnnnnvv8+=,uuuthNlcnnnnnnnnnnvC",
"nnnnnnnnnnnnvnnx8+:&ooooaNcvnnnnnnnnvvvC",
"nnnnnnnnnnnnNlnc8+&&+@+oamnvnnnnnnnnvvvC",
"nnnnnnnnnnnnnnvN8+&>weewfNvvnnnnnnnnvvvV",
"nnnnnnnnnnnnnxnx8@&1lnNNnnnnnnnnnnnnnnvC",
"nnnnnnnnnnnnnnnl6+=1znxlnncvvnnnnnnnnnvC",
"nnnnnnnnnnnnnlnn8#=1zmnnnnlnmvnnnnnnnnvC",
"nnnnnnnnnnnnnnnx5@#<zvnnnnnnnnnnnnnnnnvC",
"nnnnnnnnnnnnnxnnq-,3zncnnnnnnnnnnnnnnnvC",
"nnnnnnnnnnnnnnnlzzzkvvvvnnnnnnnnnnnnvvlC",
"nnnnnnnnnnnnnncnvvnnnnvmnnnnnnnnnnnnvvvC",
"nnnnnnnnnnnnnnnnnnnlnnnnnnnnnnnnnnnnmvvC",
"nnnnnnnnnnnnnnnnnnnnnnnnnnnnnnnnnnnnnnvC",
"nnnnnnnnnnnnnnnnnnnnnnnnnnnnnnnnnnnnnnvC",
"nnnnnnnnnnnnnnnnnnnnnnnnnnnnnnnnnnnnnnvC",
"nnnnnnnnnnnnnnnnnnnnnnnnnnnnnnnnnnnnnnvC",
"nnnnnnnnnnnnnnnnnnnnnnnnnnnnnnnnnnnnvvlC",
"nnnnnnnnnnnnnnnnnnnnnnnnnnnnnnvvnnvvnnvC",
"nnnnnnnnnnnnnnnnvvnnnnnvnnvvnnvvnnvvnnlC",
"nlnlnlnlvllvvvvllvvvvlvvvvvlvvvvvvvvvvlV",
"CCCCCCCCCCCCCCCCCCCCCCCCCCCCCCCCCCCCCCCZ"
};
