/* XPM */
static char *cGxheWVyLWQw[] = {
/* columns rows colors chars-per-pixel */
"40 40 163 2 ",
"   c #1F1C1A",
".  c #231F1E",
"X  c #24201F",
"o  c #262220",
"O  c #292623",
"+  c #2D2A25",
"@  c #302F28",
"#  c #36362D",
"$  c #38372E",
"%  c #37382E",
"&  c #38382F",
"*  c #382137",
"=  c #3C2C37",
"-  c #3B2439",
";  c #3D2D38",
":  c #3E3437",
">  c #3B3B32",
",  c #3E3238",
"<  c #3F3938",
"1  c #412A3D",
"2  c #403E35",
"3  c #42343B",
"4  c #413C39",
"5  c #483D3F",
"6  c #414137",
"7  c #434339",
"8  c #49453B",
"9  c #4C4B3E",
"0  c #462E41",
"q  c #482F43",
"w  c #4B3345",
"e  c #4C3B44",
"r  c #4E3648",
"t  c #513F46",
"y  c #533B4B",
"u  c #583E4E",
"i  c #583F50",
"p  c #4F4245",
"a  c #4D4C41",
"s  c #4D4A49",
"d  c #524247",
"f  c #534D44",
"g  c #5B4D47",
"h  c #56434B",
"j  c #59444C",
"k  c #524C4A",
"l  c #555446",
"z  c #585647",
"x  c #575548",
"c  c #59554A",
"v  c #5D5C4C",
"b  c #5C4251",
"n  c #5C4B51",
"m  c #575454",
"M  c #5E5B57",
"N  c #5F5C59",
"B  c #62554E",
"V  c #615E4E",
"C  c #644652",
"Z  c #644C56",
"A  c #694C55",
"S  c #654C59",
"D  c #6B4F5C",
"F  c #625C52",
"G  c #6D535E",
"H  c #70515A",
"J  c #666454",
"K  c #686656",
"L  c #626059",
"P  c #6D6259",
"I  c #6E5761",
"U  c #725761",
"Y  c #735964",
"T  c #7A5C65",
"R  c #7C6167",
"E  c #756C62",
"W  c #7E626B",
"Q  c #7C686B",
"!  c #797166",
"~  c #767474",
"^  c #7C7B70",
"/  c #826165",
"(  c #896A67",
")  c #82646C",
"_  c #8B666A",
"`  c #8D696C",
"'  c #946C6E",
"]  c #816771",
"[  c #836971",
"{  c #8A6D74",
"}  c #8D747A",
"|  c #927470",
" . c #9B7273",
".. c #93757A",
"X. c #94797E",
"o. c #9C7A7D",
"O. c #A17977",
"+. c #A57D7B",
"@. c #A87F7E",
"#. c #858377",
"$. c #878578",
"%. c #888779",
"&. c #8C8B7F",
"*. c #A8817E",
"=. c #957B80",
"-. c #9B7D81",
";. c #A07F82",
":. c #908E81",
">. c #A48386",
",. c #AC8684",
"<. c #AC8B86",
"1. c #A78588",
"2. c #A68A8B",
"3. c #AC8B8B",
"4. c #B28D8C",
"5. c #B7918E",
"6. c #B8938F",
"7. c #A98F91",
"8. c #AA9090",
"9. c #B49493",
"0. c #BA9693",
"q. c #B19897",
"w. c #BE9A96",
"e. c #B29898",
"r. c #BD9C99",
"t. c #B6A199",
"y. c #BEA19E",
"u. c #BDA89D",
"i. c #BEA3A0",
"p. c #C29E9A",
"a. c #C6A39E",
"s. c #C8A49F",
"d. c #C0A7A3",
"f. c #CAA7A2",
"g. c #C5ABA6",
"h. c #CCA9A4",
"j. c #C7ADA8",
"k. c #CBAEA9",
"l. c #D0ADA7",
"z. c #D1AFA9",
"x. c #C3B0A4",
"c. c #CEB4AE",
"v. c #D3B4AD",
"b. c #D0B6B0",
"n. c #D1B7B1",
"m. c #D8B7B0",
"M. c #D6BAB2",
"N. c #D9BAB2",
"B. c #DABCB4",
"V. c #DABFB8",
"C. c #DEC0B7",
"Z. c #DCC1B9",
"A. c #E2C5BC",
"S. c #E5C8BF",
"D. c #E5C9BF",
"F. c #E6CAC0",
"G. c #E6CBC1",
"H. c #E8CDC2",
"J. c #E9CEC4",
"K. c #EACFC4",
"L. c #EBD0C5",
"P. c #ECD1C6",
"I. c #EFD3C8",
/* pixels */
"~ N &.&.&.&.&.&.:.&.&.&.&.&.:.&.&.&.&.:.:.&.&.&.&.:.:.&.&.&.&.&.:.&.&.&.&.&.! m ",
"L 2 V V z 9 9 9 9 9 9 v v v 9 9 9 9 9 9 9 9 9 9 9 9 9 9 9 z V v v v v l 7 7 # X ",
"%.J J K V 7 7 7 7 6 7 F J v 4 3 < < 3 < < < < 3 < < < 3 3 k M V J J K a # # % % ",
"#.v K K V 7 7 7 7 7 8 J J f ; ; ; = = , ; ; = ; = = ; = = 3 e c J K K a # # # # ",
"#.v x c l 6 6 7 7 7 7 l k e q q w q q q q w w r w r w w w w e p l l l 7 > > & # ",
"$.x 7 7 6 6 7 7 7 6 2 < w S T ) W W ) ) ] { } } } } } } { ) U h : < < 7 7 7 > % ",
"#.x 7 7 7 7 6 7 7 7 4 = e T 3.9.9.9.0.9.r.g.v.b.b.b.b.v.d.r.o.G 0 , 7 7 7 7 > % ",
"$.x 7 7 7 7 6 7 2 < e y I o.p.l.h.h.l.z.N.S.K.P.P.P.P.K.A.N.9.T 0 , < 7 7 7 > # ",
"#.z 7 7 7 7 7 7 : 1 n ) ;.9.f.h.f.h.v.V.Z.G.K.K.K.K.L.H.D.A.y.W 0 , < 7 7 7 > & ",
"#.x 7 7 7 6 7 7 , ; D >.a.f.f.f.f.h.N.G.P.K.K.K.K.K.J.K.J.L.j.Q 0 ; < 7 7 7 > # ",
"%.z 7 7 7 7 7 < ; 1 D 1.h.h.f.f.f.z.N.G.K.K.J.J.K.L.L.K.L.L.j.Q q ; < 7 7 7 > # ",
"#.x 8 7 7 7 7 7 ; ; G >.f.h.f.h.f.k.M.K.P.I.K.J.L.K.K.K.L.I.k.[ q ; 7 7 6 7 6 % ",
"#.z 7 7 7 6 7 < ; 1 D 1.h.h.f.h.f.f.f.k.j.j.k.V.F.K.J.J.V.b.8.Y 0 = < 7 6 7 < & ",
"%.x a 9 9 6 7 7 , 1 D >.h.f.f.f.f.a.2.{ ~ Q =.7.Z.K.K.F.i.=.Y b 0 , < 6 7 7 > @ ",
"#.V J J v 7 6 7 ; 1 D >.h.f.f.f.f.p.{ y 0 0 y =.b.L.K.A.8.S 0 - - , 4 7 6 7 @ . ",
"#.v K K v 6 7 6 , ; D 1.f.f.f.h.f.p.{ q * * q =.b.P.K.F.2.b * - - , 4 7 7 7 # . ",
"#.v v M z 7 7 4 ; 1 G 1.f.f.h.f.h.p.] q * * w =.v.K.K.A.2.i * * - 3 3 7 7 7 @ . ",
"#.z 7 7 6 7 7 6 3 ; Z X.w.p.f.f.h.p...b y y S -.b.K.K.A.q.Y r w - = 6 7 7 7 # . ",
"#.z 7 7 7 7 7 6 4 3 d A ) >.a.g.f.f.4.=.=.-.7.h.A.J.K.G.c.q.=.S 1 , 4 7 7 7 # . ",
"#.z 7 7 7 7 7 7 6 6 4 1 u { 0.f.a.a.p.p.h.m.A.F.K.H.K.J.F.A.i.W 0 , 4 7 7 7 # O ",
"#.z 7 7 7 7 7 7 6 7 4 , w G ..>.;.;.>.p.a.B.F.C.v.m.A.F.F.G.i.W w = 4 7 7 7 > # ",
"%.z 7 7 7 7 7 7 7 6 6 4 5 t j b i C / O.0.m.A.l.0.w.m.K.V.M.q.Y 1 = 4 7 7 7 > # ",
"^ a 9 9 7 7 7 7 7 7 7 7 2 , - 0 r i T ;.6.h.m.p.;.,.f.B.v.f.1.Y 1 3 4 7 7 7 > % ",
"k + J J v 7 6 7 7 7 6 7 4 , ; y ] -.1.6.0.p.p.4.@.@.9.p.0.5.o.D 1 , 4 7 7 7 > $ ",
"s + K J v 7 7 7 7 7 6 7 2 3 - G 0.B.l.s.p.4.+.+.O.O.+.@.+.+._ A 1 = 4 7 7 7 > & ",
"s + K J v 7 7 7 7 7 6 4 5 n I =.g.A.m.l.p.6.,.4.6.6.6.6.,.+._ C 1 3 4 6 6 6 > # ",
"s + J J v 7 7 7 7 6 < = t ] q.d.h.v.l.f.a.p.p.h.v.m.m.v.a.*._ C 1 = 7 > & # $ # ",
"s + K K v 6 7 7 6 2 4 = y -.V.A.l.s.f.f.f.f.l.N.A.H.K.A.s.+./ C 1 3 2 & # $ # # ",
"s @ J J v 7 7 7 7 7 4 = y ..k.z.p.5.p.a.l.v.m.N.B.B.B.v.6./ C t 4 : 6 2 # # % # ",
"^ l 7 8 8 6 7 7 7 7 < = r { p.p.,.@.5.a.v.A.A.N.v.h.h.a.X.j 1 3 6 7 7 & # & # # ",
"%.x 6 7 6 7 7 7 7 7 < , r Y -.+.` ` ,.h.B.A.H.M.a.6.3.>.R e 3 4 7 7 6 > # & # & ",
"#.z 7 7 7 7 7 7 7 6 < 4 5 h S S b A o.v.S.F.A.h.6.O.) S j e > 4 7 7 7 > # # & # ",
"#.z 7 7 7 7 7 6 % % & 6 4 < ; - * e } V.P.L.S.f.<.` C 3 3 e 2 2 6 7 7 7 7 7 & # ",
"#.z 7 7 7 7 7 7 % % % 6 6 < 3 ; - w } Z.L.K.Z.s.*.| / A j 3 3 2 2 7 7 7 7 7 > & ",
"%.z 7 7 7 7 7 6 % # % 6 7 < 4 3 - w =.Z.I.I.H.s.*. .' ` G 5 1 3 7 7 7 7 6 7 > # ",
"#.z 7 7 7 7 7 > O O O % % > 6 4 , w Q t.x.i.u.8. .( ( / A 3 3 2 6 7 6 2 & & $ # ",
"#.x 7 7 7 7 7 > o . X # % % 6 6 < 4 c E ! ! E P B B g 9 5 5 2 2 7 6 6 & $ $ & & ",
"%.z 7 6 7 6 7 > o X o # % % 6 7 6 7 7 7 8 8 8 7 8 7 2 $ $ 2 7 7 7 7 6 2 # $ & & ",
"M @ > > > > > # o X o O O O % > % > > > > > > % > % % # # $ & $ 2 & $ $ # $ @ X ",
"s   % # % # # # o X X X X X # # # # # # # # # # # # $ % # # $ # # # # # # $ + X "
};
