/* XPM */
static char *cGxheWVyLXMy[] = {
/* columns rows colors chars-per-pixel */
"40 40 149 2 ",
"   c #1F1C1A",
".  c #231F1E",
"X  c #24201F",
"o  c #262220",
"O  c #292624",
"+  c #2E2A25",
"@  c #302F28",
"#  c #36362D",
"$  c #38372E",
"%  c #37382F",
"&  c #38382F",
"*  c #3A2B36",
"=  c #3C253A",
"-  c #3C2A38",
";  c #373130",
":  c #393232",
">  c #3C3B32",
",  c #3E3238",
"<  c #3F3838",
"1  c #412B3D",
"2  c #403D36",
"3  c #42353B",
"4  c #423B39",
"5  c #414137",
"6  c #434339",
"7  c #48473B",
"8  c #4C4B3E",
"9  c #462E42",
"0  c #482F43",
"q  c #473241",
"w  c #4B3345",
"e  c #4C3A43",
"r  c #503D45",
"t  c #51374A",
"y  c #523B4A",
"u  c #593E4F",
"i  c #593E50",
"p  c #4E4C42",
"a  c #4D4A49",
"s  c #514F42",
"d  c #55434A",
"f  c #5B434E",
"g  c #555446",
"h  c #585647",
"j  c #575548",
"k  c #59554A",
"l  c #5D5B4C",
"z  c #5E4552",
"x  c #5D4C52",
"c  c #5E5B57",
"v  c #5F5C59",
"b  c #615E4E",
"n  c #614656",
"m  c #634954",
"M  c #694C54",
"N  c #674B59",
"B  c #694E5B",
"V  c #645157",
"C  c #6C525D",
"Z  c #70565E",
"A  c #666454",
"S  c #696656",
"D  c #626059",
"F  c #6F5360",
"G  c #725661",
"H  c #745A64",
"J  c #785C66",
"K  c #7B5E68",
"L  c #7C636C",
"P  c #75726C",
"I  c #767474",
"U  c #7C7B70",
"Y  c #836166",
"T  c #83646D",
"R  c #88676F",
"E  c #866770",
"W  c #846A72",
"Q  c #896B72",
"!  c #8D7176",
"~  c #8D747A",
"^  c #93757A",
"/  c #94787E",
"(  c #9B7A7E",
")  c #A37C7B",
"_  c #858377",
"`  c #888779",
"'  c #8C8B7F",
"]  c #9D7D81",
"[  c #A07F82",
"{  c #9D8285",
"}  c #908E81",
"|  c #A48386",
" . c #AC8482",
".. c #A78688",
"X. c #A88788",
"o. c #A48A8C",
"O. c #AC8B8B",
"+. c #B18A87",
"@. c #B38E8B",
"#. c #B7918D",
"$. c #B49392",
"%. c #BA9693",
"&. c #B79897",
"*. c #BD9996",
"=. c #B69C9B",
"-. c #BE9C99",
";. c #BAA09E",
":. c #BDA3A1",
">. c #C19D9A",
",. c #C5A29D",
"<. c #C8A49F",
"1. c #C4A5A2",
"2. c #CAA6A1",
"3. c #C6ABA7",
"4. c #CAAAA5",
"5. c #CDAAA4",
"6. c #CCABA5",
"7. c #C7ACA8",
"8. c #CDAFA9",
"9. c #D0AEA7",
"0. c #CBB1AC",
"q. c #CEB3AE",
"w. c #D3B3AC",
"e. c #D4B3AC",
"r. c #D6B5AE",
"t. c #D7B7AF",
"y. c #D7B8AF",
"u. c #D0B6B0",
"i. c #D2B7B1",
"p. c #D8B7B0",
"a. c #D7BAB2",
"s. c #D8B8B1",
"d. c #DABCB3",
"f. c #DCC0B7",
"g. c #DFC2B9",
"h. c #DFC4BC",
"j. c #E0C2B9",
"k. c #E1C3BA",
"l. c #E2C5BB",
"z. c #E2C6BD",
"x. c #E4C8BD",
"c. c #E5C9BF",
"v. c #E6CAC0",
"b. c #E9CDC3",
"n. c #EACEC3",
"m. c #EACFC4",
"M. c #EBCFC4",
"N. c #EAD0C4",
"B. c #ECD1C6",
/* pixels */
"I v ' ' ' ' ' ' ' ' ' ' ' ' ' ' ' } ' ' ' ' ' ' } ' } ' ' ' ' ' ' ' ' ' ' } P k ",
"D 2 b b h 8 8 8 p p 8 l b l s p 8 8 8 8 p p 8 8 8 8 8 p 8 k l l b l l s 6 7 # X ",
"` A A S b 6 6 6 6 5 6 b S b 6 6 5 5 6 6 6 6 6 6 5 5 6 6 5 l S A S A S 8 # # % % ",
"_ l S S b 6 6 6 5 5 p A A k 4 4 4 4 4 4 4 4 < 4 4 4 4 4 > l S A S S S p # # # # ",
"_ l k k g 5 5 6 6 5 6 g p e - - - - - - - - - - - - * , > s k j g g h 7 > > % # ",
"_ k 6 6 5 5 6 6 6 5 6 6 4 q q w w t w w w t w w w q w q 4 4 < 5 5 5 5 5 6 6 > % ",
"_ h 6 6 6 6 6 6 5 5 4 4 d C T Q ! ~ ~ ~ ~ ~ ~ ~ ~ Q T H z 3 4 5 6 7 6 6 6 6 > % ",
"_ h 6 6 6 6 6 6 6 4 , - m / $.1.q.u.u.u.u.u.u.u.q.3.&.( C - < 4 6 6 6 6 6 6 > % ",
"_ h 6 6 6 6 6 5 < 4 y z W $.r.k.m.B.B.B.B.B.B.B.m.g.p.-.Q z d 4 4 4 5 6 6 6 > % ",
"_ k 6 6 6 6 6 5 < e Z / $.8.k.c.m.m.m.m.m.m.m.m.m.v.h.w.&.] H y , < 5 6 6 6 > % ",
"` h 6 6 6 6 6 < - t W *.w.g.m.m.m.m.m.m.m.m.m.m.m.m.m.z.r.>.! i - < 5 6 6 6 > % ",
"_ h 6 6 6 6 6 < - t Q >.p.k.m.m.m.m.m.B.m.N.m.m.m.m.m.z.s.,.^ i - 3 6 6 5 6 < % ",
"_ h 5 5 5 6 6 < - t Q -.y.l.N.N.N.m.N.m.B.m.m.B.B.B.B.l.s.>.^ i = 4 6 6 6 6 > : ",
"_ h p p 8 6 6 < - t W -.6.3.3.3.7.u.z.N.m.N.h.u.4.7.3.3.4.,.^ i = < 4 6 6 6 > @ ",
"_ b A S l 6 6 < - w Q *.$./ W W W { 0.m.m.B.q.o.W W W ~ $.-.^ u = 4 5 6 6 6 @ . ",
"_ b S S l 6 6 < = t Q *.| B 9 9 9 F :.B.m.B.:.L w 9 9 n / -.^ u = 4 5 6 6 6 # . ",
"_ l b c k 6 5 3 = t R *.) n = = = F =.m.N.N.:.J = = = u ^ -.^ u - < 4 6 5 6 #   ",
"_ h 6 6 5 6 5 4 = t Q *.[ n = 1 = B =.N.n.B.:.H 1 = = u ^ -.^ i = < 6 5 6 6 # . ",
"_ h 6 6 6 6 5 4 - t K X.^ B t t i L :.N.n.N.3.Q u u t N ~ O.E z - < 6 6 6 6 : o ",
"_ h 6 6 6 6 6 4 4 4 n G T R ^ [ o.=.a.N.N.B.a.;.o.] / Q T H V d p < 6 6 6 6 $ o ",
"_ h 6 6 6 6 6 5 4 4 q w G ) <.e.f.h.c.B.n.M.c.c.g.e.2. .J w 3 3 2 5 5 6 6 6 > # ",
"` h 6 6 5 6 6 5 4 4 e f Y ) 6.9.q.u.s.k.k.k.f.r.w.9.6.@.R u y 4 4 > 6 6 6 6 > # ",
"U s 8 7 7 6 6 3 - 3 m Y ) >.>.>.@.%.2.w.9.w.<.*.@.%.<.>.) Y M w * < 5 6 6 6 > # ",
"a + A A l 4 6 4 y n Y ) ) >.>.>. .O.*.,.,.,.*.+. .@.>.>.@.) R M y a 5 5 6 6 > # ",
"a + S S l < 3 x ! { X.@.#.@.>.>.<.>.%.@.@.@.%.>.<.-.>.+.>.>.) [ ! x e < 5 6 5 # ",
"a + S A h - - H =.s.w.,.%.X.' >.k.r.#.) ) ) @.9.g.2.+.' +.>.9.d.:.L q * < 5 > # ",
"a + A A k - 1 J 1.j.e.2.>.@.@.9.c.k.2.#.#.%.,.d.c.w.#.+.>.2.e.k.1.L 9 * : # # # ",
"a + S S k - - C $.e.9.5.<.>.<.t.n.x.d.p.p.p.d.v.n.s.,.>.>.6.6.w.-.H 9 * : # # % ",
"a + A A k - 9 B | >.>.-.>.<.9.d.c.M.n.v.M.M.n.M.c.s.9.2.>.>.>.>. .G 9 * & # % # ",
"U s 6 p 6 4 3 d H R T E [ $.9.w.t.s.d.d.s.s.s.s.s.w.9.%.[ R R R J z 3 : # # % # ",
"` l 6 6 5 5 4 4 3 0 0 0 G X.6.2.6.6.6.6.9.5.5.5.9.9.9.O.Y 0 0 0 3 4 6 & # # # % ",
"_ j 6 6 6 6 6 < 1 = = 1 Z [ 2.6.2.>.@.| X.[ O.*.<.5.6.O.G = = 1 - 4 6 > # % % # ",
"_ h 6 6 6 6 6 > : : * 1 B | 6.6.6.$.R B B B R O.2.6.6.@.H 1 * 3 3 2 6 5 > 6 > # ",
"_ h 6 6 6 6 6 5 & & * - B ] >.>.>.] m = = = n ^ *.-.-.| C 1 3 4 5 5 6 6 6 7 > % ",
"_ h 6 6 6 6 6 6 % & # 3 d H R Q Q H d , 3 < r G W Q Q J x 3 4 5 6 6 6 5 6 6 > # ",
"_ k 6 6 6 6 6 > O X O : 3 w t t t e 4 5 4 4 4 e t t t e 3 < 5 6 6 6 6 > & # > # ",
"_ k 6 6 6 6 6 > o X X # # * = * - , 2 6 6 6 4 , * - = * @ 3 6 6 6 6 6 > # # # # ",
"_ h 6 6 6 6 6 > X X X # $ : < 4 < 4 4 6 6 5 5 4 4 3 ; # % 5 5 5 6 6 6 > # # # # ",
"v @ > % > % > # o X X O O O $ : % & & % > > % % & $ $ # # % % % $ > % & # % @ O ",
"a   % % % % % # o X X X X X # # # $ % # # $ $ $ $ $ $ $ $ # $ $ & # & # # % + X "
};
