/* XPM */
static char *NA__[] = {
/* columns rows colors chars-per-pixel */
"40 40 55 1 ",
"  c #261C28",
". c #271E28",
"X c #282028",
"o c #2A2329",
"O c #2B252A",
"+ c #2C272B",
"@ c #2C282B",
"# c #2C292B",
"$ c #2D2A2B",
"% c #2E2C2C",
"& c #2E2E2C",
"* c #2F2F2C",
"= c #2F302D",
"- c #31332D",
"; c #31342D",
": c #353D2F",
"> c #353C30",
", c #374131",
"< c #384431",
"1 c #3C4B33",
"2 c #3C4C33",
"3 c #3D4E34",
"4 c #3F5135",
"5 c #415535",
"6 c #4A6A3A",
"7 c #558140",
"8 c #588842",
"9 c #5C9144",
"0 c #5E9545",
"q c #629C47",
"w c #65A449",
"e c #66A64A",
"r c #68AB4B",
"t c #6BB04C",
"y c #6FB94E",
"u c #72BF50",
"i c #76C852",
"p c #77CB53",
"a c #7AD155",
"s c #7CD556",
"d c #7CD656",
"f c #7DD756",
"g c #7BD853",
"h c #7CD855",
"j c #7ED957",
"k c #7FDC57",
"l c #80DD57",
"z c #80DD58",
"x c #84DA5F",
"c c #81E159",
"v c #83E45A",
"b c #84E65A",
"n c #88F05C",
"m c #85DB61",
"M c #8CDD6A",
/* pixels */
"jjjjjjjjjjjjjjjjjjjjjjjjjjjjjjjjjjjjjjhm",
"jjjjjjjjjjjjjjjjjjjjjjjjjjjjjjjjjjjjjjhm",
"jjjjjjjjjjjjjjjjjjjjjjjjjjjjjjjjjjjjjjhm",
"jjjjjjjjjjjjjjjjjjjjjjjjjjjjjjjjjjjjjjhm",
"jjjjjjjjjjjjjjjjjjjjjjjjjjjjjjjjjjjjjjhm",
"jjjjjjjjjjjjjjjjjjjjjjjjjjjjjjjjjjjjjjhm",
"jjjjjjjjjjjjjjjjjjjjjjjjjjjjjjjjjjjjjjhm",
"jjjjjjjjjjjjjjjjjjjjjjjjjjjjjjjjjjjjjjhm",
"jjjjjjjjjjjjjjjjjjjjjjjjjjjjjjjjjjjjjjhm",
"jjjjjjjjjjjjjjjjjjjjjjjjjjjjjjjjjjjjjjhm",
"jjjjjjjjjjjjjjjjjjjjjjjjjjjjjjjjjjjjjjhm",
"jjjjjjjjjjjjgjjjfffffffjjfjjjjjjjjjjjjhm",
"jjjjjjjjjjjjjjjlccccckkjgjfjjjjjjjjjjjhm",
"jjjjjjjjjjjjfjjtwwwwryacjjjfjjjjjjjjjjhm",
"jjjjjjjjjjjjjjf1O$$$@%>7gjgjjjjjjjjjjjhm",
"jjjjjjjjjjjjfjf3+%$$+%@ 6zjfjjjjjjjjjjhm",
"jjjjjjjjjjjjfjj3O%%3,@&&orcfjjjjjjjjjjhm",
"jjjjjjjjjjjjjjf3O$-ij6+-X8cfjjjjjjjjjjhm",
"jjjjjjjjjjjjfjf2O@;in0X&X7bffjjjjjjjjjhm",
"jjjjjjjjjjjjjjj3O%;ii4+-X9bgjjjjjjjjjjhm",
"jjjjjjjjjjjjgjf3O=&<-O&@%ulfjjjjjjjjjjhm",
"jjjjjjjjjjjjjjf2O&&O&@+X7cfgjjjjjjjjjjhm",
"jjjjjjjjjjjjfjj3O=@&@&<0zjjjjjjjjjjjjjhm",
"jjjjjjjjjjjjjjf3O@;qryfcjjjfjjjjjjjjjjhm",
"jjjjjjjjjjjjgjf2O&;gbjjfjjjjjjjjjjjjjjhm",
"jjjjjjjjjjjjfjj2O@;ijfjfjjjjjjjjjjjjjjhm",
"jjjjjjjjjjjjjjf2O@=pjjjjjjjjjjjjjjjjjjhm",
"jjjjjjjjjjjjfjf5&-:pkjjjjjjjjjjjjjjjjjhm",
"jjjjjjjjjjjjgjjaaaajjgjjjjjjjjjjjjjjjjhm",
"jjjjjjjjjjjjjjjjjjjjjjjjjjjjjjjjjjjjjjhm",
"jjjjjjjjjjjjjjgfjfjjjfjjjjjjjjjjjjjjjjhm",
"jjjjjjjjjjjjjjjjjjjjjjjjjjjjjjjjjjjjjjhm",
"jjjjjjjjjjjjjjjjjjjjjjjjjjjjjjjjjjjjjjhm",
"jjjjjjjjjjjjjjjjjjjjjjjjjjjjjjjjjjjjjjhm",
"jjjjjjjjjjjjjjjjjjjjjjjjjjjjjjjjjjjjjjhm",
"jjjjjjjjjjjjjjjjjjjjjjjjjjjjjjjjjjjjjjhm",
"jjjjjjjjjjjjjjjjjjjjjjjjjjjjjjjjjjjjjjfm",
"jjjjjjjjjjjjjjjjjjjjjjjjjjjjjjjjjjjjjjgm",
"gfjhhhhhhhhhhhhhhhhhhhhhhhhhhhhhhhhhhjgx",
"mmxmmmmmmmmmmmmmmmmmmmmmmmmmmmmmmmmmmmxM"
};
