/* XPM */
static char *cGxheWVyLWQx[] = {
/* columns rows colors chars-per-pixel */
"40 40 162 2 ",
"   c #1F1C1A",
".  c #231F1E",
"X  c #24211F",
"o  c #261F21",
"O  c #252120",
"+  c #2A2524",
"@  c #2E2A25",
"#  c #2E222A",
"$  c #33252E",
"%  c #302F28",
"&  c #36362D",
"*  c #38372E",
"=  c #37382F",
"-  c #39382F",
";  c #3A2B35",
":  c #3C253A",
">  c #3C2A39",
",  c #393331",
"<  c #3B3B32",
"1  c #3F3438",
"2  c #3F3938",
"3  c #412A3D",
"4  c #403E35",
"5  c #41353A",
"6  c #413B39",
"7  c #493B3F",
"8  c #414137",
"9  c #434239",
"0  c #484739",
"q  c #4B4A3E",
"w  c #462D42",
"e  c #4B3445",
"r  c #4B3A43",
"t  c #513546",
"y  c #51374A",
"u  c #553B4D",
"i  c #593D4C",
"p  c #5A3F50",
"a  c #4E4442",
"s  c #4D4D40",
"d  c #4D4A49",
"f  c #514247",
"g  c #534C43",
"h  c #584B45",
"j  c #57444C",
"k  c #5B434D",
"l  c #5C4E48",
"z  c #565546",
"x  c #585647",
"c  c #575548",
"v  c #5A544A",
"b  c #5D5C4C",
"n  c #5C4353",
"m  c #5D4B51",
"M  c #5F5A54",
"N  c #5F5C59",
"B  c #615F4E",
"V  c #624656",
"C  c #644A54",
"Z  c #684955",
"A  c #654A59",
"S  c #694E5B",
"D  c #6C5255",
"F  c #625A52",
"G  c #665159",
"H  c #6A515D",
"J  c #78565E",
"K  c #7D5F5F",
"L  c #666454",
"P  c #686656",
"I  c #626059",
"U  c #70645B",
"Y  c #73695F",
"T  c #6E5461",
"R  c #735663",
"E  c #745965",
"W  c #7D5D65",
"Q  c #755C68",
"!  c #795E69",
"~  c #776E63",
"^  c #7D636C",
"/  c #75726C",
"(  c #7F6670",
")  c #767474",
"_  c #7C7B70",
"`  c #856664",
"'  c #886965",
"]  c #83656D",
"[  c #886469",
"{  c #83696F",
"}  c #8E686B",
"|  c #816770",
" . c #846A72",
".. c #8A6B72",
"X. c #966E70",
"o. c #8D7473",
"O. c #8F757C",
"+. c #9B7474",
"@. c #92757A",
"#. c #9C7A7D",
"$. c #A17877",
"%. c #A57D7B",
"&. c #858377",
"*. c #878578",
"=. c #88847C",
"-. c #8C8A7E",
";. c #A8807E",
":. c #9C7D81",
">. c #9D8286",
",. c #908E81",
"<. c #9D8884",
"1. c #9F8588",
"2. c #A58586",
"3. c #AB8481",
"4. c #AF8886",
"5. c #A1878A",
"6. c #A88789",
"7. c #A58A8C",
"8. c #AC8B8C",
"9. c #B18A87",
"0. c #B18E8D",
"q. c #AC918B",
"w. c #B6918D",
"e. c #AD9293",
"r. c #B49493",
"t. c #BA9692",
"y. c #B39997",
"u. c #BD9A96",
"i. c #B49A99",
"p. c #BC9C9A",
"a. c #BDA2A1",
"s. c #C09A96",
"d. c #C19E9A",
"f. c #C5A29D",
"g. c #C8A59F",
"h. c #C3A6A2",
"j. c #CAA7A2",
"k. c #CDAAA4",
"l. c #C7ADA8",
"z. c #CDAEA9",
"x. c #D0AEA8",
"c. c #CCB1AC",
"v. c #D3B3AC",
"b. c #D0B6B0",
"n. c #D8B7B0",
"m. c #D6BAB3",
"M. c #DBBCB4",
"N. c #DDBFB7",
"B. c #DEC1B7",
"V. c #DEC2B9",
"C. c #E1C3BA",
"Z. c #E2C4BB",
"A. c #E0C6BC",
"S. c #E4C8BE",
"D. c #E6CBC0",
"F. c #E6CBC1",
"G. c #E9CDC2",
"H. c #E9CDC3",
"J. c #EACFC4",
"K. c #EBCFC5",
"L. c #EBD0C5",
"P. c #ECD1C6",
/* pixels */
") N -.-.-.-.-.-.,.-.,.-.=.&.=.=.=.=.=.=.=.=.=.=.=.=.=.=.=.&.=.,.-.-.-.-.-.,./ v ",
"I 4 B B x q q q q s s v x a 5 5 5 5 5 5 5 5 5 5 5 5 5 5 5 7 g x b b B g 9 0 & X ",
"*.L L P b 9 0 0 9 9 0 F v r > : : : : : : : : : : : : : : w f M L L L s & & = - ",
"&.b P P M 0 9 9 9 6 9 v m C n A V V V V A S S T H T H S A V m l b M P s & & & & ",
"&.b c c s 9 9 9 9 4 6 r V ] :.%.:.:.:.:.6.r.y.y.y.y.y.e.5.#.Q j 7 a c 0 < < = & ",
"&.c 9 9 9 9 9 9 9 6 5 e R 4.j.j.k.k.k.x.M.D.P.P.P.H.P.A.M.h.@.i : 1 8 9 9 8 8 & ",
"&.z 0 9 9 9 9 9 5 7 V W :.r.k.j.k.x.v.M.C.H.H.H.P.H.P.D.B.v.:.n > 5 9 9 8 9 < = ",
"&.c 9 9 9 9 9 2 3 y ! 8.s.f.j.j.j.x.N.D.D.H.H.P.P.H.H.H.H.B.5.V > 2 9 9 9 9 < = ",
"&.x 9 9 9 9 9 6 > y  .d.k.k.k.k.k.c.A.P.K.J.J.L.H.P.J.J.P.A.7.n : 5 9 9 9 9 < = ",
"&.x 9 9 9 9 9 2 > y ..u.k.j.k.j.k.c.A.P.P.P.P.P.P.H.J.J.P.A.7.A : 5 9 9 9 9 2 & ",
"&.x 9 9 9 9 9 2 > y ..u.k.k.k.k.j.c.V.A.A.A.D.F.H.P.H.D.D.m.1.n > 2 9 9 9 9 < & ",
"&.x 0 9 9 9 9 2 > y ..u.k.j.j.j.k.d.e.5.7.5.i.b.J.P.P.V.a.1.( u > 5 6 9 9 9 < & ",
"&.x 9 9 9 9 9 2 : y ..u.k.k.j.j.k.0.! p u u | i.F.K.P.c.:.n e 3 > 2 6 9 9 9 < & ",
"&.b s s 0 9 9 2 > y ..u.k.k.j.j.k.:.V : : : H i.F.J.P.c.( : : : > 2 9 9 9 9 < % ",
"&.B L L M 9 9 2 > y  .d.k.j.j.j.k.6.A : : : T e.F.K.J.a.( 3 : : > 1 9 9 9 9 % o ",
"&.b P P b 9 9 2 > y ] r.h.h.j.j.k.:.S w w w T i.F.K.F.a.:.e 3 : > 1 9 9 9 9 & . ",
"&.b b b c 9 9 2 1 r D ..2.u.j.j.k.r.X.R ^ ] >.l.G.K.P.m.e. .A e > 5 6 9 9 0 % o ",
"&.z 9 9 9 9 9 9 6 9 r k ] 0.k.k.k.h.r.0.s.g.b.C.H.P.P.S.m.a.O.n > 1 9 9 9 9 & . ",
"&.x 9 9 9 9 9 9 9 6 5 3 V @.r.r.r.u.d.j.n.S.S.C.V.A.D.H.H.C.>.n > 5 9 9 9 9 & o ",
"&.x 9 9 9 9 9 9 9 9 6 5 f S E E R [ :.w.k.C.C.j.f.v.S.S.V.z.:.n > 1 9 9 9 9 & O ",
"&.x 9 9 9 9 9 9 9 9 9 9 2 w w w w V [ :.d.C.n.s.%.d.B.C.m.f.@.i > 1 6 9 9 9 < & ",
"*.x 9 9 9 9 9 9 9 9 9 9 1 ; > n R ] :.9.s.x.g.9.%.w.j.x.f.r...i > 2 9 9 8 9 < = ",
"_ z s 0 0 9 9 9 9 9 9 9 2 ; w | i.h.d.s.s.9.4.%.$.%.9.9.3.%.W t > 1 9 0 9 9 < = ",
"d @ L I b 8 9 9 9 9 9 2 a y A 7.N.C.v.j.t.3.:.4.3.3.3.:.%.+.J t > 1 9 9 9 9 < & ",
"d @ P L b 9 9 9 9 2 2 6 m ( 1.p.v.n.x.j.j.g.j.g.j.j.g.s.9.+.J t > 1 9 9 9 9 2 & ",
"d @ L P b 8 9 9 0 6 1 3 R y.N.v.x.k.j.k.v.C.S.S.S.S.S.n.t.+.J t > 1 6 9 9 9 < & ",
"d @ P L b 9 8 9 9 4 1 3 E y.C.v.j.k.x.n.M.C.A.C.Z.Z.Z.x.2.` C 7 1 2 9 < & = & & ",
"d + P P B 9 9 9 9 6 1 3 T 8.v.z.j.x.M.C.M.v.x.v.x.v.v.t.[ i r 7 2 9 9 < & & & = ",
"z & L L b 9 9 9 9 9 1 > A :.d.f.k.v.C.H.N.x.k.k.k.k.z.0.R 3 > 6 9 9 9 < & & = & ",
"_ s 9 0 9 9 9 9 9 6 2 5 j R ..r.v.C.S.H.Z.N.M.M.M.M.M.p.! 3 1 6 9 9 9 < & = & & ",
"=.z 9 9 9 9 9 9 9 9 9 6 6 5 u >.N.H.H.J.H.H.H.H.H.D.H.l.^ w > 6 9 8 9 < & = & = ",
"&.z 9 9 9 9 9 9 9 9 6 6 a m E e.C.H.S.C.v.h.a.a.a.l.v.i.! 3 1 6 9 9 0 < & = = & ",
"&.x 9 9 9 9 9 8 = = , 1 A :.i.b.D.D.N.z.8. .E E ! @.8.%.Z 3 3 6 9 9 9 9 8 8 < & ",
"&.x 9 9 9 9 9 9 & & ; 3 Q a.P.F.H.B.k.0.^ y : : 3 V X.} Z 3 5 5 4 9 9 9 9 0 < & ",
"*.c 9 9 9 9 9 9 & & , 3 Q a.J.V.B.h.2.] G r > > 3 Z } X.` Z k 7 5 4 9 9 9 9 < & ",
"&.c 9 9 9 9 9 < + + $ > Q a.J.V.v.8.E r r 6 6 > 3 V X.+.+.} D e > 5 9 < - - = & ",
"&.c 9 9 9 9 9 8 O O # > G <.a.i.q.o.k > 1 2 2 1 3 m K ' ' ` D r > 4 9 < & & & & ",
"*.c 9 9 9 9 9 < O O + & a M ~ ~ U F a 6 6 9 9 2 6 f h h h l h 7 6 6 9 < & & = = ",
"F & < & < < < & O . X + + @ < 2 < < < = < < = = * - - - * - < - < - < = & = % + ",
"d   < & & & & % O O X X X X & & & & & & = = & & & & * & & & * & & & & & & = @ . "
};
