/* XPM */
static char *cGxheWVyLWEy[] = {
/* columns rows colors chars-per-pixel */
"40 40 161 2 ",
"   c #1F1C1A",
".  c #231F1E",
"X  c #24201F",
"o  c #252220",
"O  c #292524",
"+  c #2D2A25",
"@  c #2F242B",
"#  c #302F28",
"$  c #36362D",
"%  c #38372F",
"&  c #37382F",
"*  c #38382F",
"=  c #3A2737",
"-  c #3A2C36",
";  c #3C253A",
":  c #3D2A39",
">  c #373230",
",  c #3B3433",
"<  c #3B3B32",
"1  c #3E3239",
"2  c #3F3938",
"3  c #412B3D",
"4  c #403E36",
"5  c #41353B",
"6  c #413D39",
"7  c #483A3E",
"8  c #414137",
"9  c #434339",
"0  c #49463C",
"q  c #4B493E",
"w  c #452D40",
"e  c #482F42",
"r  c #4B3245",
"t  c #473940",
"y  c #4C3A44",
"u  c #4F3649",
"i  c #50374A",
"p  c #553C4C",
"a  c #5D3F4E",
"s  c #4D4343",
"d  c #4D4B41",
"f  c #4D4A49",
"g  c #504047",
"h  c #524D44",
"j  c #54444A",
"k  c #59454E",
"l  c #5C4C4D",
"z  c #555446",
"x  c #585647",
"c  c #575448",
"v  c #595649",
"b  c #5D5B4C",
"n  c #5C4453",
"m  c #575454",
"M  c #5F5C59",
"N  c #615E4E",
"B  c #624655",
"V  c #664B5A",
"C  c #6A4E5B",
"Z  c #675057",
"A  c #6B515D",
"S  c #705B57",
"D  c #73525B",
"F  c #666454",
"G  c #696656",
"H  c #626059",
"J  c #6D5461",
"K  c #715662",
"L  c #755964",
"P  c #7A5A63",
"I  c #765C68",
"U  c #7B5F6A",
"Y  c #756166",
"T  c #7E626B",
"R  c #75726C",
"E  c #767474",
"W  c #7C7B70",
"Q  c #856166",
"!  c #82656C",
"~  c #866A6F",
"^  c #8E6B6F",
"/  c #936E6E",
"(  c #85716A",
")  c #846A73",
"_  c #8A6E75",
"`  c #8D7A73",
"'  c #8D737A",
"]  c #947275",
"[  c #9B7475",
"{  c #94757A",
"}  c #99777A",
"|  c #9B797C",
" . c #A17877",
".. c #A47C7B",
"X. c #858377",
"o. c #878578",
"O. c #888779",
"+. c #8C8B7F",
"@. c #92837A",
"#. c #A8817F",
"$. c #977D82",
"%. c #9B7D81",
"&. c #9C8184",
"*. c #908E81",
"=. c #9C8E83",
"-. c #A28386",
";. c #AB8481",
":. c #AF8886",
">. c #A28689",
",. c #A48A8C",
"<. c #AD8C8D",
"1. c #B18A87",
"2. c #B28C8A",
"3. c #B6918D",
"4. c #B8938F",
"5. c #AA8F90",
"6. c #AE9393",
"7. c #B39494",
"8. c #BA9692",
"9. c #B79897",
"0. c #BD9996",
"q. c #B69B9A",
"w. c #BC9C9A",
"e. c #BEA3A1",
"r. c #C09B97",
"t. c #C39F9C",
"y. c #C5A29D",
"u. c #C8A49F",
"i. c #C4A5A1",
"p. c #CAA6A1",
"a. c #C5AAA7",
"s. c #CCA8A3",
"d. c #CDA8A3",
"f. c #CDA9A4",
"g. c #CEA9A4",
"h. c #CFACA6",
"j. c #CAAEA9",
"k. c #D1AFA9",
"l. c #CCB2AC",
"z. c #D4B3AC",
"x. c #D7B8AF",
"c. c #D3B7B0",
"v. c #D9B9B1",
"b. c #DABCB4",
"n. c #DDBEB5",
"m. c #DEC0B7",
"M. c #DDC2B9",
"N. c #DEC2B9",
"B. c #E2C5BB",
"V. c #E2C6BD",
"C. c #E5C9BE",
"Z. c #E4C9BF",
"A. c #E5CAC0",
"S. c #E7CBC1",
"D. c #E7CCC1",
"F. c #E9CDC2",
"G. c #E9CEC4",
"H. c #EACFC4",
"J. c #EBD0C5",
"K. c #EBD1C5",
"L. c #ECD1C6",
/* pixels */
"E M +.+.+.+.+.+.+.*.+.+.+.+.+.+.+.+.+.+.*.*.+.+.+.+.*.*.+.+.+.+.+.+.+.+.+.+.R b ",
"H 4 N N x q q q q q q v b v q q q q q q q q q q q q q q q c b b N b b h 9 0 $ X ",
"o.F F G N 9 9 9 6 6 6 j j j 1 1 1 5 5 1 5 1 1 1 - 1 1 6 8 v G F G F G q $ $ $ * ",
"X.b G G N 9 9 9 8 6 1 : 3 3 : : ; : ; : : ; : : ; : : 1 4 v G F F G G q $ $ $ $ ",
"X.b c c z 9 8 6 6 y k B V A J J A A A V V B B B B B B j 7 q h c z z x 0 & 8 & $ ",
"X.x 9 9 8 9 6 2 3 n ! -.,.6.6.6.6.7.6.6.>.%.| %.%.%.{ P y 1 2 2 8 8 8 9 9 9 < & ",
"X.x 9 9 9 9 2 1 ; C -.j.b.A.A.A.D.D.A.M.z.p.p.u.y.p.t.{ n 5 6 6 9 9 9 9 9 9 < & ",
"X.x 9 9 9 9 8 1 w K 6.b.V.G.J.L.L.L.L.A.M.v.z.d.d.d.t.<._ A n 6 2 9 9 9 9 9 < $ ",
"X.x 9 9 9 9 2 1 3 I q.A.G.G.G.G.L.G.G.G.A.A.v.g.p.d.p.t.9.%.D w 1 6 9 9 8 9 2 $ ",
"X.x 9 9 9 9 9 1 3 I e.J.L.G.G.L.H.G.G.G.G.A.n.h.p.d.d.d.d.<.L w - 6 9 9 9 9 < $ ",
"X.x 9 9 9 9 2 - 3 I e.J.L.G.G.G.H.H.G.L.L.G.n.h.p.d.p.p.p.<.L w 1 6 9 9 9 9 2 & ",
"X.x 0 9 9 9 9 1 3 K q.A.A.G.L.G.H.S.A.M.A.M.v.g.d.d.p.d.d.<.L w : 6 9 8 9 9 < & ",
"X.x 9 9 8 9 8 1 ; n $.5.a.Z.L.L.Z.j.5.,.,.5.9.i.d.p.p.d.d.<.L w 1 6 9 9 8 9 < , ",
"X.x d d q 9 2 1 ; r p I 5.M.L.L.B.5.J n B V ' 0.d.d.p.p.d.2.L w - 6 9 9 9 9 < # ",
"X.N F G b 9 8 1 ; ; ; p $.M.L.L.n.$.i ; ; w ! 7.d.p.d.p.d.5.K w - 6 9 9 8 9 # . ",
"X.N G G b 9 8 1 ; ; ; p $.M.L.L.n.$.r ; ; e ! 7.d.p.p.d.d.2.L w 1 6 9 9 9 9 $ . ",
"X.b b N v 9 6 - ; ; : k &.M.L.L.n.$.i 3 3 e ! 8.h.p.d.p.p.<.K w 1 6 8 8 9 9 $   ",
"O.v 9 9 8 9 8 1 : i J ' q.B.K.K.V.q.) L L I | 0.d.p.p.8.%.~ Z p 6 8 9 9 9 9 $ X ",
"X.v 9 9 9 9 6 1 3 A ,.l.M.Z.L.K.G.n.l.e.9.<.0.i.d.h.t.%.C k l Z q 9 9 9 9 9 , . ",
"X.x 9 9 9 9 4 5 3 U w.Z.C.L.Z.B.M.A.G.V.z.y.0.8.7.8.<.~ p 5 h b q 8 9 9 9 9 $ O ",
"X.x 9 9 9 9 9 - 3 J 6.n.B.Z.B.d.i.c.H.n.y.1.} ~ T T T V 7 1 6 8 9 9 9 8 8 9 * $ ",
"X.v 9 9 9 9 6 1 ; A >.k.m.Z.x.3.;.i.B.v.0.[ P p e w 3 t 6 8 8 9 9 9 9 9 9 9 8 $ ",
"W h q 0 9 9 6 - 3 B } 0.u.h.y.1...8.h.u.8.;.] T C i ; - 8 9 9 9 9 9 9 9 9 9 8 $ ",
"f + F F b 9 6 3 3 B ^ :.1.2.#... .%.1.4.8.0.w.y.,.V 3 - 6 9 9 9 9 9 9 8 9 9 < $ ",
"f + G G b 9 4 1 = a Q  ...#.#.#.#.....:.r.d.x.Z.a.) p t 6 9 8 9 9 9 9 9 9 9 < & ",
"f + F F b 9 6 1 3 a Q ..3.y.u.u.u.r.4.r.t.d.h.v.j.6.$.Y g 1 6 9 9 8 9 9 8 8 < $ ",
"f + F G b 9 6 1 3 a Q #.y.m.Z.Z.B.x.p.u.p.p.p.g.k.v.c.&.k : 2 6 9 9 9 8 & $ & $ ",
"f + G F b 9 8 1 3 p D ] 4.n.B.B.B.n.z.k.g.p.t.r.y.v.b.>.a = 5 9 9 8 9 < $ $ $ & ",
"z + F F b 9 8 6 6 7 y Z %.g.z.k.z.n.m.n.z.y.r.1.2.p.d.$.p = 1 9 9 8 9 < $ & $ $ ",
"W h 9 0 0 9 9 9 8 6 : u ! <.y.p.h.n.A.B.z.t.1. .| 2.7._ p : 1 9 9 9 9 < $ & $ $ ",
"X.v 9 9 9 9 9 9 9 6 2 t C ! -.i.n.B.S.m.p.2.] Q D ! ! A y 1 2 9 9 9 0 < $ $ $ $ ",
"X.x 9 9 9 9 9 9 8 8 6 2 7 r U y.Z.H.G.v.0. .D p e r u t 9 8 9 9 9 9 9 < $ & $ $ ",
"X.x 9 9 9 9 9 8 & & , 9 g m { j.J.Z.V.k.4.[ D 3 ; ; : , 4 9 9 9 9 9 9 8 8 8 * $ ",
"X.x 9 9 9 9 9 8 $ $ - y T 6.j.b.G.B.v.y.2./ D r ; 3 5 6 8 9 9 9 9 9 9 9 9 0 8 $ ",
"X.x 9 9 9 9 9 8 $ > ; p $.l.M.V.M.z.i.8.;./ Z 7 : 6 8 8 9 9 9 9 9 9 9 9 9 9 8 $ ",
"X.v 9 9 9 9 9 8 O O @ 7 J O.=.=.=.@.` ( Q S l 7 5 6 < & * 8 9 9 9 9 9 < $ * $ $ ",
"X.v 9 9 9 9 9 < o . o $ 9 d v v v c c h h d s 9 4 4 * * $ 8 9 9 9 8 9 * $ $ $ $ ",
"X.v 9 9 9 9 9 < o o o $ $ $ 2 9 8 8 6 8 8 8 8 9 9 8 * $ $ < 0 9 9 9 9 8 $ & & * ",
"M # < & & & < & o . o O O O $ < < & < < < < $ & * * * $ $ * * * * * * * $ $ # X ",
"f   & & & & & $ o o o o o o $ & $ $ $ $ $ $ $ $ * * % $ * $ $ $ $ $ $ $ $ & # X "
};
