/* XPM */
static char *cGxheWVyLXcx[] = {
/* columns rows colors chars-per-pixel */
"40 40 159 2 ",
"   c #1F1C1A",
".  c #231F1E",
"X  c #24201F",
"o  c #262220",
"O  c #292623",
"+  c #2D2A25",
"@  c #302F28",
"#  c #36362D",
"$  c #38372F",
"%  c #37382E",
"&  c #38382F",
"*  c #3A2637",
"=  c #3B2A37",
"-  c #3B2639",
";  c #3C2C38",
":  c #3B3434",
">  c #3B3B32",
",  c #3E3338",
"<  c #3F3838",
"1  c #402A3D",
"2  c #403E36",
"3  c #42353B",
"4  c #413C39",
"5  c #483E3E",
"6  c #414137",
"7  c #434339",
"8  c #48413C",
"9  c #4B4A3E",
"0  c #452D40",
"q  c #482E41",
"w  c #463240",
"e  c #4C3345",
"r  c #473B40",
"t  c #4A3B42",
"y  c #513749",
"u  c #533B4A",
"i  c #583E4E",
"p  c #593F50",
"a  c #4D4044",
"s  c #4D4C41",
"d  c #4D4A49",
"f  c #514546",
"g  c #524E44",
"h  c #55444B",
"j  c #59424C",
"k  c #554D4B",
"l  c #584C4C",
"z  c #555546",
"x  c #585647",
"c  c #575548",
"v  c #595649",
"b  c #5D5B4C",
"n  c #5C4353",
"m  c #5E4C53",
"M  c #5E5B57",
"N  c #5F5C59",
"B  c #615E4E",
"V  c #614655",
"C  c #644D56",
"Z  c #6C4D57",
"A  c #644D5A",
"S  c #6B4E5C",
"D  c #655157",
"F  c #635F52",
"G  c #6C535C",
"H  c #73525C",
"J  c #666454",
"K  c #696656",
"L  c #626059",
"P  c #745763",
"I  c #755965",
"U  c #7B5D65",
"Y  c #7B5F68",
"T  c #726461",
"R  c #7C626A",
"E  c #75726C",
"W  c #767474",
"Q  c #7C7B70",
"!  c #805F67",
"~  c #83656D",
"^  c #8C696D",
"/  c #836770",
"(  c #846B71",
")  c #8A6D75",
"_  c #877075",
"`  c #8D7177",
"'  c #8D747A",
"]  c #907276",
"[  c #987071",
"{  c #93757A",
"}  c #96787C",
"|  c #9C7A7C",
" . c #A47D7B",
".. c #858377",
"X. c #878578",
"o. c #8C8A7E",
"O. c #93857C",
"+. c #A7807F",
"@. c #997F83",
"#. c #9E8386",
"$. c #908E81",
"%. c #9D8F85",
"&. c #A48486",
"*. c #AC8683",
"=. c #A58B8E",
"-. c #AC8B8B",
";. c #B08986",
":. c #B38D8B",
">. c #B6908D",
",. c #B8948F",
"<. c #A98E90",
"1. c #B39292",
"2. c #BD9793",
"3. c #B79997",
"4. c #BD9894",
"5. c #B69C9B",
"6. c #BD9B99",
"7. c #BFA4A2",
"8. c #C29E99",
"9. c #C4A19D",
"0. c #C5A4A0",
"q. c #CBA7A2",
"w. c #C6A9A5",
"e. c #CDAAA4",
"r. c #CEAAA5",
"t. c #CFACA6",
"y. c #C7AEA8",
"u. c #CEAFA9",
"i. c #D0ADA7",
"p. c #D0AEA9",
"a. c #D1AFA9",
"s. c #CFB3AD",
"d. c #D2B0A9",
"f. c #D3B3AC",
"g. c #D6B5AE",
"h. c #D6B7B0",
"j. c #D4BBB3",
"k. c #D5BBB4",
"l. c #D9BAB2",
"z. c #DBBDB4",
"x. c #DDBEB5",
"c. c #DEBFB7",
"v. c #DDC0B7",
"b. c #DEC3BA",
"n. c #E2C5BB",
"m. c #E2C6BC",
"M. c #E3C6BC",
"N. c #E2C8BD",
"B. c #E6C9BF",
"V. c #E7CBC0",
"C. c #E7CBC1",
"Z. c #E7CCC1",
"A. c #E8CDC2",
"S. c #EACFC4",
"D. c #EBCFC4",
"F. c #EAD0C4",
"G. c #EBD0C5",
"H. c #ECD1C6",
"J. c #EED3C7",
/* pixels */
"W N $.o.o.o.o.$.$.o.o.o.o.o.o.o.o.o.o.o.$.o.o.o.o.o.o.o.o.o.o.o.o.o.o.o.o.o.E b ",
"F 2 B B v 9 9 9 9 9 s v v g 8 5 5 5 5 8 7 t 8 5 5 7 8 9 9 x b b B b B z 6 9 # X ",
"X.J J K b 7 7 7 7 7 8 F l 5 = ; = = = = - - ; ; = = = 3 > b K J J J K s @ # % % ",
"..b K K M 7 7 7 7 7 7 v h e q e e e e e e e e e e e w w 4 x K J J K K s # % # # ",
"..b c v z 7 7 7 7 4 4 f A U / _ { ' ' ' ' ' ' ' ) ( Y A t 5 g x c z c 7 > > > # ",
"..x 7 7 6 6 7 7 6 4 = e R <.0.u.k.k.k.k.k.k.k.k.f.9.1.( u ; 3 > 7 7 6 7 7 7 > % ",
"..x 7 7 7 6 6 2 4 t j P &.e.x.C.G.J.J.J.J.J.J.J.C.c.p.-.I j t 4 > 7 7 7 7 7 > # ",
"..x 7 7 7 7 2 < 3 n ~ =.6.l.m.C.G.G.D.D.D.D.D.D.C.m.x.0.-.( C 3 , 7 7 7 7 7 > % ",
"..x 7 7 7 7 7 , - S &.e.l.C.D.D.S.S.S.S.H.S.H.S.D.D.C.x.u.-.P 0 , < 7 7 7 7 > % ",
"..x 7 7 7 7 2 , 1 S &.u.z.A.G.D.H.S.H.H.S.S.S.D.D.H.G.x.s.-.P 0 , < 7 7 7 7 > # ",
"X.v 7 7 7 7 4 , 1 S &.i.z.C.D.D.S.G.S.S.H.S.H.S.D.D.D.z.u.-.P 0 , < 7 7 7 7 > % ",
"..v 7 7 7 7 4 ; 1 S &.p.l.A.G.D.G.S.S.H.S.S.S.D.D.H.Z.x.p.-.P 0 ; 7 7 7 7 7 > % ",
"..x 7 7 7 7 7 , 1 S &.p.x.A.D.D.S.H.G.S.D.D.H.S.D.D.D.c.p.-.I q ; < 7 7 7 7 > # ",
"X.v s s 9 7 > ; 0 S &.p.l.C.D.D.S.S.S.S.D.D.D.S.D.D.C.x.p.-.P 0 , 4 7 7 7 7 < @ ",
"..B J J b 7 7 , - S &.e.g.x.n.C.S.S.S.S.D.D.D.D.C.n.c.h.e.:.P q ; < 7 7 7 7 @ . ",
"..B J J b 7 6 , 0 S &.e.e.p.h.M.G.G.G.H.D.D.D.D.C.l.p.p.e.<.P 0 , 4 7 7 7 7 # . ",
"..b b M c 7 7 , - C ] 1.6.q.p.x.V.n.m.m.V.V.n.V.c.p.q.6.1.} G w < 4 7 7 7 7 #   ",
"..z 7 7 7 7 6 < 4 i C ~ &.8.p.g.j.h.h.h.g.g.g.h.g.i.9.*.~ G A l a > 7 7 7 7 # . ",
"..x 7 7 7 7 7 7 7 4 1 j ) 8.e.q.e.e.e.e.e.e.e.e.q.e.8.| n w l J s 6 7 7 7 7 # X ",
"..x 7 7 7 7 7 7 2 3 - y Y ;.8.8.q.q.q.q.q.q.q.e.9.8.:.^ u 1 f v s 6 7 6 7 7 # O ",
"..x 7 7 7 7 7 7 7 4 = q H  .;.8.e.e.t.q.q.q.e.e.8.:. .U e * 3 6 7 6 7 7 7 7 > # ",
"..v 7 7 7 7 7 7 4 8 u V U | ;.4.8.0.0.8.0.8.0.8.8.;. .~ C u 5 2 7 6 7 7 7 7 > % ",
"Q s 9 9 7 7 7 < , m / #.-.:.2.:.:.:.:.:.:.:.:.:.;.:.>.-.#.) D 3 , 7 7 7 7 7 > % ",
"d + J J b 7 4 < w I 5.x.f.q.2.*. . . . . . . . .+.8.9.s.v.0./ e 3 4 7 7 7 7 > # ",
"d + K J x 4 5 m Y @.w.l.h.e.0.4.,.,.,.4.2.4.4.:.8.8.q.g.x.i.#.R m a < 6 7 7 > % ",
"d + J J k , u ( 5.w.u.g.e.q.e.g.l.h.g.g.g.h.h.l.f.i.q.i.f.d.w.7.` j ; < 6 6 > # ",
"d + J J f = u #.c.l.0.6.0.q.h.n.C.B.C.C.B.C.A.C.n.g.i.9.6.9.j.v.=.V = = # % # # ",
"d + K J f = u } u.6.{ ` 1.h.l.l.l.l.l.l.l.l.l.l.l.l.j.2.` ) 3.s.@.n ; : # # # % ",
"z @ J M d ; y ` 8.&.S V &.x.n.g.e.i.t.e.e.e.e.p.g.x.x.<.A V @.8.} j ; , # % # # ",
"Q 9 9 9 4 ; e U | ~ i y ) e.f.8.4.:.*.<.9.u.p.p.h.C.n.=.i e U @.R u ; , # % # # ",
"X.v 7 7 4 4 5 h V i q e U *.:.;.&./ S / 5.b.n.C.C.C.x.=.n 1 u V h 3 4 > # # # % ",
"..z 7 7 7 7 > , - ; - 3 Z ^ [ [ ^ Z 0 A =.k.C.C.D.D.C.=.i * 1 - , 4 7 > # # % # ",
"X.x 7 7 7 7 6 < , ; = 4 j Z H H H j 3 h R #.7.b.G.J.b.=.n * ; , 4 < 7 7 6 6 > # ",
"..c 7 7 7 7 7 > # # : 4 3 q q q w 3 4 5 e m @.k.G.G.b.=.n - , < 7 7 7 7 7 9 > # ",
"X.x 7 7 7 7 7 7 # # # 2 : ; = ; ; , 7 4 = w ' s.G.G.b.=.n - < 4 7 7 7 7 7 7 > # ",
"..c 7 7 7 7 7 > O O O # : : : 3 4 > 4 4 ; e ' h.G.J.N.<.n - < 7 7 7 7 > $ $ # # ",
"X.x 7 7 7 7 7 > o X X # % # 6 6 6 7 6 4 ; e _ y.N.N.k.#.n ; , 7 7 7 7 > # # # # ",
"..c 7 7 7 7 7 > o X o # % % 6 7 7 7 7 4 < t L } %.%.O.T 5 , 4 7 7 7 7 > # % % % ",
"M @ > > > > > # X X o O O O $ > $ > > > $ > 7 s d g s 7 > # # > > $ > % # % @ O ",
"d   # # # # # # o X X X X X # # # # # # # # # # # # # # # # # # # % # % # % + X "
};
