/* XPM */
static char *cGxheWVyLWEx[] = {
/* columns rows colors chars-per-pixel */
"40 40 171 2 ",
"   c #1F1C1A",
".  c #231F1E",
"X  c #24211E",
"o  c #272322",
"O  c #2A2525",
"+  c #2E2A25",
"@  c #2D212A",
"#  c #312D27",
"$  c #322E2A",
"%  c #36362D",
"&  c #38372E",
"*  c #37382F",
"=  c #38382F",
"-  c #352133",
";  c #392637",
":  c #3B2A36",
">  c #3C253A",
",  c #3C2A39",
"<  c #3B3534",
"1  c #3C3B32",
"2  c #3F3338",
"3  c #412B3D",
"4  c #413D36",
"5  c #41353A",
"6  c #413A39",
"7  c #483F3E",
"8  c #414137",
"9  c #434239",
"0  c #48423C",
"q  c #4B4A3E",
"w  c #452D42",
"e  c #463440",
"r  c #4A3244",
"t  c #473A40",
"y  c #4B3B42",
"u  c #4F3749",
"i  c #523647",
"p  c #503D44",
"a  c #503649",
"s  c #543B4C",
"d  c #593E4E",
"f  c #573F50",
"g  c #593E50",
"h  c #4F4644",
"j  c #4D4C41",
"k  c #4D4A49",
"l  c #524D44",
"z  c #54434A",
"x  c #5C424E",
"c  c #514E4D",
"v  c #5B4D4E",
"b  c #565446",
"n  c #585647",
"m  c #575548",
"M  c #595649",
"N  c #5D5C4C",
"B  c #5D4454",
"V  c #5F5750",
"C  c #5E5B57",
"Z  c #5F5C59",
"A  c #60434F",
"S  c #64504E",
"D  c #615E4E",
"F  c #624653",
"G  c #624B55",
"H  c #654958",
"J  c #6A4D5A",
"K  c #704E59",
"L  c #675158",
"P  c #6A525D",
"I  c #68595A",
"U  c #715B56",
"Y  c #71515B",
"T  c #79575E",
"R  c #745E5A",
"E  c #666454",
"W  c #686656",
"Q  c #696857",
"!  c #626059",
"~  c #6F5662",
"^  c #6F5A61",
"/  c #745A64",
"(  c #7B5C64",
")  c #755C68",
"_  c #795F6A",
"`  c #7D626B",
"'  c #75726C",
"]  c #767474",
"[  c #7C7B70",
"{  c #825F64",
"}  c #866366",
"|  c #83646C",
" . c #8B6669",
".. c #84686E",
"X. c #906C6F",
"o. c #866A73",
"O. c #8A6E76",
"+. c #956E70",
"@. c #8C7177",
"#. c #8D747A",
"$. c #907277",
"%. c #9B7373",
"&. c #93747A",
"*. c #9C7778",
"=. c #94797E",
"-. c #99797D",
";. c #A07776",
":. c #A17877",
">. c #A37C7A",
",. c #858377",
"<. c #878578",
"1. c #8C8A7E",
"2. c #93857C",
"3. c #A8817F",
"4. c #967D81",
"5. c #9A7E83",
"6. c #9C8286",
"7. c #908E81",
"8. c #998B80",
"9. c #A38284",
"0. c #AB8482",
"q. c #AF8986",
"w. c #A28789",
"e. c #A88788",
"r. c #A2898B",
"t. c #AF8D8D",
"y. c #B18A87",
"u. c #B38D8A",
"i. c #B7918D",
"p. c #B8948F",
"a. c #AF9291",
"s. c #B29292",
"d. c #B99693",
"f. c #BD9996",
"g. c #BC9D9A",
"h. c #BDA19E",
"j. c #BDA2A1",
"k. c #C29E9A",
"l. c #C4A09C",
"z. c #C8A49F",
"x. c #C5A4A1",
"c. c #CAA6A1",
"v. c #C5AAA6",
"b. c #CCA9A4",
"n. c #C7ACA8",
"m. c #CAAFAA",
"M. c #D1ADA7",
"N. c #D1AFA9",
"B. c #CDB2AC",
"V. c #D3B3AC",
"C. c #D5B4AD",
"Z. c #D1B6B0",
"A. c #D2B7B1",
"S. c #D7BAB1",
"D. c #D5BBB4",
"F. c #D6BBB4",
"G. c #DABBB3",
"H. c #DDC2B9",
"J. c #E2C4BB",
"K. c #E1C5BC",
"L. c #E3C6BC",
"P. c #E5C8BE",
"I. c #E7CAC0",
"U. c #E9CEC3",
"Y. c #EACEC4",
"T. c #EACFC4",
"R. c #EBD0C4",
"E. c #EBD0C5",
"W. c #ECD1C5",
"Q. c #EED3C7",
"!. c #EED3C8",
/* pixels */
"] Z 1.1.1.1.1.1.7.1.1.1.1.1.1.1.1.1.1.1.1.1.1.1.1.1.1.1.1.1.1.1.1.1.1.1.1.1.' N ",
"! 4 D D n q q q q j q l l l 0 0 7 0 7 7 0 0 7 0 7 7 0 0 0 n D D D N D b 8 q % X ",
"<.E E W D 9 0 9 9 1 2 t r e > ; : : ; ; > ; , , : : : 3 6 M Q E E E Q q $ % & = ",
",.N W W D 9 9 9 9 6 0 r r r r u r u r y r r r r w r r 5 5 b E E E E W q % % % % ",
",.N m m b 9 8 1 < y G ) o.O.#.#.#.#.#.#.o.| _ { | ` | / x 7 j l m m m q 1 1 = % ",
",.m 8 8 8 9 9 6 , u ` i.x.B.F.F.F.F.F.A.v.g.f.f.d.d.d.5.P 3 2 6 8 8 8 8 9 9 1 % ",
",.m q 9 9 9 9 6 > s @.v.H.I.E.Q.!.!.!.E.J.S.N.M.b.b.M.d.O.G z 7 6 4 9 9 9 9 1 * ",
"<.m 9 9 9 9 9 2 , s &.V.P.I.E.Y.Y.Y.Y.Y.P.J.G.N.c.b.c.g.u.-./ u 5 4 9 9 9 9 1 % ",
",.m 9 9 9 9 9 6 , f 4.F.E.U.E.E.Y.Y.Y.Y.Y.Y.K.C.b.c.b.c.c.k.$.g , 5 8 9 9 9 1 * ",
",.m 9 9 9 9 9 2 , f 5.H.E.E.E.E.Y.Y.Q.Y.Y.Y.K.C.b.c.b.c.b.k.&.g ; 5 9 8 9 9 1 * ",
"<.n 9 9 9 9 9 6 ; f 4.H.!.Y.E.E.Y.Y.Y.E.Y.Y.K.C.b.c.b.c.b.k.&.g , 6 8 9 9 9 1 * ",
"<.n 9 9 9 9 9 6 , u O.j.F.K.E.Y.Y.I.A.n.m.m.b.b.c.b.b.c.b.k.&.g ; 2 0 9 9 9 1 = ",
"<.m 9 8 8 9 9 6 , w B _ r.B.E.Y.Y.A.6.` { ` 4.t.c.c.b.c.b.k.&.g , 5 6 9 9 9 1 * ",
"<.n q q q 9 9 1 3 ; > w _ j.E.Y.Y.j.) ; w > B 5.c.b.c.c.b.k.&.g ; 5 9 9 9 9 < $ ",
",.D E W N 9 9 2 , > > w ) j.Y.Y.Y.j.~ > > > F 5.c.c.c.c.b.k.&.g , 5 9 9 8 9 % . ",
",.D W W D 9 9 1 , > > > ) j.Y.Y.Y.j.~ - > > F 5.c.c.c.c.M.k.&.g , 6 8 9 9 9 $ . ",
",.D D V n 9 8 5 , w u G $.m.Q.P.!.n.@.B B g ( e.x.b.c.l.d.e.| s 2 < 9 9 9 9 % . ",
",.m 9 9 9 9 8 6 , r / 6.g.G.Q.Q.Y.F.j.r.5.=.5.f.c.c.b.f.4./ J v 0 8 9 9 9 9 % X ",
",.m 9 9 9 9 8 6 , s =.A.I.E.P.Q.Y.I.I.F.V.x.l.l.x.c.c.y.) r z V q 9 9 9 9 9 * X ",
"<.m 9 9 9 9 8 6 > s =.A.P.P.P.G.N.A.I.U.C.l.u.9.-.-.-.| G e h M q 8 9 9 9 9 * X ",
"<.m 9 9 9 9 9 6 ; a @.z.G.P.P.b.u.f.G.P.b.y.X.T g f d s 7 6 4 0 9 9 8 8 9 9 1 % ",
"<.m 9 9 9 9 9 6 , u ..d.b.C.G.k.>.q.M.G.l.y.X.P s r , , 5 8 9 8 9 9 9 9 9 9 1 % ",
"[ q q q 9 9 8 5 : r ( e.k.k.k.y.>.9.p.k.f.p.u.e.4./ e > 2 9 9 9 9 9 9 9 9 9 1 * ",
"c + E E N 9 8 5 , r Y %.>.>.>.>.>.>.>.0.i.k.b.G.F.5.B , 6 8 9 9 9 9 9 9 9 9 1 * ",
"k + W E N 9 9 1 ; 3 T %.>.y.p.u.p.p.p.d.k.z.N.G.G.s.o.P z 6 6 9 9 9 9 9 9 9 1 * ",
"k + E W N 9 8 6 3 r K %.u.c.G.G.S.S.G.C.M.b.M.N.V.m.j.r.^ 5 2 6 9 9 9 9 8 9 1 % ",
"k + E E N 9 9 6 : r K +.p.C.P.P.P.P.P.P.G.V.b.z.x.V.P.v.` 3 2 6 9 9 9 1 * * * % ",
"k + W W N 9 0 < ; i K %.u.b.G.G.G.G.G.G.G.G.N.k.i.l.C.f.` 3 2 6 9 9 9 1 * % % * ",
"b % ! ! N 9 9 6 > w K %.y.k.b.b.M.M.M.M.G.P.C.p.3.u.z.i.) w : 1 9 8 9 1 % * * % ",
"[ q 9 q 9 9 0 1 5 7 F { >.g.C.N.N.N.N.V.G.U.S.p.:.>.e.@.H 2 5 6 9 9 9 1 % % & % ",
"<.n 9 9 9 9 9 8 6 5 y z ..h.J.K.L.L.K.P.U.U.C.d.*.} J B y 6 6 9 9 9 9 1 % * % * ",
",.m 9 9 9 9 9 9 8 6 5 3 ) h.Q.L.J.G.H.H.H.K.V.i.*.T a w 6 9 9 9 9 9 9 1 % & = % ",
"<.m 8 9 9 9 9 8 * * : 2 ) j.P.j.w.5.5.6.s.l.f.0.*.} Y A p 5 6 4 8 8 0 8 9 9 = % ",
"<.m 9 9 9 9 9 8 * * : , ) j.H.6.B u s s ( *.3.:.:.%.+.} A 3 5 6 8 8 9 9 9 9 1 * ",
"<.n 9 9 9 9 9 1 $ 2 h P 4.B.F.#.r - ; 3 x T  .%.;.:.:. .F 3 5 6 9 9 8 9 9 9 1 % ",
"<.n 9 9 0 9 9 1 - e ` t.v.H.F.4.r , 5 5 t x J  .;.:.:.X.A ; 3 6 9 9 9 1 = = = % ",
",.m 9 9 9 9 8 2 - u #.B.H.H.A.#.r , 6 9 5 3 s ( +.%.%.} A 3 5 6 9 9 9 1 % % * % ",
"<.m 9 9 9 9 9 < @ 2 I 2.8.8.7.I 7 2 6 8 6 5 7 S R R U S 7 5 6 4 9 9 9 1 % & * * ",
"C + 1 = 1 = 1 % o O $ 2 2 9 j 0 < & & & % = 1 6 0 0 4 4 4 & & & = = = = % = # X ",
"k   * * * % * % . o X X X . $ % * * & % % & % % % % % % # % % % = & & & % = # X "
};
