/* XPM */
static char *cGxheWVyLXcw[] = {
/* columns rows colors chars-per-pixel */
"40 40 151 2 ",
"   c #1F1C1A",
".  c #231F1E",
"X  c #24201F",
"o  c #262220",
"O  c #292623",
"+  c #2D2A25",
"@  c #312D27",
"#  c #302F28",
"$  c #36352D",
"%  c #38372F",
"&  c #37382E",
"*  c #38382F",
"=  c #392736",
"-  c #372A32",
";  c #3A2B35",
":  c #3D273A",
">  c #3D2A39",
",  c #3A3232",
"<  c #3C3B32",
"1  c #3E3438",
"2  c #3F3838",
"3  c #412B3D",
"4  c #403E36",
"5  c #41353A",
"6  c #413C39",
"7  c #493A3F",
"8  c #414137",
"9  c #434239",
"0  c #47483C",
"q  c #4C4B3E",
"w  c #452D41",
"e  c #482F43",
"r  c #463141",
"t  c #4B3344",
"y  c #4C3B43",
"u  c #523B46",
"i  c #51374A",
"p  c #563D4A",
"a  c #5C3F4F",
"s  c #593E50",
"d  c #4E4743",
"f  c #4D4C41",
"g  c #4D4A49",
"h  c #57454C",
"j  c #5B414E",
"k  c #544D4A",
"l  c #5C484F",
"z  c #555446",
"x  c #585647",
"c  c #565548",
"v  c #595749",
"b  c #5D5B4C",
"n  c #5D4452",
"m  c #5D4B51",
"M  c #575454",
"N  c #5E5B57",
"B  c #5F5C59",
"V  c #615E4E",
"C  c #624554",
"Z  c #644A55",
"A  c #6C4E56",
"S  c #674D5A",
"D  c #6A4D5A",
"F  c #615C51",
"G  c #6B515E",
"H  c #72535A",
"J  c #666454",
"K  c #696656",
"L  c #626059",
"P  c #6F5360",
"I  c #715561",
"U  c #735A65",
"Y  c #795E66",
"T  c #7D616A",
"R  c #7F696F",
"E  c #75726C",
"W  c #767474",
"Q  c #7C7B70",
"!  c #835E64",
"~  c #856065",
"^  c #89656A",
"/  c #8E6A6D",
"(  c #856770",
")  c #866B71",
"_  c #896B72",
"`  c #936F72",
"'  c #8C7177",
"]  c #917176",
"[  c #937479",
"{  c #9B7779",
"}  c #97797D",
"|  c #A57E7D",
" . c #858377",
".. c #888779",
"X. c #8C8B7F",
"o. c #A8817E",
"O. c #9E7E82",
"+. c #A07F82",
"@. c #9F8083",
"#. c #908E81",
"$. c #A48486",
"%. c #AA8381",
"&. c #AF8886",
"*. c #A18689",
"=. c #A88788",
"-. c #A68A8B",
";. c #AB8B8C",
":. c #B18986",
">. c #B48E8C",
",. c #B7918E",
"<. c #B8928E",
"1. c #AE9394",
"2. c #B29695",
"3. c #BB9592",
"4. c #BD9995",
"5. c #B59B9A",
"6. c #BE9C9A",
"7. c #BEA5A1",
"8. c #C09D9A",
"9. c #C5A29D",
"0. c #C8A49F",
"q. c #C4A6A2",
"w. c #CAA6A1",
"e. c #C8A7A3",
"r. c #CDAAA4",
"t. c #C9ACA8",
"y. c #D1AFA9",
"u. c #D4B3AC",
"i. c #D5B3AC",
"p. c #D7B6AF",
"a. c #D8B7B0",
"s. c #D8B8B0",
"d. c #D8BAB3",
"f. c #DBBCB4",
"g. c #DBBEB6",
"h. c #DCBDB5",
"j. c #DEC0B7",
"k. c #DFC1B8",
"l. c #E1C4BB",
"z. c #E2C5BB",
"x. c #E3C7BD",
"c. c #E4C7BD",
"v. c #E4C8BD",
"b. c #E4C8BF",
"n. c #E6CBC0",
"m. c #E6CBC1",
"M. c #E7CCC1",
"N. c #EACEC3",
"B. c #EACFC4",
"V. c #EBCFC4",
"C. c #EBD0C5",
/* pixels */
"W B X.X...X.X.X.#.#.X.X.X.X.#.X.X.X.#.X.#.#.#.#...#.X.#.X.X.X.X.X.X.X.X.X.X.E v ",
"L 4 V V b q q q q f q b b b q q q q q q f f 0 f 0 f f d q v b b V V b z 8 0 $ X ",
"..J J K b 9 9 9 9 8 9 J J V 8 8 8 6 6 8 6 6 6 6 2 6 9 9 < b K J J J K q $ $ $ * ",
" .b K K V 9 9 9 8 8 f F N k 5 5 2 5 5 5 2 2 2 2 2 1 1 2 < b K J J J K f $ $ $ $ ",
" .b v v z 8 8 9 9 9 9 c d r : : : : : : : : = = : : : > 6 f v c z z v 0 * 8 * $ ",
" .v 8 9 8 8 8 9 8 9 2 6 y h C S G G I G P S P P S S Z n y 6 2 8 8 8 8 8 9 9 < $ ",
" .v 9 9 9 9 9 9 9 9 2 1 l ( O.-.1.1.1.1.1.1.5.1.1.-.+._ Z 1 2 6 9 9 9 9 9 9 < & ",
" .c 9 9 9 9 9 9 6 6 5 r H $.r.d.b.N.n.n.n.n.m.m.m.f.t.;.Y t 5 6 9 9 9 9 9 9 < $ ",
" .v 9 9 9 9 9 8 2 y m Y O.q.f.z.m.C.C.V.C.C.C.C.C.l.f.e.*.T Z d 2 6 8 9 8 9 8 $ ",
" .v 9 9 9 9 9 6 > u T ;.e.d.n.n.C.C.C.N.C.C.m.C.C.m.m.h.r.;.) p > 5 8 9 9 9 < $ ",
" .x 9 9 9 9 9 2 : i _ 6.p.l.C.C.C.C.C.C.C.C.C.V.C.C.C.b.a.q.[ s : 6 8 9 9 9 < & ",
" .x 0 9 9 9 9 2 ; i _ 8.p.l.C.V.N.C.C.C.C.C.C.C.V.V.C.l.a.8.[ s : 5 9 9 9 9 < * ",
" .v 0 8 8 9 9 2 : i ( 8.a.l.V.V.V.C.C.C.C.C.V.C.V.V.V.c.a.9.[ a : 2 8 9 9 9 < , ",
" .v f f 0 9 9 2 ; i _ 8.p.l.V.V.N.C.N.C.C.C.V.V.V.V.V.c.d.9.[ s : 5 8 9 9 9 < # ",
" .V J J b 9 9 2 : i ) 6.p.l.V.V.C.N.C.C.C.C.C.C.V.V.V.c.p.q.[ a : 2 9 9 9 9 # . ",
" .V J J V 9 9 2 : u ( 6.i.h.n.n.N.C.C.C.V.V.C.V.V.n.n.h.i.8.' s : 2 8 9 9 9 $ . ",
" .b N b x 9 9 6 : i _ 6.y.i.p.l.m.C.C.C.N.C.C.C.b.c.h.i.y.8.{ a : 2 8 9 8 9 $   ",
" .x 9 8 9 9 9 5 : i ( 6.r.r.r.f.m.C.N.C.C.C.C.N.c.l.y.0.e.8.` a : 2 8 9 9 9 $ . ",
" .x 9 9 9 9 9 4 5 y G ] =.4.r.i.f.j.j.j.j.j.l.j.l.p.r.8.;.[ Y n 5 2 9 9 9 9 , . ",
" .x 8 9 9 9 9 9 5 4 y n ! ;.r.r.y.u.r.p.y.y.y.y.y.r.r.<.( n h k d 8 9 9 9 9 & O ",
" .x 9 9 9 9 9 9 8 6 1 > A O.8.0.r.0.0.r.0.r.0.r.r.w.9.:.H 3 ; 5 6 8 8 9 9 9 < $ ",
"..x 9 9 9 9 9 9 9 8 1 3 C ] 3.6.0.r.r.r.r.r.0.0.w.8.,.{ D 3 ; > 2 6 8 9 9 9 < $ ",
"Q f q q 9 9 8 8 8 8 5 3 C ^ | ,.9.0.0.0.0.0.r.0.9.<.%./ Z w > 3 > 2 9 9 8 9 < & ",
"g + J J N 9 8 8 6 y m U _ | :.>.3.6.6.3.8.<.6.8.3.>.:.+._ U C e : 2 8 9 9 9 < $ ",
"g + K J b 9 9 2 ; y ( 5.7.5.<.,.&.o.%.o.o.%.%.%.%.>.3.8.8.5._ p : 1 8 9 9 9 < & ",
"g + J K b 9 9 6 y G *.j.j.y.e.3.%.o.%.%.%.%.o.o.| 3.0.y.h.h.2.U y y 2 8 8 9 < $ ",
"g + J J v 2 5 Z ) @.6.i.u.r.r.e.0.e.0.0.0.w.e.e.r.r.0.r.u.a.7.-.' M 7 , , & & $ ",
"g + K K v 1 > U 7.f.i.y.t.r.r.s.c.c.c.c.c.c.c.c.c.p.r.r.r.t.i.f.7.T r ; $ $ $ & ",
"k + L J c 1 w U q.f.7.-.2.0.i.f.l.l.l.c.l.l.l.c.z.f.i.r.2.=.6.f.e.T w = % $ * & ",
"Q z 0 0 6 > 3 P 3.9.} I _ q.l.f.p.i.i.i.i.p.i.i.i.f.k.t.[ P ] 8.6.Y w : % $ $ $ ",
" .b 9 9 6 1 : S $.;.Y t U 5.c.i.9.9.9.4.8.6.8.8.q.i.l.q.T e P *.=.I 3 ; $ $ $ $ ",
" .x 9 9 6 5 5 h T Y C 3 G $.0.4.<.;.] ) _ _ [ %.,.4.e.;.I w s Y Y l 7 , $ % $ $ ",
" .x 9 8 9 8 8 7 r t w : C / %.| | / Z t t i C ^ | | o.` Z 3 3 7 e 7 6 4 8 8 * $ ",
" .x 9 9 9 9 8 2 - = ; > u H ~ ! ! H u = ; ; 7 A ! ! ^ H j 3 3 - 3 4 6 8 9 8 8 $ ",
" .x 9 9 9 9 8 8 , $ , 2 7 p j a a p 7 6 5 5 7 p a a a a 7 6 6 6 6 9 8 8 8 0 < $ ",
" .v 9 9 9 9 9 < O O O , , ; 3 3 3 3 6 8 9 9 6 5 3 3 3 3 ; 4 8 8 9 9 9 4 * * * $ ",
" .x 9 9 9 9 9 < o X X $ $ - 5 > 1 2 6 9 9 9 4 2 5 - ; , @ 4 9 8 9 9 9 * * * $ $ ",
" .v 9 9 9 9 8 < o X X $ $ , 4 8 9 9 4 8 9 9 8 9 4 4 % % % 4 9 8 9 9 9 * $ * * * ",
"N # < * < & < $ X X X O O + % * * * * % < < < % % % % $ % % * * * * % * * * @ X ",
"g   & & & & & $ o X X . . X $ % $ & % $ $ $ $ % % $ % % % $ % $ % $ * $ $ $ + X "
};
