/* XPM */
static char *cGxheWVyLXMz[] = {
/* columns rows colors chars-per-pixel */
"40 40 162 2 ",
"   c #1F1C1A",
".  c #231F1E",
"X  c #24201F",
"o  c #262220",
"O  c #292623",
"+  c #2D2A25",
"@  c #302F28",
"#  c #36362D",
"$  c #38372F",
"%  c #37382F",
"&  c #38382F",
"*  c #3A2537",
"=  c #3B2B37",
"-  c #3B2539",
";  c #3D2B39",
":  c #3B3334",
">  c #3B3B32",
",  c #3E3239",
"<  c #3F3838",
"1  c #412A3D",
"2  c #403E36",
"3  c #42353A",
"4  c #413C39",
"5  c #414137",
"6  c #434339",
"7  c #49473B",
"8  c #4B4A3E",
"9  c #452D41",
"0  c #482F43",
"q  c #4B3445",
"w  c #473840",
"e  c #4C3C42",
"r  c #4F3648",
"t  c #513D46",
"y  c #51374A",
"u  c #543C4C",
"i  c #593F4E",
"p  c #5A3F50",
"a  c #4D4443",
"s  c #4D4C40",
"d  c #4D4A49",
"f  c #524E44",
"g  c #55434B",
"h  c #5A454E",
"j  c #514E4D",
"k  c #5A4D4C",
"l  c #565446",
"z  c #585647",
"x  c #575548",
"c  c #5A554A",
"v  c #5D5B4C",
"b  c #5C4353",
"n  c #5F4D52",
"m  c #575454",
"M  c #5E5B57",
"N  c #5F5C59",
"B  c #615E4E",
"V  c #614654",
"C  c #654A54",
"Z  c #6C4E56",
"A  c #654B59",
"S  c #6A4E5C",
"D  c #625D52",
"F  c #6A525D",
"G  c #70575F",
"H  c #666454",
"J  c #696656",
"K  c #626059",
"L  c #6F675E",
"P  c #70685F",
"I  c #6C5360",
"U  c #735662",
"Y  c #755A64",
"T  c #795E68",
"R  c #7E626B",
"E  c #7B686B",
"W  c #797166",
"Q  c #767474",
"!  c #7C7B70",
"~  c #825E64",
"^  c #83646C",
"/  c #886368",
"(  c #856770",
")  c #866870",
"_  c #8B6D74",
"`  c #906D71",
"'  c #8E7376",
"]  c #8D747A",
"[  c #93757A",
"{  c #95797E",
"}  c #9B7A7E",
"|  c #A37D7C",
" . c #858377",
".. c #878578",
"X. c #88857C",
"o. c #8C8A7E",
"O. c #A9817F",
"+. c #9A7D82",
"@. c #9C8286",
"#. c #908E81",
"$. c #A58486",
"%. c #AB8582",
"&. c #AF8885",
"*. c #A68688",
"=. c #A88789",
"-. c #A58B8D",
";. c #AC8B8B",
":. c #B18A87",
">. c #B28E8C",
",. c #B7918E",
"<. c #B8938F",
"1. c #AD9192",
"2. c #AE9A93",
"3. c #B59493",
"4. c #BA9692",
"5. c #B39897",
"6. c #BD9995",
"7. c #B29898",
"8. c #BE9C9A",
"9. c #BBA39D",
"0. c #C09C97",
"q. c #C19E9A",
"w. c #C5A29D",
"e. c #C8A49F",
"r. c #C3A4A1",
"t. c #CAA6A1",
"y. c #C4ADA5",
"u. c #CCA9A4",
"i. c #C9AEAA",
"p. c #D0ADA7",
"a. c #D1AFA8",
"s. c #CDB1AB",
"d. c #D4B3AC",
"f. c #D7B8AF",
"g. c #D3B7B0",
"h. c #D8B7B0",
"j. c #D7B9B2",
"k. c #D8B8B0",
"l. c #D9BBB3",
"z. c #DCBDB4",
"x. c #DABFB8",
"c. c #DDC2B9",
"v. c #DDC2BA",
"b. c #DFC4BA",
"n. c #E0C2B9",
"m. c #E1C4BB",
"M. c #E2C5BC",
"N. c #E1C6BD",
"B. c #E4C7BD",
"V. c #E5C8BE",
"C. c #E4C9BF",
"Z. c #E5CAC1",
"A. c #E7CBC1",
"S. c #E7CCC1",
"D. c #E7CCC2",
"F. c #E9CDC2",
"G. c #E9CEC4",
"H. c #EACFC4",
"J. c #EBCFC5",
"K. c #EAD0C5",
"L. c #EBD0C5",
"P. c #ECD1C6",
/* pixels */
"Q N o.o.o.o.o.o.#.o.o.X.X.X.X.X.X.X.X.X...X.X.X.X.X.X.X.#.#.X.o.o.o.o.o.o.#.W m ",
"K 2 B B z 8 8 8 s 8 f z f a 3 3 3 3 3 3 3 3 3 3 3 3 3 4 8 x D v v v B 8 6 8 # X ",
"..H H J v 6 7 6 6 6 7 B g 1 1 - - - * * - - - - - - ; , < v J H H K J s # # % & ",
" .B H J v 6 5 7 6 4 4 k k V A S F F F F F F F F S A V g < l D H J J J s # # # # ",
" .v x x l 6 6 6 6 4 3 t Y [ +.1.5.5.5.5.5.5.5.7.1.$.} Y e 3 f l x x x 7 > > % # ",
" .x 5 5 5 6 6 6 4 4 3 p ` w.l.m.P.J.P.H.K.J.J.K.V.f.e.} V 9 3 < 2 6 2 6 6 6 > % ",
" .x 7 6 6 6 5 < 3 g F _ 3.a.n.Z.J.H.H.H.H.H.H.K.Z.v.d.5.' G h 3 4 2 6 6 6 6 > % ",
" .x 6 6 6 6 2 , 1 A [ 8.i.Z.Z.J.H.H.H.H.H.H.H.H.H.H.B.d.q.@.F 9 , 2 6 6 6 6 > % ",
" .z 6 6 6 6 6 ; ; F *.a.z.Z.J.J.K.K.G.J.K.G.J.J.H.H.H.c.p.>.Y 9 , < 6 6 6 6 > % ",
" .x 6 6 6 6 2 , 1 S $.a.z.J.P.P.J.J.J.K.K.J.J.K.K.H.K.z.p.;.Y 9 , < 6 6 6 6 > % ",
" .x 6 7 6 6 < , 1 S $.p.g.x.Z.v.b.Z.G.K.J.G.Z.N.m.b.b.j.d.;.Y 9 , < 6 6 6 6 > % ",
" .x 6 6 6 6 6 = 1 S $.r.7.-.-.-.-.i.Z.J.K.Z.i.7.-.-.-.5.w.;.U 9 , < 6 6 6 6 > % ",
" .x 6 6 5 6 5 , 1 S =.6._ V y u A +.c.G.P.v.-.I u u b ( 3.>.U 9 , < 6 6 6 6 > $ ",
" .v s 8 8 6 < , 1 S =.3.T 0 - - q +.x.K.K.x.+.p - - 9 U 3.>.U 9 ; 6 6 6 6 6 > @ ",
" .B H H v 6 5 , 1 S =.4.^ 0 - - 9 +.x.K.P.c.+.u - - 9 U 3.>.Y 9 ; < 6 6 6 6 @ . ",
" .B H J B 5 5 , 1 A +.,.~ y 9 9 r +.x.P.K.v.+.p 9 9 r Y ;.=.F 9 , < 6 6 6 6 # . ",
" .v v M c 6 6 3 , h R ` ^ T T ^ ] 7.v.P.P.m.9.{ E T T ^ _ ^ V w < < 6 6 6 6 # . ",
" .l 6 6 6 6 6 2 2 e t A ^ $.5.w.i.x.G.K.K.K.z.s.r.5.$._ A h C v s 5 6 6 6 6 #   ",
" .x 6 6 6 6 6 5 2 w q i ` q.d.l.v.Z.Z.Z.V.V.m.n.z.d.w.} n e g M s 5 6 6 6 6 # o ",
" .x 6 6 6 6 > 3 , t Z / +.q.e.0.8.r.g.g.f.d.u.w.8.w.w.%./ Z h e w 5 6 6 6 6 # o ",
" .z 7 6 7 5 2 , ; i ~ | :.e.0.&.%.>.e.u.u.e.4.%.%.0.q.<.| / C 1 , 4 6 6 6 6 > # ",
" .z 6 6 5 5 2 , 1 V ` &.:.0.0.,.3.4.6.6.6.4.<.<.<.4.0.<.:.| ` T n a < < 6 6 > # ",
"! s 7 7 7 5 4 3 1 S +.0.,.%.<.p.d.q.:.O.O.:.0.p.p.<.&.:.6.q.w.9.[ h = 3 2 6 > % ",
"x + H H v 2 4 1 1 S %.q.<.| <.h.m.u.:.O.O.:.w.n.z.4.%.>.q.a.z.N.-.b ; 3 6 6 > # ",
"d + J H v 6 5 , 1 S =.t.0.>.0.p.h.d.t.t.t.t.a.h.d.0.4.0.q.u.d.d.+.b ; 3 6 6 > % ",
"d + H J v 6 2 , 1 S $.t.t.u.t.u.p.h.N.B.Z.n.h.a.u.t.e.t.u.u.u.t.[ p - 3 2 5 > # ",
"d + J K v 6 2 , 1 i ^ $.3.t.u.u.u.d.n.n.n.n.h.u.t.t.t.0.+.=.4.q.[ i ; = % % # # ",
"d + J J v 6 2 , * q u U [ q.u.t.t.p.d.d.d.d.p.u.t.p.q.+.Y Y =.q.[ i * : % % # % ",
"j @ H K v 6 2 , ; - - y ^ q.u.u.t.w.q.8.8.q.q.t.t.a.t.[ p u ` 3._ i ; : # # % # ",
"! s 7 7 7 6 2 < 3 ; - y _ q.u.u.w.;._ ^ ^ _ *.q.a.d.d.+.p 0 A T F e 3 : # % # # ",
"..z 6 6 6 6 6 6 2 3 * y ( q.u.u.q._ t 0 9 u ( 3.a.v.x.-.p - 9 0 3 4 4 > # # # % ",
" .x 6 6 6 6 6 6 5 3 3 e Y +.*.=.} Y 9 - - 0 ^ 8.h.B.n.-.p * - 1 3 2 6 > # # % % ",
" .z 7 6 6 6 6 5 % % : 4 g A S S A g 4 3 ; q _ y.m.D.b.-.b * , , 2 6 6 6 2 5 > % ",
" .z 6 6 6 6 6 6 % % # 4 3 - - ; ; , 4 4 * r ] g.K.K.Z.-.b * , 6 6 6 6 6 6 7 > % ",
" .x 6 6 6 6 6 5 % % % 2 4 3 3 , , 4 6 2 = r ] g.K.J.b.-.b * 3 2 6 6 6 6 6 6 > # ",
" .x 6 6 6 6 6 > o O O % # # 4 2 2 2 6 < = q ] g.K.K.Z.-.b = 3 6 6 6 6 > # # % # ",
" .x 6 6 6 5 6 > o . . # % # 2 6 6 6 6 5 , r E 2.y.y.9.' a = 4 2 6 6 6 > # % % # ",
"..z 7 6 6 6 6 > o X o % % # 6 6 6 7 6 5 4 4 c P W W L c 3 : 2 5 6 6 6 > # % % % ",
"M @ > & > % > # o X o O O O # > & & & % > : < > > > < % % % > % > % > % # % + O ",
"d   % % # # % # X X X X . . # % # # % # # # # # $ % % # % % % % % % % # # % + . "
};
