/* XPM */
static char *cGxheWVyLXcy[] = {
/* columns rows colors chars-per-pixel */
"40 40 157 2 ",
"   c #1F1C1A",
".  c #231F1E",
"X  c #24201F",
"o  c #262220",
"O  c #292623",
"+  c #2D2A25",
"@  c #312D27",
"#  c #302F28",
"$  c #36352D",
"%  c #38372F",
"&  c #37382E",
"*  c #38382F",
"=  c #382734",
"-  c #372A32",
";  c #3A2B36",
":  c #3C2739",
">  c #3D2A39",
",  c #3A3232",
"<  c #3C3B32",
"1  c #3E3438",
"2  c #3F3838",
"3  c #412B3D",
"4  c #403E36",
"5  c #41343A",
"6  c #413C39",
"7  c #493A3F",
"8  c #414137",
"9  c #434239",
"0  c #48463C",
"q  c #47483C",
"w  c #4C4B3E",
"e  c #452D41",
"r  c #482F43",
"t  c #463141",
"y  c #4B3344",
"u  c #4C3B43",
"i  c #523B46",
"p  c #51374A",
"a  c #563D49",
"s  c #5C3F4F",
"d  c #593E50",
"f  c #4D4443",
"g  c #4D4C41",
"h  c #4D4A49",
"j  c #514F42",
"k  c #56434C",
"l  c #5B414E",
"z  c #544D4A",
"x  c #5C484F",
"c  c #555446",
"v  c #585647",
"b  c #565548",
"n  c #595749",
"m  c #5D5B4C",
"M  c #5C4451",
"N  c #5D4B51",
"B  c #575454",
"V  c #5E5B57",
"C  c #5F5C59",
"Z  c #615E4E",
"A  c #624554",
"S  c #644B55",
"D  c #6C4E56",
"F  c #674D5A",
"G  c #6A4D5A",
"H  c #615C51",
"J  c #6B515E",
"K  c #72535A",
"L  c #666454",
"P  c #696656",
"I  c #626059",
"U  c #6F5360",
"Y  c #715561",
"T  c #735A65",
"R  c #795E66",
"E  c #7D616A",
"W  c #75726C",
"Q  c #767474",
"!  c #7C7B70",
"~  c #835E64",
"^  c #856065",
"/  c #82666C",
"(  c #89656A",
")  c #85686F",
"_  c #8E6A6D",
"`  c #856770",
"'  c #866B71",
"]  c #896A72",
"[  c #936F72",
"{  c #8A7176",
"}  c #917176",
"|  c #937479",
" . c #9B7779",
".. c #97797D",
"X. c #A57E7D",
"o. c #858377",
"O. c #878578",
"+. c #888779",
"@. c #8C8B7F",
"#. c #A8817E",
"$. c #9E7E82",
"%. c #A07F82",
"&. c #9F8083",
"*. c #908E81",
"=. c #A48486",
"-. c #AA8381",
";. c #AF8886",
":. c #A18689",
">. c #A88788",
",. c #A68A8B",
"<. c #AB8B8C",
"1. c #B18986",
"2. c #B48E8C",
"3. c #B7918E",
"4. c #B8928E",
"5. c #AE9393",
"6. c #B29695",
"7. c #BB9592",
"8. c #BD9995",
"9. c #B59B9A",
"0. c #BE9C9A",
"q. c #BEA19E",
"w. c #BEA5A1",
"e. c #C09D9A",
"r. c #C5A29D",
"t. c #C8A49F",
"y. c #C4A6A2",
"u. c #CAA6A1",
"i. c #C8A7A3",
"p. c #C6AAA6",
"a. c #CDAAA4",
"s. c #C9ACA8",
"d. c #D1AFA9",
"f. c #D4B3AC",
"g. c #D5B3AC",
"h. c #D6B4AD",
"j. c #D7B6AF",
"k. c #D8B7B0",
"l. c #D8B8B0",
"z. c #D8BAB3",
"x. c #DBBCB4",
"c. c #DBBEB6",
"v. c #DCBDB5",
"b. c #DEC0B7",
"n. c #DFC1B8",
"m. c #E1C4BB",
"M. c #E2C5BB",
"N. c #E4C7BD",
"B. c #E4C8BD",
"V. c #E4C8BF",
"C. c #E6CBC0",
"Z. c #E6CBC1",
"A. c #E7CCC1",
"S. c #EACEC3",
"D. c #EACFC4",
"F. c #EBCFC4",
"G. c #EBD0C5",
/* pixels */
"Q C @.@.+.@.@.@.*.@.@.@.@.@.*.@.@.@.*.@.*.*.+.*.@.@.*.*.*.*.O.*.*.@.@.@.@.@.W n ",
"I 4 Z Z m w w w w w w m m m g w w w w w g h g g w w g g q c m n m Z m c 8 q $ X ",
"+.L L P m 9 9 9 8 9 0 L L Z 9 6 6 6 6 8 6 6 6 6 8 8 8 6 9 n P L L L P q $ $ & & ",
"o.m P P Z 9 9 9 8 8 0 H H z 5 2 2 5 2 5 1 1 2 1 2 1 1 2 2 m P L P L P g $ $ $ $ ",
"o.m b n c 8 8 9 9 8 0 c f t : : : : = : : : = : : : : > 2 g b c c c b q < 8 & $ ",
"o.n 9 9 8 8 8 9 9 9 6 6 u k A F F U U U U F U U J F S M f 2 2 9 9 9 9 9 8 9 < $ ",
"o.n 9 9 9 9 9 9 9 6 2 5 x / $.,.5.6.6.6.5.5.5.9.5.,.=.] N 1 1 9 9 9 9 9 8 9 < & ",
"o.b 9 9 9 9 9 9 9 6 5 t Y =.a.v.C.C.C.C.C.C.Z.Z.Z.z.s.<.R y 5 2 8 9 9 9 9 9 < $ ",
"o.v 9 9 9 9 9 8 2 u N E $.y.v.M.S.G.G.G.G.G.G.G.G.M.c.y.=.E F u 2 6 8 9 9 9 < % ",
"o.n 9 9 9 q 9 2 > p E <.y.z.V.C.G.S.G.S.S.S.G.S.F.Z.C.c.a.<.' k > 6 8 9 9 9 < % ",
"o.v 9 9 9 9 9 2 ; p ) 0.k.M.G.G.S.G.G.G.G.G.F.G.F.F.G.M.c.r.| d : 1 9 9 9 9 < % ",
"o.v 9 q 9 9 9 2 > p ' e.h.M.G.F.Z.G.G.G.G.G.G.F.F.F.G.Z.j.0.| d > 5 9 9 9 9 < & ",
"o.n 8 8 8 8 9 2 : p ' e.h.M.F.F.G.G.G.G.G.G.F.G.F.F.G.M.j.r.| s > 1 9 9 9 9 < , ",
"o.n g w g 9 9 2 : p ` e.k.M.F.F.G.G.G.G.G.G.F.G.F.F.G.C.k.r.} d > 1 6 9 9 9 < # ",
"o.Z L P m 9 8 2 : p ' e.h.M.F.F.G.G.G.G.G.G.G.G.F.G.F.M.k.e.} d : 5 8 9 9 9 # . ",
"o.Z P P m 9 9 2 : u ' e.g.v.C.C.G.G.G.Z.F.G.F.G.F.C.C.v.k.y.} d : 6 9 9 9 9 $ . ",
"o.m m V n 9 4 9 : p ] 0.d.g.j.M.V.G.G.G.S.G.S.S.G.M.l.g.d.e.| s : 2 8 9 8 9 # . ",
"o.m 9 9 9 9 8 2 : p ] 0.u.t.f.v.Z.G.G.G.G.G.S.G.V.v.d.a.a.e.[ s : 2 8 9 9 9 $ . ",
"o.c 9 9 9 9 9 2 1 u U { ;.8.a.h.b.b.b.b.b.b.n.b.b.g.a.e.<.| R N 7 2 9 9 9 9 % . ",
"+.c 9 9 9 9 8 8 1 6 i s ~ <.a.d.f.d.d.d.d.d.f.d.f.d.a.3.) M k z 9 8 9 9 9 9 % O ",
"o.v q 8 9 9 9 9 9 6 1 > G %.e.e.u.u.u.u.u.a.a.t.u.t.r.>.Y 3 ; 6 9 9 9 9 9 9 < $ ",
"+.c 9 8 9 4 9 4 9 8 1 > A [ 7.e.u.u.a.u.a.a.t.t.u.e.4. .G 3 > 5 9 9 9 8 9 9 < $ ",
"! c q q 9 w 8 9 9 6 5 e A ( $.3.r.u.u.u.t.t.t.t.t.4.-._ D 3 5 6 9 9 9 9 9 9 < & ",
"h + L L m 9 9 8 2 u N T ) X.1.2.7.8.8.8.0.7.0.r.7.4.1.X.] T S f 2 8 9 9 9 9 < $ ",
"h + P L m 9 8 6 ; u Q 5.w.0.7.2.1.-.-.-.-.#.#.-.-.2.7.e.r.9.{ k : < 8 8 9 9 < & ",
"h + L P m 8 8 7 u U :.c.n.f.a.3.-.#.#.X.-.-.-.#.#.4.t.d.x.v.5.Y p u 6 8 8 8 < & ",
"h + L L n 2 5 N ' &.0.j.h.a.a.u.u.r.u.t.r.u.u.u.u.t.u.a.h.h.q.,.{ B 5 1 % $ & $ ",
"h + P L n 1 3 T q.v.h.s.a.a.a.k.V.V.N.N.C.M.C.M.N.x.a.a.a.s.g.b.w.E t ; , $ $ $ ",
"c + I H b , 3 T y.c.y.<.3.y.f.x.M.B.M.M.M.m.M.M.M.z.h.a.6.,.0.c.p.E t ; % & $ & ",
"! c q g u > 3 J 7.r...J { y.M.x.g.g.f.f.g.g.g.g.g.c.n.s.| J { r.0.R e ; % & $ $ ",
"o.m 9 9 2 1 3 G =.<.T y Y 9.V.f.r.r.r.8.e.e.0.r.t.g.m.y.E e J >.-.K 3 ; - $ $ $ ",
"o.c 9 9 9 2 1 k R E A e J :.t.8.4.;.| ' ' ' | -.3.8.u.<.Y e s R E x 7 , $ $ & $ ",
"o.n 9 9 8 9 9 6 t y e > M _ %.X.X._ A y y p A ( X.#.#.[ A 3 3 7 r 5 4 4 8 8 * $ ",
"o.b 9 9 9 8 9 2 - : = > a K ^ ~ ~ K i : ; : i D ~ ^ ^ K s 3 3 ; 3 4 9 9 9 9 8 $ ",
"o.n 9 9 q 8 8 < , , , 2 7 a A s s i 7 6 5 6 7 i s l l l 7 6 5 6 6 4 9 8 9 0 * $ ",
"o.n 9 9 9 9 9 < O O O $ 5 = 3 3 3 5 6 9 8 8 6 3 3 = 3 3 , 4 9 8 9 8 8 4 * * * $ ",
"o.b 9 8 9 9 q < o X X $ @ - 5 5 5 5 6 9 9 0 6 6 5 5 - , $ 4 9 9 9 9 9 * & $ & $ ",
"o.n 9 8 9 9 q < o X X % % % 4 4 4 8 8 9 9 8 8 6 4 4 % $ $ 4 9 9 9 9 8 4 $ & & & ",
"V # < < < < < $ o X X O O O $ * * * * * * < * * % % $ $ $ % * * 4 * * * $ & @ X ",
"h   & $ $ $ $ # o X X X . . $ $ & $ * $ $ $ % % $ $ $ % $ $ % $ $ $ $ $ & & @ . "
};
