/* XPM */
static char *cGxheWVyLWEw[] = {
/* columns rows colors chars-per-pixel */
"40 40 168 2 ",
"   c #1F1C1A",
".  c #231F1E",
"X  c #24201E",
"o  c #262220",
"O  c #292523",
"+  c #2E2A25",
"@  c #302F28",
"#  c #36362D",
"$  c #38372E",
"%  c #37382F",
"&  c #38382F",
"*  c #392537",
"=  c #362D30",
"-  c #3B2B37",
";  c #3C263A",
":  c #3D2B39",
">  c #3C3335",
",  c #3B3B32",
"<  c #3E3138",
"1  c #3F3938",
"2  c #412B3D",
"3  c #403E36",
"4  c #41343A",
"5  c #48343F",
"6  c #413D39",
"7  c #483A3E",
"8  c #414137",
"9  c #434339",
"0  c #4A463D",
"q  c #4C4B3E",
"w  c #452D40",
"e  c #482F42",
"r  c #4B3245",
"t  c #4B3A43",
"y  c #4F3649",
"u  c #513746",
"i  c #50374A",
"p  c #553C4C",
"a  c #5D3F4E",
"s  c #4F4046",
"d  c #4D4B41",
"f  c #4D4A49",
"g  c #534446",
"h  c #514C41",
"j  c #54434A",
"k  c #58444D",
"l  c #534D4A",
"z  c #58494C",
"x  c #555446",
"c  c #585647",
"v  c #575648",
"b  c #595649",
"n  c #5D5B4C",
"m  c #5C4453",
"M  c #575454",
"N  c #5E5B57",
"B  c #5F5C59",
"V  c #615F4E",
"C  c #624655",
"Z  c #664C57",
"A  c #6B4C56",
"S  c #664B5A",
"D  c #694E5B",
"F  c #665057",
"G  c #6F5A56",
"H  c #6B525E",
"J  c #73535C",
"K  c #745E59",
"L  c #7B585F",
"P  c #666454",
"I  c #696656",
"U  c #626059",
"Y  c #76605A",
"T  c #78635D",
"R  c #6D5461",
"E  c #705562",
"W  c #755964",
"Q  c #795B64",
"!  c #765C68",
"~  c #726263",
"^  c #7E616B",
"/  c #75726C",
"(  c #767474",
")  c #7C7B70",
"_  c #846166",
"`  c #83656D",
"'  c #8B6669",
"]  c #85696F",
"[  c #8E6A6D",
"{  c #87746D",
"}  c #856B72",
"|  c #8A6E75",
" . c #8C7279",
".. c #937175",
"X. c #9A7373",
"o. c #94757A",
"O. c #99777B",
"+. c #937B7F",
"@. c #9B797C",
"#. c #A17877",
"$. c #A47C7B",
"%. c #858377",
"&. c #878578",
"*. c #888779",
"=. c #8C8B7F",
"-. c #94867D",
";. c #988A7F",
":. c #A8817F",
">. c #977D82",
",. c #9B7D82",
"<. c #9C8185",
"1. c #908E81",
"2. c #9D8F85",
"3. c #A38486",
"4. c #AB8482",
"5. c #AF8886",
"6. c #A28689",
"7. c #A48A8C",
"8. c #AD8C8D",
"9. c #B18A87",
"0. c #B28D8A",
"q. c #B6918D",
"w. c #B8938F",
"e. c #AA8F90",
"r. c #AE9393",
"t. c #B39494",
"y. c #BB9693",
"u. c #B79897",
"i. c #BD9A96",
"p. c #B69B9A",
"a. c #BC9C9A",
"s. c #BDA3A0",
"d. c #C09B97",
"f. c #C39F9C",
"g. c #C5A29D",
"h. c #C8A49F",
"j. c #C1A4A1",
"k. c #CAA7A1",
"l. c #CCA8A3",
"z. c #CEA9A4",
"x. c #CFACA6",
"c. c #CAAEA9",
"v. c #D1AFA9",
"b. c #CCB1AC",
"n. c #D4B3AC",
"m. c #D7B8AF",
"M. c #D3B7B0",
"N. c #D8B7B0",
"B. c #D4B8B0",
"V. c #D9B9B1",
"C. c #DABCB4",
"Z. c #DEC0B7",
"A. c #DCC1B9",
"S. c #DEC2B9",
"D. c #E2C5BB",
"F. c #E2C6BD",
"G. c #E4C9BE",
"H. c #E4C9BF",
"J. c #E5CAC0",
"K. c #E6CBC1",
"L. c #E7CBC1",
"P. c #E7CCC1",
"I. c #E9CEC3",
"U. c #E9CEC4",
"Y. c #EACFC4",
"T. c #EBD0C5",
"R. c #EBD1C5",
"E. c #ECD1C6",
/* pixels */
"( B =.*.=.=.=.=.1.=.=.=.=.*.=.1.=.=.=.=.=.=.1.=.=.=.=.=.1.=.=.=.=.=.=.=.=.1./ v ",
"U 3 V V b q q q d d d n V n q q q q q q d d q q q q d d q x n n n n n h 8 q # X ",
"*.P P I V 9 9 9 8 8 8 V P N 9 8 8 9 9 8 9 6 6 9 8 8 8 9 8 b I P P P I d # # # % ",
"%.n I I V 9 9 9 8 8 0 l g g 4 4 4 4 4 4 4 4 < < 4 4 4 < 6 b I P I I I d # # # # ",
"%.n b b x 8 8 9 3 8 6 r 2 ; ; ; ; ; ; ; ; ; : ; ; ; ; ; < d v x x x x 0 & & & # ",
"%.b 8 9 8 8 9 9 6 6 t k C S R R H R H R F S C C C C C C j 7 1 6 8 9 8 9 9 9 8 # ",
"%.b 9 9 9 9 9 8 6 2 m ` <.7.r.r.r.r.p.r.r.6.,.@.,.,.,.O.Q t > 1 9 9 9 9 9 9 , # ",
"%.v 9 9 9 9 9 6 < 2 H 3.x.C.J.J.P.P.J.J.A.b.k.k.h.h.h.a.o.m 2 6 9 9 9 9 9 9 & # ",
"%.c 9 9 9 9 9 8 < 2 R r.C.J.U.U.E.E.E.E.J.A.V.v.z.z.z.g.8.| J z 4 1 8 9 9 9 8 # ",
"%.c 9 9 9 9 9 8 < 2 ! p.J.U.U.U.U.U.U.U.U.U.J.V.z.l.z.k.f.y.,.R w < 8 9 9 9 , # ",
"%.c 9 9 9 9 9 1 : 2 ! s.U.E.U.U.E.U.U.U.U.U.J.C.x.k.z.k.l.z.8.W w : 1 9 9 9 1 # ",
"%.c 0 9 9 9 9 8 < 2 ! s.E.E.E.U.U.E.U.E.E.E.U.C.x.z.l.k.l.l.8.W w < 8 9 8 9 8 # ",
"%.v 9 8 8 9 9 8 < 2 E p.H.J.U.U.E.I.L.D.J.F.A.n.z.k.l.l.l.l.8.W w - 6 9 9 9 , > ",
"%.b d q 0 9 9 1 < ; m  .r.c.H.E.U.H.c.e.7.7.r.p.k.l.k.k.l.l.0.W w : 6 9 8 9 , @ ",
"%.V P I n 9 9 8 < ; r p ! e.F.E.U.J.e.E m m D o.i.l.l.k.k.l.8.W w - 1 9 9 9 @ . ",
"%.V I I V 9 9 8 < ; ; ; p >.A.U.T.C.,.r * ; w _ t.l.k.k.k.l.8.W w < 9 9 9 9 # X ",
"%.V N V b 9 9 6 : ; ; * p <.Z.E.E.A.>.y * ; e _ t.l.l.k.k.l.8.W w < 1 9 9 9 #   ",
"%.c 9 9 8 9 9 8 4 ; ; ; k <.Z.T.E.C.>.i 2 ; r ` t.z.k.l.k.k.9.W w - 6 9 9 9 # X ",
"%.c 9 9 9 9 9 6 > ; i R  .p.G.T.E.F.p.| ! W Q @.a.l.l.l.t.3.} D t > 8 9 9 9 # X ",
"%.c 9 9 9 9 9 6 : w H 7.b.C.H.T.T.U.C.b.s.u.t.i.h.l.l.g.,.D k k 0 8 8 9 9 9 # o ",
"%.c 9 9 9 9 9 8 < 2 ! p.H.E.T.H.F.A.H.U.D.v.g.i.y.t.y.8.] p - 3 9 9 8 8 9 9 , # ",
"*.c 9 3 9 9 9 6 < 2 R r.C.D.I.D.x.j.B.J.C.g.0.O.` ^ ^ ^ A t < 6 9 9 9 9 8 0 , # ",
") d q q 9 9 9 6 : 2 D 6.n.V.H.n.q.4.g.F.m.y.@.L p e e 2 5 6 3 8 9 9 9 8 9 9 , & ",
"f + P P n 9 9 3 : 2 S @.d.h.x.g.4.$.q.x.l.y.:...^ D i ; : 6 9 9 9 9 9 9 9 9 , # ",
"f + I P n 8 9 8 4 2 m [ :.9.9.9.$.#.$.9.q.y.d.a.s.7.C ; : 6 8 9 9 9 9 9 9 9 , & ",
"f + P I n 9 9 6 - ; a _ #.$.:.:.:.:.4.$.9.i.z.N.F.c.} p t 9 6 9 9 9 9 9 8 8 , # ",
"f + P P n 9 9 8 4 2 a _ $.q.h.h.h.h.d.w.y.f.l.v.B.c.t.>.~ p 6 6 9 9 0 , # # % # ",
"f + P I n 8 9 6 - 2 a _ 4.h.Z.D.H.D.N.l.h.h.k.x.x.v.B.M.<.m * 4 9 9 9 , # # # # ",
"l @ P P n 9 9 8 1 2 p J ..t.C.H.D.D.V.n.v.x.k.g.d.g.B.V.3.m * 1 8 9 9 , # & # # ",
") d 0 0 9 9 9 9 6 6 7 t A @.l.n.n.n.C.D.V.n.h.y.9.q.h.z.,.p * 1 9 9 9 & # # & # ",
"*.v 9 9 9 8 9 9 9 8 1 - u ` t.f.g.h.V.H.F.V.k.0.#.@.0.t.| j ; 1 9 9 9 , # # # % ",
"%.v 9 9 9 9 9 9 8 8 1 1 t A ` O.4.d.x.H.J.A.n.9._ J ` ` H t 1 1 9 9 9 , # & & # ",
"&.c 9 9 9 9 9 8 & & > 8 6 7 r Z [ :.h.D.T.T.m.<.m w r r t 6 8 8 8 9 9 8 9 9 & # ",
"%.c 9 9 9 9 9 8 # % # 1 6 5 u Z ' $.g.D.T.T.A.<.j * ; ; > 8 8 9 9 9 9 9 9 9 , # ",
"*.v 9 9 9 9 9 8 % # > > 5 C L ' X.$.g.H.E.E.A.<.p * 1 1 1 9 9 9 9 9 9 9 9 9 , # ",
"%.v 9 9 9 9 9 , O o + - 5 A [ X.X.$.i.C.D.H.m.+.p ; > , % 8 9 9 9 9 9 1 & & % # ",
"%.c 9 9 9 9 9 , o . O = 4 a G K K T { ;.2.2.-.Y s 1 > # # , 9 9 9 9 9 , # # # # ",
"*.v 9 9 9 9 9 , o . o # $ 3 0 q q h l b M b b h 9 1 & # # 8 9 9 9 9 9 , # % % % ",
"N @ , & , % , # o o X + X + $ $ & , & & & & $ > , & & # # & & & , & & % # # @ O ",
"f   % # % % % # o . X X X X # $ % # # # # # # # # % # % # # % # % # % # # & + X "
};
