/* XPM */
static char *cGxheWVyLWEz[] = {
/* columns rows colors chars-per-pixel */
"40 40 161 2 ",
"   c #1F1C1A",
".  c #231F1E",
"X  c #24211E",
"o  c #262120",
"O  c #292523",
"+  c #2E2A25",
"@  c #2D222A",
"#  c #312D27",
"$  c #302D28",
"%  c #36362D",
"&  c #38372E",
"*  c #37382F",
"=  c #38392F",
"-  c #352332",
";  c #392437",
":  c #3B2B36",
">  c #3C243B",
",  c #3C2A39",
"<  c #3B3434",
"1  c #3B3B32",
"2  c #3E3338",
"3  c #412B3D",
"4  c #413D36",
"5  c #41353A",
"6  c #413B39",
"7  c #414137",
"8  c #434239",
"9  c #4A463C",
"0  c #4B4A3E",
"q  c #462D41",
"w  c #473442",
"e  c #4B3245",
"r  c #4B3B42",
"t  c #4E3649",
"y  c #50374A",
"u  c #543C4C",
"i  c #593E4F",
"p  c #573F50",
"a  c #593E50",
"s  c #4F4344",
"d  c #4E4C42",
"f  c #4D4A49",
"g  c #514146",
"h  c #514E43",
"j  c #55444B",
"k  c #5A444C",
"l  c #544D4C",
"z  c #555446",
"x  c #585647",
"c  c #575548",
"v  c #59554A",
"b  c #5D5C4C",
"n  c #5D4353",
"m  c #5F4B52",
"M  c #5E5B57",
"N  c #5F5C59",
"B  c #615F4E",
"V  c #614756",
"C  c #634B56",
"Z  c #6A4B55",
"A  c #644958",
"S  c #6C4E5A",
"D  c #6A5451",
"F  c #625E52",
"G  c #6C525D",
"H  c #705A55",
"J  c #72525C",
"K  c #7B585F",
"L  c #666454",
"P  c #686656",
"I  c #626059",
"U  c #6F5662",
"Y  c #725662",
"T  c #745A64",
"R  c #7A5C65",
"E  c #765C68",
"W  c #795F6A",
"Q  c #7D626B",
"!  c #75726C",
"~  c #79716F",
"^  c #767474",
"/  c #7C7571",
"(  c #7C7B70",
")  c #82656D",
"_  c #8D676A",
"`  c #84686E",
"'  c #926D6E",
"]  c #84766F",
"[  c #826771",
"{  c #866C74",
"}  c #8A6E75",
"|  c #8D7274",
" . c #827D75",
".. c #8D747A",
"X. c #927175",
"o. c #9A7372",
"O. c #93747A",
"+. c #94797E",
"@. c #98797D",
"#. c #A47C7A",
"$. c #858377",
"%. c #89877A",
"&. c #8C8A7E",
"*. c #95847B",
"=. c #967D81",
"-. c #9A7E83",
";. c #9C8286",
":. c #908E81",
">. c #9F8588",
",. c #A38284",
"<. c #AA8382",
"1. c #AF8986",
"2. c #A3878A",
"3. c #A88788",
"4. c #A38A8C",
"5. c #AC8C8C",
"6. c #B08A87",
"7. c #B28E8B",
"8. c #B7908D",
"9. c #B8938F",
"0. c #AF9291",
"q. c #B39393",
"w. c #B99693",
"e. c #BD9996",
"r. c #B79C9A",
"t. c #BB9C9A",
"y. c #BCA19F",
"u. c #BDA2A1",
"i. c #C29E9A",
"p. c #C4A19C",
"a. c #C8A49F",
"s. c #C4A5A1",
"d. c #CAA6A2",
"f. c #C5AAA6",
"g. c #CCA9A4",
"h. c #C7ACA8",
"j. c #CAAEA9",
"k. c #D1ADA7",
"l. c #CDB2AD",
"z. c #D3B3AC",
"x. c #D8B7AF",
"c. c #D3B7B0",
"v. c #D5BBB4",
"b. c #DABBB3",
"n. c #DCC1B7",
"m. c #DCC1B9",
"M. c #E0C0B7",
"N. c #E2C4BB",
"B. c #E1C5BC",
"V. c #E3C6BC",
"C. c #E5C8BE",
"Z. c #E5C9BE",
"A. c #E7CAC0",
"S. c #E6CBC1",
"D. c #E9CEC3",
"F. c #EACEC4",
"G. c #EACFC4",
"H. c #EBD0C4",
"J. c #EBD0C5",
"K. c #ECD1C5",
"L. c #EED3C8",
/* pixels */
"^ N &.&.&.&.&.&.:.%. ./ ~ ~ ~ ~ ~ / ~ ~ ~ ~ ~ ~ ~ ~ ~ ]  .:.&.%.&.&.&.%.&.:.! c ",
"I 4 B B x 0 0 0 0 9 6 5 3 3 : : : : : : : , : : : : : 5 6 v B b b b B z 8 9 % X ",
"%.L L P B 8 9 8 8 6 6 e e e e t t e e t e e q e e e q q 5 v L L P I L 0 % % % = ",
"$.b L P b 8 8 7 6 r C Q ` } O...........[ ) ) Q ) W ) Y k g v F L L P d % % % % ",
"$.b c x z 8 7 6 : t Q 5.u.l.v.v.v.v.v.c.f.t.w.e.e.e.e.-.U 3 r h x x c d 1 1 1 % ",
"$.x 7 7 7 8 8 2 , y | g.m.S.L.L.L.K.L.K.N.b.z.k.g.g.k.w.} V j 6 1 6 7 8 8 8 1 % ",
"$.x 9 8 8 8 8 6 > u =.c.S.S.J.D.F.K.D.S.C.N.b.k.d.d.d.i.5.@.E u 2 6 8 8 8 8 1 = ",
"$.x 8 8 8 8 8 2 > p =.v.J.F.J.J.F.F.F.K.F.F.N.z.g.g.g.d.d.e.X.i , 2 8 8 8 8 1 % ",
"$.x 8 8 8 9 8 2 , p =.m.J.J.J.D.J.F.J.F.F.F.B.z.g.d.d.d.g.p.O.a , 2 8 8 8 8 1 = ",
"$.x 8 8 8 8 8 1 , p =.m.L.J.J.J.J.J.J.J.F.K.B.x.g.d.g.g.g.i.O.a , 2 8 8 8 8 1 % ",
"$.x 8 8 8 8 8 2 , t { u.v.m.J.J.J.S.v.h.j.j.f.d.d.g.d.d.g.p.O.a , 5 8 8 8 8 1 % ",
"$.b 8 8 9 8 8 6 , q n Q 4.l.J.D.D.l.-.W Q Q O.7.d.g.d.d.g.i.X.a , 2 8 8 8 8 1 = ",
"$.x 8 7 7 8 8 2 , > > q W u.J.J.F.u.T > q > A -.a.g.g.d.g.i.O.a , 5 8 8 8 8 1 * ",
"$.b d 0 0 8 8 6 , > > > W u.J.J.K.u.U > > > V -.a.g.d.d.g.i.O.a , 2 6 8 8 8 1 $ ",
"$.B L L b 8 8 1 , > > q E u.D.D.J.u.U > > > Z -.a.d.d.d.g.i.O.a , 6 8 8 8 8 % . ",
"$.b L P B 8 8 1 , q t n =.u.J.D.J.h.{ n V a R -.a.g.d.p.e.3.) u , 2 8 8 8 8 $ . ",
"$.B b M x 8 7 6 , e E ;.u.b.K.H.J.v.y.4.;.O.,.w.a.g.d.w.@.Y C g 1 8 8 8 8 8 % . ",
"$.x 8 8 8 8 8 2 ; u =.c.S.C.H.K.F.S.S.v.z.a.p.p.a.a.d.5.T e g v d 7 8 8 8 8 % . ",
"$.x 8 8 8 8 7 6 , u +.z.C.S.C.m.z.c.S.S.x.p.8.,.@.@.@.` n r l F z 7 8 8 8 8 * . ",
"$.x 8 8 8 8 8 5 ; u | s.b.C.C.a.7.e.v.C.g.6.} J i i i u 6 h v b 0 7 8 7 8 8 * o ",
"$.x 9 8 8 8 8 6 , t ) w.k.b.b.i.#.6.k.b.a.1.' J n e > , 5 8 8 8 8 8 8 8 8 8 1 % ",
"$.x 7 8 8 8 8 6 , t R <.9.i.e.6.#.<.8.i.e.9.5.3.=.Y t , 5 8 8 8 8 8 7 8 8 8 1 % ",
"( h 0 0 8 8 8 6 , q J o.#.#.#.#.#.#.#.<.8.i.k.x.v.-.k , 5 8 8 8 8 8 8 8 8 8 1 * ",
"f + B L b 8 7 5 , e J o.<.6.9.9.q.9.8.w.i.a.k.b.v.q.{ G j 6 6 8 8 8 8 8 8 8 1 * ",
"f + P L b 8 8 1 , e J o.7.d.x.x.x.b.b.x.z.g.g.k.z.f.s.4.U 2 2 6 8 8 8 8 8 8 1 * ",
"f + P L b 8 8 2 , e Z ' 6.z.F.S.C.A.A.C.b.z.g.g.g.c.C.s.Q q 2 6 8 8 8 8 7 7 = % ",
"f + P L b 8 8 8 2 6 u S X.t.b.b.b.b.b.x.b.b.c.k.g.k.x.t.W 3 2 2 8 8 8 1 * * * % ",
"f + P P b 8 8 8 8 6 5 q Y 3.g.g.g.g.g.k.b.C.N.z.g.g.k.0.E 3 2 6 8 8 8 1 * * % * ",
"l $ B L b 8 8 8 8 8 2 , G 5.z.z.z.z.k.z.v.D.A.b.z.t.5...C 5 5 6 8 8 8 1 % * * % ",
"( d 0 0 8 8 8 8 8 6 2 3 T r.C.C.C.V.C.C.S.K.A.A.b.5.T j r 6 6 8 7 8 8 1 % % * % ",
"%.c 8 8 8 8 8 8 8 8 : q T r.V.m.m.v.n.m.B.S.S.D.S.4.A w r 6 8 8 8 8 8 1 % * % % ",
"$.c 8 8 8 8 8 8 8 1 2 3 S ,.p.0.2.-.-.2.r.z.m.S.C.f.;.Q m 6 6 1 8 8 8 1 % % * % ",
"$.x 8 8 8 8 8 7 = * : 3 k _ #.R i t y n } i.x.N.F.B.n.r.Q 3 2 6 8 7 8 7 7 8 1 * ",
"$.x 8 8 8 8 8 7 % < 5 u J _ ' Z 3 ; ; 5 G O.w.j.M.C.K.h.Q q , 1 d 7 8 8 8 8 1 * ",
"$.c 8 8 8 8 8 1 : 3 k K _ o.o.Z q , 5 6 j A { q.x.n.F.h.[ , 2 6 8 8 8 8 7 8 1 % ",
"$.b 8 8 8 8 8 2 - q S ' o.o.' Z q , 6 8 5 3 A @.p.z.n.y.Q 3 2 4 8 8 8 1 = = * % ",
"$.c 8 8 8 8 8 1 @ 3 5 D H H H k 5 5 6 7 4 2 g K ] *.*.] C 5 6 6 8 8 8 1 % * * % ",
"$.x 8 8 8 8 8 = X X : 4 4 4 0 9 8 4 8 8 8 4 9 h z z h 9 6 1 8 7 8 8 8 1 % * * * ",
"M $ 1 * 1 * 1 % X X X + X + = 4 1 = = = = 1 = = = & % % * = = = 1 = = * % % # O ",
"f   * * * * * % X X X X X X # % % % % % % % & & & % & % * * * % * * * % % * + . "
};
