/* XPM */
static char *cGxheWVyLWQz[] = {
/* columns rows colors chars-per-pixel */
"40 40 162 2 ",
"   c #1F1C1A",
".  c #231F1E",
"X  c #24211F",
"o  c #261F21",
"O  c #292524",
"+  c #2E2A25",
"@  c #2E222A",
"#  c #33252E",
"$  c #302F28",
"%  c #36362D",
"&  c #38372E",
"*  c #37382F",
"=  c #38382F",
"-  c #3A2C35",
";  c #3C253A",
":  c #3C2939",
">  c #373030",
",  c #393332",
"<  c #3B3B32",
"1  c #3F3438",
"2  c #3F3938",
"3  c #412B3D",
"4  c #403E35",
"5  c #41353A",
"6  c #413B39",
"7  c #493B3F",
"8  c #414137",
"9  c #434239",
"0  c #49443C",
"q  c #4B4A3E",
"w  c #452D41",
"e  c #473740",
"r  c #4B3344",
"t  c #4B3B43",
"y  c #513546",
"u  c #543D46",
"i  c #513749",
"p  c #543B4D",
"a  c #5D3F4E",
"s  c #5A3F50",
"d  c #4E4444",
"f  c #4D4D40",
"g  c #4D4A49",
"h  c #514345",
"j  c #524D43",
"k  c #57434B",
"l  c #5A434D",
"z  c #514E4D",
"x  c #565546",
"c  c #585647",
"v  c #575548",
"b  c #5A544B",
"n  c #5D5C4C",
"m  c #5C4353",
"M  c #5E4C51",
"N  c #5F5C59",
"B  c #61534C",
"V  c #615F4E",
"C  c #624655",
"Z  c #6C4D57",
"A  c #654B59",
"S  c #6B4F5C",
"D  c #625B52",
"F  c #6A515D",
"G  c #74555B",
"H  c #78565E",
"J  c #765A5B",
"K  c #666454",
"L  c #686656",
"P  c #626059",
"I  c #6B625A",
"U  c #70685E",
"Y  c #6E5461",
"T  c #6D5A60",
"R  c #735663",
"E  c #735964",
"W  c #7C5D65",
"Q  c #776367",
"!  c #796066",
"~  c #7D626C",
"^  c #75726C",
"/  c #7F6670",
"(  c #767474",
")  c #7C7B70",
"_  c #825E64",
"`  c #896B67",
"'  c #83656D",
"]  c #8A6569",
"[  c #84696F",
"{  c #8C6A6A",
"}  c #936D6E",
"|  c #806670",
" . c #856C74",
".. c #896B73",
"X. c #936F72",
"o. c #8D747A",
"O. c #8E7B7A",
"+. c #9B7474",
"@. c #93757A",
"#. c #9A797D",
"$. c #A07776",
"%. c #A17877",
"&. c #A57D7B",
"*. c #858377",
"=. c #878578",
"-. c #88847C",
";. c #8C8A7E",
":. c #A8807E",
">. c #967E81",
",. c #9C7D81",
"<. c #9D8387",
"1. c #908E81",
"2. c #A68587",
"3. c #AB8481",
"4. c #AF8886",
"5. c #A1878A",
"6. c #A88789",
"7. c #A58A8C",
"8. c #AC8C8C",
"9. c #B18A87",
"0. c #B38E8A",
"q. c #B5918D",
"w. c #AD9393",
"e. c #AD9992",
"r. c #B49594",
"t. c #BA9692",
"y. c #B29897",
"u. c #BE9A96",
"i. c #B59A99",
"p. c #BD9C9A",
"a. c #BBA79D",
"s. c #BEA3A1",
"d. c #C09B97",
"f. c #C19E9A",
"g. c #C5A29D",
"h. c #C8A59F",
"j. c #C3A5A2",
"k. c #CAA7A2",
"l. c #CDA9A4",
"z. c #C7ADA8",
"x. c #CBAFAA",
"c. c #D0AFA8",
"v. c #CCB1AC",
"b. c #D4B3AC",
"n. c #D1B6B0",
"m. c #D8B7B0",
"M. c #D5B9B2",
"N. c #DBBCB4",
"B. c #DDBFB7",
"V. c #DABFB8",
"C. c #DEC1B7",
"Z. c #DEC2B9",
"A. c #E1C3BA",
"S. c #E2C5BB",
"D. c #E0C6BC",
"F. c #E4C8BE",
"G. c #E6CBC0",
"H. c #E6CBC1",
"J. c #E9CDC2",
"K. c #EBCFC5",
"L. c #EBD0C5",
"P. c #ECD1C6",
/* pixels */
"( N ;.;.;.;.;.;.1.;.;.;.-.-.-.-.-.-.-.-.-.-.-.-.-.-.-.-.-.-.-.;.;.;.;.;.;.;.^ b ",
"P 4 V V c q q q q f f n x d 5 5 5 5 5 5 5 5 5 5 5 5 5 5 5 7 j b V V n x 9 0 % X ",
"=.K K L V 9 0 9 9 8 0 D b t ; ; : ; ; ; ; ; ; ; ; ; ; ; - 3 h D K K L q % % % = ",
"*.n L L V 0 9 9 9 8 0 b M M C C A C C C A F F F S F F S A C M M b K L q % % % % ",
"*.n v v j 9 9 9 9 9 2 e A ' ,.,.,.,.,.,.6.r.y.y.y.y.y.w.6.#.! k 7 d x 0 < < = % ",
"*.v 9 9 9 9 9 9 9 6 5 r R 4.l.k.k.k.l.l.N.G.P.K.P.P.J.G.m.j.@.s ; 1 8 9 9 9 < % ",
"*.c 9 9 9 9 9 8 5 t A W #.t.l.k.k.c.m.B.A.G.P.K.J.L.J.G.A.b.,.m : 1 9 9 9 9 < * ",
"*.c 9 9 9 9 9 2 : i W 6.p.g.k.k.k.c.B.G.G.J.J.K.L.J.J.J.J.B.7.m : 2 9 9 9 0 < * ",
"*.c 9 9 9 9 9 2 - i  .p.l.l.l.k.k.n.D.K.K.K.K.L.L.L.J.L.P.Z.7.M ; 5 9 9 9 9 < * ",
"*.c 9 9 9 9 9 2 : i ..p.l.k.k.l.k.n.D.K.K.K.K.P.P.J.L.J.P.D.7.A - 5 6 9 9 9 < % ",
"*.c 9 9 9 9 9 2 : i ..p.l.k.l.l.k.x.V.D.D.D.F.G.L.L.L.J.G.V.5.m : 1 9 9 9 9 < * ",
"*.c q 9 9 9 9 2 ; i ..d.l.k.k.k.l.f.w.7.7.7.i.n.J.L.L.Z.s.5.~ p : 5 9 9 9 9 < * ",
"*.c 9 8 8 9 9 2 : i ..d.l.k.k.k.l.w.W s p p / s.G.K.P.v.>.s r w : 1 9 9 9 9 2 & ",
"=.c f f q 9 9 2 : i [ p.l.k.k.k.k.,.C ; ; ; F w.G.K.P.z.~ ; ; ; : 2 6 9 9 9 = $ ",
"*.V K L n 9 9 2 - i  .f.l.k.k.k.l.6.A ; ; ; F y.G.L.K.s./ 3 ; ; : 1 9 9 9 9 $ o ",
"*.V K L V 9 9 2 : i ' r.k.k.k.k.l.,.S w w w R i.G.K.K.s.>.r 3 ; : 2 8 9 9 0 % . ",
"*.n V V c 9 9 2 1 t F ..2.p.k.k.l.r.X.R _ ' <.z.J.J.K.M.w.| S r : 5 9 9 9 9 $ . ",
"*.v 9 9 9 9 9 9 2 7 d m _ 0.l.k.l.g.r.w.d.k.n.Z.J.P.J.G.M.s.o.m : 1 9 8 9 9 % . ",
"*.c 9 9 9 9 9 9 9 2 1 : A @.r.r.q.d.d.k.m.F.F.A.S.S.J.J.K.Z.5.m : 5 8 9 9 9 % . ",
"*.c 9 9 9 9 9 9 9 9 6 5 h S E R R ] ,.q.l.S.A.k.f.b.F.G.Z.c.>.m : 5 9 9 9 9 % O ",
"*.c 9 9 9 9 9 9 9 9 9 8 5 5 w w w C _ ,.k.A.m.d.:.d.A.S.m.j.@.s : 1 9 9 9 9 < % ",
"=.v 9 9 9 9 9 9 9 9 9 9 2 - w s R ' ,.8.u.l.d.d.&.q.l.c.j.q.] p : 5 6 9 9 9 < * ",
") f q q 0 9 9 9 9 8 9 9 2 : w  .i.k.f.d.d.d.&.&.%.&.9.9.4.&._ i : 1 9 9 9 9 < * ",
"z + K K n 9 9 9 9 8 8 8 t t A 5.V.A.b.k.d.,.&.,.3.3.,.&.&.+.R y : 6 9 9 9 9 < % ",
"g + L K V 9 9 9 9 9 6 5 M / 5.p.b.b.c.k.k.h.h.k.k.h.h.d.9.+.H y : 1 9 9 9 9 2 % ",
"g + L K V 9 9 9 9 6 1 3 T y.B.b.c.l.k.l.b.A.F.F.F.F.F.m.d.+.H y : 5 9 9 8 8 < % ",
"g + K K c 9 9 9 9 4 1 3 E i.A.l.d.f.l.b.B.C.S.A.S.S.S.b.t.+.H y : 1 9 2 % * % % ",
"g O K L V 9 9 9 9 9 : 3 Y 8.c.u.9.t.b.S.N.b.c.b.b.c.c.k.0.+.H y : 2 9 < % % % * ",
"z $ K K n 9 9 9 9 6 1 : A ,.u.4.%.0.m.F.N.b.l.k.l.l.l.f.9.} G r : 6 8 < % % * % ",
") f 9 q 9 9 9 9 9 4 6 6 k G [ X.$.0.m.K.F.N.N.N.B.N.N.g.+.G l 7 5 6 8 < % * % % ",
"=.c 9 9 9 9 9 9 9 9 9 9 6 5 y G +.0.b.K.J.K.G.G.G.G.J.z.| r 5 5 8 9 9 < % * % * ",
"*.c 9 9 9 9 9 9 9 4 6 6 7 y a H +.9.h.b.z.j.s.s.j.n.G.z.| 3 1 6 9 9 9 < % * * % ",
"=.c 9 9 9 9 9 8 * * , 1 p G _ } +.&.0.0.#.~ E E W 7.Z.z./ ; - 2 9 9 9 8 8 8 < * ",
"*.c 9 9 9 9 9 8 * * - : s _ $.$.$.$.+.} Z 7 : ; w  .M.v.o.i e 6 9 9 9 9 9 9 < * ",
"=.c 9 9 9 9 9 8 * % > : a _ $.$.$.} W Z a 7 : : w o.n.V.y.o.T h 2 2 9 9 8 9 < % ",
"=.c 9 9 9 9 9 < O O # ; a ] %.$.%.] C r 5 5 5 : w  .n.J.Z.z.>.M : 2 9 < * < * % ",
"*.c 9 9 9 9 9 8 . o @ : u J ` ` { J u : 5 6 6 1 w Q e.s.a.a.O.l 1 2 8 < % % % % ",
"=.c 9 9 9 9 9 < O . O & 5 h B B B j 0 5 4 9 4 6 2 v I U U ^ D d 2 2 9 < % * % * ",
"N $ < * < * < * . . X O + X = 4 < < < < < = & = < < < < = < < = < < * * % * $ O ",
"g   * * * * * $ O . X X X X % % % % % % % % % % , % % % * * * % , * * % % * + X "
};
