/* XPM */
static char *cGxheWVyLXcz[] = {
/* columns rows colors chars-per-pixel */
"40 40 169 2 ",
"   c #1F1C1A",
".  c #231F1E",
"X  c #24201E",
"o  c #262220",
"O  c #292523",
"+  c #2E2A25",
"@  c #30262A",
"#  c #302F28",
"$  c #36362D",
"%  c #37382F",
"&  c #38382F",
"*  c #3A2736",
"=  c #352C30",
"-  c #3B2B36",
";  c #3B2639",
":  c #3C2D38",
">  c #3A3433",
",  c #3C3B32",
"<  c #3E3238",
"1  c #3F3838",
"2  c #402A3D",
"3  c #403E35",
"4  c #42343B",
"5  c #48373F",
"6  c #413C39",
"7  c #483D3F",
"8  c #414137",
"9  c #434339",
"0  c #48473B",
"q  c #4B4A3E",
"w  c #442C40",
"e  c #482E42",
"r  c #463040",
"t  c #4B3345",
"y  c #473A40",
"u  c #4B3C42",
"i  c #4D3548",
"p  c #4F3D48",
"a  c #513749",
"s  c #543C4C",
"d  c #583E4E",
"f  c #593F50",
"g  c #4C4242",
"h  c #4D4B41",
"j  c #4D4A49",
"k  c #524447",
"l  c #514F42",
"z  c #55434A",
"x  c #5A444D",
"c  c #554D4A",
"v  c #584C4C",
"b  c #555446",
"n  c #585647",
"m  c #575548",
"M  c #595749",
"N  c #5D5B4C",
"B  c #5E4453",
"V  c #5E4C53",
"C  c #575454",
"Z  c #5E5B57",
"A  c #5F5C59",
"S  c #615F4E",
"D  c #614655",
"F  c #644C56",
"G  c #674C57",
"H  c #6B4F5C",
"J  c #635157",
"K  c #615C51",
"L  c #6A515B",
"P  c #6B5D5B",
"I  c #73525C",
"U  c #61604E",
"Y  c #666454",
"T  c #686656",
"R  c #735762",
"E  c #755965",
"W  c #7A5D65",
"Q  c #7B5F68",
"!  c #706260",
"~  c #7D6169",
"^  c #75726C",
"/  c #79716F",
"(  c #767474",
")  c #7C7B70",
"_  c #805F67",
"`  c #83656D",
"'  c #8A6568",
"]  c #806A6F",
"[  c #89696F",
"{  c #916B6D",
"}  c #846770",
"|  c #8A6D74",
" . c #877075",
".. c #8D7077",
"X. c #817C75",
"o. c #8D747A",
"O. c #987071",
"+. c #94757A",
"@. c #94797E",
"#. c #9C7A7C",
"$. c #A47D7B",
"%. c #858377",
"&. c #878578",
"*. c #88867A",
"=. c #8C8A7E",
"-. c #93867D",
";. c #967C81",
":. c #997F83",
">. c #9E8285",
",. c #908E81",
"<. c #9D8F85",
"1. c #A48486",
"2. c #AE8684",
"3. c #AE8987",
"4. c #A28689",
"5. c #A88788",
"6. c #A3898C",
"7. c #AC8B8B",
"8. c #B18A87",
"9. c #B48D8A",
"0. c #B6908D",
"q. c #B8948F",
"w. c #AA8F90",
"e. c #B39393",
"r. c #BC9793",
"t. c #B79997",
"y. c #BD9994",
"u. c #B69C9B",
"i. c #BE9B99",
"p. c #BAA09E",
"a. c #BEA5A1",
"s. c #C29E99",
"d. c #C4A19D",
"f. c #C5A4A1",
"g. c #CBA7A2",
"h. c #C5A9A5",
"j. c #CDAAA4",
"k. c #CEAFA9",
"l. c #D0ADA7",
"z. c #D0AFA9",
"x. c #CFB2AC",
"c. c #D2B1AA",
"v. c #D4B3AC",
"b. c #D7B7B0",
"n. c #D1B8B0",
"m. c #D5BBB4",
"M. c #D9BAB2",
"N. c #D9BBB2",
"B. c #DBBDB4",
"V. c #DDBEB6",
"C. c #DDBFB6",
"Z. c #DABFB8",
"A. c #DDC0B7",
"S. c #DCC1B9",
"D. c #E2C4BB",
"F. c #E2C5BB",
"G. c #E3C6BC",
"H. c #E4C8BE",
"J. c #E7CBC0",
"K. c #E7CBC1",
"L. c #E7CCC1",
"P. c #E8CDC2",
"I. c #EACEC3",
"U. c #EACFC4",
"Y. c #EBCFC4",
"T. c #EAD0C4",
"R. c #EBD0C5",
"E. c #EDD2C6",
"W. c #EED3C7",
/* pixels */
"( A ,.*.*.,.=.=.,.=.=.*.*.X./ / / / / / / / / / / / / / X.&.=.=.*.=.=.=.=.=.^ C ",
"K 3 U N N q q q q q q S M h : * - - - - - ; - - - - * : 4 b U N U U U b 9 0 $ X ",
"*.Y T T Z 9 9 9 9 6 9 K K z t t i i i i i i i i i i t t 4 c Y Y Y Y T h $ $ & & ",
"%.S T T U 9 9 9 9 9 0 v x L ~ ] | o.o...o.o.o.o.o.| } Q F z v N Y T T h # % $ $ ",
"%.N n n b 9 9 9 9 6 6 4 a ` 7.f.x.b.m.m.m.m.m.m.m.v.d.e.| s 4 g b m m 9 , , , $ ",
"%.n 9 9 8 8 9 8 6 6 u z R >.j.C.H.W.W.W.W.W.W.W.W.I.A.k.5.E x p 1 1 8 9 9 9 , $ ",
"%.m 9 9 9 9 9 8 1 4 B ` 5.a.B.F.L.T.T.J.T.W.Y.J.I.H.F.B.f.5.} F 4 1 9 9 9 9 , $ ",
"%.m 9 9 9 9 9 3 < ; L 1.j.b.J.I.T.T.W.Y.T.T.Y.Y.W.T.I.I.C.x.5.R 2 : 8 9 9 9 , $ ",
"%.n 9 9 9 9 9 9 < 2 H 4.l.B.I.T.U.Y.R.Y.W.T.T.Y.I.I.T.I.C.z.7.E w : 1 9 9 9 , $ ",
"%.n 9 9 9 9 9 9 < ; H 1.l.B.J.T.R.Y.R.Y.Y.T.Y.T.T.I.Y.Y.B.v.7.E w < u 8 9 9 8 $ ",
"%.n 9 9 9 9 9 1 : 2 H 1.l.B.I.Y.U.R.Y.R.Y.T.I.I.W.I.Y.L.A.z.7.E w : 9 9 9 9 , $ ",
"&.n 0 9 9 9 9 9 : w H 1.l.M.I.I.U.U.R.R.R.R.Y.W.I.Y.T.L.A.k.7.E w < 1 9 9 9 , $ ",
"%.n 9 8 9 9 9 1 < 2 H 1.l.B.J.I.U.U.Y.U.I.I.T.Y.I.I.I.K.C.l.9.E w : 6 9 9 9 , > ",
"%.M h q 0 9 9 9 : 2 H 1.j.v.B.F.J.U.U.U.Y.I.Y.Y.Y.K.G.C.b.l.7.E w : 1 9 9 9 > # ",
"%.U Y Y N 9 9 , < w H 5.j.j.l.M.G.U.R.R.W.I.I.W.W.J.M.l.l.l.7.E w : 9 9 9 9 # . ",
"%.U T T S 9 9 8 < : D o.e.i.g.l.Z.J.S.J.F.D.J.G.F.C.l.g.s.e.+.L 4 1 1 9 9 9 $ . ",
"%.N Z N n 9 9 9 3 4 k G ` :.s.j.v.b.b.b.b.b.b.b.b.c.l.d.8.' L x 6 1 1 9 9 9 $   ",
"%.n 8 9 9 9 8 9 8 9 6 2 f | s.j.j.j.j.j.j.l.j.j.l.g.j.s.+.B 2 v h 9 9 9 9 9 $ . ",
"%.n 9 9 9 9 9 9 9 9 6 * a _ 7.s.f.g.g.g.g.g.g.g.g.d.s.q.[ a 5 v h 9 9 9 9 9 $ . ",
"%.n 9 9 9 9 9 9 9 8 4 2 e I $.9.s.g.g.j.j.g.g.l.g.s.9.$.W i 2 k 0 9 9 9 9 9 $ O ",
"%.n 9 9 9 9 9 9 9 3 7 s B _ #.8.r.d.d.d.s.d.d.d.d.y.8.$.' F s 7 6 9 9 9 9 9 , $ ",
"%.n 9 9 9 9 9 9 4 4 D / 1.7.9.0.9.9.9.9.9.9.9.9.9.9.0.9.3.>. .F 4 1 6 9 9 9 , $ ",
") q q q 9 9 8 4 6 r R u.C.v.g.s.2.$.$.$.$.$.$.$.$.2.r.g.k.B.a./ t < 6 8 9 9 , & ",
"j $ Y U N 9 1 7 V R >.h.C.v.j.s.y.r.e.q.q.q.q.q.q.r.d.j.v.B.x.1.~ V g 6 8 9 , $ ",
"j + T T N 1 < p  .u.h.k.v.k.j.j.v.M.b.M.b.M.M.b.M.v.l.g.j.v.x.h.p.o.z < 6 9 , $ ",
"j + Y T N 6 * s >.C.B.f.i.f.j.v.F.H.I.H.J.J.J.J.H.G.b.l.g.i.d.v.C.6.B ; < 9 , $ ",
"j + Y Y N 1 ; s +.z.i.+.| e.b.B.M.M.M.M.M.M.B.b.M.M.M.v.t.....t.x.>.B * - $ $ $ ",
"j + T T N 1 ; i ..f.1.H D :.B.G.v.j.j.k.j.j.j.j.l.v.F.A.w.G D #.d.@.s * > $ $ > ",
"c # Y Y N 1 1 i Q :.` s s :.S.K.v.v.v.v.f.e.5.e.r.d.l.z.>.s i Q #.~ s - $ $ % $ ",
") h 0 0 9 1 6 6 z D s w s ;.S.T.G.G.F.G.f...L ' $.2.9.2.` a w a D z 7 > $ $ $ $ ",
"%.M 9 9 9 8 9 6 < ; ; ; d :.B.T.T.I.H.F.t.L 7 F ' O.O.[ I t ; ; ; : 6 , $ $ $ % ",
"%.M 9 9 9 9 9 9 6 < : ; s :.S.W.T.F.h.4.` x 5 s F I I I x 5 : 4 < 6 9 , $ & % $ ",
"%.n 9 9 9 9 9 8 & % > * s :.C.W.W.S.6.B i 7 1 6 w t r r 4 1 9 6 9 9 8 8 8 9 & $ ",
"%.n 9 9 9 9 9 8 $ $ 1 ; z :.Z.W.T.S.;.t * 1 9 1 : ; ; : 1 1 9 9 9 9 9 9 9 9 3 $ ",
"%.n 9 9 9 9 9 8 $ $ > ; s :.Z.Y.W.C.:.i - 1 9 1 6 1 6 1 9 8 9 8 9 9 9 9 9 9 3 $ ",
"%.M 9 9 9 8 9 3 O O @ # s ;.n.J.H.n.@.i - 1 9 9 9 9 , $ , , 9 9 9 9 9 , & & $ $ ",
"%.M 9 9 9 9 9 , o . o = y P -.<.<.-.! y > 8 9 9 9 9 , $ $ 3 0 9 8 9 9 & $ $ $ $ ",
"%.M 9 9 9 9 9 , o o o $ > 9 m C M M h 9 9 9 9 9 9 9 & $ $ 3 9 9 9 9 9 3 $ % & & ",
"Z + , & , , & $ o . o O O O $ , & % & & > & > > > , $ $ $ & & & % > , % $ $ # X ",
"j . % $ $ $ & $ o o o X . . $ $ $ $ % $ % % $ $ % % $ $ & $ $ $ $ $ % $ $ % # X "
};
