/* XPM */
static char *cGxheWVyLXMw[] = {
/* columns rows colors chars-per-pixel */
"40 40 161 2 ",
"   c #1F1C1A",
".  c #231F1E",
"X  c #24201E",
"o  c #252120",
"O  c #292524",
"+  c #2E2A25",
"@  c #312D27",
"#  c #30262B",
"$  c #302F28",
"%  c #36362D",
"&  c #37382F",
"*  c #38382F",
"=  c #392536",
"-  c #362932",
";  c #3B2B37",
":  c #3B2539",
">  c #3D2C38",
",  c #3A3432",
"<  c #3C3B32",
"1  c #3E3238",
"2  c #422B3E",
"3  c #403E36",
"4  c #42353A",
"5  c #423C39",
"6  c #414137",
"7  c #434339",
"8  c #48473B",
"9  c #4B4A3E",
"0  c #452C40",
"q  c #482F43",
"w  c #4B3445",
"e  c #4B3B42",
"r  c #4F3648",
"t  c #513C46",
"y  c #503749",
"u  c #543C4C",
"i  c #583E4F",
"p  c #4D4641",
"a  c #4D4C41",
"s  c #4D4A49",
"d  c #504446",
"f  c #524E43",
"g  c #544249",
"h  c #5A454D",
"j  c #554D4B",
"k  c #565446",
"l  c #585647",
"z  c #575548",
"x  c #5A564A",
"c  c #5D5B4C",
"v  c #5D4352",
"b  c #5E4C52",
"n  c #5E5550",
"m  c #5E5B57",
"M  c #5F5C59",
"N  c #615F4E",
"B  c #614654",
"V  c #644B55",
"C  c #6C4E57",
"Z  c #654A59",
"A  c #6A4E5C",
"S  c #625D52",
"D  c #6B525D",
"F  c #666454",
"G  c #686656",
"H  c #626059",
"J  c #6C5360",
"K  c #725661",
"L  c #755964",
"P  c #7A5E68",
"I  c #736B61",
"U  c #7E626A",
"Y  c #797166",
"T  c #75726C",
"R  c #767474",
"E  c #7C7B70",
"W  c #856266",
"Q  c #83646C",
"!  c #816D6F",
"~  c #856770",
"^  c #856B70",
"/  c #8B6D74",
"(  c #8E7177",
")  c #8C7379",
"_  c #977375",
"`  c #93757A",
"'  c #94797E",
"]  c #9B7A7E",
"[  c #A37C7C",
"{  c #858377",
"}  c #878578",
"|  c #88857C",
" . c #8C8A7E",
".. c #A9817F",
"X. c #977D82",
"o. c #997E83",
"O. c #9D8387",
"+. c #908E81",
"@. c #A58486",
"#. c #AB8582",
"$. c #AF8885",
"%. c #A68688",
"&. c #A88789",
"*. c #A58B8D",
"=. c #AC8B8C",
"-. c #B18A87",
";. c #B28E8C",
":. c #B7918E",
">. c #B8938F",
",. c #AD9192",
"<. c #B59493",
"1. c #BA9692",
"2. c #B39897",
"3. c #BD9995",
"4. c #B29898",
"5. c #BD9D9A",
"6. c #B6A299",
"7. c #BAA09E",
"8. c #C09C97",
"9. c #C19E9A",
"0. c #C5A29D",
"q. c #C8A49F",
"w. c #C3A4A1",
"e. c #CAA6A1",
"r. c #C4ADA5",
"t. c #CCA9A3",
"y. c #CBAEA9",
"u. c #D0ADA7",
"i. c #D1AFA8",
"p. c #CDB1AB",
"a. c #D4B3AC",
"s. c #D8B7AF",
"d. c #D7B8AF",
"f. c #D6B7B0",
"g. c #D8B7B0",
"h. c #D7B9B2",
"j. c #D9BBB3",
"k. c #DCBDB4",
"l. c #DABFB8",
"z. c #DEC0B7",
"x. c #DCC0B8",
"c. c #DDC2BA",
"v. c #DFC4BA",
"b. c #E0C2B9",
"n. c #E1C4BB",
"m. c #E2C5BB",
"M. c #E1C6BD",
"N. c #E4C7BD",
"B. c #E5C8BE",
"V. c #E5CAC1",
"C. c #E7CBC1",
"Z. c #E7CCC1",
"A. c #E7CCC2",
"S. c #E9CDC2",
"D. c #E9CEC4",
"F. c #EACFC4",
"G. c #EBCFC5",
"H. c #EAD0C5",
"J. c #EBD0C5",
"K. c #ECD1C6",
"L. c #EED3C8",
/* pixels */
"R M  . . . . . . .+. . . .| | | | | | | } | | | | | | | |  . . . . . . . . .T z ",
"S 3 N c c 9 9 9 a 9 9 c c f 4 4 4 4 4 4 4 4 4 4 4 4 4 4 5 l N c N c c k 7 8 & X ",
"| F G G c 7 8 7 7 7 8 F S d > : : : : : : : : : = : : > > l G F F F F a % % % & ",
"{ c G G N 7 7 7 7 5 8 x x v B Z A D D D D D D D D A Z B g g S S H F G a % % % % ",
"{ c z z k 7 7 7 7 6 5 5 t K ` %.,.4.4.4.4.2.4.2.4.,.%.' L d 5 d k k z p < < & % ",
"{ z 7 7 6 7 6 7 6 6 5 q v ` 9.g.n.H.K.K.K.S.K.K.H.N.d.e.] B q 4 6 6 6 6 7 7 < % ",
"{ z 7 7 7 7 7 6 4 4 g D / <.a.l.B.S.H.H.H.H.S.S.K.B.v.a.1.` K h e 1 7 7 7 7 < & ",
"{ l 7 8 7 7 7 < 4 4 V ` 5.y.n.C.S.H.H.S.S.H.H.H.H.S.A.M.a.7.] D 0 1 < 7 7 7 < & ",
"{ l 7 7 7 7 7 5 4 2 J %.i.k.A.G.G.G.G.G.G.G.G.D.G.S.H.S.v.a.=.L 0 > < 7 7 7 < & ",
"{ l 7 7 7 7 7 < > 2 A %.u.k.A.L.H.G.G.G.G.D.G.G.K.K.K.S.k.a.=.L 0 > e 7 7 7 < % ",
"{ l 7 7 7 7 8 < > 2 J o.u.f.l.M.v.C.V.D.H.H.D.V.M.M.M.M.j.t.=.L 0 1 < 7 7 7 < & ",
"{ l 7 8 7 7 7 6 > 2 A &.e.2.*.*.*.*.r.V.H.H.C.y.,.*.*.*.<.w.;.L 0 > 5 7 7 7 < & ",
"{ l 7 6 6 7 7 6 > 2 A &.3./ B i i Z O.x.G.L.l.*.J y i i ~ <.<.K 0 1 < 7 7 7 < , ",
"{ c a a 8 7 7 < 1 2 A %.<.U 0 = = q ) x.L.K.l.X.i : : 0 K <.=.K 0 > e 7 7 7 * $ ",
"{ N F G m 7 7 6 > 2 A %.3.Q q : : w ) l.L.G.l.o.y : : 0 K :.<.K 0 > 6 7 7 7 , . ",
"{ c G G c 7 7 6 1 2 Z @.=.U r 0 > u X.x.L.L.c.O.v 0 0 r L =.&.K 0 1 < 7 7 7 $ . ",
"{ c c m x 7 7 < 4 4 h W / Q K W U X.,.c.K.K.N.8.) Q P L U ( Q V e 1 < 7 7 8 %   ",
"{ l 7 7 7 7 7 7 5 5 5 i Z / o.8.7.p.l.A.K.K.B.b.y.r.3.&.( A g b p < 7 7 7 7 % o ",
"{ l 7 7 7 7 7 7 6 5 4 2 v _ 8.a.j.c.V.V.N.B.N.N.n.k.a.0.] B w j p 5 6 7 7 7 %   ",
"} l 7 7 7 7 7 7 4 4 y C W o.8.8.5.5.w.f.s.s.s.t.9.5.0.0.$.W D h 5 1 6 7 7 7 , o ",
"{ l 7 7 7 7 7 < 4 4 v W [ 8.8.8.$.#.1.e.t.t.9.:.#.$.8.0.:.[ W B 2 1 1 7 7 7 < % ",
"} l 7 7 6 7 1 p b K / ] [ 8.8.8.1.:.1.1.1.1.8.8.>.>.1.1.:.-._ C 0 > 7 7 7 8 < % ",
"E a 8 a 8 1 > y ) 5.w.8.8.-.#.:.t.a.9.$.o...-.8.a.u.1.#.-.8.@.K 0 1 < 7 6 7 < & ",
"s + F F c 1 ; u O.l.n.i.9.8.o.>.f.n.t.$.$.[ -.e.z.j.1.#.;.9.;.L 0 > 5 7 7 7 < % ",
"s + F G c 1 ; t ` a.a.y.0.8.>.8.i.s.a.e.e.e.e.i.s.u.9.>.8.q.;.K 0 > 5 7 7 7 < & ",
"s + G F c 1 : t ( e.u.t.e.e.0.e.t.u.s.n.M.N.M.g.u.t.e.e.0.t.;.L 0 > 5 6 6 7 < % ",
"s + G G m 4 ; r / 9.3.&.@.1.0.t.e.t.a.b.n.n.b.f.u.e.t.e.3.&.^ Z 0 1 5 < & & & % ",
"s + G G c 1 : y ( 9.=.P K ] 9.t.e.e.u.a.a.a.a.i.t.e.e.0.o.L i q : > 5 < % % % % ",
"j @ F F c 5 > r ^ 1.` v y / 9.u.u.e.0.9.8.9.9.9.e.e.u.9.` u : : : 1 5 < % % % % ",
"E a 8 8 7 < 1 e Z P D r y ` y.g.u.9.=./ Q Q / @.8.t.e.9._ u : 2 1 5 7 < % & & % ",
"} l 7 7 7 6 6 5 4 w 0 : i X.k.n.a.8./ u q 0 u ~ 3.t.t.0.` u : 1 5 6 6 < % & % & ",
"{ z 7 7 7 8 7 3 1 > : : i o.l.N.k.w./ q : > 2 D ` &.#.o.U e 1 4 6 6 8 < % & & % ",
"{ l 7 7 7 7 7 6 , , ; = u X.c.C.C.p.X.w : 1 5 g Z A A Z h 5 5 5 7 7 7 6 6 6 < % ",
"{ l 7 7 7 7 7 6 % % , ; i O.c.H.G.c.X.w : 5 5 4 ; : : > 1 5 7 7 7 7 7 7 7 8 < % ",
"} l 7 7 7 7 7 6 % % , ; u X.x.G.G.l.X.w ; 5 7 < 1 1 4 1 < 5 7 7 7 7 7 7 6 7 < % ",
"{ l 7 7 7 7 7 < O O # = u O.c.K.L.c.O.w ; 1 7 5 5 7 , , & 3 7 7 7 6 8 < * * & % ",
"{ l 7 7 7 7 7 < X X O - e R 5.r.r.6.! w 1 1 6 7 7 7 * & % 3 7 7 7 6 7 < % % % % ",
"{ l 7 7 7 7 7 < O X O - 4 z I Y Y I n 8 < 6 7 7 7 7 * % % 3 7 8 7 7 7 < % & & & ",
"M @ < & < < < % X X X O O + < < < < < < < & < , < & & % % * * * < * * * % & $ O ",
"s   & & & % % % o o X X X . % % % % % % % & % , % % & & % % % % % % % % % & + X "
};
