/* XPM */
static char *cGxheWVyLWQy[] = {
/* columns rows colors chars-per-pixel */
"40 40 164 2 ",
"   c #1F1C1A",
".  c #231F1E",
"X  c #24201F",
"o  c #262220",
"O  c #292623",
"+  c #2D2A25",
"@  c #302F28",
"#  c #36362D",
"$  c #38372F",
"%  c #37382F",
"&  c #38382F",
"*  c #382137",
"=  c #3C2B37",
"-  c #3B2439",
";  c #3D2D38",
":  c #3D3437",
">  c #3B3B32",
",  c #3E3238",
"<  c #3F3938",
"1  c #412A3D",
"2  c #403D36",
"3  c #42333B",
"4  c #413C39",
"5  c #483D3F",
"6  c #414137",
"7  c #434339",
"8  c #48473B",
"9  c #47483C",
"0  c #4C4B3E",
"q  c #452D41",
"w  c #482F43",
"e  c #473740",
"r  c #4B3345",
"t  c #4C3C43",
"y  c #4F3649",
"u  c #4F3848",
"i  c #513F46",
"p  c #533B4B",
"a  c #583E4E",
"s  c #583F50",
"d  c #4F4443",
"f  c #4D4C41",
"g  c #4D4A49",
"h  c #524247",
"j  c #56424C",
"k  c #58444C",
"l  c #544E4A",
"z  c #555446",
"x  c #585647",
"c  c #575548",
"v  c #5A544A",
"b  c #5D5C4C",
"n  c #5C4251",
"m  c #5C4B51",
"M  c #575454",
"N  c #5E5B57",
"B  c #5F5C59",
"V  c #61494F",
"C  c #615E4E",
"Z  c #644652",
"A  c #6B4B56",
"S  c #654B59",
"D  c #6B4F5C",
"F  c #635D52",
"G  c #6A5D55",
"H  c #6D535E",
"J  c #666454",
"K  c #686656",
"L  c #626059",
"P  c #6F655C",
"I  c #6E5761",
"U  c #6D5A60",
"Y  c #725761",
"T  c #735964",
"R  c #795C66",
"E  c #7C6167",
"W  c #776E64",
"Q  c #7E626B",
"!  c #787066",
"~  c #75726C",
"^  c #767474",
"/  c #7C7B70",
"(  c #826165",
")  c #82646C",
"_  c #8B666A",
"`  c #8D6A6D",
"'  c #816771",
"]  c #836971",
"[  c #8A6D74",
"{  c #976F70",
"}  c #8D747A",
"|  c #8C7878",
" . c #987071",
".. c #93757A",
"X. c #9E7778",
"o. c #94797E",
"O. c #9B7A7D",
"+. c #A17977",
"@. c #A57D7B",
"#. c #A87F7E",
"$. c #858377",
"%. c #888779",
"&. c #8C8B7F",
"*. c #A6807E",
"=. c #A8817E",
"-. c #967C81",
";. c #9C7D81",
":. c #A07F82",
">. c #9C8185",
",. c #908E81",
"<. c #A48386",
"1. c #AC8684",
"2. c #A78588",
"3. c #A68A8B",
"4. c #AB8A8A",
"5. c #B08785",
"6. c #B18B87",
"7. c #B28E8B",
"8. c #AB908A",
"9. c #B7918E",
"0. c #B8938F",
"q. c #A98F91",
"w. c #AC9192",
"e. c #B49493",
"r. c #BA9693",
"t. c #B39B96",
"y. c #BE9A96",
"u. c #B29898",
"i. c #BD9C99",
"p. c #BCA39D",
"a. c #BEA99F",
"s. c #BFA3A0",
"d. c #C19B97",
"f. c #C29E9A",
"g. c #C6A29E",
"h. c #C8A39F",
"j. c #C0A7A3",
"k. c #CAA7A2",
"l. c #C6AAA6",
"z. c #CCA9A4",
"x. c #C7ADA8",
"c. c #CBAEA9",
"v. c #D0ADA7",
"b. c #D1AFA9",
"n. c #CEB4AE",
"m. c #D3B4AC",
"M. c #D6B8AF",
"N. c #D0B6B0",
"B. c #D1B7B1",
"V. c #D8B7B0",
"C. c #D6BAB2",
"Z. c #D9BAB2",
"A. c #DBBCB4",
"S. c #DEC0B7",
"D. c #DDC1B9",
"F. c #E2C5BC",
"G. c #E5C9BF",
"H. c #E6CAC0",
"J. c #E7CBC1",
"K. c #E8CDC2",
"L. c #E9CEC4",
"P. c #EBD0C5",
"I. c #ECD1C5",
"U. c #ECD1C6",
/* pixels */
"^ B &.&.&.&.&.&.,.&.,.&.%.&.&.&.&.&.,.&.,.%.,.,.,.%.,.%.,.&.%.,.&.&.&.&.&.&.W M ",
"L 2 C C x 0 0 0 0 f 0 b C b 0 0 0 0 0 0 0 f f 9 0 d f f 0 v b b C b b z 6 8 # . ",
"%.J J K C 7 7 7 7 6 7 F F v 5 3 4 < 4 4 4 4 4 4 < < 4 4 < l F J K J K f # # # > ",
"$.b K K C 7 7 7 7 6 9 C l e ; ; = = ; ; ; - ; ; = = = ; = t v J K J K f # # # # ",
"$.b v v z 6 6 7 7 7 7 f p r w w w r w w r r r r y y r r w r d z z z c 7 > > > # ",
"$.c 7 7 6 6 7 7 2 4 3 5 Z R ) R Q Q ) ' [ ..} } } } } ] ) I k , < 6 6 7 7 7 > # ",
"$.c 7 7 7 6 7 7 7 4 ; r E 4.r.r.e.e.e.d.x.N.N.N.m.n.n.l.i.O.I q , < 7 7 7 7 > % ",
"$.c 7 7 7 7 7 6 4 5 a I -.f.v.z.z.v.b.Z.F.U.U.U.U.U.L.F.C.e.R q , 4 7 7 7 7 > % ",
"$.x 7 7 7 7 6 < 3 n ) <.e.g.k.k.z.m.D.D.L.L.P.L.P.P.L.G.F.p.Q q ; 4 7 7 7 7 > % ",
"$.c 7 7 7 7 6 3 1 D <.k.k.k.k.k.c.C.L.L.L.L.L.P.P.L.L.L.P.l.] q ; 4 7 7 7 7 > % ",
"%.x 7 7 7 7 4 , ; D <.z.z.k.z.k.b.Z.L.L.L.L.L.L.P.L.P.P.U.x.] q , 4 7 7 6 7 > % ",
"$.x 7 7 7 7 4 ; 1 D <.z.k.k.z.k.z.Z.L.U.U.L.P.L.L.P.L.P.U.x.Q r ; 4 7 7 7 7 < % ",
"$.c 7 6 7 7 6 , 1 D <.k.k.k.z.k.z.l.l.x.x.x.A.L.P.P.L.D.n.q.T q ; 4 7 7 6 6 < > ",
"$.x f f 9 7 4 ; q D 2.z.z.k.z.z.g.4.[ ' Q } u.D.P.L.G.s.-.T a ; ; 4 7 7 7 6 > @ ",
"$.C J K b 7 6 , - D 2.k.k.z.k.z.f.[ p q q p -.N.P.P.F.w.S q q - , 4 7 7 6 7 @ . ",
"$.C K K b 7 6 , q S 2.k.k.k.k.z.d.' w - * q -.N.P.P.F.3.n * - - , 4 7 7 7 7 # . ",
"$.b b B z 7 4 , ; H 2.l.z.z.k.v.f.' w * - w } N.U.L.D.q.n * - - , 4 6 6 7 7 @ . ",
"$.x 7 7 7 7 7 3 ; Z O.y.d.h.z.z.f...s p p S >.C.P.U.H.w.I y w q 3 < 7 7 7 7 # . ",
"$.x 7 7 6 7 6 4 3 h A ) :.f.z.z.g.7.O.O.>.q.l.F.P.L.H.n.u.} S q 3 4 7 7 7 7 & . ",
"$.x 7 7 7 6 7 7 6 4 1 a [ i.k.k.k.g.f.k.C.F.F.H.L.L.L.H.F.s.Q q 3 4 7 7 7 7 $ O ",
"$.x 7 7 7 7 7 7 7 4 , t I ..;.;.;.4.r.k.A.L.F.m.m.F.L.G.H.s.Q w ; 4 7 7 7 7 > % ",
"%.x 7 7 7 7 7 7 7 4 : 5 t n n n Z ( @.r.m.H.b.r.y.Z.H.F.N.e.T q , 4 7 6 7 7 > # ",
"/ z 0 9 7 7 7 7 7 7 6 6 : - q y s R +.9.z.V.f.=.1.z.A.m.k.2.T q ; 4 7 7 7 7 > # ",
"g + J J b 7 6 7 7 7 7 4 : * s Q ;.3.9.r.i.d.7.@.=.9.f.y.9.X.D 1 , 4 7 6 7 7 > % ",
"g + K J b 7 7 7 7 7 7 2 : - H t.Z.b.h.d.5.=.+.+.+.@.=.@.@._ Z 1 : 4 6 7 7 7 > % ",
"g + J K b 7 7 7 7 2 < 5 m H o.z.F.V.v.f.0.5.6.0.0.9.9.1.@._ Z 1 = 2 7 6 6 6 > # ",
"g + J J b 7 7 7 7 < , i ] t.j.c.b.v.z.h.f.f.h.V.M.M.m.g.5._ Z 1 , 4 7 > > # % # ",
"g + J K b 7 7 7 7 3 = p >.D.S.c.h.h.z.h.v.b.Z.G.L.L.G.h.=.( V 1 3 4 7 > # # # # ",
"l + C J x 7 7 7 7 4 = p ..c.b.d.9.d.h.v.m.M.Z.Z.A.A.m.4.( V i 3 < 2 7 > # # # # ",
"/ z 9 9 9 7 7 7 7 : = y [ f.f.5.#.9.h.b.F.G.Z.m.z.c.h.O.n 1 4 2 7 7 7 > # % % # ",
"$.c 7 7 7 7 7 7 7 : 1 i Y ;.O.` _ @.0.z.A.L.F.m.z.e.<.R i 3 4 2 7 7 7 > # % # % ",
"$.c 7 7 7 7 7 7 7 7 4 4 k S S n Z ( =.d.M.G.G.F.l...A a 5 4 4 7 7 7 7 > # # % # ",
"$.x 7 7 7 7 7 6 % % > 2 < ; - - w A  .9.v.G.G.U.c.Q u t 5 7 6 7 7 6 7 6 7 7 > # ",
"$.x 7 7 7 7 7 7 # # & > 3 : ; - 1 A  .5.h.Z.G.G.D.8.| H t < < 6 7 7 7 7 7 7 > # ",
"$.x 9 7 7 7 7 7 % # % 6 7 4 3 ; 1 A { 5.f.b.A.P.L.D.x.>.j = 4 6 7 7 7 7 7 7 > # ",
"$.x 7 7 7 7 7 > O O + # & & < , 3 V ( { *.8.t.g.a.a.a.| p = 4 6 7 7 7 > & & % # ",
"$.c 7 7 7 7 7 > o . . # # & > 4 4 h v F G P W ! ~ ! P v < : 4 7 7 7 7 > # # # # ",
"$.c 7 7 7 7 7 > o X o # % # 7 7 7 7 7 8 7 8 7 7 9 9 > % & > 6 6 7 7 7 > # % # % ",
"B @ > & > & > # o . o O O O & > & & > $ > > > # > % % # % > > % > & > % # % + + ",
"g   % % % # % # o o o X . . # # # # # # # # # # % % % % % % % # % % % # # % + X "
};
