/* XPM */
static char *fbf834f8bb074bfd8ec15e8d097218e0dkzHlQshxvsMlrDf[] = {
/* columns rows colors chars-per-pixel */
"134 134 10 1 ",
"  c None",
". c #181818",
"X c #885038",
"o c #D08860",
"O c #9587A0",
"+ c #F8D098",
"@ c #BAB3C1",
"# c #E0DFE2",
"$ c #F8F0E0",
"% c #F8F8F8",
/* pixels */
"                                                                                                                                      ",
"                                                                                                                                      ",
"                                                                                                                                      ",
"                                                                                                                                      ",
"                                                                                                                                      ",
"                                                                                                                                      ",
"                                                                                                                                      ",
"                                                                                                                                      ",
"                                                                                                                                      ",
"                                                                                                                                      ",
"                                                                                                                                      ",
"                                                                                                                                      ",
"                                                                                                                                      ",
"                                                                                                                                      ",
"                                                                                                                                      ",
"                                                                                                                                      ",
"                                                                                                                                      ",
"                                                                                                                                      ",
"                                                                                                                                      ",
"                                                                                                                                      ",
"                                                                                                                                      ",
"                                                                                                                                      ",
"                                                                                                                                      ",
"                                                                                                                                      ",
"                                                                                                                                      ",
"                                                                                                                                      ",
"                                                                                                                                      ",
"                                                                                                                                      ",
"                                                                                                                                      ",
"                                                                                                                                      ",
"                                                                                                                                      ",
"                                                                                                                                      ",
"                                                                                                                                      ",
"                                                          oooooooooXXXX                                                               ",
"                                                          oooooooooXXXX                                                               ",
"                                                        oooo+++++++++ooXX                                                             ",
"                                                        oooo+++++++++ooXX                                                             ",
"                                                      oooo+++++++++++++ooXX                                                           ",
"                                                      oooo+++++++++++++ooXX                                                           ",
"                                                      oooo+++++++++++++ooXX                                                           ",
"                                                      XXoo+++++++++++++ooXX                                                           ",
"                                                      XXoo+++++++++++++ooXX                                                           ",
"                                                      XXoo+++++++++++++ooXX                                                           ",
"                                                      XXoo+++++++++++++ooXX                                                           ",
"                                                    XXXXoooo+++++++++++ooXXoo                                                         ",
"                                                    XXXXoooo+++++++++++ooXXoo                                                         ",
"                                                    ooXXXXoooo+++++++oooooooo                                                         ",
"                                                    ooXXXXoooo+++++++oooooooo                                                         ",
"                                                    oo..XXXXXXoooooXXXXoooooo                                                         ",
"                                                    oo..XXXXXXoooooXXXXoooooo                                                         ",
"                                                    XX..XX$$..ooooo..$$XXooXX                                                         ",
"                                                    XX..XX$$..ooooo..$$XXooXX                                                         ",
"                                                      ....$$..+++oo..$$XXXX                                                           ",
"                                                      ....$$..+++oo..$$XXXX                                                           ",
"                                                        ..oo+++++++ooooXX                                                             ",
"                                                        ..oo+++++++ooooXX                                                             ",
"                                                        XX..oo+++++ooXXXXXX                                                           ",
"                                                        XX..oo+++++ooXXXXXX                                                           ",
"                                                      XXooXX..XXXXX..oo++++XX                                                         ",
"                                                      XXooXX..XXXXX..oo++++XX                                                         ",
"                                                      ooooXXoooooooXXoo++++XX                                                         ",
"                                                      ooooXXoooooooXXoo++++XX                                                         ",
"                                                    XXooooXX+++++++ooXXoo++++XX                                                       ",
"                                                    XXooooXX+++++++ooXXoo++++XX                                                       ",
"                                                    XXooooXX+++++++ooXXoo++++XX                                                       ",
"                                                  ..XXooXX..+++++++oo..XX++++XX                                                       ",
"                                                  ..XXooXX..+++++++oo..XX++++XX                                                       ",
"                                                  ..XXXXXX..oo+++++XX..oooo++..                                                       ",
"                                                  ..XXXXXX..oo+++++XX..oooo++..                                                       ",
"                                                  ..XXXX..OOXXooooo..OO++ooXX..                                                       ",
"                                                  ..XXXX..OOXXooooo..OO++ooXX..                                                       ",
"                                                    ....OO####@@@@@@@OO++++..                                                         ",
"                                                    ....OO####@@@@@@@OO++++..                                                         ",
"                                                        ##%%%%###OO@@OO++++..                                                         ",
"                                                        ##%%%%###OO@@OO++++..                                                         ",
"                                                        XXoooo###XXOOOOOO..                                                           ",
"                                                        XXoooo###XXOOOOOO..                                                           ",
"                                                      XXoo++++oooXXooooXX..                                                           ",
"                                                      XXoo++++oooXXooooXX..                                                           ",
"                                                      ..oo++++oooXXooooXX..                                                           ",
"                                                      ..oo++++oooXXooooXX..                                                           ",
"                                                      ..oo++ooXXX..XXXXXX..                                                           ",
"                                                      ..oo++ooXXX..XXXXXX..                                                           ",
"                                                        ..ooooooo..XXXX..                                                             ",
"                                                        ..ooooooo..XXXX..                                                             ",
"                                                        XXooooooo......                                                               ",
"                                                        XXooooooo......                                                               ",
"                                                      XXoo++++ooo..                                                                   ",
"                                                      XXoo++++ooo..                                                                   ",
"                                                      XXoo++++ooo..                                                                   ",
"                                                      XX++++++XXX..                                                                   ",
"                                                      XX++++++XXX..                                                                   ",
"                                                      XXXXXX.....                                                                     ",
"                                                      XXXXXX.....                                                                     ",
"                                                                                                                                      ",
"                                                                                                                                      ",
"                                                                                                                                      ",
"                                                                                                                                      ",
"                                                                                                                                      ",
"                                                                                                                                      ",
"                                                                                                                                      ",
"                                                                                                                                      ",
"                                                                                                                                      ",
"                                                                                                                                      ",
"                                                                                                                                      ",
"                                                                                                                                      ",
"                                                                                                                                      ",
"                                                                                                                                      ",
"                                                                                                                                      ",
"                                                                                                                                      ",
"                                                                                                                                      ",
"                                                                                                                                      ",
"                                                                                                                                      ",
"                                                                                                                                      ",
"                                                                                                                                      ",
"                                                                                                                                      ",
"                                                                                                                                      ",
"                                                                                                                                      ",
"                                                                                                                                      ",
"                                                                                                                                      ",
"                                                                                                                                      ",
"                                                                                                                                      ",
"                                                                                                                                      ",
"                                                                                                                                      ",
"                                                                                                                                      ",
"                                                                                                                                      ",
"                                                                                                                                      ",
"                                                                                                                                      ",
"                                                                                                                                      ",
"                                                                                                                                      ",
"                                                                                                                                      ",
"                                                                                                                                      ",
"                                                                                                                                      ",
"                                                                                                                                      "
};
