/* XPM */
static char *d2FsbC0z[] = {
/* columns rows colors chars-per-pixel */
"40 40 215 2 ",
"   c #221E1D",
".  c #24201F",
"X  c #252122",
"o  c #2D2A25",
"O  c #262429",
"+  c #2B2A29",
"@  c #302F2D",
"#  c #35352D",
"$  c #38372E",
"%  c #38382F",
"&  c #262634",
"*  c #2B2C34",
"=  c #282538",
"-  c #2D2C3B",
";  c #342F36",
":  c #392F36",
">  c #342C3C",
",  c #333136",
"<  c #3A3336",
"1  c #3C3C35",
"2  c #343339",
"3  c #3C3439",
"4  c #3D3C3A",
"5  c #423637",
"6  c #463A37",
"7  c #433639",
"8  c #423D3A",
"9  c #493C3A",
"0  c #414137",
"q  c #434339",
"w  c #49453C",
"e  c #4B4A3F",
"r  c #57463B",
"t  c #5A453A",
"y  c #674B39",
"u  c #6A4D3A",
"i  c #69513D",
"p  c #75523A",
"a  c #7C563B",
"s  c #7D5A3D",
"d  c #2F2E42",
"f  c #322D41",
"g  c #352F4C",
"h  c #333341",
"j  c #393546",
"k  c #3E3E41",
"l  c #3C354D",
"z  c #423649",
"x  c #403A49",
"c  c #443C52",
"v  c #3D414C",
"b  c #464445",
"n  c #4D4C41",
"m  c #4C494A",
"M  c #544F47",
"N  c #555346",
"B  c #585647",
"V  c #56554A",
"C  c #59574B",
"Z  c #5C5B4D",
"A  c #464253",
"S  c #484857",
"D  c #4C525E",
"F  c #595657",
"G  c #614C41",
"H  c #6A5648",
"J  c #605E4E",
"K  c #7A5743",
"L  c #635A51",
"P  c #666454",
"I  c #686656",
"U  c #696857",
"Y  c #786958",
"T  c #515063",
"R  c #595964",
"E  c #5F6369",
"W  c #61666C",
"Q  c #6B6C6F",
"!  c #766A62",
"~  c #74716A",
"^  c #696874",
"/  c #6C6B74",
"(  c #726C76",
")  c #6B747C",
"_  c #757679",
"`  c #875D3D",
"'  c #885E3C",
"]  c #83623E",
"[  c #8B663F",
"{  c #94673E",
"}  c #9B6C3F",
"|  c #A6703F",
" . c #A9733F",
".. c #B2783E",
"X. c #825B43",
"o. c #8C6642",
"O. c #8A694D",
"+. c #946C41",
"@. c #946B44",
"#. c #9E7044",
"$. c #886B52",
"%. c #85765C",
"&. c #9B7757",
"*. c #9E7957",
"=. c #A46F41",
"-. c #A67242",
";. c #AB7441",
":. c #AD7A45",
">. c #A77A48",
",. c #B17A42",
"<. c #A17750",
"1. c #AA7F55",
"2. c #A47C58",
"3. c #82756A",
"4. c #9B7D60",
"5. c #867E74",
"6. c #96835C",
"7. c #B58246",
"8. c #BD8544",
"9. c #B4834A",
"0. c #BA864A",
"q. c #BB8A4D",
"w. c #A68159",
"e. c #B38557",
"r. c #B68B51",
"t. c #BD8E50",
"y. c #998466",
"u. c #858377",
"i. c #8A8679",
"p. c #8D877B",
"a. c #978B7A",
"s. c #A98764",
"d. c #B99869",
"f. c #A58D72",
"g. c #B79C77",
"h. c #B8A67B",
"j. c #C08644",
"k. c #C48A45",
"l. c #C88D46",
"z. c #C48E4B",
"x. c #C88E48",
"c. c #C3914E",
"v. c #CD944A",
"b. c #D1964A",
"n. c #D1994D",
"m. c #C49554",
"M. c #C69955",
"N. c #C79956",
"B. c #CB9E59",
"V. c #D39F52",
"C. c #CFA056",
"Z. c #CEA25B",
"A. c #D3A256",
"S. c #D3A55A",
"D. c #D5A559",
"F. c #D6AA5D",
"G. c #D8AC5E",
"H. c #C09E6C",
"J. c #C3A466",
"K. c #D6AC61",
"L. c #D8AE61",
"P. c #D8AF61",
"I. c #D1AF6B",
"U. c #DAB163",
"Y. c #D0B96B",
"T. c #D2B17E",
"R. c #D9C373",
"E. c #E6CD72",
"W. c #EDD373",
"Q. c #E9D37B",
"!. c #F4DB77",
"~. c #FDE377",
"^. c #FEE479",
"/. c #FFE979",
"(. c #6D7780",
"). c #747881",
"_. c #798387",
"`. c #858589",
"'. c #8C898D",
"]. c #948E83",
"[. c #8E918E",
"{. c #94928B",
"}. c #9C998F",
"|. c #8C9894",
" X c #949691",
".X c #9A9A95",
"XX c #A59D88",
"oX c #A29C9B",
"OX c #9DA197",
"+X c #B3A889",
"@X c #B0A99B",
"#X c #A6A7A4",
"$X c #AEB4AF",
"%X c #BAB3A3",
"&X c #C5AA87",
"*X c #C6B88C",
"=X c #D9BA86",
"-X c #C5BEAD",
";X c #BAC7BD",
":X c #D9CC9A",
">X c #E2C282",
",X c #FEE580",
"<X c #CEC6B6",
"1X c #D8CCB3",
"2X c #E2D3B9",
"3X c #F6EBB7",
"4X c #FFF6BC",
"5X c #BECDC2",
"6X c #CCCDC5",
"7X c #D8D6C7",
"8X c #DBDED1",
"9X c #E9E2C8",
"0X c #F5EDCC",
"qX c #E7E6D3",
"wX c #F1F3E0",
/* pixels */
"m o I P P P P P P P P P P I Z b v k k k v 8 k k k b V P P P P P P P P P P P q . ",
"~ M P I J e e e n e n J P Z q 2 , , ; , , , , , ; , 4 e e C P P P P P N 0 q 1 o ",
"u.J I P Z q q 0 0 0 0 b k 4 9 s o.[ [ [ [ [ [ [ [ ] r , * k C P P P I e # # # % ",
"u.Z I I Z q q q q 0 0 4 , 2 i 9.b.b.b.b.b.b.b.b.b.z.s 3 2 4 M Z P P U e # # # # ",
"u.B N e e q q q 0 , 8 s { { >.N.D.D.D.D.D.D.S.S.D.C.9.+.@.] r 3 q n n q 0 0 % $ ",
"u.B 0 q q q q q 1 * 6 >.b.v.A.F.U.U.K.S.Z.S.F.K.U.P.A.v.b.8.r & 1 q q q 0 q 1 $ ",
"u.B q q q 0 q q 0 * 6 >.n.A.F.P.U.U.Z.9.9.9.m.P.U.K.G.D.V.8.r * 1 q q q q q 1 # ",
"u.B q q q q 0 0 1 , r :.n.D.G.P.G.S.t.:.>.:.t.Z.F.U.U.D.n.8.i < % 0 q q 0 q 1 # ",
"u.B q q q q 0 2 < y { 8.b.v.A.G.B.9.q.B.Z.S.t.9.N.K.A.n.b.k.} p 6 , 4 q 0 q 1 # ",
"u.B q q q q 0 2 1 y { 7.k.k.v.A.m.:.0.S.F.D.q.,.t.D.v.k.k.8.} p 6 ; 1 q q q 1 # ",
"u.B q q q q q 1 1 3 t { ;. .7.v.v.k.x.v.n.n.v.j.v.v.8. .;.#.i 1 4 4 0 q q q 1 # ",
"u.Z q q q 0 q q 4 - < y a a { ..j.j.j.j.8.8.j.j.8.8.} a ` p 7 & 4 0 q q q q 1 # ",
"u.B q q 0 q q q 8 2 f f : : t } -. .;.;.-. .;.-.;.#.u < ; < > f 4 q q 0 0 q 1 # ",
"u.Z N N e q q q 8 f l R E R F K a a a a a a a a a K L R E R c f 4 q q q q q % o ",
"u.J P I J q q q 8 f T -X8X5X|.A ; 2 ; ; ; ; > < ; 3 ).5X8X7X^ f 4 q q q 0 q @   ",
"u.J I I J q 0 1 2 - S .X6X8X;X`.F f x / _ ( S f S _ $X8X6X#XR - 2 1 0 q q q #   ",
"u.Z V N n q 0 2 - = d l ( 6XwXqX#Xc ( 7X0XqX'.A `.qXwX8X`.c f = - , 4 0 0 q #   ",
"u.N q q 0 2 4 S D h & = c '.-X3X:Xy.h.3X0X4X*Xy.*X3X<X.XT = = f S D k 2 q q #   ",
"u.B q q q * h ) _.S = = d l ! R.!.W.!.,X,X^.!.W.!.Q.y.c f - & j ) _.v * 0 q @   ",
"u.B q 0 0 2 > ! i.Q D d = = m %.J.!.^.~.~.~./.~.Y.6.M & & - S W i.3.x * 1 q % + ",
"u.N q q 0 , ; a &.]._.S 2 d d j Y Q./.~.~.~.~.W.6.z j 2 - j ) [.*.X.5 * 0 q % $ ",
"i.Z q q 0 - 2 ] 9.y.a.{.`./ D g Y W././.^.^./.~.&.l ^ '.) W 5.y.<.' 5 * 1 q 0 # ",
"~ e n n w * < @.z.>.e.1X7X#X).S Y R.!.W.W.W.W.E.6.S oX8X$X[.4.-.=.' 5 * 1 q $ 1 ",
"n o U U C * < @.b.c.m.T.&Xg.a._ ~ %.%.%.%.%.%.%.( (.XX=Xg.y.e.,.;.' 5 * 0 q 1 # ",
"m o P I C * 2 +.b.D.Z.9.;.z.d.}.).c l z z z z z ^  Xd.z.,.=.j.k.-.' 5 * 4 q 1 # ",
"m o I I C * < +.b.F.Z.:.;.N.Z.d.2.K K @.o.o.X.K &.d.m.l.:.=.j.k.,.` 5 * 1 0 1 # ",
"m o P I C * < +.n.D.Z.:.:.Z.G.n.j.;.,.n.b.b.8.| ,.v.v.l.,.=.j.k.,.' 7 + # # # $ ",
"b o I I C * < #.n.D.Z.,.:.Z.P.D.c.=.,.B.D.V.q.-.q.S.n.z.,.| j.l.,.' 7 * # # # # ",
"F % Z Z N * 3 ] r.J.J.-.:.Z.U.U.N.-.9.K.U.P.t.-.t.F.V.x...=.0.e.#.p 5 * # $ $ # ",
"u.C q q q 4 1 w H p.XX<.:.Z.U.U.N.-.9.K.U.P.t.;.c.G.V.x...#.f.].J 6 1 , # # $ # ",
"u.B q q q q 0 * j _ {.&.w.J.I.P.N.-.9.K.U.P.t.-.t.K.Z.t.1.&.].`.S * 0 % # # $ $ ",
"u.B q q q q 0 * k K y.]..XOX+XI.N.;.9.F.U.P.q.-.t.K.+XXX X{.y.O.q * 0 % $ % $ $ ",
"u.B q q q q 0 * , y O.p. X[.XXh.d.w.d.=X>XE.H.2.H.=X+X X X].$.p 5 * 4 q q q 1 $ ",
"u.B q q q q 0 2 * < r O.*.*.y.XX.X X%X9X0X0X-X.X-X9X&X2.&.&.G 3 , , 1 q q q 1 # ",
"u.B q q q q q % @ & , u a ` $.p.{.].@X1X2X2X%X}.-X1Xf.X.a p 5 * , 4 0 0 0 0 1 # ",
"u.Z q q q q q % O O + : : : M O.<.<.2.e.s.e.1.<.<.1.H 5 < 2 , , 1 0 0 1 # % # # ",
"u.B q q q q q 0 X X O * & = 5 u a a a a a a a a ` u 6 & & & - 1 4 0 q 1 # # % % ",
"5.N q 0 0 q q % X   O + * + ; ; ; ; , : ; ; ; ; ; : ; * + ; % 0 0 0 0 1 # # # # ",
"V . % % % % % # X X . O O O + * & & & & & O & & O & + @ # ; # # % % % % # % o . ",
"m   % # % # % @ X   X   X X @ * * @ * * * * * * * * ; # # # # # # # # # # % o . "
};
