/* XPM */
static char *d2FsbC0w[] = {
/* columns rows colors chars-per-pixel */
"40 40 190 2 ",
"   c #221E1D",
".  c #24201F",
"X  c #231F20",
"o  c #252221",
"O  c #282627",
"+  c #2D2A25",
"@  c #2D2D2F",
"#  c #302F2D",
"$  c #35352D",
"%  c #38362E",
"&  c #37382E",
"*  c #38382F",
"=  c #262734",
"-  c #272835",
";  c #2C2C34",
":  c #2F2D39",
">  c #342E36",
",  c #322F39",
"<  c #2F3035",
"1  c #2F3038",
"2  c #323135",
"3  c #3B3237",
"4  c #3C3C35",
"5  c #34313C",
"6  c #39353E",
"7  c #3D3D39",
"8  c #413637",
"9  c #443937",
"0  c #493B37",
"q  c #433738",
"w  c #433B38",
"e  c #4B3E39",
"r  c #3F4038",
"t  c #414137",
"y  c #434339",
"u  c #4C433B",
"i  c #4B4B3F",
"p  c #54433B",
"a  c #5D493B",
"s  c #6E4E37",
"d  c #664A39",
"f  c #6C4E3A",
"g  c #74533B",
"h  c #7A553A",
"j  c #745A3F",
"k  c #333440",
"l  c #3C3A44",
"z  c #493F41",
"x  c #3D404C",
"c  c #4A4747",
"v  c #4D4C41",
"b  c #44434B",
"n  c #4D4A49",
"m  c #504F43",
"M  c #555446",
"N  c #585647",
"B  c #58564A",
"V  c #5C5B4C",
"C  c #464953",
"Z  c #565456",
"A  c #595455",
"S  c #614D44",
"D  c #665045",
"F  c #6B5344",
"G  c #615F4E",
"H  c #666454",
"J  c #686656",
"K  c #696857",
"L  c #796552",
"P  c #57626F",
"I  c #5B626D",
"U  c #5D6671",
"Y  c #65686D",
"T  c #746B65",
"R  c #737168",
"E  c #626971",
"W  c #677079",
"Q  c #6E757D",
"!  c #767876",
"~  c #845C3B",
"^  c #90643E",
"/  c #996A3F",
"(  c #A36F3F",
")  c #AB733F",
"_  c #8B6744",
"`  c #9D6D40",
"'  c #9B7041",
"]  c #896C52",
"[  c #8D735C",
"{  c #9A7757",
"}  c #9E7956",
"|  c #A36E40",
" . c #A67442",
".. c #AA7441",
"X. c #A77843",
"o. c #AB7A44",
"O. c #A5784C",
"+. c #B37D44",
"@. c #B17E49",
"#. c #A57C53",
"$. c #A17C5A",
"%. c #8E7A67",
"&. c #837C75",
"*. c #B78146",
"=. c #BC8344",
"-. c #BF8845",
";. c #B4834A",
":. c #BD8B4C",
">. c #AB845C",
",. c #BD8E51",
"<. c #B28858",
"1. c #B5915F",
"2. c #9D8267",
"3. c #9D856D",
"4. c #858377",
"5. c #8A8173",
"6. c #868578",
"7. c #8B8679",
"8. c #A3876A",
"9. c #B58C63",
"0. c #B88F66",
"q. c #B99869",
"w. c #A89377",
"e. c #B69A78",
"r. c #B9A57E",
"t. c #C18645",
"y. c #C58A45",
"u. c #C98E47",
"i. c #C48E4B",
"p. c #C5914E",
"a. c #CC924A",
"s. c #D1974B",
"d. c #D39A4E",
"f. c #C29252",
"g. c #C59957",
"h. c #C69A56",
"j. c #CA9C56",
"k. c #C99D58",
"l. c #CA9C5B",
"z. c #D19D52",
"x. c #CEA25A",
"c. c #D2A256",
"v. c #D4A356",
"b. c #D3A55A",
"n. c #D6A95C",
"m. c #D5AA5E",
"M. c #D8AC5E",
"N. c #C59D64",
"B. c #CBA868",
"V. c #D6AD61",
"C. c #D8AE61",
"Z. c #D8AF62",
"A. c #DAB163",
"S. c #DBB263",
"D. c #D2B069",
"F. c #C6AA71",
"G. c #D8B87A",
"H. c #E1BF7A",
"J. c #757C82",
"K. c #7A8287",
"L. c #8D8D8A",
"P. c #938D83",
"I. c #8C908E",
"U. c #9C9783",
"Y. c #94928A",
"T. c #9B998D",
"R. c #8C9699",
"E. c #929593",
"W. c #949995",
"Q. c #9B9C94",
"!. c #A9A189",
"~. c #BFAC8E",
"^. c #A2A292",
"/. c #96A0A0",
"(. c #A2ACAB",
"). c #B0ADA2",
"_. c #AFB4AD",
"`. c #BAB7A8",
"'. c #CFB28E",
"]. c #E1BF8D",
"[. c #BEC0B6",
"{. c #E5C28E",
"}. c #D0C7B2",
"|. c #E4D9BC",
" X c #CED1C6",
".X c #DEDECD",
"XX c #E8DDC5",
"oX c #EAE4CB",
"OX c #F5EDCC",
"+X c #EEE9D3",
/* pixels */
"n + H H H H H H H H H H H H H H H H H H H H H H H H H H H H H H H H H K K K u . ",
"R m J H G v v v i i m H H H v i v i v v v v v v i v v v v V H H H H H i y y * + ",
"6.G H J V y w r t t y G H G y r t t t t t t y r t t t t r B H H H H K i $ $ $ & ",
"4.G J J V y y y y t i H H H i t y y y y y y y y y y y y t V K H H H K i $ $ $ & ",
"6.N m i i y y y y y y i v v y y y y y t y y y t y y y y y i v v i i i u r t & & ",
"6.N y y y y y y y y y y t t y y y y y t y y y y y y y y y t t r t t y y y y 4 & ",
"6.N y y y y t y y y y y y y t 4 r 4 7 r r 4 4 r r 4 4 t y y y y y y y y t y * & ",
"4.N y y y y y y y y y y y y 4 2 ; ; ; ; 1 5 5 ; ; < 4 y y y y y y y y t y y 4 $ ",
"4.N y y y y y y y y t r 4 4 w 9 9 9 9 9 q w q w w w 4 4 7 7 t t y y t y t y 4 & ",
"6.N y y y y y t t y 7 < ; ; u _ X.X. . .X.X. . .X.' d ; ; ; 7 y y t y y y y 4 % ",
"6.N y y y t y y t 4 7 u t y j :.d.d.d.d.d.d.d.d.z.p._ u e u w 4 t t y t y y 4 % ",
"6.N y y y y y y r < 0 _ *.( ;.x.n.m.m.m.m.m.m.m.b.b.:.X.X.' p ; 7 y y y t y 4 % ",
"6.N t r t y y y 4 ; e X.s.d.v.M.A.A.m.j.g.k.b.C.A.C.v.d.s.-.a - 4 t t t y y * $ ",
"4.V M M m y y y 7 ; w X.s.b.M.C.C.A.k.o.X.X.f.V.A.A.C.b.d.-.a - 7 y t t t u * + ",
"4.G H J V y t 4 7 8 d o.s.v.M.C.V.k.f.;.@.;.,.k.b.C.M.v.d.-.g w 4 4 t y y y #   ",
"4.V J J G y r < 3 g ( -.a.a.d.M.g.@.;.x.m.m.,.o.,.M.v.a.a.u. .~ 0 ; 4 y y y $   ",
"6.V N N v 4 6 C Z F ~ @.=.=.i.z.f.+.t.b.m.v.i.+.i.z.a.t.t.+.^ F Z C l 4 r r $   ",
"6.N t y t 2 k W J.C e _ | ( +.i.a.u.u.a.a.a.a.u.a.a.+.| | ` p z J.J.x ; r y $ . ",
"6.M y y t ; 5 T P.Y A S f f ~ +.+.=.=.=.=.=.t.+.+.+.^ f f f A I &.&.l ; 4 y $   ",
"6.N y y 7 : > j $.L.J.b > > z _ ( ( ( ( | | | | ../ d > > l Q I.{ _ w ; 4 y 2 + ",
"4.N t t 7 ; > h ( %.&.Y U K.&.F d d d d d d d d d f A I J.L.7.3.<./ 9 ; r y * & ",
"6.V t t 9 ; > h ( | #.Y.(..X`.Z : 3 k 5 6 6 , k , l Y /. XXXe...y.o.0 ; r y w $ ",
"R u M i c ; > h ....@.8.w.].'.! P I Q I.E.I.J.U P E &.e.'.'.N.i.a.o.u ; * y r & ",
"c + K J B : > h ..t.y...X.i.9.T.R.R._.oX+X+X[.W.R.W.w.i.@.O.g.V.d.) u ; t y * $ ",
"n + H K B < > h ..t.t.....y.f.q.w.3.e.{.{.].F.3.8.e.N.j.+. .g.M.v.o.u ; 4 y r & ",
"n + H K B ; > g ..t.y.....y.s.a.=. .o.a.d.a.;. .*.a.b.m.;. .g.m.d.o.e ; 4 w * $ ",
"n + H H B ; > h ..t.t...) y.s.z.p.( @.z.b.c.t. .:.b.M.m.;. .j.M.d.o.e = $ $ $ & ",
"c + K K B 1 > g ` ;.i.....y.d.M.g. .;.V.A.V.,. .:.C.A.m.;. .g.B.p.' e ; $ $ $ $ ",
"A % V V N 7 7 9 S 5.w.} ) u.d.C.g. .;.V.S.S.,. .,.M.S.M.;. .w.U.L p w $ $ & $ & ",
"6.V y y t y 7 ; 5 ! Y.$.O.<.k.V.g...;.V.S.M.,...,.A.D.B.<.} P.K.C ; 7 4 $ & & $ ",
"6.N y y y y r ; 3 L 2.P.T.T.e.B.g...;.b.A.M.:. .,.V.r.^.T.P.3.] u ; r * $ & & & ",
"4.N y y y y w < 3 f ] P.E.E.^.G.B.#.1.G.H.G.q.#.1.F.!.E.W.Y.[ h 9 @ 4 8 & & & $ ",
"4.N y y y y t 2 ; 3 p ] $.} e.|.}.Q.`.oXOXOX}.T.E.^.3.} $.{ S 3 2 2 7 y t y * & ",
"4.N y y y y t 4 @ = 3 f ~ ~ $.}.}.Q.).XXXX|.`.E.E.P.%.~ ~ h q = 2 3 t y y y t & ",
"4.N y y y y y 4 # @ ; 8 q q F $.9.$.>.9.0.0.>.} } { F q 8 3 2 ; 4 r t t w t * & ",
"4.B y y y y y 4 . o O = = = q g h h h h h h h ~ h g 0 ; = ; 2 4 4 t y 4 & & & & ",
"6.N y y y y y 4 o X o ; ; > > 3 3 3 3 3 3 3 3 3 3 3 > @ ; ; 4 r t t t 4 $ & & & ",
"! M y y y y t & o X o $ @ @ ; ; = ; = = = = ; = = = ; @ $ 2 r r t t t 4 $ & $ $ ",
"B . * * & & & $ . . . o o o # ; ; ; @ ; ; ; ; @ > ; 2 % $ $ % & 4 & & & $ & + . ",
"n   * & & $ & $ . . . . . . # $ @ @ $ @ 2 # ; $ # # $ $ % % $ $ $ $ % $ & & + . "
};
