/* XPM */
static char *MQ__[] = {
/* columns rows colors chars-per-pixel */
"40 40 44 1 ",
"  c gray28",
". c gray29",
"X c gray31",
"o c #535353",
"O c gray33",
"+ c gray35",
"@ c #5D5D5D",
"# c #626262",
"$ c #676767",
"% c gray42",
"& c gray43",
"* c gray45",
"= c #747474",
"- c #7B7B7B",
"; c #838383",
": c gray52",
"> c #888888",
", c #8D8D8D",
"< c #929292",
"1 c gray59",
"2 c gray60",
"3 c #9D9D9D",
"4 c #A0A0A0",
"5 c #A4A4A4",
"6 c gray67",
"7 c #AEAEAE",
"8 c #B2B2B2",
"9 c #B4B4B4",
"0 c #BCBCBC",
"q c gray74",
"w c gray76",
"e c gray77",
"r c #D0D0D0",
"t c #D5D5D5",
"y c #DADADA",
"u c #DDDDDD",
"i c #E2E2E2",
"p c #E6E6E6",
"a c #EAEAEA",
"s c gray93",
"d c gray95",
"f c #F4F4F4",
"g c #FBFBFB",
"h c white",
/* pixels */
"OOOOOOOOOOOOOOOOOOOOOOOOOOOOOOOOOOOOOOo@",
"OOOOOOOOOOOOOOOOOOOOOOOOOOOOOOOOOOOOOOo@",
"OOOOOOOOOOOOOOOOOOOOOOOOOOOOOOOOOOOOOOo@",
"OOOOOOOOOOOOOOOOOOOOOOOOOOOOOOOOOOOOOOo@",
"OOOOOOOOOOOOOOOOOOOOOOOOOOOOOOOOOOOOOOo@",
"OOOOOOOOOOOOOOOOOOOOOOOOOOOOOOOOOOOOOOo@",
"OOOOOOOOOOOOOOOOOOOOOOOOOOOOOOOOOOOOOOo@",
"OOOOOOOOOOOOOOOOOOOOOOOOOOOOOOOOOOOOOOo@",
"OOOOOOOOOOOOOOOOOOOOOOOOOOOOOOOOOOOOOOo@",
"OOOOOOOOOOOOOOOOOOOOOOOOOOOOOOOOOOOOOOo@",
"OOOOOOOOOOOOOOOOOOOOOOOOOOOOOOOOOOOOOOo@",
"OOOOOOOOOOOOOOoOOOO+OOooOOO+OOOoOOOOOOo@",
"OOOOOOOoOO...XoooOX.XXooooX.X.OOoOOOOOo@",
"OOOOOOOOo+::>*oOOo-::-ooOo*::;OoOOOOOOo@",
"OOOOOOOOo+phhyooo+shhd@XOoyhha+OOOOOOOo@",
"OOOOOOOOO.qhhf#oX=hhhh-Xo#fhhqXOOOOOOOo@",
"OOOOOOOoO 1hhh;X.2hggh3 X;hgh2 OoOOOOOo@",
"OOOOOOOOOX*hgh3 Xqhghhwo.3hhh*XOOOOOOOo@",
"OOOOOOOOooOphhwooihgdhp+.ehhaOoOOOOOOOo@",
"OOOOOOOOOOXqhhpo%ghuthh&OahhwXOOOOOOOOo@",
"OOOOOOOOoO.2hhg#>hhq8hh:#hhh3 OOOOOOOOo@",
"OOOOOOOOOOX*hhh;5hh1,hh5;hhh=XOOOOOOOOo@",
"OOOOOOOOOOoOphh7qhh-*hhq6hha+OOOOOOOOOo@",
"OOOOOOOOOOOXqhhrphf@+shprhheXOOOOOOOOOo@",
"OOOOOOOOOoO.2hhdghtoorhgfhh3 OOOOOOOOOo@",
"OOOOOOOOOOOX*hhhgh9..7hghhh-XOOOOOOOOOo@",
"OOOOOOOOOOOoOahhhh<..,hhhhs+oOOOOOOOOOo@",
"OOOOOOOOOOOOoqhdfd&oX%dfdhwXOOOOOOOOOOo@",
"OOOOOOOOOOoOOO@+@+ooOo@@@++oOOOOOOOOOOo@",
"OOOOOOOOOOOoOoooooOOoOoXoooOoOOOOOOOOOo@",
"OOOOOOOOOOOOOOOOOOOooOOOooOoOOOOOOOOOOo@",
"OOOOOOOOOOOOOOOOOOOOOOOOOoOOOOOOOOOOOOo@",
"OOOOOOOOOOOOOOOOOOOOOOOOOOOOOOOOOOOOOOo@",
"OOOOOOOOOOOOOOOOOOOOOOOOOOOOOOOOOOOOOOo@",
"OOOOOOOOOOOOOOOOOOOOOOOOOOOOOOOOOOOOOOo@",
"OOOOOOOOOOOOOOOOOOOOOOOOOOOOOOOOOOOOOoo@",
"OOOOOOOOOOOOOOOOOOOOOOOOOOOOOOOOOOOOOOo@",
"OOOOOOOOOOOOOOOOOOOOOOOOOOOOOOOOOOOOOOo@",
"ooooooooooooooooooooooooooooooooooooooo@",
"@@@@@@@@@@@@@@@@@@@@@@@@@@@@@@@@@@@@@@+$"
};
