/* XPM */
static char *d2FsbC0x[] = {
/* columns rows colors chars-per-pixel */
"40 40 210 2 ",
"   c #221E1E",
".  c #24201F",
"X  c #252221",
"o  c #282627",
"O  c #2D2A25",
"+  c #2D2D2E",
"@  c #35352D",
"#  c #38372E",
"$  c #38382F",
"%  c #262635",
"&  c #272835",
"*  c #2C2C33",
"=  c #272538",
"-  c #2A253C",
";  c #2C2B3B",
":  c #332E35",
">  c #392F35",
",  c #332D3B",
"<  c #303036",
"1  c #343235",
"2  c #3B3337",
"3  c #393637",
"4  c #3C3C35",
"5  c #34343B",
"6  c #3D3B3B",
"7  c #453937",
"8  c #44363A",
"9  c #423C3A",
"0  c #4D3D39",
"q  c #513D39",
"w  c #414137",
"e  c #434339",
"r  c #4C453A",
"t  c #4B4A3F",
"y  c #54433A",
"u  c #634A39",
"i  c #6E543D",
"p  c #76573C",
"a  c #7C563B",
"s  c #2F2941",
"d  c #322C43",
"f  c #343242",
"g  c #393547",
"h  c #3A344B",
"j  c #453B4A",
"k  c #473D48",
"l  c #423953",
"z  c #473F59",
"x  c #3D404A",
"c  c #3F4351",
"v  c #4D4C41",
"b  c #49444A",
"n  c #4D494A",
"m  c #574644",
"M  c #555446",
"N  c #585647",
"B  c #58554A",
"V  c #5C5B4C",
"C  c #4A4957",
"Z  c #4C505C",
"A  c #575357",
"S  c #674E47",
"D  c #6B4E43",
"F  c #67594A",
"G  c #755A44",
"H  c #605E50",
"J  c #6A5E57",
"K  c #725E50",
"L  c #78624A",
"P  c #666454",
"I  c #696656",
"U  c #696857",
"Y  c #756756",
"T  c #554E63",
"R  c #565769",
"E  c #635C6B",
"W  c #5A636E",
"Q  c #5E6671",
"!  c #656363",
"~  c #737168",
"^  c #666673",
"/  c #726D78",
"(  c #6D7176",
")  c #717276",
"_  c #787677",
"`  c #835B3B",
"'  c #885F3D",
"]  c #86633F",
"[  c #8D633E",
"{  c #A7703F",
"}  c #875D41",
"|  c #8C6641",
" . c #8A6846",
".. c #936B42",
"X. c #976A42",
"o. c #8C7050",
"O. c #9E7956",
"+. c #997758",
"@. c #A47142",
"#. c #AA7441",
"$. c #AD7A44",
"%. c #AA7848",
"&. c #B37D44",
"*. c #B17F48",
"=. c #A37B55",
"-. c #A37E5A",
";. c #937C65",
":. c #837A78",
">. c #9B8B5A",
",. c #BD8444",
"<. c #BF8946",
"1. c #B5834A",
"2. c #B9864B",
"3. c #B7894D",
"4. c #BC884B",
"5. c #A98259",
"6. c #B48854",
"7. c #BF9153",
"8. c #BF955E",
"9. c #9B8065",
"0. c #858377",
"q. c #8B8476",
"w. c #988876",
"e. c #A58867",
"r. c #B58D65",
"t. c #B99A65",
"y. c #A28A70",
"u. c #A89475",
"i. c #B19673",
"p. c #B6A165",
"a. c #BAA567",
"s. c #BDA879",
"d. c #C08645",
"f. c #C48A46",
"g. c #C98F47",
"h. c #C38B49",
"j. c #CB9047",
"k. c #C5914D",
"l. c #CD934A",
"z. c #D1964A",
"x. c #D1984D",
"c. c #C49653",
"v. c #C59556",
"b. c #C69956",
"n. c #CC9C55",
"m. c #C99E59",
"M. c #D29D52",
"N. c #CFA057",
"B. c #CEA25B",
"V. c #D4A357",
"C. c #D2A55B",
"Z. c #D5A659",
"A. c #D6AA5D",
"S. c #D5AA5E",
"D. c #D8AA5C",
"F. c #CAA86A",
"G. c #D6AC60",
"H. c #D8AE61",
"J. c #CAB369",
"K. c #D6B065",
"L. c #DAB163",
"P. c #C6A979",
"I. c #C4B27A",
"U. c #D7B475",
"Y. c #DDC66F",
"T. c #E7CE71",
"R. c #EBD271",
"E. c #E5D17D",
"W. c #F3DA74",
"Q. c #827E85",
"!. c #7D868A",
"~. c #7E8A93",
"^. c #878788",
"/. c #8B8E8B",
"(. c #93938E",
"). c #9A9588",
"_. c #8B9698",
"`. c #929593",
"'. c #929896",
"]. c #9C9C94",
"[. c #9A9D9E",
"{. c #A29B88",
"}. c #ABA48A",
"|. c #BDA785",
" X c #ACAA9F",
".X c #A9A7A7",
"XX c #AAA6A7",
"oX c #B0ADA5",
"OX c #B8B5A7",
"+X c #ACB4B0",
"@X c #B7B5B2",
"#X c #C5AA85",
"$X c #D1B791",
"%X c #C2BFBA",
"&X c #DBC095",
"*X c #E5C28E",
"=X c #C6C5B9",
"-X c #D6CBB2",
";X c #E0D4BD",
":X c #E8E1B9",
">X c #CDCCC3",
",X c #D3D2C7",
"<X c #DDDBCD",
"1X c #E6DEC5",
"2X c #F5ECCB",
"3X c #E2E1D2",
"4X c #EFEAD3",
"5X c #EDEBD7",
"6X c #F5F5E3",
"7X c #FEFDEB",
/* pixels */
"n O U P P P P P P P P P P P P P V V P V P V H H H H P P P P P P P P P P P U t . ",
"~ v P I V v t v v v v P P P v 3 5 5 5 5 5 5 5 5 3 5 6 t t V P P P P P M w e $ O ",
"q.P P P V e e w e e e V P V e 1 : : 1 1 : : : 1 1 1 3 w 6 M P P P P U t @ @ @ $ ",
"0.V P U V e e e e e e n 6 f 4 G | | | | | | | [ | ] u 5 * 6 M P P P U t @ $ @ @ ",
"0.V v t t e e e e w 4 4 1 5 y %.x.z.z.z.z.z.z.z.z.l.| 9 5 3 e v t t v e 4 w $ @ ",
"0.N e e e e e e e 1 3 i ..[ @.c.Z.Z.Z.Z.Z.Z.Z.Z.Z.Z.3.....] y < 4 e w e e w 4 # ",
"0.N e e e e e e w < 3 ..z.z.M.A.L.L.H.C.C.B.C.K.L.L.Z.x.x.<.i * 3 e e e w e w # ",
"0.N e e e e e e w < 3 [ l.V.A.H.L.L.B.3.*.1.7.G.L.L.A.Z.M.<.i * $ e e e e e $ # ",
"0.N e e e e e w 4 3 0 X.z.V.D.H.H.C.c.1.%.%.2.m.A.L.K.Z.V.f.p 4 4 4 e e e e w # ",
"0.N e e e e w 1 1 u [ 1.j.z.M.D.B.3.1.b.n.m.c.*.7.H.Z.x.z.g.@.` 0 < 3 e e e $ @ ",
"0.N e e e e 9 1 : u [ { f.d.h.M.n.1.2.B.D.Z.c.&.4.C.n.f.d.,.@.a q * 3 e e e 4 # ",
"0.V e e e e w 6 4 4 q [ #.$.&.g.l.f.h.x.x.x.l.f.j.l.f.#.$.{ i 7 6 4 w e e e 4 $ ",
"0.N e 6 6 6 6 6 9 M F p a a ' $.f.d.d.d.d.d.d.d.f.,.@.a a p 0 - 3 e e e e e 4 $ ",
"0.V N b d d d d h >.J.L 2 1 0 [ { $.{ { #.#.#.{ { { p 8 > 2 , , 3 w e e e e $ o ",
"0.B V A I J K J Y J.W.>.F ! ! K a ` a a a a a a a a K E C - d ; 1 6 w e e e +   ",
"0.v h o.Y.R.T.T.R.W.W.W.E.:X=XP : : > 1 : : : : : > :.,X^.h - = & * 4 e e e @   ",
"0.v h Y t.a.a.a.p.p.p.t.I.3X5X[.( ( ( ) ) ) ) ) ) ) `.XX/ h = = l Z h 4 6 e @   ",
"0.M e k b j k k k z b j E >X6X3X1X3X3X3X3X3X3X3X3X<X[.C h - = 5 ^ ^.C < 4 e @   ",
"0.B e 3 d s - 8 m T T h g Q..X.XXXXXXXXXXXXXXXXX.X.X/ s % ; c R :.:.k = 5 6 @ . ",
"0.M e e e 5 , u X.w.~.Z , h c h l h l l l l z h l l h ; % f Q /.;.X.q = , h 1 o ",
"0.N e e e 1 > p $.e.w./.^.^ R g s - % = = = = - = - Z ^.( Q _ w.=.X.q j / Q.C > ",
"q.V e w w < < | h.&.5.$X<X+X!.C ; ; s f f f f ; ; , ^.1X%X_.9.@.@.X.j T %X,XE , ",
"~ r v v t 1 < } g.g.v.#X$X|.y.) W W ( /._.`.!.^ W W ).&X#Xw.5.1.' S :.XX5X<X^ - ",
"n O U U V 1 , | g.Z.S.6.%.h.8.{._._.XX<X4X4X=X[._._.u.c.1.@.,.3.S z XX6X7X<XE , ",
"n O U P V < 1 [ j.Z.S.1.@.k.B.t.i.y.i.$X*X*X#Xy.y.i.v.h.&.@.,.f.S z @X7X7X<X^ - ",
"n O P P V 1 1 ] j.Z.C.3.%.B.Z.V.d.#.&.h.l.l.h.@.&.j.l.j.&.#.,.f.S z @X6X6X>XE ; ",
"n O P P B 1 1 | j.Z.A.1.@.m.S.Z.l.#.$.n.Z.Z.k.@.1.N.M.j.&.{ ,.d.S z @X4XXX/ b > ",
"v o U U V 5 1 p ,.m.F.1.$.m.L.L.m.*.*.G.L.H.v.#.3.A.Z.j.&.@.2.3.S C oX>XE - < 4 ",
"V $ V P N 4 4 r S q.}.5.#.m.L.H.m.*.*.m.L.L.b.#.3.S.C.g.{ #.e.).A d E / b @ @ $ ",
"0.M e e e e 6 < 1 ^ (.;.=.t.U.H.m.*.*.G.H.H.m.#.3.G.C.v.4.=.w./.Z % ; , @ $ $ @ ",
"0.B e e e e w 1 , F e.w.).].}.F.n.*.*.n.G.G.v.#.2.C.P.{.).).w.+.m = 5 3 @ @ @ $ ",
"0.N e e e e 6 1 , u  .q.`.`.].s.F.-.6.U.E.U.F.=.t.U.#X`._./.;.` r * 4 4 $ $ $ # ",
"0.N e e e e e 4 @ $ 0 L -.=.-.).].`.oX1X2X2X-X].OX1X$Xe.=.+.D 8 4 4 w w e e $ @ ",
"0.N e e e e e w @ * * u ` `  .q.(.`. X-X2X1X=X].OX;X#X[ ` a 0 * 1 w e e e e w $ ",
"0.N e e e e e w @ + * 3 8 8 m  .=.O.=.r.r.r.5.=.e.6. .k 8 4 1 1 4 e e w w w $ # ",
"0.N e e e e e 4 . X o & % = , u a a ` a a a ` a ` a q % & & 1 1 4 e e 4 @ $ $ @ ",
"0.V e e e e e 4 X . X + + * > < 2 2 2 2 2 2 2 3 2 2 : * * * 3 w e e e $ $ $ # # ",
"_ M e w w e w $ . X X + + + 1 * & % % % * % = * % % * * @ 1 4 w w w w 4 @ $ @ # ",
"B . $ $ $ $ $ @ X . X X X X @ * * * * * * * * * : & + @ @ @ $ $ $ $ $ $ $ # O . ",
"n . $ $ $ @ $ @ . . X . . . + @ + @ + @ + + * @ + @ @ @ @ @ @ # @ $ @ @ # # O . "
};
