/* XPM */
static char *result[] = {
/* columns rows colors chars-per-pixel */
"34 34 14 1 ",
"  c white",
". c #3E2723",
"X c #4E342E",
"o c #795548",
"O c #F57F17",
"+ c #8D6E63",
"@ c #F9A825",
"# c #FBC02D",
"$ c #A1887F",
"% c #F69988",
"& c #FFE082",
"* c gray88",
"= c #EEEEEE",
"- c None",
/* pixels */
"----------------------------------",
"----       ------------      -----",
"----       ------------      -----",
"----   %%%%            %%%%  -----",
"----   %%%%            %%%%  -----",
"----   %%  @@oo@@@@oo@@  %%  -----",
"----   %%  @@oo@@@@oo@@  %%  -----",
"----     @@############@@    -----",
"----     @@############@@    -----",
"----   oo####oo####oo####oo  -----",
"----   oo####oo####oo####oo  -----",
"----   @@################@@  -----",
"----   @@################@@  -----",
"----   oo##**..####..**##oo  -----",
"----   oo##**..####..**##oo  -----",
"----   oo##**..####..**##oo  -----",
"----   @@##==XX####XX==##@@  -----",
"----   @@##==XX####XX==##@@  -----",
"-------  @@####&&&&####@@  -------",
"-------  @@####&&&&####@@  -------",
"---------  ##&&OOOO&&##  ---------",
"---------  ##&&OOOO&&##  ---------",
"----     ++            ++    -----",
"----     ++            ++    -----",
"--  #######$$########$$######   --",
"--  #######$$########$$######   --",
"--  #####  ++$$####$$++  ####   --",
"--  #####  ++$$####$$++  ####   --",
"----         ++$$$$++        -----",
"----         ++$$$$++        -----",
"-------  ##$$        $$##  -------",
"-------  ##$$        $$##  -------",
"---------      ----      ---------",
"---------      ----      ---------"
};
