/* XPM */
static char *result[] = {
/* columns rows colors chars-per-pixel */
"35 34 13 1 ",
"  c black",
". c #010000",
"X c #000100",
"o c #000001",
"O c #3E2723",
"+ c #4E342E",
"@ c #795548",
"# c #F57F17",
"$ c #FBC02D",
"% c #A1887F",
"& c gray88",
"* c #EEEEEE",
"= c None",
/* pixels */
"============XX        =============",
"==============    =================",
"==============    =================",
"============  $$      =============",
"============  $$      =============",
"==========  $$$$  $$$$  ===========",
"==========  $$$$  $$$$  ===========",
"========  $$$$$$  @@$$$$  =========",
"========  $$$$$$  @@$$$$  =========",
"========  $$$$  $$$$$$$$$$  =======",
"========  $$$$  $$$$$$$$$$  =======",
"========  $$@@$$@@$$$$$$$$  =======",
"========  $$@@$$@@$$$$$$$$  =======",
"========  $$$$$$$$$$&&OO$$$$  =====",
"========  $$$$$$$$$$&&OO$$$$  =====",
"========  $$@@$$@@$$**++$$##  =====",
"========  $$@@$$@@$$**++$$##  =====",
"========..$$$$$$$$$$$$$$$$##  =====",
"========..$$$$$$$$$$$$$$$$##  =====",
"==========  @@$$@@$$$$$$    =======",
"==========  @@$$@@$$$$$$    =======",
"============    XX      ===========",
"============    XX      ===========",
"============    XX      ===========",
"============oo..XX  %%XX===========",
"============oo..XX  %%XX===========",
"============    $$$$  =============",
"============    $$$$  =============",
"============    $$$$    ===========",
"============    $$$$    ===========",
"============  %%    %%$$  =========",
"============  %%    %%$$  =========",
"==============        XX===========",
"==============        XX==========="
};
