/* XPM */
static char *_1017e301dbe4a19a61674c7cf79b6ca6WaL7F6psvNERC4D[] = {
/* columns rows colors chars-per-pixel */
"34 35 9 1 ",
"  c None",
". c black",
"X c #010000",
"o c #000100",
"O c #000001",
"+ c #795548",
"@ c #8D6E63",
"# c #FBC02D",
"$ c #A1887F",
/* pixels */
"         .......    ....          ",
"                                  ",
"                                  ",
"     ......             ......    ",
"     ......             ......    ",
"     ..####.............####..    ",
"     ..####.............####..    ",
"     ..######+++####++######..    ",
"     ..######+++####++######..    ",
"     ..#####################..    ",
"     ..#####################..    ",
"     ..++####+++####++####++..    ",
"     ..++####+++####++####++..    ",
"     ..#####################..    ",
"     ..#####################..    ",
"     ..#####################..    ",
"     ..++####+++####++####++..    ",
"     ..++####+++####++####++..    ",
"     ..#####################..    ",
"     ..#####################..    ",
"     ....##++#########++##....    ",
"     ....##++#########++##....    ",
"       ....#############....      ",
"       ....#############....      ",
"         .................        ",
"         .................        ",
"         ....@@@$$$$..####..      ",
"         ....@@@$$$$..####..      ",
"         .......@@$$..####..      ",
"         .......@@$$..####..      ",
"         ..##$$$............      ",
"         ..##$$$............      ",
"           .......                ",
"           .......                ",
"                                  "
};
