/* XPM */
static char *f7b3813ab0bc48cfefbbd307282fd491XDFyXodE7Kqjdg1Y[] = {
/* columns rows colors chars-per-pixel */
"35 35 7 1 ",
"  c None",
". c black",
"X c #000100",
"o c #795548",
"O c #8D6E63",
"+ c #FBC02D",
"@ c #A1887F",
/* pixels */
"              ..........           ",
"     .......            ......     ",
"     .......            ......     ",
"     ...++++............++++..     ",
"     ...++++............++++..     ",
"     ...++++++oo++++oo++++++..     ",
"     ...++++++oo++++oo++++++..     ",
"     ...++++++++++++++++++++..     ",
"     ...++++++++++++++++++++..     ",
"     ...oo++++oo++++oo++++oo..     ",
"     ...oo++++oo++++oo++++oo..     ",
"     ...++++++++++++++++++++..     ",
"     ...++++++++++++++++++++..     ",
"     ...oo++++oo++++oo++++oo..     ",
"     ...oo++++oo++++oo++++oo..     ",
"     ...oo++++oo++++oo++++oo..     ",
"     ...++++++++++++++++++++..     ",
"     ...++++++++++++++++++++..     ",
"        ..++oo++++++++oo++..       ",
"        ..++oo++++++++oo++..       ",
"          ..++++++++++++..         ",
"          ..++++++++++++..         ",
"     .....OO............OO....     ",
"     .....OO............OO....     ",
"   ..+++++++@@@@@@@@@@@@++++++...  ",
"   ..+++++++@@@@@@@@@@@@++++++...  ",
"   ..+++++..OO@@@@@@@@OO..++++...  ",
"   ..+++++..OO@@@@@@@@OO..++++...  ",
"     .........OO@@@@OO........     ",
"     .........OO@@@@OO........     ",
"        ..++@@........@@++..       ",
"        ..++@@........@@++..       ",
"          ......    ......         ",
"          ......    ......         ",
"                                   "
};
