/* XPM */
static char *_05addb6031749b3c670b8b1c5dbf2d27YJxpIWJXq5b37gs[] = {
/* columns rows colors chars-per-pixel */
"34 35 9 1 ",
"  c None",
". c black",
"X c #010000",
"o c #000100",
"O c #000001",
"+ c #795548",
"@ c #8D6E63",
"# c #FBC02D",
"$ c #A1887F",
/* pixels */
"         ......    .....          ",
"                                  ",
"                                  ",
"     ......             ......    ",
"     ......             ......    ",
"     ..####.............####..    ",
"     ..####.............####..    ",
"     ..######++####++#######..    ",
"     ..######++####++#######..    ",
"     ..#####################..    ",
"     ..#####################..    ",
"     ..++####++####++#####++..    ",
"     ..++####++####++#####++..    ",
"     ..#####################..    ",
"     ..#####################..    ",
"     ..#####################..    ",
"     ..++####++####++#####++..    ",
"     ..++####++####++#####++..    ",
"     ..#####################..    ",
"     ..#####################..    ",
"     ....##++########+++##....    ",
"     ....##++########+++##....    ",
"       ....#############....      ",
"       ....#############....      ",
"         .................        ",
"         .................        ",
"       ..####..$$$$@@.....        ",
"       ..####..$$$$@@.....        ",
"       ..####..$$@@.......        ",
"       ..####..$$@@.......        ",
"       ............$$###..        ",
"       ............$$###..        ",
"                 .......          ",
"                 .......          ",
"                                  "
};
