/* XPM */
static char *_a99568b5d4a4e2bb6778f0741e7326caaxsYz4DzI76Be12[] = {
/* columns rows colors chars-per-pixel */
"34 34 13 1 ",
"  c None",
". c black",
"X c #010000",
"o c #000100",
"O c #000001",
"+ c #3E2723",
"@ c #4E342E",
"# c #795548",
"$ c #F57F17",
"% c #FBC02D",
"& c #A1887F",
"* c gray88",
"= c #EEEEEE",
/* pixels */
"           ....    .......        ",
"                                  ",
"                                  ",
"             ....                 ",
"             ....                 ",
"           ..%%......             ",
"           ..%%......             ",
"         ..%%%%..%%%%...          ",
"         ..%%%%..%%%%...          ",
"       ..%%%%%%..##%%%%%..        ",
"       ..%%%%%%..##%%%%%..        ",
"       ..%%%%..%%%%%%%%%%%..      ",
"       ..%%%%..%%%%%%%%%%%..      ",
"       ..%%##%%##%%%%%%%%%..      ",
"       ..%%##%%##%%%%%%%%%..      ",
"       ..%%%%%%%%%%**+++%%%%..    ",
"       ..%%%%%%%%%%**+++%%%%..    ",
"       ..%%##%%##%%==@@@%%$$..    ",
"       ..%%##%%##%%==@@@%%$$..    ",
"       X.%%%%%%%%%%%%%%%%%$$..    ",
"       ..%%%%%%%%%%%%%%%%%$$..    ",
"         ..##%%##%%%%%%%....      ",
"         ..##%%##%%%%%%%....      ",
"         ..##%%##%%%%%%%....      ",
"           ...............        ",
"           ...............        ",
"           ..%%%%..&&.......      ",
"           ..%%%%..&&.......      ",
"           ..%%%%.......%%..      ",
"           ..%%%%.......%%..      ",
"         ..&&&&......&&&..        ",
"         ..&&&&......&&&..        ",
"         ....XX    .....          ",
"         ....XX    .....          "
};
