/* XPM */
static char *NA__[] = {
/* columns rows colors chars-per-pixel */
"40 40 78 1 ",
"  c #0F1625",
". c #151B26",
"X c #1B1F28",
"o c #1C1F28",
"O c #1C2028",
"+ c #1D2028",
"@ c #202229",
"# c #232429",
"$ c #25252A",
"% c #2B2A2B",
"& c #312E2C",
"* c #332F2D",
"= c #33302C",
"- c #35312D",
"; c #3D372F",
": c #40382F",
"> c #413930",
", c #453C30",
"< c #463C30",
"1 c #473D31",
"2 c #483E31",
"3 c #4C4132",
"4 c #4F4332",
"5 c #695438",
"6 c #705939",
"7 c #745C3A",
"8 c #775F3B",
"9 c #7A603B",
"0 c #876A3E",
"q c #8D6D40",
"w c #967442",
"e c #A27C44",
"r c #A37D45",
"t c #A98146",
"y c #AC8347",
"u c #B28748",
"i c #BA8D4A",
"p c #C3934B",
"a c #C6954C",
"s c #D19D4E",
"d c #D39E4F",
"f c #D7A150",
"g c #DAA350",
"h c #DEA651",
"j c #EAAE54",
"k c #EDB155",
"l c #EFB155",
"z c #F0B255",
"x c #F2B456",
"c c #F8B857",
"v c #FABA58",
"b c #FCBB58",
"n c #FFBB58",
"m c #FFBA59",
"M c #FFBC58",
"N c #FEBC59",
"B c #FFBF58",
"V c #FFBE59",
"C c #FFC058",
"Z c #FFC358",
"A c #FFC35B",
"S c #FFC558",
"D c #FFC658",
"F c #FFC75C",
"G c #FFCD58",
"H c #FFC85C",
"J c #FFCA5D",
"K c #FFDD57",
"L c #FFD058",
"P c #FFD158",
"I c #FFD558",
"U c #FFD658",
"Y c #FFDB58",
"T c #FFDE59",
"R c #FFE059",
"E c #FFDF61",
"W c #FFE063",
"Q c #FFE16C",
/* pixels */
"TTTTTTTTTTTTTTTTTTTTTTTTTTTTTTTTTTTTTTTE",
"TTTTTTTTTTTTTTTTTTTTTTTTTTTTTTTTTTTTTTTE",
"TTTTTTTTTTTTTTTTTTTTTTTTTTTTTTTTTTTTTTKE",
"TTTTTTTTTKTKTYTKTTTTTTTTTTYKTKTTTTTTTTKE",
"TTTTTYTTKTTTTTKTTTKTTTTKTKTTTTTYTYTTTTKW",
"TTTTTTTKTTTKKTTTTYTTTYTTTTTTYKTTTTTYTTKW",
"TTTTYTTTTPZBBZGYKTTTKTTKTGCCBSLKTTTTTTKW",
"TTTKTTTYZmBmBmmBITKYYTTIBmmmBCmSTTKTKTKW",
"TTTTTTKSmmBmBBmBBSBBBBSBmBBBmnnmSKRKTTKW",
"TTTTTKLmCBmBmBnnBmmBmBmmmBBnBmBBmLRTTTKW",
"TTTKTTSmnBBmmmmBBmBmBmBBmBmnBmmBmCKTKTKW",
"TTTTTTBBBmBnBmBBmBvBmBmBBmBmmBBmBBTTTTKW",
"TTTTKYBmBBnnBmBmmBmvvmcBmCmBnnBBmBTTTTTW",
"TTTTTTSmBmmBmBmmBvBFFFHCCcBmBmBmmSYTKTKW",
"TTTYTTGmmnBBnBmBmAzuqqefvBBmBmmnmGTKTTKE",
"TTTTYTKBmnBmBmBcAa,O  .$iCcBmBBnCKTYTTTW",
"TTTTTTTIBmBmmBmAg=O,we61jVmBBmmCITTTTTKE",
"TTTTTKTKSmBBBmmA7O>hHFBzVVmNmBmSKTKTTTTW",
"TTTTKTTTCBBmBvBk>oqHcvBBNBNBmBBBYTYTTTYW",
"TTTTTYTYBBBmBmAf&#uFvBmvNVmBBBmBTTKTTTKE",
"TTTTTTTYBBBmBmAs&$iSmBBBNNNBBmmCYTKTTTTW",
"TTTTYTTYBmBmBvBh-@yHvmmmNBNBmBmCTTTKTTTE",
"TTTTTTTTSmBmBmCv2X7HBBBABmmBmBCSKTKTTTTE",
"TTTTTTTIBBmBBmvCqX&tvvkpzBBmBBmBITTKTTTE",
"TTTTKTYBBnBBmBmBk3X#,4-#hANVBNmmCTTKTTTE",
"TTTTTTGBmmBmCcBvAj9;%%&5zVcBmBmBmGTTTTTW",
"TTTKTTZmmBBmmBmBmBAxhgkBVNBmBmBBmBYTKTYE",
"TTTYTYZmBBmmBmBmBvmBBAZmVVNBmmBmBBTTTTKE",
"TTTTTYBBBmBBmBmBmmmBvmmmBmBmBmBmCCTTKTKW",
"TTTKYTZmBmmmBmBmBBmBBBBBBBmBmBmmmSKTKTKW",
"TTTTTRGmmBmmmBmBBmmBmmBBmmBmBmmCmLTTTTKW",
"TTTTKRKZmBBBBmBmBSBBBSCmBmmBmBBmSKTKTTKW",
"TTTKTTTYSmmCmBmBITTTYYTIBmnnmmmZRTTTTTYW",
"TTTTTTTTKGSBBCGTTTTKTTTKYGZBZZPKTKTKTTKW",
"TTTTTYTTTRTKYTTTTTTYTYKTTTTYYKTTKTTTTTTW",
"TTTTTTYTTKTTTTKTTYTTTTTTKTTTTTTKTTKTTTKW",
"TTTTTTTTTTYTTKTTTTTTTTTTTTTTYKTTTTTTTTTE",
"TTTTTTTTTTTTTTTTTTTTTTTTTTTTTTTTTTTTTTTW",
"KTTTTTTTTKTTTTKKTTTTTKTTKKKKKKKKYKKKKKKE",
"WTWEEEEEEEEEEEEEEEEEEEWEWWWWWWWWWWWWWWTQ"
};
