/* XPM */
static char *Ng__[] = {
/* columns rows colors chars-per-pixel */
"40 40 77 1 ",
"  c #0F1625",
". c #151B26",
"X c #1B1F28",
"o c #1C1F28",
"O c #1E2128",
"+ c #202229",
"@ c #232429",
"# c #25252A",
"$ c #27272A",
"% c #2B2A2B",
"& c #2C2B2B",
"* c #332F2D",
"= c #35312D",
"- c #3D372F",
"; c #40382F",
": c #413930",
"> c #453C30",
", c #463C30",
"< c #483E31",
"1 c #4C4132",
"2 c #4F4332",
"3 c #695438",
"4 c #745C3A",
"5 c #775F3B",
"6 c #7A603B",
"7 c #876A3E",
"8 c #8C6D40",
"9 c #907040",
"0 c #967442",
"q c #A27C44",
"w c #A98146",
"e c #AC8347",
"r c #B28748",
"t c #BA8D4A",
"y c #C3934B",
"u c #C6954C",
"i c #D19D4E",
"p c #D39E4F",
"a c #DAA350",
"s c #DBA451",
"d c #DEA651",
"f c #DFA651",
"g c #EAAE54",
"h c #EDB155",
"j c #F2B456",
"k c #F7B756",
"l c #F8B857",
"z c #FBBA58",
"x c #FCBB58",
"c c #FDBB58",
"v c #FFBB58",
"b c #FFBB59",
"n c #FFBD58",
"m c #FFBC59",
"M c #FFBD59",
"N c #FFC158",
"B c #FFC35A",
"V c #FFC35B",
"C c #FFC458",
"Z c #FFC658",
"A c #FFC75C",
"S c #FFCA59",
"D c #FFCD58",
"F c #FFCE58",
"G c #FFCA5D",
"H c #FFDB57",
"J c #FFDE57",
"K c #FFD058",
"L c #FFD859",
"P c #FFDB59",
"I c #FFDC59",
"U c #FFDE58",
"Y c #FFE058",
"T c #FFE059",
"R c #FFDF63",
"E c #FFE062",
"W c #FFE063",
/* pixels */
"MMMMMMvCUIUTITITITITITITITITIUIUSvMMMMMM",
"MMMMMMMMIUIITITITITITITITITITIUIMlMnMMMM",
"MMMMMnMnUIUTITITITITITITITITIUIUBvMMMMMM",
"MMMMnnMCUIUITITITITITITITITITUIUBvMvMMMM",
"MnMMMMvFTUUTUUUUITITITITITTIIUUTFvMMMMMM",
"nnMMMvCJTUIIPUUUIUUIIUUITIIITIUIUVvMMMMM",
"vvvvvBPUUIUUUPUPUIIUUIIUUUUIIUIUUPSxvMMv",
"CMBCFUUUIUIPUUUUTUUIIUUTIUUUIUUTUUUKCMMC",
"JUPUITUIIUIUUUUPFNNMMBCFIUUUUUUPTUITUIPR",
"UUUUUUIUITUIUPSMnvMnvvvzMGPUPUUUUIUUIIUW",
"UUUPUTUIUUITKMvvMMnMMMMMMvMKUUUUIUIUUIUW",
"UUUUIIUIUUTKvvMMnMMMMzvvMMMvFUUPTIITITUW",
"PPTITIUUPUKvMMMMlMnlzzzvMMMMMFTUTUUIUUUW",
"UTITITTIUPMMMMMMMMCCGGABMzMMvMPUIIITUUUR",
"UITITUUIICvMvMvMvVjr98qplMvvMvCTIUPUUUUR",
"UUITITUIIvMMMMMlVu>O  .#tCvMMvMPUUUTPPUR",
"ITITUUUPFvMnMMvBa*O>0q4>gBlMMMvFTUITITUR",
"TITIUUPUCvnMMzvB4X:dGGMhMMMMMnMCUIUITIUW",
"ITITUUUUBvMnMvMj:X8GkzMMvvMMnnMNUIUTITUW",
"TITIIUUPMvMMMzCi*#rCkMMvMMvMMnMnUIUITIUW",
"ITITUUUPnMnMMvBi%#tBvMMMMMMMMnMnUIUIUUUW",
"TITIUUUUNMnnMnBd=+eAzvMznMMMnnMNUTUIUUUW",
"ITITUPUJCvnnMnMk<O5AMMBBMnMMMMnNUIUIUUUW",
"TITIUUUTFvMMnMlB7O*wzzhyjMlnnMnFTUIUUPUW",
"ITITIIUTPMvMMMMBh1X@;2=#dClMMMnHTUUITIUW",
"TITITUUITCvMMvMlBg6-&%=3jMnnMMCJIUIIITUW",
"ITITITIUUPMMMvMMvMVjdshMMMMnMMPTUTIUTIUW",
"TITITIUIUTKvMMvMMzvMCCMMMMMMMKUJIUIUITUW",
"IIIIIIIUPUPFlMnMMMMvvlMnMMMMFUUUUPPUUUJE",
"UUUUUTUIUUUTKMvMMMMMMnnMMvMKJJUUUUTUUPJR",
"ITUUIUTUUUUPTJCMvvMvzMvvMSPUUUUUUPUUUUJE",
"UUUTTIUIPUUUUJJPFCBMMBBFPUUPUPULPUUUUPPR",
"CMVVKJUUUUUUUUUITTUIIUTTUIUUIUUIUTUKCBnC",
"bMMvvCPUUUUPIUIUUIUUUIIUUUIUIUIUIICbvvvv",
"MMMMMvCJPUUUITIUIUUUIUUIUIIIUIUUUCbMMMMM",
"MMMvMMvKUUUPTITIIUPTIIITITITUPUUKvMMMMMM",
"MMMMMMvBUUPUITITUUUPPUUUTIUUIUUUCMMvMMMM",
"MMMMMMMCPUUUTITIUUUPPUUUITUUIIUUVMMMMMMM",
"MMMMMnvMPUUUUUUUUUUUUUUUUUUUUUUIMMMMMMMM",
"MMMMMMvNRRRRWWWWWWWWWWWWWWWWWWWWVvMMMMMM"
};
