/* XPM */
static char *NQ__[] = {
/* columns rows colors chars-per-pixel */
"40 40 90 1 ",
"  c #0F1625",
". c #151B26",
"X c #1B1F28",
"o c #1C1F28",
"O c #1C2028",
"+ c #1D2028",
"@ c #232429",
"# c #25252A",
"$ c #26262A",
"% c #2B2A2B",
"& c #2C2B2B",
"* c #302D2C",
"= c #33302C",
"- c #35312D",
"; c #3D372F",
": c #413930",
"> c #463C30",
", c #473D31",
"< c #483E31",
"1 c #4C4132",
"2 c #4F4332",
"3 c #695438",
"4 c #705939",
"5 c #745C3A",
"6 c #775F3B",
"7 c #7A603B",
"8 c #8C6D40",
"9 c #8D6D40",
"0 c #967442",
"q c #A27C44",
"w c #A37D45",
"e c #A98146",
"r c #AC8347",
"t c #B28748",
"y c #B38848",
"u c #BA8D4A",
"i c #C3934B",
"p c #C6954C",
"a c #D39E4F",
"s c #D7A150",
"d c #DAA350",
"f c #DEA651",
"g c #DFA651",
"h c #E9AD54",
"j c #EAAE54",
"k c #EDB155",
"l c #EFB155",
"z c #F1B355",
"x c #F2B456",
"c c #F7B756",
"v c #F8B857",
"b c #FFBA57",
"n c #FFBD57",
"m c #FABA58",
"M c #FFBB59",
"N c #FFBC59",
"B c #FFBF58",
"V c #FFC156",
"C c #FFC657",
"Z c #FFCB57",
"A c #FFC058",
"S c #FFC35B",
"D c #FFC458",
"F c #FFC75C",
"G c #FFC958",
"H c #FFCF58",
"J c #FFCF59",
"K c #FFC85C",
"L c #FFD256",
"P c #FFD457",
"I c #FFDA57",
"U c #FFDF57",
"Y c #FFD259",
"T c #FFD758",
"R c #FFD958",
"E c #FFD959",
"W c #FFDD59",
"Q c #FFDE59",
"! c #FFE058",
"~ c #FFE059",
"^ c #FFCD61",
"/ c #FFCE62",
"( c #FFD063",
") c #FFD262",
"_ c #FFD462",
"` c #FFDA62",
"' c #FFDF62",
"] c #FFDF63",
"[ c #FFE063",
"{ c #FFE16C",
/* pixels */
"WWWW~PZBBBBGTWWW~WWWWWWWUWWPJVBBBGTWWWU'",
"UWWRCMMBMMMMMGRWWW~~W!WUWIDMMMMMMMMAR~U[",
"W~TBMBMBBBBBBMBRW!WWWWWWIBMBnMBMMBMMATW[",
"WIAMMnMMBMBMBMMBWWWWW!WIDBBMMBMBBMBBBBR[",
"WDMBMBMBMMMMnMBMHW!WWUWYMBMBBBMBMMBMnMZ'",
"RMMMnBBMBMBMBBMMnU~WWWRnMMBMBMBMMBBMBnb`",
"YMBBMBMBMBMBMBBMBYWWUWYMMBMBBMMBBMBMMBb)",
"GMBMMMBMBMBMBMMBMG~RIWYMMMBBMBMMMBMBMMb/",
"JMMMMBMMMBMBMMBbMBBBBBVMBMMBMMBMBMBMBBM/",
"GBBnBMMBMBMMBMBMBBMMMBMBMBBBMBBMMBMMMMM/",
"JMBMMBMBBMBMbBMBMBBBBMMMBBMMBMMMBMBMBBM/",
"LMMBBMBMMMBMMBMMMMmMBMBMMMMMMBMBMBMBBMM)",
"RAMMMBMBMBMbBMBMBBMmmMmBMBMBMMBMBMBMBMV[",
"WTBnBMBMBMMBMBMMMmBFFKFBMmBbnMMBMMMnMBP'",
"W~HMMMbBMMMBMMbBMSzt88wamBMMBMbBMBBMMJU'",
"WWWLBMMMMBBMBMBmSp>O  .$uAmBMBbMMMMBJWI'",
"WUWURGAnBMBMMMBBd=O>0w4>jBBMBMMBBBGRWWU'",
"WWWWWWRIBMMBBBmF5X:gFFSlMBmMMBMBTUWWWWU'",
"WWWWWWW~ABBMBMAl:O8KmmMBBMMBMBBBWWWU~WU[",
"WWUWW!WWBBMBMMAs*@yDmMBMMBBMBMBBIWWWWWU[",
"~UWWWWWIBMBMMmBa*#uFMMAMBMMBMBMBRWWUWWW'",
"WWUWWW~!AMBMBMBg=@rFvBAmmBMMMBMAU~~WWWU'",
"WUWWWRJDBMBMMMBc<X6KBMBABMBBBBMADJIWWWU'",
"WWWUDBMMBBMMBMmF8X*emmlixBMMMMMBMMBGUWI'",
"WWRBMBMBBMBMBMmBl1X$:2-#gSmBBMMBMBMMBR~[",
"WUBMBMBMbMMBMMBMSj6;&%=3xBMMMBBMMBBMMSW[",
"WGBBMMMMBMMBnBMMmBSlgglBBMBMMMMMBMMBMMG]",
"InBMBBMBMBMMBMmBBMMBBDBmMBMBBMBMMBBMBMB`",
"JMMBBMBMMMBBMBMMMBMmmMBnMMnMMMMBBMMBMBb)",
"GMBMMBMBMBMMMMBBMBMBMBMMBMBMMBBMMBBMbMb/",
"GMBBBMBMBMMBMBBMBMMBBMMBMnMBBMMBMMMBBBb/",
"GMBMMMMBBMMMBMMBMABBBABbMBMMMBMMBMBMBMb/",
"JMBMBMBMBMBMBBMBMJURR~JbMBMBMBMMMSBMMBM/",
"YMBBMBMBMBMMBBMMBIWW~WTBMBnMBMBMBMMBBMb_",
"RBMMMBMBMMMBBMBMDWWUUWUDMBMBMBMBMBBMBMV'",
"WYMBMMBMMBBBMBMMIWWWWWWTMMBMBMBMBMMBBML[",
"WWZMnBBBBMBnMBMJWUWWWWWWJbBBMnMBMBBMMDW'",
"WWWZMMMBMBMBMMYRWWWW~W~RWJnMMBBBBMMBYWW[",
"!UUWLCnbMbMbCTWWWUUWUUUUUUPCMbbbMBATWRUW",
"[[''[[`)//)''[']'''''''[''[[`))//`[[[''{"
};
