/* XPM */
static char *Mw__[] = {
/* columns rows colors chars-per-pixel */
"40 40 69 1 ",
"  c #1D2028",
". c #1E2128",
"X c #202229",
"o c #212329",
"O c #242529",
"+ c #26272A",
"@ c #28272A",
"# c #28282A",
"$ c #2A292B",
"% c #2C2B2B",
"& c #2F2C2C",
"* c #2F2D2C",
"= c #312E2C",
"- c #322F2C",
"; c #332F2D",
": c #35302D",
"> c #35312D",
", c #39332E",
"< c #39342E",
"1 c #3E372F",
"2 c #413930",
"3 c #473E31",
"4 c #4B4032",
"5 c #5C4C35",
"6 c #635137",
"7 c #675337",
"8 c #725B3A",
"9 c #7E633C",
"0 c #83673E",
"q c #8B6C3F",
"w c #8E6F40",
"e c #927141",
"r c #957341",
"t c #977442",
"y c #9A7642",
"u c #9B7843",
"i c #9E7943",
"p c #9F7A44",
"a c #A67F45",
"s c #A88046",
"d c #AC8346",
"f c #B48948",
"g c #B58948",
"h c #BE904A",
"j c #C5954C",
"k c #C8974D",
"l c #D19D4E",
"z c #D39E4F",
"x c #D7A150",
"c c #D9A250",
"v c #DEA651",
"b c #E5AB53",
"n c #ECB054",
"m c #EEB154",
"M c #F2B456",
"N c #F6B757",
"B c #FFBC57",
"V c #FBBA58",
"C c #FCBB58",
"Z c #FDBB58",
"A c #FDBC58",
"S c #FFBD59",
"D c #FFC15A",
"F c #FFC35B",
"G c #FFC45B",
"H c #FFC75C",
"J c #FFC85C",
"K c #FFC163",
"L c #FFC46C",
/* pixels */
"SSSSSSSSSSSSSSSSSSSSSSSSSSSSSSSSSSSSSSBK",
"SSSSSSSSSSSSSSSSSSSSSSSSSSSSSSSSSSSSSSBK",
"SSSSSSSSSSSSSSSSSSSSSSSSSSSSSSSSSSSSSSBK",
"SSSSSSSSSSSSSSSSSSSSSSSSSSSSSSSSSSSSSSBK",
"SSSSSSSSSSSSSSSSSSSSSSSSSSSSSSSSSSSSSSBK",
"SSSSSSSSSSSSSSSSSSSSSSSSSSSSSSSSSSSSSSBK",
"SSSSSSSSSSSSSSSSSSSSSSSSSSSSSSSSSSSSSSBK",
"SSSSSSSSSSSSSSSSSSSSSSSSSSSSSSSSSSSSSSBK",
"SSSSSSSSSSSSSSSSSSSSSSSSSSSSSSSSSSSSSSBK",
"SSSSSSSSSSSSSSSSSSSSSSSSSSSSSSSSSSSSSSBK",
"SSSSSSSSSSSSSSSSSSSSSSSSSSSSSSSSSSSSSSBK",
"SSSSSSSSSSSSSSSBSSBSVVVVVSSBSSSSSSSSSSBK",
"SSSSSSSSSSSSSSSSSVSGJJJGDAASVSSSSSSSSSBK",
"SSSSSSSSSSSSSBSBZGNjspsjmDSBSSSSSSSSSSBK",
"SSSSSSSSSSSSZSSSDd3#O.O%<ySABSSSSSSSSSBK",
"SSSSSSSSSSSSSBZDq.#=$O#*.wDSSSSSSSSSSSBK",
"SSSSSSSSSSSSBSJfX:%O485=*bDVSSSSSSSSSSBK",
"SSSSSSSSSSSSSSS4#=OqSDDxfBSZSSSSSSSSSSBK",
"SSSSSSSSSSSSCDz%=+4BBASDGSSSSSSSSSSSSSBK",
"SSSSSSSSSSSSVGd.=.0HZSZZSBSSSSSSSSSSSSBK",
"SSSSSSSSSSSSVGu.:.rHZSSSSBSVSSSSSSSSSSBK",
"SSSSSSSSSSSSAJi.=.rHVZSSVSSSSSSSSSSSSSBK",
"SSSSSSSSSSSSVGdO=X9HVZZSCSBBSSSSSSSSSSBK",
"SSSSSSSSSSSSSDx*=$2MHSSFGBSSSSSSSSSSSSBK",
"SSSSSSSSSSSSSSV4#*O7vNmj9zDBSSSSSSSSSSBK",
"SSSSSSSSSSSSVAGf.%:O:1<$OkDCSSSSSSSSSSBK",
"SSSSSSSSSSSSSSADe+O*%###.jGCSSSSSSSSSSBK",
"SSSSSSSSSSSSBSBSDh6<**:19bSSSSSSSSSSSSBK",
"SSSSSSSSSSSSSBSBADDmxlvMDDASSSSSSSSSSSBK",
"SSSSSSSSSSSSSVSSSVSSDDDSAASSSSSSSSSSSSBK",
"SSSSSSSSSSSSSSSBSSSVBVAASSAASSSSSSSSSSBK",
"SSSSSSSSSSSSSSSSSSSSSSSSSSSSSSSSSSSSSSBK",
"SSSSSSSSSSSSSSSSSSSSSSSSSSSSSSSSSSSSSSBK",
"SSSSSSSSSSSSSSSSSSSSSSSSSSSSSSSSSSSSSSBK",
"SSSSSSSSSSSSSSSSSSSSSSSSSSSSSSSSSSSSSSBK",
"SSSSSSSSSSSSSSSSSSSSSSSSSSSSSSSSSSSSSSBK",
"SSSSSSSSSSSSSSSSSSSSSSSSSSSSSSSSSSSSSSBK",
"SSSSSSSSSSSSSSSSSSSSSSSSSSSSSSSSSSSSSSVK",
"BBBBBBBBBBBBBBBBBBBBBBBBBBBBBBBBBBBBBBBG",
"KKKKKKKKKKKKKKKKKKKKKKKKKKKKKKKKKKKKKKKL"
};
