/* XPM */
static char *NQ__[] = {
/* columns rows colors chars-per-pixel */
"40 40 40 1 ",
"  c #6ED443",
". c #70D545",
"X c #72D547",
"o c #76D64C",
"O c #78D750",
"+ c #79D751",
"@ c #7AD853",
"# c #7BD854",
"$ c #7CD854",
"% c #7CD855",
"& c #7FD958",
"* c #80D959",
"= c #81DA5C",
"- c #82DA5D",
"; c #86DB62",
": c #88DB65",
"> c #89DB65",
", c #8CDD6A",
"< c #8FDD6D",
"1 c #90DE6E",
"2 c #97E078",
"3 c #98E079",
"4 c #BBEBA6",
"5 c #BCEBA8",
"6 c #C1EDAE",
"7 c #CBEFBB",
"8 c #D6F3C9",
"9 c #D9F4CE",
"0 c #DCF4D2",
"q c #E1F6D8",
"w c #E4F7DC",
"e c #E7F8E0",
"r c #F2FBEF",
"t c #F7FCF5",
"y c #F8FCF5",
"u c #F8FCF6",
"i c #F9FDF8",
"p c #FBFDFA",
"a c #FBFEFB",
"s c white",
/* pixels */
"ssssssssssssssssssssssssssssssssssssssss",
"ssssssssssssssssssssssssssssssssssssssss",
"ssssssssssssssssssssssssssssssssssssssss",
"ssssssssssssssssssssssssssssssssssssssss",
"ssssssssssssssssssssssssssssssssssssssss",
"ssssssssssssssssssssssssssssssssssssssss",
"ssssssssssssssssssssssssssssssssssssssss",
"ssssssssssssssssssssssssssssssssssssssss",
"ssssssssssssssssssssssssssssssssssssssss",
"ssssssssssssssssssssssssssssssssssssssss",
"ssssssssssssssssssssssssssssssssssssssss",
"ssssssssssssspsspspspspsssssssssssssssss",
"ssssssssssssssssssssssssssssssssssssssss",
"ssssssssssssssss09999998wsssssssssssssss",
"sssssssssssssssu;O+%#%&X5spsssssssssssss",
"ssssssssssssssst>%*%++# 4spsssssssssssss",
"sssssssssssssssu>%%-23317spsssssssssssss",
"sssssssssssssssp>+@1psssssssssssssssssss",
"sssssssssssssssu>%%1tpppssssssssssssssss",
"sssssssssssssssu>@*%,,,,wsssssssssssssss",
"ssssssssssssspsp>@*$@@@@qsssssssssssssss",
"sssssssssssssssu>@*%****wspsssssssssssss",
"sssssssssssssssu>%@,qwqqpsspssssssssssss",
"sssssssssssssssp>@@1ssssssssssssssssssss",
"ssssssssssssspsu>$%,wewwrsssssssssssssss",
"sssssssssssssssu>$*%**-o5sppssssssssssss",
"sssssssssssssssu;@%@%@%X5spsssssssssssss",
"ssssssssssssspsu1*;;-;>O6sssssssssssssss",
"ssssssssssssspsputuuttutpsspssssssssssss",
"ssssssssssssssssssssssssssssssssssssssss",
"sssssssssssssssspssspsspssssssssssssssss",
"ssssssssssssssssssssssssssssssssssssssss",
"ssssssssssssssssssssssssssssssssssssssss",
"ssssssssssssssssssssssssssssssssssssssss",
"ssssssssssssssssssssssssssssssssssssssss",
"ssssssssssssssssssssssssssssssssssssssss",
"ssssssssssssssssssssssssssssssssssssssss",
"ssssssssssssssssssssssssssssssssssssssss",
"ssssssssssssssssssssssssssssssssssssssss",
"ssssssssssssssssssssssssssssssssssssssss"
};
