/* XPM */
static char *MjQ_[] = {
/* columns rows colors chars-per-pixel */
"40 40 62 1 ",
"  c #69D839",
". c #71D844",
"X c #73D848",
"o c #77D84D",
"O c #78D94F",
"+ c #7BD853",
"@ c #7CD955",
"# c #7ED957",
"$ c #7FD858",
"% c #81D95B",
"& c #82D85D",
"* c #83D95E",
"= c #84D85F",
"- c #85D862",
"; c #86D863",
": c #98D87C",
"> c #A3D88D",
", c #A7D892",
"< c #A9D895",
"1 c #ABD998",
"2 c #AFD89E",
"3 c #B0D89F",
"4 c #B2D8A2",
"5 c #B4D9A4",
"6 c #B9D8AB",
"7 c #BBD8AE",
"8 c #BFD8B4",
"9 c #C1D9B7",
"0 c #C4D8BA",
"q c #C5D8BC",
"w c #CED8C9",
"e c #CED9C9",
"r c #CED8CA",
"t c #CFD9CB",
"y c #D7D7D7",
"u c #D3D9D1",
"i c #D4D9D1",
"p c #D4D8D2",
"a c #D4D9D2",
"s c #D7D8D6",
"d c #D7D9D7",
"f c #D8D9D7",
"g c #D8D8D8",
"h c #D8D8D9",
"j c gray85",
"k c gray86",
"l c #DBD9DC",
"z c #DCD9DD",
"x c gainsboro",
"c c #DFD9E2",
"v c #E0D9E3",
"b c #E0D8E4",
"n c #E6D8EB",
"m c #E1E1E1",
"M c #E4E4E4",
"N c #ECECEC",
"B c gray93",
"V c gray94",
"C c #F8F8F8",
"Z c gray98",
"A c gray99",
"S c white",
/* pixels */
"jjjjjjymSSSSSSSSSSSSSSSSSSSSSSSSmjjjjjjj",
"jjjjjjjjASSSSSSSSSSSSSSSSSSSSASZjyjjjjjj",
"jjjjjjjxASSSSSSSSSSSSSSSSSSSSSSSxjjjjjjj",
"jjjjyjjmSASSSSSSSSSSSSSSSSSSSSASmyjyjjjj",
"jjjjjjyBSSASSSSSSSSSSSSSSSSSSASSByjjjjjj",
"jjjjjymSSSSSSSSSSASSSASSSSSSSSSSSmyjjjjj",
"yyjyymSSASASSSSSSASSSSSAASSSSASASSmyyjjy",
"mjxmBSSSSSSSSASSSSSZZSSSSSASSSSSSSSVmjxx",
"SSSSSSSSSSSSSSSZNMxjjjMNCSSSSSASSSSSSSZS",
"SSSZSZSSZSSSSZMjyjjjjgyyjMZSSSSSSSZSSSSS",
"SSSSSSSSSSZSVjyhfjjjjjjjjyjVSAASSSSSZSSS",
"SSSSSSSZSSSByyjjjjjjjjjjjjjyNSSSZSSSSSSS",
"SSSSSSSSSSBjjjhjghyyydyfjyjjyVSSSSSSSSSS",
"SSSSSSSSSZjjjyjjjcccccvzjjjjyjZSSSSSSSSS",
"SSSSSSZSSmjjjjyjp424442qldjyjyMSSZSSSSSS",
"SSSSSSSSCyyjjjjjw+O..X >cyyjjjjZSSSSSSSS",
"SSSSSSSSNyjgjjjzw&@:<,>8zjyjjjyNSSZSSSSS",
"SSSSSSZSMhjhjjggw&O7ncvzjjjjjjymSSSSSSSS",
"SSSSSSSSlyjjjjhzw%+4kppfgjfjjjykSSSSSSSS",
"SSSSSSSZjjjjjjgzw%@=;;;qldjjjjjxZSSSSSSS",
"SSSSSSSSzfjjjjhlw&@+%%@9zfjjjjjjZSSSSSSS",
"SSSSSSSZxjjjjjjjw&O4iweyjdjjjjjxSSSSSSSS",
"SSSSSSSSmyjjjjglw&+6bjzjjjjjyjfMSZSSSSSS",
"SSSSSSSSByjjjjgzw&O5gppfjjdjjjyBSSSSSSSS",
"SSSSSSZSZhyjjjgje%@@**+1cyjjjgjZSZSSSSSS",
"SSSSSSSSSMyjyjjje;=*$*+<cddgjyMSSSSSSSSS",
"SSSSSSSZSZjyjdjjduppuupfjdjjjjZSSSSSSSSS",
"SSSSSSSSSSVyjjyjjjljjljjdjjjyVSSSSSSSSSS",
"SSSSSSSSSASNyjjjjgdgfjdjjjgyBSSSSSSSSSSS",
"SSSSSSZSSSSSVjyjjjjjjjjjgyjVSSASSSSZSSSS",
"SSSSSZSSASASSZMjdgggjjyyjNCSSSSSZSSSSSSS",
"SZZSSSSSSSSSSSSZNMzjjkmNCSSSASASSSSSSZZS",
"xjxmBSSSSSZSSSSSSSZZSZSSSSSSSSZSSSSBmxjm",
"jyjjymSSSSSSSSSZSSSSSSZSSSSZSSSSSZmyyyjj",
"jjjjjymSSSSSSSSSSSZSSSSSSSSSSSSSSmyjjjjj",
"jjjfjjyVSZSSSSSSSSSSSSSSSSSSSZSSVyjjjjjj",
"jjjjjjjmSSZSSSSSSSSSSSSSSSSSSSSSmyjdjjjj",
"jjjjjjjxZSSSSSSSSSSSSSSSSSSSSSSSljjjjjjj",
"jjjjjjyjSSSSSSSSSSSSSSSSSSSSSZSZjjjjjjjj",
"jjjjjjymSSSSSSSSSSSSSSSSSSSSSSSSmjjjjjjj"
};
