/* XPM */
static char *MjI_[] = {
/* columns rows colors chars-per-pixel */
"40 40 59 1 ",
"  c #69D839",
". c #71D844",
"X c #73D848",
"o c #74D849",
"O c #77D84D",
"+ c #78D94F",
"@ c #79D950",
"# c #7BD853",
"$ c #7CD955",
"% c #7FD858",
"& c #81D85B",
"* c #82D85C",
"= c #82D85D",
"- c #84D85F",
"; c #86D863",
": c #87D864",
"> c #98D87C",
", c #A3D88C",
"< c #A3D88D",
"1 c #A7D892",
"2 c #A9D895",
"3 c #ABD998",
"4 c #AFD89E",
"5 c #B0D89F",
"6 c #B1D8A0",
"7 c #B2D8A2",
"8 c #B4D8A4",
"9 c #B9D8AB",
"0 c #BBD8AE",
"q c #C1D9B7",
"w c #C5D8BC",
"e c #CED8C9",
"r c #CED8CA",
"t c #CFD9CB",
"y c gray84",
"u c #D2D9D0",
"i c #D4D8D2",
"p c #D4D9D2",
"a c #D7D9D7",
"s c #D8D9D7",
"d c #D8D8D8",
"f c gray85",
"g c gray86",
"h c #DBD9DC",
"j c #DBD8DD",
"k c gray87",
"l c #DFD9E2",
"z c #E0D8E3",
"x c #E2D9E6",
"c c #E6D8EB",
"v c gray88",
"b c gray89",
"n c #E4E4E4",
"m c gray92",
"M c gray94",
"N c gray96",
"B c #F6F6F6",
"V c gray99",
"C c white",
/* pixels */
"CCCCCCCCCCCCCCCCCCCCCCCCCCCCCCCCCCCCCCCC",
"CCCCCCCCCCCCCCCCCCCCCCCCCCCCCCCCCCCCCCCC",
"CCCCCCCCCCCCCCCCCCCCCCCCCCCCCCCCCCCCCCCC",
"CCCCCCCCCCCCVCCCVCCCCCCCCCVCCVCCCCCCCCCC",
"CCCCCCCCCCCCCCCCCCVCCCVCVCCCCCCVCCCCCCCC",
"CCCCCCCCCCCVVCCCVCCCVCCCCCCCVCCCVCVCCCCC",
"CCCCCCCCCMbgfzmVCCCCCCCCVmbfknmCCCCCCCCC",
"CCCVCCCVbyyssaykNCVVVVCNfyyfyyynVCCCCCCC",
"CCCCCCCbyffffffygnkffhnfyffffffybCCCCCCC",
"CCCCCCmyffyfdffffyyfffysfffffyffyMCCCCCC",
"CCCCCCbyfyfffdfdffffffffffyfffffynCCCCCC",
"CCCVCCkfffffffffsffffffsffffyfffyfCCCCCC",
"CCCVCVkyfffyffdfsysaayssffyfffffffCCCCCC",
"CCCCCCkyfffyfyfffllllzzjffffffffykCCCCCC",
"CCCCCCmyfyffffyfi757774wjaffffyfymCCCCCC",
"CCCCCCVyffffffffe#Oo.X ,zayffyffyVCCCCCC",
"CCCCCVCNhdfffffhe=$>21,qjsffffafmCCCCCCC",
"CCCCCCCCnyfdffdfe=+0czzgfsafffynCCCCCCCC",
"CCCCCVCVkdfffffje&#7fiifffffffdkVCVCCCCC",
"CCCCCCCVfffffffhe&$-:;;wfffffffjVCCCCCCC",
"CCCCCCCChfffffyfe=$$&$$qjaffffffCCCCCCCC",
"CCCCCCCVkffdfffje=+7iteafddfsfskCCCCCCCC",
"CCCCCCCCbyfffffhe=#9xfhfffffffynCCCVCCCC",
"CCCVCCCNfdfdfffhe=O8fuifffffffffmCCCCCCC",
"CCCCCCVfyfffffyht$$&=-#3laafddfyfCCCCCCC",
"CCCVCCmyffffyfffe;&=&&#2lafffdffymCCCCCC",
"CCCCCCkyffffffyffuiiuiiasssdfdffybCCCCCC",
"CCCCCCfffyfffffffhhffgffffdfdfffyyCCCCCC",
"CCCCCCfyfffffyffffsfffsfffddfdffykCCCCCC",
"CCCCCCbyffyffffaffffffffdfddfddfybCCCCCC",
"CCCCCCmffffyfffffyyfffyfffffddffymCCVCCC",
"CCCCCCCnyffffffffbkffhnfyffffffybCCCCCCC",
"CCCCCCCVbyyfyyykmCCCVCCmkyyffyybCCCCVCCC",
"CCCCCCVCCmbyfbmCCVCCCCCCCmbfybMCCCCCCCCC",
"CCCCCVCCCCCCVCCCCCCVCVCVCCCCVCCCCCCCCCCC",
"CCCCCCVCCCCCCCCCCVCCCCCCCCCCCCVCCVCCCCCC",
"CCCCCCCCCVCCCCVCCCCCCCCCCCVCCVCCCCCCCCCC",
"CCCCCCCCCCCCCCCCCCCCCCCCCCCCCCCCCCCCCCCC",
"CCCCCCCCCCCCCCCCCCCCCCCCCCCCCCCCCCCCCCCC",
"CCCCCCCCCCCCCCCCCCCCCCCCCCCCCCCCCCCCCCCC"
};
