/* XPM */
static char *MjM_[] = {
/* columns rows colors chars-per-pixel */
"40 40 60 1 ",
"  c #69D839",
". c #71D844",
"X c #73D848",
"o c #74D849",
"O c #77D84D",
"+ c #78D94F",
"@ c #7BD853",
"# c #7CD954",
"$ c #7CD955",
"% c #7FD958",
"& c #81D95B",
"* c #81D95C",
"= c #82D85D",
"- c #84D85F",
"; c #85D862",
": c #87D864",
"> c #98D87C",
", c #A3D88D",
"< c #A7D892",
"1 c #A9D895",
"2 c #ABD998",
"3 c #AFD89E",
"4 c #B0D89F",
"5 c #B2D8A2",
"6 c #B4D9A4",
"7 c #B9D8AB",
"8 c #BBD8AE",
"9 c #BFD8B4",
"0 c #C1D9B7",
"q c #C5D8BC",
"w c #CED8C9",
"e c #CFD9CB",
"r c #D5D5D5",
"t c #D7D7D7",
"y c #D2D9D0",
"u c #D4D8D2",
"i c #D4D9D2",
"p c #D6D9D5",
"a c #D8D8D7",
"s c #D8D8D8",
"d c #D9D8D9",
"f c gray85",
"g c gray86",
"h c #DBD8DD",
"j c #DCD8DD",
"k c #DCD9DD",
"l c gainsboro",
"z c #DFD9E2",
"x c #E0D9E3",
"c c #E0D8E4",
"v c #E2D9E6",
"b c #E6D8EB",
"n c gray88",
"m c #E4E4E4",
"M c #E9E9E9",
"N c #EEEEEE",
"B c #F3F3F3",
"V c gray97",
"C c gray98",
"Z c #FEFEFE",
/* pixels */
"ZZZZZBmnffzMVZZZZZZZZZZZZZZVMlfllMVZZZZZ",
"ZZZCmttfftfpfmZZZZZZZZZZZZmfttfftttnCZZZ",
"ZZVltfffffffftlCZZZZZZZZCltfffffffftlVZZ",
"ZZltfffffffffftxZZZZZZZZntffffffftffflCZ",
"ZmtftfffffffftftMZZZZZZMtftfffffffftftmZ",
"CftffffffffffffflZZZZZZftffffffffffffffV",
"NtfffffffffftfffpBZZZZBtfffffffffffffftN",
"MtftffffffftfftftMZZZZMtfffftffffffffftM",
"MtfffffffffftffffllfflltfftffffffffffftM",
"MtftffffftftfffffftfftfffffftffffffftftM",
"MtffffffffffftftfffffffdtftfftfffffffftM",
"VtffffffftfffffftffffffdfffffffffffffftV",
"ZltffffftfftftffftpttpttdpftffffffffftnZ",
"ZVtfftfffftffffffxzzzzxlffffftftfftfftVZ",
"ZZNtffffftfttftfu545553qjffftffffffttMZZ",
"ZZZNftttffffffffw@Oo.X ,cptffftftttfBZZZ",
"ZZZZCmlffdffffthw=@>1<,9lddfffffffMCZZZZ",
"ZZZZZZZCxtftfffhw=+8bzxjddfftfflCZZZZZZZ",
"ZZZZZZZZlfffffflw=@5fytfddffffflZZZZZZZZ",
"ZZZZZZZZlfffffphw&#-:::0fdtfffflZZZZZZZZ",
"ZZZZZZZZlfffffthw=#&#&#0hpffffffZZZZZZZZ",
"ZZZZZZZZlafpfffhw=O5uwetfftfffffZZZZZZZZ",
"ZZZZZCNmlffffftjw=O7vfllffffffflmNCZZZZZ",
"ZZZZmfttffpffddlw=@6fyypffffffffttfmZZZZ",
"ZZCltffftfftftffe##&==#2zptfffffffttfCZZ",
"ZZltffffffffffffe:====#2vpffftffffffflZZ",
"ZMtftffffftftftffuyiyiypffttftfftfftfdMZ",
"CfffffffftffffffffffflffafffffftfffffffC",
"NtffffffftfftfffdfdtffftfftffffffffffftB",
"MtftfffffffffffftffffffftfftftfffffftttM",
"MtffffffftftfffffftffptffffffffffffffftM",
"MtffffffffffftffflfffllfffftftfffffffftM",
"MtfffffffffffffftNZZCZNtftfftffffffffftM",
"BtfffffffffftffffCZZZZVffffffffffffffftB",
"ZltftfffffffffftnZZZZZZntftfffffffffftlZ",
"ZBtffffffffftftfVZZZZZZVftfffffffftfftBZ",
"ZZMtfffffffffftNZZZZZZZZNttffffffffftMZZ",
"ZZZMtftfffffttNZZZZZZZZZZNftffffffttMZZZ",
"ZZZZVnfttttfmVZZZZZZZZZZZZVmfttttfnVZZZZ",
"ZZZZZZCBNMBCZZZZZZZZZZZZZZZZCBMNNCZZZZZZ"
};
