/* XPM */
static char *MTA_[] = {
/* columns rows colors chars-per-pixel */
"40 40 77 1 ",
"  c #261C28",
". c #271E28",
"X c #292229",
"o c #2B272A",
"O c #2C272B",
"+ c #2C282B",
"@ c #2D2B2B",
"# c #2D2B2C",
"$ c #2E2C2C",
"% c #2E2D2C",
"& c #2F2E2C",
"* c #2F302D",
"= c #31332D",
"- c #32352E",
"; c #353D2F",
": c #374131",
"> c #384431",
", c #3A4632",
"< c #3C4B33",
"1 c #3C4C33",
"2 c #3D4E34",
"3 c #3F5135",
"4 c #415535",
"5 c #4A6A3A",
"6 c #558140",
"7 c #568441",
"8 c #588842",
"9 c #5D9445",
"0 c #5E9545",
"q c #629C47",
"w c #65A449",
"e c #66A649",
"r c #67A94A",
"t c #68AB4B",
"y c #6AAF4C",
"u c #6BB04C",
"i c #6EB74E",
"p c #72BF50",
"a c #78D74F",
"s c #77C952",
"d c #77CB53",
"f c #79CF54",
"g c #7AD752",
"h c #7AD154",
"j c #7DD756",
"k c #7AD852",
"l c #7BD854",
"z c #7CD854",
"x c #7DD857",
"c c #7ED957",
"v c #7FDC57",
"b c #7FD958",
"n c #80DD57",
"m c #80D95A",
"M c #80DF58",
"N c #83DA5E",
"B c #84DA5F",
"V c #81E159",
"C c #82E159",
"Z c #83E45A",
"A c #84E65A",
"S c #88F05C",
"D c #85DB61",
"F c #86DB61",
"G c #87DB63",
"H c #89DC66",
"J c #8CDD6A",
"K c #9DE27F",
"L c #9FE282",
"P c #C8EEB8",
"I c #D2F1C4",
"U c #EDF9E8",
"Y c #F4FBF0",
"T c #FAFDF8",
"R c #FAFDF9",
"E c #FDFEFD",
"W c white",
/* pixels */
"cccccccccccccccccccccccccccccccclbbvbblD",
"ccccccccccccccccccccccccccccccccbbblbxlD",
"ccccccccccccccccccccccccccccccccbbbblblD",
"ccccccccccccccccccccccccccccccccvlblbblD",
"cccccccccccccccccccccccccccccccclvbbbblD",
"ccccccccccccccccccccccccccccccccbbblbblD",
"cccccccccccccccccccccccccccccccclblbcblD",
"ccccccccccccccccccccccccccccccccbbbbbllD",
"ccccccccccccccccccccccccccccccccvbblbbbD",
"cccccccccccccccccccccccccccccccclbxblblD",
"ccccccccccccccccccccccccccccccccbbblvxlD",
"cccccccccccclcccjjjjjjjccjcccccclbbbbblD",
"cccccccccccccccnVVVVVVcccccjccccbbbbbblD",
"ccccccccccccjccuwwwwtihVcjcccccclblbbblF",
"ccccccccccccccj<X++%+$;6lcgcccccbxbllblF",
"ccccccccccccjcj2+=++o$+ 5vcjcjccllbblblF",
"ccccccccccccccj2o%%<:+&%oynjccamFGklbllF",
"ccccccccccccjcj2o+=sj5X=X8AjmaKUTRIFlblD",
"ccccccccccccccj2o%=sS9.= 5SczBYWWWWPablD",
"cccccccccccclcj2o+=ss4+&X9AmaLWWWEWYDlbD",
"ccccccccccccjcj2o++,=+&++snjaLWWWWWYDlcD",
"ccccccccccccccj2+%@o%%o.6ncczFYWWWWPablD",
"ccccccccccccjcj2X+%%@%,9vccccgKURRINlblD",
"ccccccccccccccj2+%=qrizVcccjjcacHFglcccD",
"ccccccccccccjcj2o%=gZvcjcccccccgglcblblD",
"ccccccccccccccj2o+=dcjjccjcccjcbbbclbblD",
"cccccccccccclcj<Xo*dvccccccccccclbbvcclD",
"ccccccccccccjcj4%=;dvcccccccccccbcblcclD",
"cccccccccccclcchhhfccjcccccccccccblbbblD",
"cccccccccccccccccnccccccccccccccbbbbbblD",
"ccccccccccccccljcjcccjcccccccccclvlbcblD",
"ccccccccccccccccccccccccccccccccbbbbbllD",
"ccccbbbbblbcbbblbxbbblbxbbblblvxbbblbblD",
"cccclblbbvbclbbvbvlbbvbvlbbvbbbblbbvbllD",
"ccccbbblblblbbblblbxblblbbbxblvlbbbxbblD",
"cccclbbbbbbblblbbblbxbbblblbxbbblblbblbD",
"ccccccbjvlbbvbblbbbbbbbbvbbbblbbvbbbbllD",
"ccbbccbbbbbbbbbbbblvlblbxbbbbbbbxbbbbbbD",
"lllllllllllllllllllllllxlllllllllllllllN",
"FFFFFFFFDDDDGDDDDDGDDGDDDDDDDDDDDDDDDDDJ"
};
