/* XPM */
static char *MTQ_[] = {
/* columns rows colors chars-per-pixel */
"40 40 66 1 ",
"  c #261C28",
". c #271E28",
"X c #271F28",
"o c #282029",
"O c #292229",
"+ c #2B262A",
"@ c #2B272A",
"# c #2C272B",
"$ c #2D2B2B",
"% c #2E2C2C",
"& c #2F302D",
"* c #31332D",
"= c #31342D",
"- c #353D2F",
"; c #374131",
": c #384431",
"> c #3A4632",
", c #3C4B33",
"< c #3D4E34",
"1 c #3F5135",
"2 c #415535",
"3 c #4A6A3A",
"4 c #558140",
"5 c #588842",
"6 c #5C9144",
"7 c #5D9445",
"8 c #5E9545",
"9 c #629C47",
"0 c #65A449",
"q c #66A649",
"w c #67A94A",
"e c #68AB4B",
"r c #6BB04C",
"t c #6FB94E",
"y c #78D74F",
"u c #76C852",
"i c #77C952",
"p c #77CB53",
"a c #79CF54",
"s c #7BD355",
"d c #7DD756",
"f c #7BD853",
"g c #7BD854",
"h c #7CD854",
"j c #7ED957",
"k c #7FDC57",
"l c #7ED958",
"z c #80DD57",
"x c #80DD58",
"c c #83DA5E",
"v c #84DA5F",
"b c #81E058",
"n c #81E159",
"m c #83E45A",
"M c #84E65A",
"N c #88F05C",
"B c #85DB60",
"V c #85DB61",
"C c #8CDD6A",
"Z c #8EDD6C",
"A c #C8EEB8",
"S c #D3F2C6",
"D c #F4FCF1",
"F c #F8FDF6",
"G c #FAFDF9",
"H c white",
/* pixels */
"jjjjjjjjjjjjjjjjjjjjjjjjjjjjjjjjjjjjjjdV",
"jjjjjjjjjjjjjjjjjjjjjjjjjjjjjjjjjjjjjjgV",
"jjjjjjjjjjjjjjjjjjjjjjjjjjjjjjjjjjjjjjjV",
"jjjjjjjjjjjjjjjjjjjjjjjjjjjjjjjjjjjjjjgV",
"jjjjjjjjjjjjjjjjjjjjjjjjjjjjjjjjjjjjjjdV",
"jjjjjjjjjjjjjjjjjjjjjjjjjjjjjjjjjjjjjjgV",
"jjjjjjjjjjjjjjjjjjjjjjjjjjjjjjjjjjjjjjgV",
"jjjjjjjjjjjjjjjjjjjjjjjjjjjjjjjjjjjjjjgV",
"jjjjjjjjjjjjjjjjjjjjjjjjjjjjjjjjjjjjjjjV",
"jjjjjjjjjjjjjjjjjjjjjjjjjjjjjjjjjjjjjjgV",
"jjjjjjjjjjjjjjjjjjjjjjjjjjjjjjjjjjjjjjgV",
"jjjjjjjjjjjjgjjjdddddddjjdjjjjjjjjjjjjdV",
"jjjjjjjjjjjjjjjznnnnnkljgjdjjjjjjjjjjjjV",
"jjjjjjjjjjjjdjjr00qqwtsnjjjdjjjjjjjjjjgV",
"jjjjjjjjjjjjjjd,O$$$$%-4gjgjjjjjjjjjjjgV",
"jjjjjjjjjjjjdjd<#$$##%# 3xjdjjjjjjjjjjdV",
"jjjjjjjjjjjjdjd<#%%<;$$%#rxlljjjjjjjjjgV",
"jjjjjjjjjjjjjjd<O$*uj3#$O5msjljjjjjjjjgV",
"jjjjjjjjjjjjdjd<#$*iN8 * 4MfdjjjjjjjjjgV",
"jjjjjjjjjjjjjjd<+$*iu1$&O6MfjjjjjjjjjjjV",
"jjjjjjjjjjjjgjd<+$$>=#%%$ukdjjjjjjjjjjgV",
"jjjjjjjjjjjjjjd<#%$#$$+ 4zjdjjjjjjjjjjdV",
"jjjjjjjjjjjjdjd<+$$$$%>7kjjjjjjjjjjjjjgV",
"jjjjjjjjjjjjjjd<+$*9etdndjjdjjjjjjjjjjjV",
"jjjjjjjjjjjjjjd<+$=gMxjdjjdjjjjjjjjjjjgV",
"jjjjjjjjjjjjgjd<+$*ujddgjgjjjjjjjjjjjjdV",
"jjjjjjjjjjjjdjd,O#*pjjjjjjjjjjjjjjjjjjgV",
"jjjjjjjjjjjjjjd2%=-ukjjjjjjjjjjjjjjjjjgV",
"jjjjjjjjjjjjjjgssasdjjjjjjjjjjjjjjjjjjgV",
"jjjjjjjjjjjjjdjjlkjldjjjjjjjjjjjjjjjjjjV",
"jjjjjjjjjjjjdjdjgjjdjjjjjjjjjjjjjjjjjjdV",
"jjjjjjjjjjjjjjjjjjjjjjjjjjjjjjjjjjjjjjgV",
"jjjjjjjjjjjjjjjjjjjjjjjjjjjjjjjjjjjjjjjV",
"jjjjjjjjjjjjjjjjjjjjjjjjjjjjjjjjjjjjjjfV",
"jjjjjjjjjjjjjjjjdjlgfjjdjjjjjjjjjjjjjjdV",
"jjjjjjjjjjjjjjjjjdyccygjdjjjjjjjjjjjjjgV",
"jjjjjjjjjjljjjdjgcADDAcgjjjjjjjjjjjjjjgV",
"jjjjjjjjjjjjjjjlfSHHHHSfjjjjjjjjjjjjjjjV",
"fdgjfggdgdjfjgjfVGHGHHGVflfdjjfggdgjgdfv",
"VVVVVVVVVVBvVVvcZFHHHHFZccVVcVVVVVVVVVcC"
};
