/* XPM */
static char *MTY_[] = {
/* columns rows colors chars-per-pixel */
"40 40 76 1 ",
"  c #261C28",
". c #271F28",
"X c #282029",
"o c #292229",
"O c #2A2329",
"+ c #2B272A",
"@ c #2C272B",
"# c #2D2B2B",
"$ c #2D2B2C",
"% c #2E2C2C",
"& c #2F2E2C",
"* c #2F302D",
"= c #31332D",
"- c #31342D",
"; c #353D2F",
": c #374131",
"> c #384431",
", c #3A4632",
"< c #3C4B33",
"1 c #3C4C33",
"2 c #3D4E34",
"3 c #3E4E34",
"4 c #415535",
"5 c #4A6A3A",
"6 c #558140",
"7 c #588842",
"8 c #5C9144",
"9 c #5E9545",
"0 c #629C47",
"q c #65A449",
"w c #66A64A",
"e c #67A94A",
"r c #6BB04C",
"t c #6FB94E",
"y c #78D74F",
"u c #76C852",
"i c #77C952",
"p c #77CA53",
"a c #77CB53",
"s c #79CF54",
"d c #7AD752",
"f c #7AD154",
"g c #7CD656",
"h c #7DD756",
"j c #7BD853",
"k c #7BD854",
"l c #7CD854",
"z c #7DD856",
"x c #7ED957",
"c c #7EDB57",
"v c #7FDC57",
"b c #7FD958",
"n c #80DD57",
"m c #80D95A",
"M c #80DD58",
"N c #83DA5E",
"B c #84DA5F",
"V c #81E159",
"C c #82E159",
"Z c #82E259",
"A c #84E65A",
"S c #88F05C",
"D c #85DB61",
"F c #86DB61",
"G c #89DC66",
"H c #8CDD6A",
"J c #9DE27F",
"K c #9FE282",
"L c #C8EEB8",
"P c #D2F1C4",
"I c #EDF9E8",
"U c #F4FBF0",
"Y c #F4FCF1",
"T c #FAFDF8",
"R c #FAFDF9",
"E c white",
/* pixels */
"xxxxxxxxxxxxxxxxxxxxxxxxxxxxxxxxzcbzcbzD",
"xxxxxxxxxxxxxxxxxxxxxxxxxxxxxxxxbzzbbzzD",
"xxxxxxxxxxxxxxxxxxxxxxxxxxxxxxxxcbbczzzD",
"xxxxxxxxxxxxxxxxxxxxxxxxxxxxxxxxzbzzcbzD",
"xxxxxxxxxxxxxxxxxxxxxxxxxxxxxxxxbzcbczzD",
"xxxxxxxxxxxxxxxxxxxxxxxxxxxxxxxxzbbzzzkD",
"xxxxxxxxxxxxxxxxxxxxxxxxxxxxxxxxzcczzckD",
"xxxxxxxxxxxxxxxxxxxxxxxxxxxxxxxxbzbbzbzD",
"xxxxxxxxxxxxxxxxxxxxxxxxxxxxxxxxzbzzbzzD",
"xxxxxxxxxxxxxxxxxxxxxxxxxxxxxxxxbccbbczD",
"xxxxxxxxxxxxxxxxxxxxxxxxxxxxxxxxbzzbzczD",
"xxxxxxxxxxxxhxxxhhhhhhxxxxxxxxxxzbczbzzD",
"xxxxxxxxxxxxxxxnVVVVVvbxkxhxxxxxbzbbzckD",
"xxxxxxxxxxxxhxxrqqwwetfVxxxhxxxxczzczzzD",
"xxxxxxxxxxxxxxh1o#+##%;6kxxxxxxxzbbzczzD",
"xxhxxdjxxhxxkxh1@&#@@%@ 5MdxhxxxbczbczkD",
"xhhdNGFdkbkbjmx3@##1:+&%#rVhbxxxcbzcbzzD",
"xxyJITTPNkbkjxx3o&=ix5o% 7AgxxxxzbbzzbzD",
"xdFYEEEELybbxbg1o#-iS9.=o6AhhxxxbzzbcbzD",
"xdKEREEEYNkbkbx3##=ia4o&o8VkxxxxczbcbzzD",
"xyKEEEREYNkbgxh1o#%,=@*&%avdxxxxzcbzczkD",
"xxBUEEEELybxxxh1o*#@#&oX6vhxxxxxbzzbzzzD",
"hxyJIRRPNdxxdmx2@%%##%>9bxxxxxxxcbbczczD",
"xxxdmGFdkxxxxxg2O%=0ethVxxxgxxxxzbzzbzkD",
"xxhxxdjxbhbxkbh2o%=dVvxhhxhxxxxxbzcbzczD",
"xxxxxxxxkxxxkbh2o%=avhhxxxxxxxxxzbbzzbzD",
"xxxxxxxxxxxxxxk<o%*avxxxxxxxxxxxzcczbbzD",
"xxxxxxxxxxxxhbh4%=;avxxxxxxxxxxxbzbbzczD",
"xxxxxxxxxxxxkxdffffxbhxxxxxxxxxxbzvzvzzD",
"xxxxxxxxxxxxbbbxmvxxdxxxxxxxxxxxzbzbzbkD",
"xxxxxxxxxxxxxxxxkxxjxxxxxxxxxxxxvzbzbzkD",
"xxxxxxxxxxxxxxxxbxxbxxxxxxxxxxxxzbzvzbzD",
"xxxxvxxxxxxxxxxxvbkbbkbbkvbbzbzzbbzbbzzD",
"xxxxhxhbxxxxxxxxxbbbxbbbbkgbbccbzcczzvkD",
"xxxxbxbhxxxxnlxlbkkbbbxkbbvbbzzzzbbzbzkD",
"xxxxhxxxxxxxxmlmbxbbbkvbkbbkzbvzbczbzbzD",
"xxxxxxbxkxkxxhxxkxvxbvxhbzbkzvzzzczzczkD",
"xxxbxxbbvxxxxxxxxxkbxkxxbvzzbzvzzbczzbkD",
"xjxkkkkkxgjxhxxxgjxkgxxkzzzzzzzzzzzzzzkD",
"BFNFFFFFDDDDBFFBDDFDDDDDDDDDDDDDDDDDDDDH"
};
