/* XPM */
static char *MTg_[] = {
/* columns rows colors chars-per-pixel */
"40 40 77 1 ",
"  c #261C28",
". c #271F28",
"X c #282029",
"o c #292329",
"O c #2B272A",
"+ c #2C282B",
"@ c #2D2A2B",
"# c #2D2B2B",
"$ c #2F2B2E",
"% c #2E2C2C",
"& c #2F302D",
"* c #31332D",
"= c #31342D",
"- c #353D2F",
"; c #374131",
": c #384431",
"> c #3C4B33",
", c #3C4C33",
"< c #3D4E34",
"1 c #3E4E34",
"2 c #415535",
"3 c #4A6A3A",
"4 c #5BA23B",
"5 c #5DA53C",
"6 c #558140",
"7 c #568441",
"8 c #588842",
"9 c #5C9144",
"0 c #5D9445",
"q c #629C47",
"w c #61A443",
"e c #65A449",
"r c #67A64B",
"t c #68AB4B",
"y c #69B648",
"u c #6BB04C",
"i c #6FB94E",
"p c #72BF50",
"a c #75D64B",
"s c #75D64C",
"d c #76C852",
"f c #77C952",
"g c #77CB53",
"h c #79CF54",
"j c #79D751",
"k c #7BD156",
"l c #7DD756",
"z c #7DD757",
"x c #7BD853",
"c c #7CD854",
"v c #7CD855",
"b c #7ED957",
"n c #7FDC57",
"m c #7ED958",
"M c #80DD57",
"N c #80DE58",
"B c #82DA5C",
"V c #82E259",
"C c #83E45A",
"Z c #88F05C",
"A c #85DB60",
"S c #85DB61",
"D c #88DB64",
"F c #8CDD6A",
"G c #9CE77C",
"H c #9EEA7D",
"J c #AFE797",
"K c #B1E899",
"L c #C0ECAD",
"P c #C4F5AF",
"I c #C8EEB7",
"U c #C8EEB8",
"Y c #F3FBF0",
"T c #F9FDF7",
"R c #F9FDF8",
"E c #FCFEFB",
"W c #FEFEFE",
/* pixels */
"bbbbbbbbbbbbbbbbbbbbbbbbbbbbbbbbbbbbbbcS",
"bbbbbbbbbbbbbbbbbbbbbbbbbbbbbbbbbbbbbbcS",
"bbbbbbbbbbbbbbbbbbbbbbbbbbbbbbbbbbbbbbcS",
"bbbbbbbbbbbbbbbbbbbbbbbbbbbbbbbbbbbbbbcS",
"bbbbbbbbbbbbbbbbbbmBmmbbbbbbbbbbbbbbzncS",
"bbbbbbbbbbbbbbblbbssasbblbbbbbbbbbbbmzcS",
"bbbbbbbbbbbbbbbbljKIUKxbbbbbbbbbbbbbmmlS",
"bbbbbbbbbbbbbbbbjLWWWWLjbbbbbbbbbbbmmmcS",
"bbbbbbbbbbbbbbbcSRWEWWRSjbbbbbbbbbbbbbcS",
"bbbbbbbbbbbbbbbjDRWWWWTDjbbbbbbbbbbbbbcS",
"bbbbbbbbbbbbbbbbBYWERWYBbbbbbbbbbbbbbbcS",
"bbbbbbbbbbbblbbbaJWWWWKsbbbbbbbbbbbbbbcS",
"bbbbbbbbbbbbbbbMVNHPPGxblbblbbbbbbbbmmcS",
"bbbbbbbbbbbblbbueew45ykVbxbbbbbbbbbbmmcS",
"bbbbbbbbbbbbbbl>O@$$$%-6xmbbbbbbbbbbmmlS",
"bbbbbbbbbbbblbl<O%@OO%@ 3mlblbbbbbbbbbcS",
"bbbbbbbbbbbblbl<O@@<;@%%@tVbbbbbbbbbbbcS",
"bbbbbbbbbbbblbl<O@=db3O%o8VkbbbbbbbbbbcS",
"bbbbbbbbbbbbbbl<O@*dZ0o=.6VxlbbbbbbbbbcS",
"bbbbbbbbbbbbbbc<O@=fd<O&O9CbbbbbbbbbbbcS",
"bbbbbbbbbbbblbl<O@%,=O@@@dncbbbbbbbbmmcS",
"bbbbbbbbbbbbbbl<@%@O@$O.6nlbbbbbbbbbmmcS",
"bbbbbbbbbbbbbbc<O$@@@@:0nmlbbbbbbbbbmmlS",
"bbbbbbbbbbbblbl<O@%qtibVbbblbbbbbbbbbbcS",
"bbbbbbbbbbbbbbl<O@=bVnblbbxmmbbbbbbbbbcS",
"bbbbbbbbbbbbbbl<O@=fbcblbbbbbbbbbbbbbbcS",
"bbbbbbbbbbbblbl,OO&dnbbbbbbbbbbbbbbbbbcS",
"bbbbbbbbbbbblbl2%*-dnbbbbbbbbbbbbbbbbbcS",
"bbbbbbbbbbbbjbbkkhkxblbbbbbbbbbbbbbbmmcS",
"bbbbbbbbbbbbmbbmbnbbbbbbbbbbbbbbbbbbmmcS",
"bbbbbbbbbbbbbbjlbbbbblbbbbbbbbbbbbbbmmcS",
"bbbbbbbbbbbbbbbbbbbbbbbbbbbbbbbbbbbbbbcS",
"bbbbbbbbbbbbbbbbbbbbbbbbbbbbbbbbbbbbbbcS",
"bbbbbbbbbbbbbbbbbbbbbbbbbbbbbbbbbbbbbbcS",
"bbbbbbbbbbbbbbbbbbbbbbbbbbbbbbbbbbbbmbcS",
"bbbbbbbbbbbbbbbbbbbbbbbbbbbbbbbbbbbbmmcS",
"bbbbbbmbbbmmbbbbbbbbbbmmbbmmbbmmbbmmbbcS",
"bbbbbbmmbbbmbbbbmmbbbbmmbbmmbbmmbbmmbbzS",
"jblcccccccczccccczcccccccccccccccccccccS",
"SSSSSSSSSSSSSSSSSSSSSSSSSSSSSSSSSSSSSSBF"
};
