/* XPM */
static char *MTk_[] = {
/* columns rows colors chars-per-pixel */
"40 40 73 1 ",
"  c #261C28",
". c #271E28",
"X c #292229",
"o c #2B272A",
"O c #2C272B",
"+ c #2C282B",
"@ c #2D2A2B",
"# c #2D2B2B",
"$ c #2E2C2C",
"% c #2F2F2D",
"& c #2F302D",
"* c #31332D",
"= c #31342D",
"- c #353D2F",
"; c #384431",
": c #3A4632",
"> c #3C4B33",
", c #3C4C33",
"< c #3D4E34",
"1 c #3F5135",
"2 c #415535",
"3 c #4A6A3A",
"4 c #558140",
"5 c #588842",
"6 c #5D9445",
"7 c #5E9545",
"8 c #629C47",
"9 c #65A449",
"0 c #66A649",
"q c #66A64A",
"w c #67A94A",
"e c #68AB4B",
"r c #6AAF4C",
"t c #6BB04C",
"y c #6FB94E",
"u c #73D548",
"i c #76D64C",
"p c #78D74F",
"a c #76C852",
"s c #77C952",
"d c #78CC53",
"f c #79D751",
"g c #7AD154",
"h c #7CD556",
"j c #7CD656",
"k c #7DD756",
"l c #7AD852",
"z c #7BD853",
"x c #7CD854",
"c c #7ED957",
"v c #7FDC57",
"b c #7ED958",
"n c #7FD959",
"m c #80DD57",
"M c #80D95A",
"N c #80DF58",
"B c #82DA5C",
"V c #81E159",
"C c #82E259",
"Z c #83E45A",
"A c #88F05C",
"S c #85DB61",
"D c #88DB64",
"F c #8CDD6A",
"G c #9BE17D",
"H c #AFE797",
"J c #C0ECAD",
"K c #C8EEB8",
"L c #F3FBF0",
"P c #F9FDF7",
"I c #F9FDF8",
"U c #FCFEFB",
"Y c white",
/* pixels */
"cccccccccccccccckcbbMbckcccccccccccccczS",
"ccccccccccccccccccfuupbkcccccccccccccczS",
"cccccccccccccckccfGJJGfcckcccccccccccczS",
"cccccccccccccccciHYYYYHpbccccccccccccccS",
"cccccccccccccccbBLYIUYLBccccccccccccbbjS",
"cccccccccccccccfDIYYYYPDfcccccccccccbbzS",
"cccccccccccccccpSIYUIYISccccccccccccbbxS",
"ccccccccccccccccfJYYYYJfccccccccccccccxS",
"cccccccccccccckckfHKKHzcckccccccccccccbS",
"ccccccccccccccccbMiiuucccccccccccccccczS",
"cccccccccccccccckcbbbbczcccccccccccccczS",
"cccccccccccccccckkkkcbccckcccccccccccczS",
"cccccccccccccccmCCNCvvvcccckccccccccbbzS",
"cccccccccccckcct9qqqwygCckcccccccccccbbS",
"cccccccccccccck>X+o+$$-4ccfcccccccccccjS",
"cccccccccccckck<+*+O+$+ 3cckccccccccccxS",
"cccccccccccckck<O$$,;$+$@rmcccccccccccxS",
"cccccccccccccck<o+=ac3X= 5CkccccccccccxS",
"cccccccccccckck<++=aA6 * 4CkkcccccccccxS",
"cccccccccccccck<+$=aa1o=o6CxccccccccccxS",
"ccccccccccccxck<++@;=+$$+avkccccccccbbxS",
"cccccccccccccck<+$$o$$+ 4mckccccccccbbxS",
"cccccccccccckck<X$+$@$;6mcccccccccccbcbS",
"cccccccccccccck<+$=8wyxCccckcccccccccczS",
"cccccccccccckck<++*xCvckcccccccccccccczS",
"cccccccccccccck<++*avkkxckcccccccccccccS",
"ccccccccccccxck,X+&dvccccccccccccccccczS",
"cccccccccccckbk2$=-dcccccccccccccccccczS",
"cccccccccccccczggggcccccccccccccccccbbxS",
"ccccccccccccccccvccckcccccccccccccccbckS",
"ccccccccccccxbkcczccczccccccccccccccccxS",
"cccccccccccccccccccccccccccccccccccccczS",
"cccccccccccccccccccccccccccccccccccccccS",
"cccccccccccccccccccccccccccccccccccccczS",
"ccccccccccccccccccccccccccccccccccccccjS",
"cccccccccccccccccccccccccccccccccccccczS",
"ccccccbbccbbccccbbbcccbbccbbccbbccbbcccS",
"ccbbccbbccbbccccbbcccccbccbbccbbccbbcccS",
"xxxxxxxxzzxjxxxxxxxczzzbxxxxxxxxxxxxxkzM",
"SSSSSSSSSSSSSSSSSSSSSSSSSSSSSSSSSSSSSSSF"
};
