/* XPM */
static char *MTU_[] = {
/* columns rows colors chars-per-pixel */
"40 40 73 1 ",
"  c #261C28",
". c #271F28",
"X c #292329",
"o c #2A2329",
"O c #2B252A",
"+ c #2B272A",
"@ c #2C272B",
"# c #2C292B",
"$ c #2E2C2C",
"% c #2E2D2C",
"& c #2F2E2C",
"* c #2F302D",
"= c #31332D",
"- c #31342D",
"; c #353D2F",
": c #374131",
"> c #3A4632",
", c #3C4C33",
"< c #3E4E34",
"1 c #415535",
"2 c #4A6A3A",
"3 c #558140",
"4 c #588842",
"5 c #5C9144",
"6 c #5E9545",
"7 c #629C47",
"8 c #65A449",
"9 c #66A649",
"0 c #67A94A",
"q c #68AB4B",
"w c #6BB04C",
"e c #6FB94E",
"r c #77D54E",
"t c #78D74F",
"y c #76C852",
"u c #77C952",
"i c #78CC53",
"p c #79CF54",
"a c #7AD154",
"s c #7BD355",
"d c #7BD654",
"f c #7DD756",
"g c #7AD852",
"h c #7BD854",
"j c #7CD854",
"k c #7ED957",
"l c #7FDC57",
"z c #7FD958",
"x c #80DD57",
"c c #80D95A",
"v c #80DF58",
"b c #83DA5E",
"n c #84DA5F",
"m c #81E159",
"M c #82E259",
"N c #83E45A",
"B c #84E65A",
"V c #88F05C",
"C c #85DB61",
"Z c #87DB63",
"A c #89DC66",
"S c #8CDD6A",
"D c #9CE17F",
"F c #9FE382",
"G c #C8EEB8",
"H c #CAEFBA",
"J c #D3F2C6",
"K c #EDF9E8",
"L c #F3FBF0",
"P c #F4FBF1",
"I c #F4FCF1",
"U c #FAFDF9",
"Y c #FEFEFE",
/* pixels */
"kkkkkkkkkkkkkkkkkkkkkkkkkkkkkkkkkkkkkkdC",
"kkkkkkkkkkkkkkkkkkkkkkkkkkkkkkkkkkkkkkkC",
"kkkkkkkkkkkkkkkkkkkkkkkkkkkkkkkkkkkkkkhC",
"kkkkkkkkkkkkkkkkkkkkkkkkkkkkkkkkkkkkkkhC",
"kkkkkkkkkkkkkkkkkkkkkkkkkkkkkkkkkkkkkkhC",
"kkkkkkkkkkkkkkkkkkkkkkkkkkkkkkkkkkkkkkkC",
"kkkkkkkkkkkkkkkkkkkkkkkkkkkkkkkkkkkkkkdC",
"kkkkkkkkkkkkkkkkkkkkkkkkkkkkkkkkkkkkkkkC",
"kkkkkkkkkkkkkkkkkkkkkkkkkkkkkkkkkkkkkkhC",
"kkkkkkkkkkkkkkkkkkkkkkkkkkkkkkkkkkkkkkhC",
"kkkkkkkkkkkkkkkkkkfkkkkkkkkkkkkkkkkkkkhC",
"kkkkkkkkkkkkfkkkffffffkfkkkkkkkkkkkkkkkC",
"kkkkkkkkkkkkkfkxmmmmmmkkdkkdkkkkkkkkkkkC",
"kkkkkkkkkkkkkkkw88080eamkkkkkkkkkkkkkkdC",
"kkkkkkkfkkkkfkf,@####$;3dkkkkkkkkkkkkkhC",
"kkkkkkkkkggkkkf,@&#@@$# 2vdkfkkkkkkkkkhC",
"kkkkkkkgdZActff,@$$,:#$##qvzkkkkkkkkkkkC",
"kkkkkkknJUUKDff1@@=yz2o-o4BakkkkkkkkkkhC",
"kkkkkktHYYYYLCd,#$-yV6 =X3BffkkkkkkkkkkC",
"kkkkkdnIYYYYYFt,@#-yy1o-X5mhkkkkkkkkkkdC",
"kkkkkdbLYYYYYFt1o$$>-#=o#ylfkkkkkkkkkkhC",
"kkkkkktGYYYYLnd,@$$o#$oX3lkfkkkkkkkkkkhC",
"kkkkkkgbJUUKDtk<o$###$>6lkkkkkkkkkkkkkkC",
"kkkkkkkkgZAcdck,@$-7qegmkkkfkkkkkkkkkkhC",
"kkkkkkkkkdggkkf,o$-dBlkdkkfkkkkkkkkkkkdC",
"kkkkkkkkkkkkkkk,o#-ykfkkkkkkkkkkkkkkkkkC",
"kkkkkkkkkkkkkkf,##*ikkkkkkkkkkkkkkkkkkhC",
"kkkkkkkkkkkkdkf1*=;ikkkkkkkkkkkkkkkkkkhC",
"kkkkkkkkkkkkkkkapapkkkkkkkkkkkkkkkkkkkhC",
"kkkkkkkkkkkkkdklklkkdkkkkkkkkkkkkkkkkkkC",
"kkkkkkkkkkkkkkkdkdkkkkkkkkkkkkkkkkkkkkkn",
"kkkkkkkkkkkkkkkkkkkkkkkkkkkkkkkkkkkkkkhC",
"kkkkkkkkkkkkkkkkkkkkkkkkkkkkkkkkkkkkkkkC",
"kkkkkkkkkkkkkkkkkkkkkkkkkkkkkkkkkkkkkkdC",
"kkkkkkkkkkkkkkkkkkkkkkkkkkkkkkkkkkkkkkkC",
"kkkkkkkkkkkkkkkkkkkkkkkkkkkkkkkkkkkkkkgC",
"kkkkkkkkkkkkkkkkkkkkkkkkkkkkkkkkkkkkkkdC",
"kkkkkkkkkkkzkkkkkkkkkkkkkkkkkkkkkkkkkkkC",
"tkdkgkdjkhdgkkkghkhkdhhkdhkhhkdhkhhkdkgn",
"CCCCCCCCCCCCnCCCCCCCCCCCCCCCCCCCCCCCCCbS"
};
