/* XPM */
static char *MTE_[] = {
/* columns rows colors chars-per-pixel */
"40 40 67 1 ",
"  c #261C28",
". c #271E28",
"X c #271F28",
"o c #282029",
"O c #292229",
"+ c #2B262A",
"@ c #2B272A",
"# c #2C272B",
"$ c #2D2B2B",
"% c #2E2C2C",
"& c #2F302D",
"* c #31332D",
"= c #31342D",
"- c #353D2F",
"; c #374131",
": c #384431",
"> c #3A4632",
", c #3C4B33",
"< c #3D4E34",
"1 c #3F5135",
"2 c #415535",
"3 c #4A6A3A",
"4 c #558140",
"5 c #588842",
"6 c #5C9144",
"7 c #5D9445",
"8 c #5E9545",
"9 c #629C47",
"0 c #65A449",
"q c #66A649",
"w c #67A94A",
"e c #68AB4B",
"r c #6BB04C",
"t c #6FB94E",
"y c #78D74F",
"u c #76C852",
"i c #77C952",
"p c #77CB53",
"a c #79CF54",
"s c #7AD752",
"d c #7BD355",
"f c #7DD756",
"g c #7BD853",
"h c #7BD854",
"j c #7CD854",
"k c #7ED957",
"l c #7FDC57",
"z c #7ED958",
"x c #80DD57",
"c c #80DD58",
"v c #83DA5E",
"b c #84DA5F",
"n c #81E058",
"m c #81E159",
"M c #83E45A",
"N c #84E65A",
"B c #88F05C",
"V c #85DB61",
"C c #8CDD6A",
"Z c #8FDE6E",
"A c #C8EEB8",
"S c #CAEFBA",
"D c #D3F2C6",
"F c #F4FBF1",
"G c #F9FDF7",
"H c #FBFDF9",
"J c white",
/* pixels */
"kkkkkkkkkkkkkkkkkkkkkkkkkkkkkkkkkkkkkkhV",
"kkkkkkkkkkkkkkkkkkkkkkkkkkkkkkkkkkkkkkhV",
"kkkkkkkkkkkkkkkkkkkkkkkkkkkkkkkkkkkkkkhV",
"kkkkkkkkkkkkkkkkkkkkkkkkkkkkkkkkkkkkkkkV",
"kkkkkkkkkkkkkkkkkkkkkkkkkkkkkkkkkkkkkkgV",
"kkkkkkkkkkkkkkkkkkkkkkkkkkkkkkkkkkkkkkfV",
"kkkkkkkkkkkkkkkkkkkkkkkkkkkkkkkkkkkkkkgV",
"kkkkkkkkkkkkkkkkkkkkkkkkkkkkkkkkkkkkkkkV",
"kkkkkkkkkkkkkkkkkkkkkkkkkkkkkkkkkkkkkksV",
"kkkkkkkkkkkkkkkkkkkkkkkkkkkkkkkkkkkkkkkV",
"kkkkkkkkkkkkkkkkkkkkkkkkkkkkkkkkkkkkkkfV",
"kkkkkkkkkkkkhkkkfffffffkkfkkkkkkkkkkkksV",
"kkkkkkkkkkkkkkkxmmmmmlzkhkfkkkkkkkkkkkkV",
"kkkkkkkkkkkkfkkr00qqwtdmkkkfkkkkkkkkkkkV",
"kkkkkkkkkkkkkkf,O$$$$%-4hkhkkkkkkkkkfkfb",
"kkkkkkkkkkkkfkf<#$$##%# 3ckfkkkkkkkkkksv",
"kkkkkkkkkkkkfkf<#%%<;$$%#rczzkkkkkkkggVZ",
"kkkkkkkkkkkkkkf<O$*uk3#$O5MdkzkkkfksbDGG",
"kkkkkkkkkkkkfkf<#$*iB8 * 4NgfkkkkkzyAJJJ",
"kkkkkkkkkkkkkkf<+$*iu1$&O6NgkkkkkkkvFJJJ",
"kkkkkkkkkkkkhkf<+$$>=#%%$ulfkkkkkkgvFJJJ",
"kkkkkkkkkkkkkkf<#%$#$$+ 4xkfkkkkkkkyAJJJ",
"kkkkkkkkkkkkfkf<+$$$$%>7lkkkkkkkkfkgvDHG",
"kkkkkkkkkkkkkkf<+$*9etfmfkkfkkkkkkkkgsVZ",
"kkkkkkkkkkkkkkf<+$=hNckfkkfkkkkkkkkfkksb",
"kkkkkkkkkkkkhkf<+$*ukffhkhkkkkkkkkkkkkfV",
"kkkkkkkkkkkkfkf,O#*pkkkkkkkkkkkkkkkkkkhV",
"kkkkkkkkkkkkkkf2%=-ulkkkkkkkkkkkkkkkkkhV",
"kkkkkkkkkkkkkkhddadfkkkkkkkkkkkkkkkkkkkV",
"kkkkkkkkkkkkkfkkzlkzfkkkkkkkkkkkkkkkkkhV",
"kkkkkkkkkkkkfkfkhkkfkkkkkkkkkkkkkkkkkksV",
"kkkkkkkkkkkkkkkkkkkkkkkkkkkkkkkkkkkkkkkV",
"kkkkkkkkkkkkkkkkkkkkkkkkkkkkkkkkkkkkkkfV",
"kkkkkkkkkkkkkkkkkkkkkkkkkkkkkkkkkkkkkkhV",
"kkkkkkkkkkkkkkkkkkkkkkkkkkkkkkkkkkkkkkkV",
"kkkkkkkkkkkkkkkkkkkkkkkkkkkkkkkkkkkkkkhV",
"kkkkkkkkkkkkkkkkkkkkkkkkkkkkkkkkkkkkkksV",
"kkkkkkkkkkkkkkkkkkkkkkkzkkkkkkkkkkkkkkkV",
"skhfhkskhhhkfhhhhkfhkhfhhhfhkhhfhkhhfksb",
"VVVVVVVVVVVVVVVVVVVVVVVVVVVVVVVVVVVVVVvC"
};
