/* XPM */
static char *OQ__[] = {
/* columns rows colors chars-per-pixel */
"40 40 76 1 ",
"  c #261C28",
". c #282028",
"X c #292229",
"o c #2B232B",
"O c #2B252A",
"+ c #2C272B",
"@ c #2C282B",
"# c #2D2A2B",
"$ c #2D2B2B",
"% c #2D2B2C",
"& c #2F2F2C",
"* c #312F2E",
"= c #31332D",
"- c #31342D",
"; c #353D2F",
": c #374131",
"> c #384431",
", c #3C4B33",
"< c #3C4C33",
"1 c #3D4E34",
"2 c #3F5135",
"3 c #415535",
"4 c #4A6A3B",
"5 c #4D7F36",
"6 c #548F3A",
"7 c #558140",
"8 c #588444",
"9 c #598843",
"0 c #5E9545",
"q c #629C47",
"w c #65A449",
"e c #66A649",
"r c #67A94A",
"t c #68AB4B",
"y c #69BD45",
"u c #6BB04C",
"i c #6FB94E",
"p c #73D549",
"a c #78D74F",
"s c #79DE4E",
"d c #77C952",
"f c #78CC53",
"g c #79CF54",
"h c #78D750",
"j c #7AD752",
"k c #7BD355",
"l c #7DD756",
"z c #7BD853",
"x c #7BD854",
"c c #7ED957",
"v c #7FDC57",
"b c #7ED958",
"n c #7FDD58",
"m c #80DF58",
"M c #82DA5C",
"N c #84DA5F",
"B c #80E057",
"V c #80E556",
"C c #81E159",
"Z c #83E45A",
"A c #88F05C",
"S c #85DB61",
"D c #89DC66",
"F c #8CDD6A",
"G c #99E17B",
"H c #AFE797",
"J c #B6F59B",
"K c #BEE9AC",
"L c #C0ECAC",
"P c #CCF4BB",
"I c #CFFBBD",
"U c #F3FBF0",
"Y c #F9FDF7",
"T c #F9FDF8",
"R c #FCFEFB",
"E c #FEFEFE",
/* pixels */
"ccccccccccccccccccccccccccccccccccccccxS",
"cccccccccccccccccccccccccccccccccccccclS",
"ccccccccccccccccccccccccccccccccccccccxS",
"ccccccccccccccccccccccccccccccccccccccxS",
"ccccccccccccccccccccccccccccccccccccccxS",
"cccccccccccccccccccccccccccccccccccccccS",
"cccccccccccccccccccccccccccccccccccccclS",
"ccccccccccccccccccccccccccccccccccccccxS",
"ccccccccccccccccccccccccccccccccccccccxS",
"cccccccccccccccccccccccccccccccccccccccS",
"ccccccccccccccccccccccccccccccccccccccxS",
"cccccccccccclcclllllllccccccccccccccccxS",
"cccccccccccccccmnCCCCvccccclccccccccccxS",
"cccccccccccclccueeeetikCclcccccccccccclS",
"ccccccccccccccl,X@@@@%;7xclccccclcccccxS",
"cccccccccccclcl1O=@@@%@ 4vcbzzjccccccccS",
"ccccccccccccccl1O$$1:@@$@uVzNDMacccccczS",
"cccccccccccclcl1O$-dv4+&.9nKYYUHaccccccS",
"ccccccccccccccl1O$-dA0 =.5JEEEEEGzcccczS",
"ccccccccccccxcl1O$-dd2+*+6IEEEREKpcccczS",
"cccccccccccclcl1O$%<-O=@*yPEREREKpMccccS",
"ccccccccccccccl1$%$O@%O.8sHEEEEEGjccccxS",
"cccccccccccclcl1O$%$$%>0vcjKYYUHacccccxS",
"ccccccccccccccl1O$-qticCccczSDMzcclccclS",
"cccccccccccclcl1O@-zZvcxccccjzccclccccxS",
"ccccccccccccccl1O@=dcllccclcccccccccccxS",
"ccccccccccccxcl<O@%gvcccccccccccccccccxS",
"cccccccccccclcl3%-;fcccccccccccccccccccS",
"cccccccccccclccklkgxclcccccccccccccccclS",
"cccccccccccccxcccvcbccccccccccccccccccxS",
"ccccccccccccccxlclccclccccccccccccccccxS",
"ccccccccccccccccccccccccccccccccccccccxS",
"ccccccccccccccccccccccccccccccccccccccjS",
"cccccccccccccccccccccccccccccccccccccccS",
"ccccccccccccccccccccccccccccccccccccccxS",
"cccccccccccccccccccccccccccccccccccccccS",
"cccccccccccccccccccccccccccccccccccccclS",
"cccccccccccccccccccccccccccccccccccccccS",
"xlxcxxlxxxxclxcxxclxcxlxxxlxcxxlxcxxlcjN",
"SSSSSSSSSSSSSSSSSSSSSSSSSSSSSSSSSSSSSSMF"
};
