/* XPM */
static char *MTM_[] = {
/* columns rows colors chars-per-pixel */
"40 40 68 1 ",
"  c #261C28",
". c #271E28",
"X c #271F28",
"o c #282028",
"O c #292229",
"+ c #2A2329",
"@ c #2B272A",
"# c #2C272B",
"$ c #2C282B",
"% c #2E2C2C",
"& c #2E2D2C",
"* c #2F2E2C",
"= c #30312D",
"- c #31332D",
"; c #31342D",
": c #31342E",
"> c #353C30",
", c #374131",
"< c #3A4632",
"1 c #3C4B33",
"2 c #3D4E34",
"3 c #3E4E34",
"4 c #3F5135",
"5 c #415535",
"6 c #4A6A3A",
"7 c #558140",
"8 c #588842",
"9 c #5C9144",
"0 c #5D9445",
"q c #629C47",
"w c #65A449",
"e c #66A64A",
"r c #67A94A",
"t c #68AB4B",
"y c #6BB04C",
"u c #6FB94E",
"i c #76C852",
"p c #76C952",
"a c #77CB53",
"s c #78CC53",
"d c #7AD752",
"f c #7AD155",
"g c #7CD556",
"h c #7DD756",
"j c #7BD853",
"k c #7DD857",
"l c #7ED957",
"z c #7FDC57",
"x c #7ED958",
"c c #80DD57",
"v c #80DD58",
"b c #81D95C",
"n c #84DA5F",
"m c #82E259",
"M c #84E65A",
"N c #88F05C",
"B c #84DA60",
"V c #85DB61",
"C c #87DB63",
"Z c #88DC64",
"A c #8CDD6A",
"S c #8DDD6B",
"D c #90DE6E",
"F c #E0F6D7",
"G c #E2F6D9",
"H c #F9FDF7",
"J c #FAFDF8",
"K c white",
/* pixels */
"lllllllllllllllllllllllllllllllllllllljV",
"llllllllllllllllllllllllllllllllllllllxV",
"lllllllllllllllllllllllllllllllllllllldV",
"lllllllllllllllllllllllllllllllllllllljV",
"llllllllllllllllllllllllllllllllllllxxjV",
"lllllllllllllllllllllllllllllllllllllllV",
"llllllllllllllllllllllllllllllllllllllhV",
"lllllllllllllllllllllllllllllllllllllllV",
"lllllllllllllllllllllllllllllllllllllljV",
"llllllllllllllllllllllllllllllllllllllhV",
"llllllllllllllllllhxllxxlllllllllllllljV",
"lllllllllllljlllhhhhhhjllhlllllllllllljV",
"lllllllllllllllcmmmvmzzljlhllllllllllxjV",
"llllllllllllhllywwwwrufmxllhlllllllllxlV",
"llllllllllllllh1+#%%$%>7jxjlllllllllllhV",
"llllllllllllhlh2#%%@#%$ 6vlhlllllllllljV",
"llllllllllllxlf5#%%4,$%&@tmgxllllllllljV",
"llllllllllllhhh2+%-iz6@=o8MglllllllllllV",
"llllllllllllllh2@%-iN0o=o7MfglllllllllhV",
"llllllllllllhlj2@$;ii4@=+9MjlllllllllljV",
"llllllllllllhlh2+%&<;+&$$izlllllllllxxjV",
"llllllllllllllh2$%&$&&$o7zlgllllllllxxjV",
"llllllllllllhxj2+%$$$%<0zlllllllllllxllV",
"llllllllllllxlh2$%;qrujmlllllllllllllljV",
"llllllllllllhlh2$%=jmzlhllllllllllllllhV",
"lllllllllllllll4+$;iljlhljlllllllllllljV",
"llllllllllllhlj<+$=szxlllllllllllllllllV",
"llllllllllllllh5=;>slllllllllllllllllljV",
"lllllllllllllldfffaxllllllllllllllllxxhV",
"llllllllllllllxlxzzlhllllllllllllllllljV",
"lllllllllllljxhlljlllllllllllllllllllljV",
"lllllllllllllxllllljjdlllllllllllllllljV",
"llllllllllllllllbdhZZhdblllllllllllllljV",
"llllllllllllllhxdSFHJFSdlhlllllllllllllV",
"llllllllllllllllhFKKKKFhlllllllllllllllV",
"llllllllllllllldVHKKKKJVdllllllllllllljV",
"llxxllllllllllljVJKKKKJVdxllllllllxxllhn",
"llxxllxxlllxllllxGKKKKGhlllllllxllxxlllV",
"jljjhjldjljhhjjldSGJHFAdljhjljjhjljjhldV",
"VVVVVVVVVVVVVVVVVbbDDbbVnVVVVVVVVVVVVVbS"
};
