/* XPM */
static char *MTc_[] = {
/* columns rows colors chars-per-pixel */
"40 40 68 1 ",
"  c #261C28",
". c #271F28",
"X c #282028",
"o c #292329",
"O c #2A2329",
"+ c #2B272A",
"@ c #2C272B",
"# c #2C282B",
"$ c #2D2A2B",
"% c #2E2C2C",
"& c #2E2D2C",
"* c #2F302D",
"= c #30312D",
"- c #31332D",
"; c #31342D",
": c #31342E",
"> c #353D2F",
", c #374131",
"< c #384431",
"1 c #3A4632",
"2 c #3C4C33",
"3 c #3F5135",
"4 c #415535",
"5 c #4A6A3A",
"6 c #558140",
"7 c #588842",
"8 c #5C9144",
"9 c #5E9545",
"0 c #629C47",
"q c #65A449",
"w c #67A94A",
"e c #68AB4B",
"r c #6BB04C",
"t c #6FB94E",
"y c #78D74F",
"u c #76C852",
"i c #76C952",
"p c #78CC53",
"a c #79CF54",
"s c #79D054",
"d c #7AD155",
"f c #7BD355",
"g c #7DD756",
"h c #7BD853",
"j c #7BD854",
"k c #7CD854",
"l c #7ED957",
"z c #7FDC57",
"x c #7FD958",
"c c #80DD57",
"v c #80DD58",
"b c #83DA5E",
"n c #82E259",
"m c #83E45A",
"M c #84E65A",
"N c #88F05C",
"B c #85DB61",
"V c #87DB63",
"C c #88DC64",
"Z c #8CDD6A",
"A c #C8EEB8",
"S c #D2F1C4",
"D c #D3F2C6",
"F c #F4FCF1",
"G c #F8FDF6",
"H c #FAFDF9",
"J c #FDFEFD",
"K c white",
/* pixels */
"lllllllllllllllllllllllllllllllllllllljV",
"lllllllllllllllllllllllllllllllllllllljB",
"lllllllllllllllllllllllllllllllllllllljV",
"lllllllllllllllllllllllllllllllllllllljV",
"lllllllllllllllllllllllllllllllllllllljB",
"lllllllllllllllllllllllllllllllllllllljB",
"lllllllllllllllllllllllllllllllllllllljV",
"lllllllllllllllllllllllllllllllllllllljB",
"lllllllllllllllllllllllllllllllllllllljV",
"lllllllllllllllllllllllllllllllllllllljB",
"llllllllllllllllllgxlllllllllllllllllljV",
"llllllllllllglllggggggjllllllllllllllljV",
"lllllllllllllllcnnnvnzzlgllglllllllllljB",
"llllllllllllgllrqqeqwtdnljlllllllllllljB",
"llllllllllllllg2O%@##%>6jlgllllllllllljV",
"hhllgllllllljlg2#%##@%# 5vjlgllllllllljB",
"CVhhlhllllllgll3O%%2,#%%+ezxxllllllllljV",
"GHDbhlllllllllg2#%;iz5O*X7MdlllllllllljB",
"KKKAylllllllgll2#%;iN9X-X6MjjllllllllljV",
"KKKFbklllllllll2++-ii3#*O8MlxllllllllljV",
"KJKFblllllllllh2+#*1;#%$#izgxllllllllljB",
"KKKAylllllllglg2#%%##%OX6zxjlllllllllljB",
"GGSbdlgllllllll3#%###%19zxxllllllllllljV",
"CVyfllllllllglg2O#;0ethnllxjlllllllllljB",
"hhllllllllllllg2+#;fMzlglllllllllllllljV",
"lllllllllllljll2+%;ilglglhlllllllllllljB",
"llllllllllllllh2X#*plllllllllllllllllljV",
"lllllllllllllll4*;>plllllllllllllllllljV",
"llllllllllllllladdslljlllllllllllllllljB",
"llllllllllllllllxzlllllllllllllllllllljB",
"lllllllllllldllhlllhlglllllllllllllllljV",
"lllllllllllllllllllllllllllllllllllllljV",
"lllllllllllllllllllllllllllllllllllllljb",
"lllllllllllllllllllllllllllllllllllllllV",
"lllllllllllllllllllllllllllllllllllllljV",
"lllllllllllllllllllllllllllllllllllllljb",
"lllllllllllllllllllllllllllllllllllllljV",
"lllllllllllllllllllllllllllllllllllllllb",
"hflhjhhjjjjjjhjjjjjjjjjjjjjjjjjjjjjjjjhV",
"VbCbCCCbVVBBVBVCBBVBVVBBVBVBVBVBVBVBVBbZ"
};
