/* XPM */
static char *MTI_[] = {
/* columns rows colors chars-per-pixel */
"40 40 84 1 ",
"  c #261C28",
". c #271E28",
"X c #271F28",
"o c #282029",
"O c #292229",
"+ c #2B262A",
"@ c #2B272A",
"# c #2C272B",
"$ c #2D2B2B",
"% c #2D2B2C",
"& c #2E2C2C",
"* c #2F2E2C",
"= c #2F302D",
"- c #31332D",
"; c #31342D",
": c #303B28",
"> c #353D2F",
", c #374131",
"< c #384431",
"1 c #3A4632",
"2 c #3C4B33",
"3 c #3D4E34",
"4 c #3F5135",
"5 c #415535",
"6 c #4A6A3A",
"7 c #558140",
"8 c #568441",
"9 c #588842",
"0 c #5C9144",
"q c #5D9445",
"w c #5E9545",
"e c #629C47",
"r c #65A449",
"t c #66A649",
"y c #67A94A",
"u c #68AB4B",
"i c #6BB04C",
"p c #6FB94E",
"a c #72BF50",
"s c #77D64F",
"d c #78D74F",
"f c #76C852",
"g c #77C952",
"h c #77CE51",
"j c #7DCE5A",
"k c #7BD753",
"l c #7AD154",
"z c #7BD355",
"x c #7DD756",
"c c #7AD852",
"v c #7CDA53",
"b c #7BD854",
"n c #7ED957",
"m c #7EDB57",
"M c #7FD15C",
"N c #7ED858",
"B c #7FDB58",
"V c #80DD57",
"C c #80D959",
"Z c #80DD58",
"A c #83DA5E",
"S c #84DA5F",
"D c #85DD5F",
"F c #81E058",
"G c #81E159",
"H c #83E45A",
"J c #84E65A",
"K c #88F05C",
"L c #85DB61",
"P c #86DB62",
"I c #8CDD6A",
"U c #9DE27F",
"Y c #9DE280",
"T c #C4E6B6",
"R c #C8EEB8",
"E c #D3F2C6",
"W c #D4F4C7",
"Q c #EDF9E8",
"! c #F4FBF0",
"~ c #F4FBF1",
"^ c #FAFCF8",
"/ c #FAFDF8",
"( c #FDFEFD",
") c white",
/* pixels */
"nnnnnnnnnnnnnnnnnnnnnnnnnnnnnnnnnnnnnnbP",
"nnnnnnnnnnnnnnnnnnnnnnnnnnnnnnnnnnnnnnbP",
"nnnnnnnnnnnnnnnnnnnnnnnnnnnnnnnnnnnnnnbP",
"nnnnnnnnnnnnnnnnnnnnnnnnnnnnnnnnnnnnnnbP",
"nnnnnnnnnnnnnnnnnnnnnnnnnnnnnnnnnnnnnnbL",
"nnnnnnnnnnnnnnnnnnnnnnnnnnnnnnnnnnnnnnbP",
"nnnnnnnnnnnnnnnnnnnnnnnnnnnnnnnnnnnnnnbP",
"nnnnnnnnnnnnnnnnnnnnnnnnnnnnnnnnnnnnnnbP",
"nnnnnnnnnnnnnnnnnnnnnnnnnnnnnnnnnnnnnnbP",
"nnnnnnnnnnnnnnnnnnnnnnnnnnnnnnnnnnnnnnbL",
"nnnnnnnnnnnnnnnnnnxnnnnnnnnnnnnnnnnnnnbL",
"nnnnnnnnnnnnbnnnxxxxxnnnnxnnnnnnnnnnnnnP",
"nnnnnnnnnnnnnnnVGGGGGBnnbnxnnnnnnnnnnnbL",
"nnnnnnnnnnnnxnnirryryplGnnnxnnnnnnnnnnbP",
"nnnnnnnnnnnnnnx2O$$$$&>7bnbnnnnnnnnnnnbP",
"nnnnnnnnnnnnxnx3#*$+#&# 6ZnxnnnnnnnnnnbP",
"nnnnnnnnnnnnnnx3#$&3,$&&+iBnBnnnnnnnnnbP",
"nnnnnnnnnnnnxnx3O$-fn6+&O9HlnNnnnnnnnnbP",
"nnnnnnnnnnnnnnx3#$-gKwO; 7HnnnnnnnnnnnbP",
"nnnnnnnnnnnnknx3+$-gf4+&OqJcnnnnnnnnnnxP",
"nnnnnnnnnnnnxnx3+$$1-#*$*anxnnnnnnnnnncP",
"nnnnnnnnnnnnnnx3#&$#$$+ 7GnxnnnnnnnnnnbP",
"nnnnnnnnnnnnxnx3+$$$$&1qBnbnnnnnnnnnnnbP",
"nnnnnnnnnnnnnnx3+$-eupxGnnnnnnnnnnnnnnbP",
"nnnnnnnnnnnnnnx3+$-nJBnxnncnnnnnnnnnnnbP",
"nnnnnnnnnnnnxnx3+$-gnxxbnnnnnnnnnnnnnncP",
"nnnnnnnnnnnnnnx2O+-fnnBnnnnnnnnnnnnnnnbP",
"nnnnnnnnnnnnbnx5=;:jDscnnnnnnnnnnnnnnnnP",
"nnnnnnnnnnnnnnnlhMT~!RAcnnnnnnnnnnnnnnbP",
"nnnnnnnnnnnnnxnncW))))EknnnnnnnnnnnnnnbP",
"nnnnnnnnnnnnxnnkP^))))/PknnnnnnnnnnnnnbP",
"nnnnnnnnnnnnnnnkP^))))/PcnnnnnnnnnnnnnbP",
"nnnnnnnnnnnnnnnxBQ))))QCxnnnnnnnnnnnnnbP",
"nnnnnnnnnnnnnnnnsU!))!UdCnnnnnnnnnnnnnbP",
"nnnnnnnnnnnnnnnxBkPYUPsnxnnnnnnnnnnnnnbA",
"nnnnnnnnnnnnnnnnxNcsskxnnnnnnnnnnnnnnnnP",
"nnnnnnnnnnnnnnnnxBxBNxbnnnnnnnnnnnnnnnkP",
"nnnnnnnBnnnnnnnnBxBxBBNBnnnnnnnnnnnnnnnP",
"bcnbncbbbnbbkkbbkbBbxbcbkcnbnbncbbbbbbkS",
"PPPAPPPPPPPPPPPPLPPAPPLLPPPSPAPPPPPPPPAI"
};
