/* XPM */
static char *MjA_[] = {
/* columns rows colors chars-per-pixel */
"40 40 70 1 ",
"  c #261C28",
". c #282028",
"X c #2A2329",
"o c #2B252A",
"O c #2B272A",
"+ c #2C272B",
"@ c #2C292B",
"# c #2D2A2B",
"$ c #2D2B2C",
"% c #2E2C2C",
"& c #2E2E2C",
"* c #2F2F2C",
"= c #2F302D",
"- c #31332D",
"; c #31342D",
": c #353C30",
"> c #374131",
", c #384431",
"< c #3C4B33",
"1 c #3D4E34",
"2 c #3F5135",
"3 c #415535",
"4 c #4A6A3A",
"5 c #558140",
"6 c #568441",
"7 c #588842",
"8 c #5C9144",
"9 c #5E9545",
"0 c #629C47",
"q c #65A449",
"w c #66A64A",
"e c #67A94A",
"r c #68AB4B",
"t c #6BB04C",
"y c #6FB94E",
"u c #72BF50",
"i c #78D74F",
"p c #76C852",
"a c #78CC53",
"s c #79CF54",
"d c #7AD752",
"f c #7AD154",
"g c #7CD656",
"h c #7DD756",
"j c #7AD853",
"k c #7BD854",
"l c #7DD856",
"z c #7ED957",
"x c #7EDB57",
"c c #7FDC57",
"v c #7FD958",
"b c #80DD57",
"n c #80DD58",
"m c #80DF58",
"M c #83DA5E",
"N c #81E159",
"B c #82E259",
"V c #84E65A",
"C c #88F05C",
"Z c #85DB61",
"A c #86DB62",
"S c #87DB62",
"D c #8CDD6A",
"F c #C8EEB8",
"G c #D2F1C4",
"H c #F4FCF1",
"J c #F8FDF6",
"K c #FBFDF9",
"L c #FDFEFD",
"P c white",
/* pixels */
"zzzzzzzzzzzzzzzjSJPPPPJSdzzzzzzzlvllvllZ",
"zzzzzzzzzzzzzzzdSKPPPPJSdzzzzzzzvxxvvxlA",
"zzzzzzzzzzzzzzzzdGPPPPGdvzzzzzzzvllvlxlZ",
"zzzzzzzzzzzzzzzzjMFHHFMzzhzzzzzzlvxlvllZ",
"zzzzzzzzzzzzzzzhzkiMMidzzzzzzzzzvlvvlxkZ",
"zzzzzzzzzzzzzzzzzznjhvzzzzzzzzzzxllxlllZ",
"zzzzzzzzzzzzzzzzzhzzhzhzzzzzzzzzlvvlxllZ",
"zzzzzzzzzzzzzzzzzzzzzzzzzzzzzzzzvxlvxlkZ",
"zzzzzzzzzzzzzzzzzzzzzzzzzzzzzzzzxvlxvllZ",
"zzzzzzzzzzzzzzzzzzzzzzzzzzzzzzzzlvvllvlZ",
"zzzzzzzzzzzzzzzzzzzzzzzzzvzzzzzzvllvxvlZ",
"zzzzzzzzzzzzkzzzhhhhhzzkzkzzzzzzxlvxvllZ",
"zzzzzzzzzzzzzzzbNNNNNcvvkzhkzzzzlxvlxlkZ",
"zzzzzzzzzzzzhzztqqwweyfNvzvzzzzzvllvlllZ",
"zzzzzzzzzzzzzzh<O#O#$%:5kvhvzzzzxvvxlxlZ",
"zzzzzzzzzzzzhzh1+%#+O%@ 4ckzhzzzlvllvlkZ",
"zzzzzzzzzzzzhzh1O%%<>#%%OtNzzzzzlvllvllZ",
"zzzzzzzzzzzzzzh1X#;pz4O=X7BkzzzzvxxvvxlA",
"zzzzzzzzzzzzhzh1O%;pC9.= 6BzzzzzvllvlxlA",
"zzzzzzzzzzzzzzh1O%;pp2O=X7BzzzzzlvxlvllZ",
"zzzzzzzzzzzzkzh1X%%,;#%%#pchzzzzvlvvlckZ",
"zzzzzzzzzzzzzzh1+%%O##XX5nvkzzzzxllxlllZ",
"zzzzzzzzzzzzhzh1O%###%,9cvhvzzzzlvvlxllZ",
"zzzzzzzzzzzzzzh1O#-0eyhNzzvdzzzzvxlvxlkZ",
"zzzzzzzzzzzzzzh1O%;hNczhzzzzzzzzlxvlxvlZ",
"zzzzzzzzzzzzkzh1O#;pvkzhvkzzzzzzvllvvlkA",
"zzzzzzzzzzzzhzh<XO-pczzzzzzzzzzzxvvclllA",
"zzzzzzzzzzzzzzh3%-:azzzzzzzzzzzzlvllxvlZ",
"zzzzzzzzzzzzkzzffffzzzzzzzzzzzzzlclvlckZ",
"zzzzzzzzzzzzvzzzvczzhzzzzzzzzzzzvlvlvllZ",
"zzzzzzzzzzzzkzzkkzzkzkzzzzzzzzzzlvlvlvlZ",
"zzzzzzzzzzzzzzzvvzzzzzzzzzzzzzzzclvlclkZ",
"zzzzzzzzzzzzzzzzzzzzzzgngMfhvvcvllvlvllZ",
"zzzzzzzzzzzzzzzzzzzzzzngngzhkvvkvvvclckA",
"zzzzzzzzzzzzzzzzzzzzzngnhzbhlvckvllvvlkZ",
"zzzzzzzzzzzzzzzzzzzzzhngnzhbvlvvlvxllvkZ",
"zzzzzzzzzzzzzzzzzzzzzzzzhvzkvzkvxvllllkZ",
"zzzzzzzzzzzzzzzzzzzzzzzzhzvkkvkvvlcllvkZ",
"kkkkkkkkkkkkkkkkkkkkkkkkhhzkzkvkllkkllkZ",
"SSSZSZSZSAZZSSSAZAAAAAZZSSZZSSZZZAAZAAZD"
};
