/* XPM */
static char *Mw__[] = {
/* columns rows colors chars-per-pixel */
"40 40 81 1 ",
"  c #181616",
". c #1D1B1B",
"X c #1F1D1D",
"o c #201E1E",
"O c #232121",
"+ c #252323",
"@ c #272525",
"# c #282626",
"$ c #2B2929",
"% c #2D2A2A",
"& c #2D2C2C",
"* c #2E2C2C",
"= c #312F2F",
"- c #323131",
"; c #333131",
": c #343333",
"> c #373535",
", c #393737",
"< c #393838",
"1 c #3C3A3A",
"2 c #3F3E3E",
"3 c #413F3F",
"4 c gray25",
"5 c #464646",
"6 c gray28",
"7 c #484747",
"8 c #494848",
"9 c #4D4B4B",
"0 c #515050",
"q c #535353",
"w c #565656",
"e c #565757",
"r c #5A5959",
"t c #5C5A5A",
"y c #5D5D5D",
"u c gray37",
"i c #5F5E5E",
"p c #646262",
"a c #676565",
"s c #696868",
"d c #706F6F",
"f c #747272",
"g c #777676",
"h c #797878",
"j c #7F7E7E",
"k c #828080",
"l c #838282",
"z c #878686",
"x c #888787",
"c c #8E8C8C",
"v c #929191",
"b c #9B9A9A",
"n c gray62",
"m c #A1A0A0",
"M c #A3A2A2",
"N c #A8A7A7",
"B c #AAA9A9",
"V c #ACAAAA",
"C c #AFAFAF",
"Z c #B3B2B2",
"A c #B5B4B4",
"S c #BAB9B9",
"D c #BCBBBB",
"F c #C2C1C1",
"G c #CBCBCB",
"H c gray80",
"J c gray82",
"K c gray84",
"L c gray86",
"P c #DDDCDC",
"I c gray88",
"U c #E1E0E0",
"Y c #E2E1E1",
"T c gray90",
"R c gray91",
"E c #EAEAEA",
"W c #EEEEEE",
"Q c #F2F1F1",
"! c #F6F6F6",
"~ c #F9F9F9",
"^ c white",
/* pixels */
"***************-0w00qqw0-%**************",
"***************%8w0eqqw6$***************",
"***************#4ew0qqe4$***************",
"***************$2wqqqqw2$*%*************",
"***************@2wqqqqw2$***************",
"***************$2wqqqqw2$***************",
"***************$2wqwqqe2$%%*************",
"**********%****$6e0000e6$***************",
"*********%****$*<<-***>3****%*$*********",
"**********%*****%$****$%*%%*************",
"*************%***********%****$*********",
"******%****$%*********%***$*************",
"*******%*$*$*-***%*-=%%***-*$*$**%******",
"**********%*OXO***@Xo#***OXO*****$**&**&",
"%**%***%*$*$sva$*$4xz4$*$sva$**$***$***&",
"-%$$$$$$**-Xm^L*=Xl^^jo*-Y^bX***$$$$$$$:",
"08422228<%=Oa^!6$+Z^^C+#9~^i+=%<6222226y",
"qwrwwwwe<$*$1W^fX>T~^I-.h^E,#=%<ewwwwwqi",
"qqqq0w00-%**$F^n r^GJ^w m^D#**%-qqqq000i",
"0wqqq0ww=**=Xv^H.z^vb^lXJ^cX=*%=0wqqww0i",
"qwqq00e0=%**Op^Q>A^as^C,!^i+***=qw0qqq0i",
"qqqqw000-%**$<W^sY^26^Ld^E>$**%-00qqqq0i",
"0wewwwww<$***@S^V!K%%PQB^S@***$<wwwwee0i",
"06422236<%**-Xv^T^m++N^T^xX=**%16222446r",
"-%$$$$$$$****@p^^^fOOg^^^t+**%**$$$$$$$-",
"%******%***$*$>I~E2$@6E~P-$***$********$",
"******%********>,>***%><,%*******$******",
"********$****$*$$$*%**$$$%**$%**********",
"*********$*$*%*****%%********%**********",
"************$*%***********$***%*%*******",
"****************$$%*%*$**$$*************",
"*********$*%****<<-**-<<****%*%*********",
"***********%***$6e000qe6$***************",
"***************$2wqqqqw2$*$*************",
"***************$2wqqqqe2$***************",
"***************@4eqqqqe2$***************",
"*************%*$2qqqqqw2$***************",
"***************$4eqqwqe4$***************",
"***************%5q000006$***************",
"**************%-yiiyiiii-%**************"
};
