/* XPM */
static char *MQ__[] = {
/* columns rows colors chars-per-pixel */
"40 40 89 1 ",
"  c #181616",
". c #1A1818",
"X c #1D1B1B",
"o c #1F1C1C",
"O c #201E1E",
"+ c #232121",
"@ c #242121",
"# c #272525",
"$ c #282626",
"% c #2A2828",
"& c #2B2828",
"* c #2C2A2A",
"= c #2D2C2C",
"- c #2F2D2D",
"; c #302E2E",
": c #302F2F",
"> c #313030",
", c #353333",
"< c #353434",
"1 c #373535",
"2 c #383737",
"3 c #393737",
"4 c #393838",
"5 c #3D3B3B",
"6 c #3F3D3D",
"7 c #403F3F",
"8 c #413F3F",
"9 c #424141",
"0 c #454444",
"q c #484646",
"w c gray29",
"e c #4D4B4B",
"r c #515151",
"t c gray32",
"y c #535353",
"u c #545353",
"i c gray33",
"p c #565656",
"a c #5A5959",
"s c #5C5A5A",
"d c gray36",
"f c gray37",
"g c #5F5E5E",
"h c #615F5F",
"j c #646262",
"k c #676565",
"l c #676767",
"z c #6A6868",
"x c #6D6C6C",
"c c #706F6F",
"v c #747272",
"b c #797878",
"n c #7F7E7E",
"m c #838282",
"M c #878686",
"N c #888787",
"B c #8C8B8B",
"V c #8E8C8C",
"C c #929191",
"Z c #949393",
"A c #9A9999",
"S c #9B9A9A",
"D c gray62",
"F c #A1A0A0",
"G c #A8A7A7",
"H c #AAA9A9",
"J c #ACAAAA",
"K c #AEADAD",
"L c #B3B2B2",
"P c #B5B4B4",
"I c #BAB9B9",
"U c #BCBBBB",
"Y c #C2C1C1",
"T c #CBCBCB",
"R c gray80",
"E c gray82",
"W c gray84",
"Q c gray86",
"! c #DEDDDD",
"~ c gray88",
"^ c #E2E1E1",
"/ c gray90",
"( c #EAEAEA",
") c #EEEEEE",
"_ c #F2F1F1",
"` c #F6F6F6",
"' c #F9F9F9",
"] c gray98",
"[ c white",
/* pixels */
"iiiiiiiiiiiiiiiiiiiiiiiiiiiiiiiiiiiiiiyd",
"iiiiiiiiiiiiiiiiiiiiiiiiiiiiiiiiiiiiiiyf",
"iiiiiiiiiiiiiiiiiiiiiiiiiiiiiiiiyyiiiiyf",
"iiiiiiiyiyyyyyyiyiiiiiiyiyyyyyyiyiiiiiyd",
"iiiiiyyiiiyyiiyyiyyyiyyiiiiiiyyyyiyiyyyg",
"iiiiyyiyiiiyyuiyyyyyyyyyiiiyyyiiyyyyyyrd",
"iiiiyyyii03;;,8yiiiyiyyiy61->30iyyiiiiyg",
"iiiyiyyy3*%-***;wiyyyyiw;%%*-*%3yiiiiiyf",
"iiiiiii3%--**;**;3;-;;3;%-*--*-%2yyypyyd",
"iiiyii0%-**-;**;***-****---**-*-%0pypyyf",
"iiiyyi3%-*-**-**;*-*----**--*--*-2yyyyyf",
"iiiyyy>---*-*-----*--**-*-****--%:ypyyyf",
"iiiyiy;**-**;>;**-*>;-*-*;>;-**---yyyyyf",
"iiiyyy,*-*-*@X+--*%oo%-*-@X@*-*-%1yypyrf",
"iiiyyi9%**-*zCk%-%9NM8%;%zCk$-*-%7yyyyyd",
"iiiiyuy-*-;OF[Q-;om[[nO;;^[SO>**:yyyypyd",
"iiiyiyiw;-;+k[`q%#L[[K@%e'[g@;*;wyiiiiyg",
"iiiiyyui4%-%5)[vo1/'[!,ob[(4%;*4yyiiiiyd",
"iiiiyyyy>*-*%Y[D a[TE[i.F[U$-**>yyyiiiyg",
"iiiiiyyy;*->oC[RXM[ZS[moE[Vo;--;yiyiiiyd",
"iiiiiyiy;*-;@j[_1P[kx[L3`[g@;**;yyyyiyrg",
"iiiiyyiy,**-%3)[z^[60[Qx[(1%--*,yiyyiyyg",
"iiiiyyui4*---$U[J`W*-!_H[I$---%4iiyyiiyd",
"iiiyiuiw;*-*;OC[/[F++G[/[BO;*-*;wiyiiiyd",
"iiiiyiy;**;-;@h[[[c@+b[[[s@;-*-%:yyyiiyg",
"iiiyyi8*-***-*3^'(8*$0('!,%-*-*-%6yiyiyf",
"iiiyiy,**-*-*-*,31*--*,4,*-*-*--%1yiyiyg",
"iiiyiy;*-*---*-*%%;**-**%-*-**-*-:yiyiyf",
"iiiyiy;*;*;****;---**;-*-----*--=:yyyyyf",
"iiiyyi3***-***;*-**-*;*;*****-**=2yypyrf",
"iiiyii0%*;**;;*-***-****-**--*--%0yyyyyd",
"iiiiiiu3%;;*;*-*;3;-;;3;*-*--*-%2pyyypyf",
"iiiyiyiy1%%--%%:wiyyyriw:%%--%%2yyyiypyf",
"iiiiyiyiy02>-16yyyiiyyiiy71-:20yyyiyypyd",
"iiiiyyiyyiiyyiyyiyiiyyyyyyyyyyiiyiyyyyyg",
"iiiiiyyiiyiiiiyyyyyiyiyiiyyyiiiiiyyiyyrg",
"iiyyiiiiiyyyyyyiyiiiiiyyiiiyyyiiyiyiiiyd",
"iiyyiiiyiiyyiiiiyyiiiiyyiiyyiiyyiiyyiiyd",
"yyyyyyryyyryyryyyyyyyyyyyyryyyyyyyyyyyyd",
"gggggggadgggdgggffdffddggggddfgdgfgdfddl"
};
