/* XPM */
static char *Mg__[] = {
/* columns rows colors chars-per-pixel */
"40 40 93 2 ",
"   c #181616",
".  c #1A1818",
"X  c #1D1B1B",
"o  c #1F1C1C",
"O  c #201E1E",
"+  c #232121",
"@  c #242222",
"#  c #262424",
"$  c #2A2727",
"%  c #2B2828",
"&  c #2B2929",
"*  c #2C2A2A",
"=  c #2E2D2D",
"-  c #302E2E",
";  c #312F2F",
":  c #333131",
">  c #343333",
",  c #353333",
"<  c #363434",
"1  c #393737",
"2  c #3A3838",
"3  c #3A3939",
"4  c #3D3B3B",
"5  c #3D3C3C",
"6  c #403F3F",
"7  c #424141",
"8  c #464444",
"9  c #464545",
"0  c #484747",
"q  c #4B4A4A",
"w  c #4F4E4E",
"e  c #504F4F",
"r  c #535252",
"t  c #535353",
"y  c #535454",
"u  c gray33",
"i  c #585757",
"p  c #595858",
"a  c #5C5A5A",
"s  c gray36",
"d  c gray37",
"f  c #615F5F",
"g  c #5F6060",
"h  c #606060",
"j  c #646262",
"k  c #656464",
"l  c #6A6868",
"z  c #6D6C6C",
"x  c #706F6F",
"c  c #747272",
"v  c #777676",
"b  c #797878",
"n  c #7F7E7E",
"m  c #828080",
"M  c #838282",
"N  c #878686",
"B  c #888787",
"V  c #8C8B8B",
"C  c #8E8C8C",
"Z  c #918F8F",
"A  c #929191",
"S  c #949393",
"D  c #9A9999",
"F  c gray62",
"G  c #A1A0A0",
"H  c gray63",
"J  c #AAA9A9",
"K  c #ACAAAA",
"L  c #AFAFAF",
"P  c #B3B2B2",
"I  c #B5B4B4",
"U  c #BAB9B9",
"Y  c #BCBBBB",
"T  c #C0BFBF",
"R  c #C2C1C1",
"E  c #CBCBCB",
"W  c gray80",
"Q  c #D2D2D2",
"!  c gray84",
"~  c #DADADA",
"^  c #DDDCDC",
"/  c #DEDDDD",
"(  c #E1E0E0",
")  c #E2E1E1",
"_  c gray90",
"`  c gray91",
"'  c #EAEAEA",
"]  c #EEEEEE",
"[  c #F2F1F1",
"{  c #F6F6F6",
"}  c #F9F8F8",
"|  c gray98",
" . c white",
/* pixels */
"t u u u u q 3 : ; ; , 4 q u t t t t t u u t t u t u u q 5 , = ; , 4 q t u t t p ",
"u t u w 1 * & * * & & $ * 3 u r t u t u u t u t t t 3 & & * * * * * * 1 e u t d ",
"t t q ; & ; = = & ; & ; ; * , e u t u t t u y u w : & = * = = = * * ; * ; q u d ",
"u t ; * * * = * ; & ; * * = $ , t u t u u t u t , & = = = * ; * ; * * * * : w d ",
"u 4 * * * = * ; ; & ; & * & ; * 6 u t t t t u 7 & ; * * ; & ; & * ; * * = & 3 f ",
"w * * ; ; * ; * & ; & ; ; ; & * ; t u u t u w ; * * ; ; & ; & ; ; * * ; * = * i ",
"7 * ; * * * * * ; & ; * & ; ; & * 9 u u u u 9 & * ; * * ; & ; & ; * * ; = = $ q ",
"6 & * * ; ; * ; & ; & ; * & * ; & 6 u t t u 7 & ; * & ; & ; & ; * ; * * * ; $ 0 ",
"4 * * = & ; & ; & * ; & * ; * * ; ; ; ; ; ; ; = & * & * ; ; & ; * * ; * * ; $ 9 ",
"6 $ ; * ; & ; & * ; * * * ; * = & * & & & ; * * * = ; * & * ; & ; * * ; * = $ 0 ",
"6 $ * ; & ; * * ; * ; * * * * ; * ; & ; * ; * = ; ; & & & ; & * * ; * ; ; = $ 0 ",
"0 & ; & ; & ; ; * & ; * * ; * * ; & ; & ; & * ; * * * ; * & ; * * ; * * * ; $ t ",
"r , * * = * * * ; & * ; ; ; ; * & * ; ; ; * * * * ; ; ; ; ; & * * * ; * = = : d ",
"u q * = * = ; = ; * * * o X @ * * ; $ X O $ ; * * @ X O & * & ; * = * ; = & 9 d ",
"r u 7 * = * ; * & & ; $ l A l * = $ 7 N B 6 & * * l Z l $ ; * * = = = * & 7 t d ",
"u r u 9 ; $ * * * ; ; o H  .~ * ; O M  . .n O ; ; )  .D o ; & ; * * * = 7 u y p ",
"u t y u w 3 = = * * ; @ k  .{ 0 $ $ P  . .L + $ q }  .d @ ; * * * = 4 w u u t d ",
"t u y t u u t w 1 * = $ 4 ]  .c X , _ }  .) , X b  .' 1 & = = , w t u u y u t d ",
"u t t u t t u u , * = = & R  .F   p  .E Q  .u . H  .Y $ * = * , t u t t u u t d ",
"u u t t u t u u ; * * ; O A  .E X N  .S D  .M o Q  .C X : * * ; t u t u y u t d ",
"u t t u r r u r ; * * ; @ j  .[ , I  .k z  .L 1 {  .d @ ; * * ; t t u t u t t d ",
"t t u t t u u u ; * * = $ 3 ]  .z )  .5 9  .~ x  .' < $ * ; * , u u u u t t t d ",
"t u t u u w 7 4 ; * ; * * $ T  .K { ! * * / [ J  .U # ; * ; * ; 4 6 w u u t t p ",
"u t u t 4 * * * * * * ; ; X Z  ._  .H @ @ J  ._  .C O : * * = * & & = 3 t u t d ",
"t u w , $ = * ; ; * * * ; @ f  . . .x @ @ v  . . .p @ ; * * = * * ; * $ , w t d ",
"u t , * * = * * * * ; * * * 1 ) } ' 6 * $ 9 ' } / < * * * = * = = * * ; & , w f ",
"u 5 & * * ; ; * * = * ; ; ; * , 3 1 * * * = < 3 , * ; ; & ; * ; * ; ; * * * 4 f ",
"w = = = * * ; * * ; * * & * * * $ & ; * = * $ $ & & * * * & ; * & ; * * = * = i ",
"9 * * ; ; ; * = ; * * * ; * ; * & = = * * ; = ; ; & ; * ; * ; & * * ; * = * $ w ",
"4 * * * * * ; * * & ; * & * * ; = * * ; & ; * * & ; & & & * & ; ; * * ; * = $ 0 ",
"4 * ; * * ; * = & ; ; * * ; * * & ; * * * * $ ; * ; * ; & ; ; & * ; ; * = * $ 9 ",
"5 * * ; * * ; * ; * & & ; & * ; * ; ; ; ; ; ; $ ; & & ; * * & ; * ; * = * ; $ 0 ",
"6 * * = * ; * * ; * * ; & & * ; & 7 u t t u 7 & & * * = ; * * ; * * ; * * ; $ 0 ",
"9 * * = * ; ; * * ; * ; = ; * * * w u u u u w = = = * = * * ; * * ; ; * = = & t ",
"t , * ; * * * ; * ; * * * * ; * , u t t y t u , * * * : * ; * ; * ; * * = * = d ",
"u 9 * * ; * = * ; * * ; * ; * * q u t u u t u q * & ; & ; * = * ; * * ; * & 9 d ",
"t r 5 * = = = = ; * * = ; * * 7 y t t t t u t u 9 & = = * ; = = * * = * * 5 t d ",
"u u u 5 * * * = = = = = * * 9 u t t u u r u t t r 9 * = = * * ; * ; * * 6 u t d ",
"t t t t 0 , * & $ $ & * , q t t t t t t r u t t t t q , * & $ $ * * 1 0 u t e d ",
"d d a d h d p e q q e p d d d d d d d d d d d d a d d g p e q q e u d f d d d k "
};
